G04*
G04 #@! TF.GenerationSoftware,Altium Limited,Altium Designer,25.2.1 (25)*
G04*
G04 Layer_Physical_Order=1*
G04 Layer_Color=255*
%FSLAX44Y44*%
%MOMM*%
G71*
G04*
G04 #@! TF.SameCoordinates,B8EFBEB0-C926-48BE-8793-122A16FBB591*
G04*
G04*
G04 #@! TF.FilePolarity,Positive*
G04*
G01*
G75*
%ADD15R,1.4500X1.2000*%
%ADD16R,0.9500X1.4000*%
%ADD17R,1.4000X0.9500*%
%ADD18R,1.4562X1.2546*%
%ADD19R,1.4986X0.8890*%
%ADD20R,0.8890X1.4986*%
%ADD21R,0.8890X0.8890*%
%ADD22R,1.0500X1.4000*%
%ADD23R,1.1546X1.3621*%
%ADD24R,0.8081X1.2621*%
%ADD25R,1.5562X1.4546*%
%ADD26R,0.8500X1.3500*%
%ADD27R,1.2621X0.8081*%
G04:AMPARAMS|DCode=28|XSize=0.6mm|YSize=0.24mm|CornerRadius=0.0504mm|HoleSize=0mm|Usage=FLASHONLY|Rotation=0.000|XOffset=0mm|YOffset=0mm|HoleType=Round|Shape=RoundedRectangle|*
%AMROUNDEDRECTD28*
21,1,0.6000,0.1392,0,0,0.0*
21,1,0.4992,0.2400,0,0,0.0*
1,1,0.1008,0.2496,-0.0696*
1,1,0.1008,-0.2496,-0.0696*
1,1,0.1008,-0.2496,0.0696*
1,1,0.1008,0.2496,0.0696*
%
%ADD28ROUNDEDRECTD28*%
%ADD29R,1.4500X1.1500*%
%ADD30O,0.3000X1.7000*%
%ADD31R,0.9500X1.4500*%
%ADD32R,1.1500X1.4500*%
%ADD33R,1.3549X1.5562*%
%ADD37C,1.4850*%
%ADD42C,1.5500*%
%ADD43R,1.5500X1.5500*%
%ADD46C,2.2098*%
%ADD47R,2.2098X2.2098*%
%ADD48R,1.5500X1.5500*%
%ADD51C,0.5000*%
%ADD52C,0.2540*%
%ADD53C,1.5240*%
%ADD54C,1.6000*%
G04:AMPARAMS|DCode=55|XSize=1.6mm|YSize=1.6mm|CornerRadius=0.4mm|HoleSize=0mm|Usage=FLASHONLY|Rotation=270.000|XOffset=0mm|YOffset=0mm|HoleType=Round|Shape=RoundedRectangle|*
%AMROUNDEDRECTD55*
21,1,1.6000,0.8000,0,0,270.0*
21,1,0.8000,1.6000,0,0,270.0*
1,1,0.8000,-0.4000,-0.4000*
1,1,0.8000,-0.4000,0.4000*
1,1,0.8000,0.4000,0.4000*
1,1,0.8000,0.4000,-0.4000*
%
%ADD55ROUNDEDRECTD55*%
%ADD56C,1.2700*%
%ADD57C,0.8890*%
G36*
X501710Y40070D02*
X501710Y35570D01*
X501710Y35470D01*
X501786Y35287D01*
X501927Y35146D01*
X502110Y35070D01*
X502210Y35070D01*
D01*
X503710Y35070D01*
X503810Y35070D01*
X503993Y35146D01*
X504134Y35287D01*
X504210Y35470D01*
X504210Y35570D01*
Y35570D01*
Y40070D01*
X506710D01*
Y35570D01*
X506710Y35470D01*
X506786Y35287D01*
X506927Y35146D01*
X507110Y35070D01*
X507210Y35070D01*
X507210D01*
X508710Y35070D01*
X508809Y35070D01*
X508993Y35146D01*
X509134Y35287D01*
X509210Y35470D01*
X509210Y35570D01*
X509210Y35570D01*
Y40070D01*
X513210D01*
X513309Y40070D01*
X513493Y40146D01*
X513634Y40287D01*
X513710Y40470D01*
X513710Y40570D01*
X513710D01*
X513710Y63570D01*
Y63669D01*
X513634Y63853D01*
X513493Y63994D01*
X513309Y64070D01*
X513210D01*
Y64070D01*
X509210D01*
X509210Y68570D01*
Y68669D01*
X509134Y68853D01*
X508993Y68994D01*
X508809Y69070D01*
X508710D01*
X508710Y69070D01*
X507210D01*
X507110Y69070D01*
X506927Y68994D01*
X506786Y68853D01*
X506710Y68670D01*
X506710Y68570D01*
D01*
X506710Y64070D01*
X504210D01*
X504210Y68570D01*
Y68669D01*
X504134Y68853D01*
X503993Y68994D01*
X503809Y69070D01*
X503710D01*
Y69070D01*
X502210D01*
X502110Y69070D01*
X501927Y68994D01*
X501786Y68853D01*
X501710Y68670D01*
X501710Y68570D01*
D01*
X501710Y64070D01*
X497710Y64070D01*
X497611Y64070D01*
X497427Y63994D01*
X497286Y63853D01*
X497210Y63669D01*
X497210Y63570D01*
Y63570D01*
Y40570D01*
X497210Y40470D01*
X497286Y40287D01*
X497427Y40146D01*
X497611Y40070D01*
X497710Y40070D01*
D01*
D01*
X501710D01*
D02*
G37*
D15*
X478790Y190820D02*
D03*
Y210820D02*
D03*
X443230Y141130D02*
D03*
Y161130D02*
D03*
D16*
X525780Y200660D02*
D03*
X507280D02*
D03*
Y175260D02*
D03*
X525780D02*
D03*
X83100Y307340D02*
D03*
X101600D02*
D03*
D17*
X547370Y132990D02*
D03*
Y151490D02*
D03*
X511810Y224430D02*
D03*
Y242930D02*
D03*
X228600Y30840D02*
D03*
Y12340D02*
D03*
X142240Y354690D02*
D03*
Y336190D02*
D03*
X467360Y51710D02*
D03*
Y70210D02*
D03*
D18*
X520700Y133982D02*
D03*
Y150498D02*
D03*
X440690Y53340D02*
D03*
Y69856D02*
D03*
D19*
X177800Y287020D02*
D03*
Y274320D02*
D03*
Y261620D02*
D03*
Y248920D02*
D03*
Y236220D02*
D03*
Y223520D02*
D03*
Y210820D02*
D03*
Y198120D02*
D03*
Y185420D02*
D03*
Y172720D02*
D03*
Y160020D02*
D03*
Y147320D02*
D03*
Y134620D02*
D03*
Y121920D02*
D03*
X352800D02*
D03*
Y134620D02*
D03*
Y147320D02*
D03*
Y160020D02*
D03*
Y172720D02*
D03*
Y185420D02*
D03*
Y198120D02*
D03*
Y210820D02*
D03*
Y223520D02*
D03*
Y236220D02*
D03*
Y248920D02*
D03*
Y261620D02*
D03*
Y274320D02*
D03*
Y287020D02*
D03*
D20*
X208150Y109420D02*
D03*
X220850D02*
D03*
X233550D02*
D03*
X246250D02*
D03*
X258950D02*
D03*
X271650D02*
D03*
X284350D02*
D03*
X297050D02*
D03*
X309750D02*
D03*
X322450D02*
D03*
D21*
X236300Y195820D02*
D03*
Y223820D02*
D03*
Y209820D02*
D03*
X264300Y195820D02*
D03*
X250300D02*
D03*
X264300Y209820D02*
D03*
Y223820D02*
D03*
X250300D02*
D03*
Y209820D02*
D03*
D22*
X474980Y104140D02*
D03*
X455980D02*
D03*
D23*
X515884Y13970D02*
D03*
X533400D02*
D03*
D24*
X470770Y130810D02*
D03*
X486810D02*
D03*
D25*
X543560Y82918D02*
D03*
Y64402D02*
D03*
X114300Y356336D02*
D03*
Y337820D02*
D03*
D26*
X433710Y30480D02*
D03*
X450210D02*
D03*
D27*
X469900Y29610D02*
D03*
Y13570D02*
D03*
D28*
X519460Y62070D02*
D03*
Y57070D02*
D03*
Y52070D02*
D03*
Y47070D02*
D03*
Y42070D02*
D03*
X491460D02*
D03*
Y47070D02*
D03*
Y52070D02*
D03*
Y57070D02*
D03*
Y62070D02*
D03*
D29*
X421640Y302120D02*
D03*
Y284620D02*
D03*
X443230Y302260D02*
D03*
Y284760D02*
D03*
D30*
X421800Y195400D02*
D03*
X426800D02*
D03*
X431800D02*
D03*
X436800D02*
D03*
X441800D02*
D03*
X421800Y236400D02*
D03*
X426800D02*
D03*
X431800D02*
D03*
X436800D02*
D03*
X441800D02*
D03*
D31*
X395830Y274320D02*
D03*
X376330D02*
D03*
X395830Y204470D02*
D03*
X376330D02*
D03*
X395830Y184150D02*
D03*
X376330D02*
D03*
X395830Y163830D02*
D03*
X376330D02*
D03*
D32*
X359550Y45720D02*
D03*
X377050D02*
D03*
X359410Y74930D02*
D03*
X376910D02*
D03*
D33*
X226464Y53340D02*
D03*
X245977D02*
D03*
X246380Y81280D02*
D03*
X226867D02*
D03*
X276457Y17780D02*
D03*
X256943D02*
D03*
X127403Y297180D02*
D03*
X146917D02*
D03*
D37*
X505460Y52070D02*
D03*
D42*
X386080Y327660D02*
D03*
X411480D02*
D03*
X334010Y22860D02*
D03*
Y48260D02*
D03*
D43*
X436880Y327660D02*
D03*
D46*
X100330Y186690D02*
D03*
X50330D02*
D03*
Y236690D02*
D03*
X100330Y44450D02*
D03*
X50330D02*
D03*
Y94450D02*
D03*
D47*
X100330Y236690D02*
D03*
Y94450D02*
D03*
D48*
X334010Y73660D02*
D03*
D51*
X511210Y52070D02*
D03*
X499710D02*
D03*
X505460Y42570D02*
D03*
Y61570D02*
D03*
D52*
X544068Y82918D02*
X557530Y96380D01*
X549620Y151490D02*
X557530Y143580D01*
Y96380D02*
Y143580D01*
X543560Y82918D02*
X544068D01*
X547370Y151490D02*
X549620D01*
X278997Y20320D02*
X300990D01*
X276457Y17780D02*
X278997Y20320D01*
X221383Y58420D02*
X226464Y53340D01*
X194310Y58420D02*
X221383D01*
X368300Y22860D02*
X379730Y11430D01*
X367030Y22860D02*
X368300D01*
X367030D02*
X383540D01*
X226464Y53340D02*
X228600Y51203D01*
Y30840D02*
Y51203D01*
X442012Y202400D02*
X458940D01*
X467360Y210820D02*
X478790D01*
X458940Y202400D02*
X467360Y210820D01*
X441800Y202188D02*
X442012Y202400D01*
X477540Y210820D02*
X497120D01*
X441800Y188400D02*
Y202188D01*
X497120Y210820D02*
X501550Y206390D01*
X503800D01*
X507280Y202910D01*
Y200660D02*
Y202910D01*
X478440Y190820D02*
X478790D01*
X473710Y186090D02*
X478440Y190820D01*
X473710Y160020D02*
Y186090D01*
X443230Y161130D02*
X444480D01*
X449210Y165860D01*
Y172350D01*
X457200Y180340D01*
X486410Y152400D02*
X486670D01*
X507280Y173010D01*
Y175260D01*
X461010Y147320D02*
X473710Y160020D01*
X525780Y175260D02*
Y200660D01*
Y212710D01*
X514060Y224430D02*
X525780Y212710D01*
X511810Y224430D02*
X514060D01*
X514076Y98410D02*
X517486Y101820D01*
Y107276D02*
X519430Y109220D01*
X517486Y101820D02*
Y107276D01*
X502082Y98410D02*
X514076D01*
X431800Y177800D02*
Y195400D01*
X393700Y139700D02*
X431800Y177800D01*
X393700Y90170D02*
Y139700D01*
X436800Y180283D02*
Y195400D01*
Y180283D02*
X443230Y173853D01*
Y161130D02*
Y173853D01*
X457200Y127000D02*
X461010Y130810D01*
X440690Y127000D02*
X457200D01*
X461010Y130810D02*
Y147320D01*
X470770Y128540D02*
Y130810D01*
X465729Y125769D02*
X467999D01*
X455980Y104140D02*
Y116020D01*
X467999Y125769D02*
X470770Y128540D01*
X455980Y116020D02*
X465729Y125769D01*
X411480Y97790D02*
X440690Y127000D01*
X429420Y141130D02*
X443230D01*
X411480Y123190D02*
X429420Y141130D01*
X541020Y227330D02*
X547370Y220980D01*
Y151490D02*
Y220980D01*
X514710Y227330D02*
X541020D01*
X511810Y224430D02*
X514710Y227330D01*
X352800Y287020D02*
X355848D01*
X204470D02*
X352800D01*
X508000Y132990D02*
X547370D01*
X546378Y150498D02*
X547370Y151490D01*
X520700Y150498D02*
X546378D01*
X488693Y132693D02*
Y139443D01*
X499748Y150498D01*
X520700D01*
X486810Y130810D02*
X488693Y132693D01*
X472170Y13570D02*
X499980D01*
X442012Y241300D02*
X510180D01*
X441800Y236400D02*
Y241087D01*
X442012Y241300D01*
X510180D02*
X511810Y242930D01*
X527562D01*
X533552Y248920D02*
X535940D01*
X527562Y242930D02*
X533552Y248920D01*
X508000Y104328D02*
Y132990D01*
X436800Y236400D02*
X441800D01*
X431800D02*
X436800D01*
X504788Y29808D02*
X524510D01*
X502920Y27940D02*
X504788Y29808D01*
X502920Y19050D02*
Y27940D01*
Y19050D02*
X503138Y18832D01*
Y16728D02*
Y18832D01*
X499980Y13570D02*
X503138Y16728D01*
X491460Y42070D02*
X492040D01*
X492110Y42000D01*
Y23510D02*
X492760Y22860D01*
X492110Y23510D02*
Y42000D01*
X474941Y18611D02*
X485920Y29590D01*
Y44027D01*
X472170Y13570D02*
X474941Y16341D01*
Y18611D01*
X531044Y51886D02*
X537049Y57891D01*
Y58399D02*
X540766Y62116D01*
X526228Y47070D02*
X531044Y51886D01*
X543560Y39370D01*
Y24130D02*
Y39370D01*
X533400Y13970D02*
X543560Y24130D01*
X527722Y33020D02*
X529590D01*
X524510Y29808D02*
X527722Y33020D01*
X524510Y29808D02*
Y37020D01*
X519460Y42070D02*
X524510Y37020D01*
X515884Y15007D02*
X520388Y19511D01*
X521425D02*
X524510Y22596D01*
Y29808D01*
X515884Y13970D02*
Y15007D01*
X520388Y19511D02*
X521425D01*
X519460Y47070D02*
X526228D01*
X523240Y90170D02*
X530492Y82918D01*
X543560D01*
X484490Y85090D02*
X490220D01*
X469610Y70210D02*
X484490Y85090D01*
X467360Y70210D02*
X469610D01*
X537049Y57891D02*
Y58399D01*
X541020Y61862D02*
X543560Y64402D01*
X355848Y198120D02*
X359658Y201930D01*
X373790D02*
X376330Y204470D01*
X359658Y201930D02*
X373790D01*
X409376Y194964D02*
Y201712D01*
X410864Y203200D01*
X420876D01*
X395830Y184150D02*
Y185750D01*
X399310Y189230D01*
X406182D01*
X407670Y190718D01*
Y193258D01*
X409376Y194964D01*
X421800Y195400D02*
Y202276D01*
X420876Y203200D02*
X421800Y202276D01*
X399310Y190130D02*
X399310D01*
X395830Y184150D02*
Y186650D01*
X370765Y184150D02*
X376330D01*
X365200Y178585D02*
X370765Y184150D01*
X354070D02*
X359635D01*
X365200Y178585D01*
X359658Y168910D02*
X372850D01*
X376330Y163830D02*
Y165430D01*
X372850Y168910D02*
X376330Y165430D01*
X355848Y172720D02*
X359658Y168910D01*
X352800Y172720D02*
X355848D01*
X438062Y317588D02*
X443230Y312420D01*
X438062Y317588D02*
Y326478D01*
X436880Y327660D02*
X438062Y326478D01*
X443230Y302260D02*
Y312420D01*
X420140Y302120D02*
X421640D01*
X411480Y310780D02*
X420140Y302120D01*
X411480Y310780D02*
Y327660D01*
X426712Y182872D02*
Y195312D01*
X399310Y169810D02*
X413650D01*
X426712Y182872D01*
X441312Y51710D02*
X467360D01*
X478170D02*
X488460Y62000D01*
X467360Y51710D02*
X478170D01*
X438150Y104140D02*
X455980D01*
X176530Y262890D02*
X177800Y261620D01*
X116840Y262890D02*
X176530D01*
X138430Y274320D02*
X158750D01*
X395830Y166330D02*
X399310Y169810D01*
X520700Y133982D02*
X521692Y132990D01*
X502082Y98410D02*
X508000Y104328D01*
X474980Y102390D02*
Y104140D01*
Y102390D02*
X478960Y98410D01*
X502082D01*
X527050Y73442D01*
X519460Y52070D02*
Y57070D01*
X521610Y56720D02*
X527050Y62160D01*
Y73442D01*
X486340Y52000D02*
X489730D01*
X472478Y38138D02*
X486340Y52000D01*
X472478Y32381D02*
Y38138D01*
X469630Y29610D02*
X469707D01*
X472478Y32381D01*
X488963Y47070D02*
X491460D01*
X485920Y44027D02*
X488963Y47070D01*
X469900Y13570D02*
X472170D01*
X468760Y30480D02*
X469630Y29610D01*
X450210Y30480D02*
X468760D01*
X491390Y62000D02*
X491460Y62070D01*
X488460Y62000D02*
X491390D01*
X439682Y53340D02*
X441312Y51710D01*
X411480Y46990D02*
X422510Y35960D01*
X430730D01*
X433710Y32980D01*
Y30480D02*
Y32980D01*
X433332Y46990D02*
X439682Y53340D01*
X411480Y46990D02*
X433332D01*
X467006Y69856D02*
X467360Y70210D01*
X440690Y69856D02*
X467006D01*
X438156Y72390D02*
X440690Y69856D01*
X411480Y72390D02*
X438156D01*
X355848Y287020D02*
X386080Y317252D01*
Y327660D01*
X352800Y236220D02*
X381000D01*
X352800Y248920D02*
X382270D01*
X436880Y257810D02*
X443230Y264160D01*
Y284760D01*
X421640Y265430D02*
Y284620D01*
X352800Y105150D02*
Y121920D01*
X324177Y99387D02*
X347037D01*
X352800Y105150D01*
X262448Y37658D02*
X324177Y99387D01*
X262448Y23284D02*
Y37658D01*
X256943Y17780D02*
X262448Y23284D01*
X383540Y22860D02*
X393700Y33020D01*
Y90170D01*
X334010Y22860D02*
X367030D01*
X393700Y90170D02*
X411480Y72390D01*
X426712Y195312D02*
X426800Y195400D01*
X395830Y163830D02*
Y166330D01*
X352800Y185420D02*
X354070Y184150D01*
X408563Y210450D02*
X426712Y228599D01*
Y236312D01*
X426800Y236400D01*
X399310Y210450D02*
X408563D01*
X352800Y198120D02*
X355848D01*
X395830Y204470D02*
Y206970D01*
X399310Y210450D01*
X352800Y274320D02*
X376330D01*
X395830Y271820D02*
Y274320D01*
Y271820D02*
X399310Y268340D01*
X401810D01*
X421800Y248350D01*
Y236400D02*
Y248350D01*
X352800Y160020D02*
X355848D01*
X388620Y127248D01*
Y58790D02*
Y127248D01*
X377050Y47220D02*
X388620Y58790D01*
X377050Y45720D02*
Y47220D01*
X352800Y147320D02*
X355848D01*
X376910Y126258D01*
Y74930D02*
Y126258D01*
X357010Y48260D02*
X359550Y45720D01*
X334010Y48260D02*
X357010D01*
X358140Y73660D02*
X359410Y74930D01*
X334010Y73660D02*
X358140D01*
X322450Y106372D02*
Y109420D01*
X269418Y53340D02*
X322450Y106372D01*
X245977Y53340D02*
X269418D01*
X309750Y106372D02*
Y109420D01*
X284658Y81280D02*
X309750Y106372D01*
X246380Y81280D02*
X284658D01*
X128524Y324104D02*
Y324724D01*
Y324104D02*
X145345Y307283D01*
Y298752D02*
Y307283D01*
Y298752D02*
X146917Y297180D01*
X114808Y337820D02*
X128524Y324104D01*
X146917Y286154D02*
Y297180D01*
X114300Y337820D02*
X114808D01*
X128524Y324724D02*
X139990Y336190D01*
X142240D01*
X113030Y249390D02*
Y266700D01*
X116840Y262890D01*
X100330Y236690D02*
X113030Y249390D01*
Y266700D02*
Y298450D01*
X126133D02*
X127403Y297180D01*
X113030Y298450D02*
X126133D01*
X109870Y301610D02*
X113030Y298450D01*
X105080Y301610D02*
X109870D01*
X101600Y305090D02*
X105080Y301610D01*
X101600Y305090D02*
Y307340D01*
X100330Y186690D02*
Y236690D01*
X208150Y94110D02*
Y109420D01*
Y94110D02*
X214469Y87791D01*
X221362D01*
X226867Y82287D01*
Y81280D02*
Y82287D01*
X226464Y80877D02*
X226867Y81280D01*
X226464Y53340D02*
Y80877D01*
X255674Y19050D02*
X256943Y17780D01*
X242570Y19050D02*
X255674D01*
X239340Y15820D02*
X242570Y19050D01*
X232080Y15820D02*
X239340D01*
X228600Y12340D02*
X232080Y15820D01*
X228240Y12700D02*
X228600Y12340D01*
X190500Y12700D02*
X228240D01*
X158750Y44450D02*
X190500Y12700D01*
X100330Y44450D02*
X158750D01*
X100330D02*
Y94450D01*
X50330Y44450D02*
Y94450D01*
Y186690D01*
Y236690D01*
Y282740D01*
X74930Y307340D02*
X83100D01*
X50330Y282740D02*
X74930Y307340D01*
X81280Y334010D02*
X103606Y356336D01*
X81280Y309160D02*
X83100Y307340D01*
X81280Y309160D02*
Y334010D01*
X103606Y356336D02*
X114300D01*
X115946Y354690D01*
X142240D01*
X153092D02*
X165100Y342682D01*
X142240Y354690D02*
X153092D01*
X165100Y302260D02*
Y342682D01*
Y302260D02*
X171577Y295783D01*
Y290195D02*
Y295783D01*
Y290195D02*
X174752Y287020D01*
X177800D01*
X146917Y286154D02*
X158750Y274320D01*
X177800D01*
X250300Y195820D02*
Y209820D01*
X264300Y195820D02*
Y209820D01*
X250300D02*
X264300D01*
Y223820D01*
X250300D02*
X264300D01*
X236300D02*
X250300D01*
X236300Y195820D02*
Y209820D01*
Y223820D01*
X204470Y287020D02*
X236300Y255190D01*
Y223820D02*
Y255190D01*
X177800Y287020D02*
X204470D01*
X208150Y109420D02*
Y167670D01*
X236300Y195820D01*
D53*
X10160Y372110D02*
D03*
X551180Y10160D02*
D03*
X10160D02*
D03*
X551180Y372110D02*
D03*
D54*
X411480Y97790D02*
D03*
Y72390D02*
D03*
Y46990D02*
D03*
D55*
Y123190D02*
D03*
D56*
X300990Y20320D02*
D03*
X457200Y180340D02*
D03*
X486410Y152400D02*
D03*
X519430Y109220D02*
D03*
X535940Y248920D02*
D03*
X492760Y22860D02*
D03*
X494030Y86360D02*
D03*
X523240Y92710D02*
D03*
X533400Y34290D02*
D03*
X138430Y274320D02*
D03*
X438468Y104769D02*
D03*
X436880Y257810D02*
D03*
X421640Y265430D02*
D03*
X382270Y232410D02*
D03*
Y248920D02*
D03*
D57*
X194310Y58420D02*
D03*
X379730Y11430D02*
D03*
M02*
