G04*
G04 #@! TF.GenerationSoftware,Altium Limited,Altium Designer,25.2.1 (25)*
G04*
G04 Layer_Color=65535*
%FSLAX44Y44*%
%MOMM*%
G71*
G04*
G04 #@! TF.SameCoordinates,B8EFBEB0-C926-48BE-8793-122A16FBB591*
G04*
G04*
G04 #@! TF.FilePolarity,Positive*
G04*
G01*
G75*
%ADD10C,0.2500*%
%ADD11C,0.1524*%
%ADD12C,0.2000*%
%ADD13C,0.1778*%
%ADD14C,0.0762*%
D10*
X483960Y62070D02*
G03*
X483960Y62070I-1250J0D01*
G01*
X416050Y195400D02*
G03*
X416050Y195400I-1250J0D01*
G01*
X457230Y327660D02*
G03*
X457230Y327660I-1250J0D01*
G01*
X412730Y141890D02*
G03*
X412730Y141890I-1250J0D01*
G01*
X335260Y92760D02*
G03*
X335260Y92760I-1250J0D01*
G01*
D11*
X136544Y211690D02*
G03*
X136544Y211690I-61214J0D01*
G01*
Y69450D02*
G03*
X136544Y69450I-61214J0D01*
G01*
X173987Y363198D02*
X356613D01*
X173987Y294792D02*
Y363198D01*
Y105642D02*
X200378D01*
X356613D02*
Y114148D01*
X173987Y105642D02*
Y114148D01*
X330222Y105642D02*
X356613D01*
Y294792D02*
Y363198D01*
X93980Y280524D02*
X106680D01*
X100330Y274174D02*
Y286874D01*
X93980Y138284D02*
X106680D01*
X100330Y131934D02*
Y144634D01*
D12*
X472540Y199820D02*
Y201820D01*
X485040Y199820D02*
Y201820D01*
X515780Y193410D02*
X517280D01*
X515780Y207910D02*
X517280D01*
X436980Y150130D02*
Y152130D01*
X449480Y150130D02*
Y152130D01*
X540120Y141490D02*
Y142990D01*
X554620Y141490D02*
Y142990D01*
X531981Y127709D02*
Y156771D01*
X509419Y127709D02*
Y156771D01*
X515780Y182510D02*
X517280D01*
X515780Y168010D02*
X517280D01*
X504560Y232930D02*
Y234430D01*
X519060Y232930D02*
Y234430D01*
X464980Y98140D02*
X465980D01*
X464980Y110140D02*
X465980D01*
X510111Y3159D02*
X539173D01*
X510111Y24781D02*
X539173D01*
X466729Y120060D02*
X490851D01*
X466729Y141560D02*
X490851D01*
X531779Y57129D02*
Y90191D01*
X555341Y57129D02*
Y90191D01*
X451971Y47067D02*
Y76129D01*
X429409Y47067D02*
Y76129D01*
X440960Y36230D02*
X442960D01*
X440960Y24730D02*
X442960D01*
X459150Y9529D02*
Y33651D01*
X480650Y9529D02*
Y33651D01*
X517460Y36570D02*
X520960D01*
X489960D02*
X493460D01*
X517460Y67570D02*
X520960D01*
X489960D02*
X493460D01*
X416300Y207900D02*
X447300D01*
X416300Y223900D02*
X447300D01*
X416300Y207900D02*
Y223900D01*
X447300Y207900D02*
Y223900D01*
X384830Y267320D02*
X387330D01*
X384830Y281320D02*
X387330D01*
X451080Y313960D02*
Y341360D01*
X371880D02*
X451080D01*
X371880Y313960D02*
Y341360D01*
Y313960D02*
X451080D01*
X398030Y32790D02*
Y137390D01*
X424930D01*
Y32790D02*
Y137390D01*
X398030Y32790D02*
X424930D01*
X320310Y87860D02*
X347710D01*
X320310Y8660D02*
Y87860D01*
Y8660D02*
X347710D01*
Y87860D01*
X219689Y41559D02*
X252751D01*
X219689Y65121D02*
X252751D01*
X220093Y93061D02*
X253155D01*
X220093Y69499D02*
X253155D01*
X250169Y29561D02*
X283231D01*
X250169Y5999D02*
X283231D01*
X235850Y20840D02*
Y22340D01*
X221350Y20840D02*
Y22340D01*
X102519Y330547D02*
Y363609D01*
X126081Y330547D02*
Y363609D01*
X149490Y344690D02*
Y346190D01*
X134990Y344690D02*
Y346190D01*
X120629Y285399D02*
X153691D01*
X120629Y308961D02*
X153691D01*
X91600Y314590D02*
X93100D01*
X91600Y300090D02*
X93100D01*
X384830Y197470D02*
X387330D01*
X384830Y211470D02*
X387330D01*
X384830Y177150D02*
X387330D01*
X384830Y191150D02*
X387330D01*
X384830Y156830D02*
X387330D01*
X384830Y170830D02*
X387330D01*
X460110Y60210D02*
Y61710D01*
X474610Y60210D02*
Y61710D01*
D13*
X304038Y67818D02*
Y75436D01*
X307847D01*
X309116Y74166D01*
Y71627D01*
X307847Y70357D01*
X304038D01*
X306577D02*
X309116Y67818D01*
X311656Y75436D02*
X316734Y67818D01*
Y75436D02*
X311656Y67818D01*
X304038Y51305D02*
X309116D01*
X306577D01*
Y43688D01*
X311656Y51305D02*
X316734Y43688D01*
Y51305D02*
X311656Y43688D01*
X428498Y344678D02*
Y352295D01*
X432307D01*
X433576Y351026D01*
Y348487D01*
X432307Y347217D01*
X428498D01*
X431037D02*
X433576Y344678D01*
X436115Y352295D02*
X441194Y344678D01*
Y352295D02*
X436115Y344678D01*
X443733Y352295D02*
Y344678D01*
X447542D01*
X448811Y345948D01*
Y351026D01*
X447542Y352295D01*
X443733D01*
X451351Y351026D02*
X452620Y352295D01*
X455159D01*
X456429Y351026D01*
Y345948D01*
X455159Y344678D01*
X452620D01*
X451351Y345948D01*
Y351026D01*
X395478Y352295D02*
X400556D01*
X398017D01*
Y344678D01*
X403096Y352295D02*
X408174Y344678D01*
Y352295D02*
X403096Y344678D01*
X410713Y352295D02*
Y344678D01*
X414522D01*
X415791Y345948D01*
Y351026D01*
X414522Y352295D01*
X410713D01*
X418331Y351026D02*
X419600Y352295D01*
X422139D01*
X423409Y351026D01*
Y345948D01*
X422139Y344678D01*
X419600D01*
X418331Y345948D01*
Y351026D01*
X123696Y159256D02*
X118618D01*
Y151638D01*
X123696D01*
X118618Y155447D02*
X121157D01*
X126236Y151638D02*
Y159256D01*
X131314Y151638D01*
Y159256D01*
X122428Y14476D02*
Y6858D01*
X126237D01*
X127506Y8128D01*
Y9397D01*
X126237Y10667D01*
X122428D01*
X126237D01*
X127506Y11936D01*
Y13206D01*
X126237Y14476D01*
X122428D01*
X133854D02*
X131315D01*
X130045Y13206D01*
Y8128D01*
X131315Y6858D01*
X133854D01*
X135124Y8128D01*
Y13206D01*
X133854Y14476D01*
X141472D02*
X138933D01*
X137663Y13206D01*
Y8128D01*
X138933Y6858D01*
X141472D01*
X142741Y8128D01*
Y13206D01*
X141472Y14476D01*
X145281D02*
X150359D01*
X147820D01*
Y6858D01*
X469268Y224791D02*
Y232409D01*
X473077D01*
X474346Y231139D01*
Y228600D01*
X473077Y227330D01*
X469268D01*
X471807D02*
X474346Y224791D01*
X476886D02*
X479425D01*
X478155D01*
Y232409D01*
X476886Y231139D01*
X483234Y226061D02*
X484503Y224791D01*
X487042D01*
X488312Y226061D01*
Y231139D01*
X487042Y232409D01*
X484503D01*
X483234Y231139D01*
Y229870D01*
X484503Y228600D01*
X488312D01*
X427989Y144148D02*
X420371D01*
Y147957D01*
X421641Y149226D01*
X424180D01*
X425450Y147957D01*
Y144148D01*
Y146687D02*
X427989Y149226D01*
Y151766D02*
Y154305D01*
Y153035D01*
X420371D01*
X421641Y151766D01*
Y158114D02*
X420371Y159383D01*
Y161922D01*
X421641Y163192D01*
X422910D01*
X424180Y161922D01*
X425450Y163192D01*
X426719D01*
X427989Y161922D01*
Y159383D01*
X426719Y158114D01*
X425450D01*
X424180Y159383D01*
X422910Y158114D01*
X421641D01*
X424180Y159383D02*
Y161922D01*
X542289Y206374D02*
X543559Y207643D01*
Y210182D01*
X542289Y211452D01*
X537211D01*
X535941Y210182D01*
Y207643D01*
X537211Y206374D01*
X535941Y203834D02*
Y201295D01*
Y202565D01*
X543559D01*
X542289Y203834D01*
X535941Y192408D02*
Y197486D01*
X541020Y192408D01*
X542289D01*
X543559Y193678D01*
Y196217D01*
X542289Y197486D01*
X543559Y178434D02*
X544829Y179704D01*
Y182243D01*
X543559Y183512D01*
X538481D01*
X537211Y182243D01*
Y179704D01*
X538481Y178434D01*
X537211Y175895D02*
Y173356D01*
Y174625D01*
X544829D01*
X543559Y175895D01*
X537211Y169547D02*
Y167008D01*
Y168277D01*
X544829D01*
X543559Y169547D01*
X500382Y80009D02*
Y73661D01*
X501652Y72391D01*
X504191D01*
X505460Y73661D01*
Y80009D01*
X508000Y78739D02*
X509269Y80009D01*
X511808D01*
X513078Y78739D01*
Y77470D01*
X511808Y76200D01*
X510539D01*
X511808D01*
X513078Y74930D01*
Y73661D01*
X511808Y72391D01*
X509269D01*
X508000Y73661D01*
X459579Y228418D02*
X453231D01*
X451961Y227148D01*
Y224609D01*
X453231Y223340D01*
X459579D01*
X451961Y215722D02*
Y220800D01*
X457040Y215722D01*
X458309D01*
X459579Y216992D01*
Y219531D01*
X458309Y220800D01*
X175262Y100329D02*
Y93981D01*
X176531Y92711D01*
X179070D01*
X180340Y93981D01*
Y100329D01*
X182879Y92711D02*
X185418D01*
X184149D01*
Y100329D01*
X182879Y99059D01*
X69851Y283679D02*
X68582Y284949D01*
X66042D01*
X64773Y283679D01*
Y282410D01*
X66042Y281140D01*
X68582D01*
X69851Y279870D01*
Y278601D01*
X68582Y277331D01*
X66042D01*
X64773Y278601D01*
X72390Y284949D02*
Y277331D01*
X74930Y279870D01*
X77469Y277331D01*
Y284949D01*
X80008Y277331D02*
X82547D01*
X81278D01*
Y284949D01*
X80008Y283679D01*
X63502Y141439D02*
X62232Y142709D01*
X59693D01*
X58423Y141439D01*
Y140170D01*
X59693Y138900D01*
X62232D01*
X63502Y137630D01*
Y136361D01*
X62232Y135091D01*
X59693D01*
X58423Y136361D01*
X66041Y142709D02*
Y135091D01*
X68580Y137630D01*
X71119Y135091D01*
Y142709D01*
X78737Y135091D02*
X73658D01*
X78737Y140170D01*
Y141439D01*
X77467Y142709D01*
X74928D01*
X73658Y141439D01*
X495301Y140332D02*
X502919D01*
Y136523D01*
X501649Y135254D01*
X499110D01*
X497840Y136523D01*
Y140332D01*
Y137793D02*
X495301Y135254D01*
Y132714D02*
Y130175D01*
Y131445D01*
X502919D01*
X501649Y132714D01*
X502919Y121288D02*
X501649Y123827D01*
X499110Y126366D01*
X496571D01*
X495301Y125097D01*
Y122558D01*
X496571Y121288D01*
X497840D01*
X499110Y122558D01*
Y126366D01*
X199392Y69851D02*
Y77469D01*
X203201D01*
X204470Y76199D01*
Y73660D01*
X203201Y72390D01*
X199392D01*
X201931D02*
X204470Y69851D01*
X207010Y77469D02*
X212088D01*
Y76199D01*
X207010Y71121D01*
Y69851D01*
X408939Y288928D02*
X401321D01*
Y292737D01*
X402591Y294006D01*
X405130D01*
X406400Y292737D01*
Y288928D01*
Y291467D02*
X408939Y294006D01*
Y296546D02*
Y299085D01*
Y297815D01*
X401321D01*
X402591Y296546D01*
Y302894D02*
X401321Y304163D01*
Y306702D01*
X402591Y307972D01*
X407669D01*
X408939Y306702D01*
Y304163D01*
X407669Y302894D01*
X402591D01*
X370842Y284481D02*
Y292099D01*
X374651D01*
X375920Y290829D01*
Y288290D01*
X374651Y287020D01*
X370842D01*
X373381D02*
X375920Y284481D01*
X383538D02*
X378460D01*
X383538Y289560D01*
Y290829D01*
X382268Y292099D01*
X379729D01*
X378460Y290829D01*
X199392Y40641D02*
Y48259D01*
X203201D01*
X204470Y46989D01*
Y44450D01*
X203201Y43180D01*
X199392D01*
X201931D02*
X204470Y40641D01*
X207010Y46989D02*
X208279Y48259D01*
X210818D01*
X212088Y46989D01*
Y45720D01*
X210818Y44450D01*
X212088Y43180D01*
Y41911D01*
X210818Y40641D01*
X208279D01*
X207010Y41911D01*
Y43180D01*
X208279Y44450D01*
X207010Y45720D01*
Y46989D01*
X208279Y44450D02*
X210818D01*
X426719Y12068D02*
X419101D01*
Y15876D01*
X420371Y17146D01*
X422910D01*
X424179Y15876D01*
Y12068D01*
Y14607D02*
X426719Y17146D01*
Y19685D02*
Y22224D01*
Y20955D01*
X419101D01*
X420371Y19685D01*
X426719Y26033D02*
Y28572D01*
Y27303D01*
X419101D01*
X420371Y26033D01*
X274322Y34291D02*
Y41909D01*
X278131D01*
X279400Y40639D01*
Y38100D01*
X278131Y36830D01*
X274322D01*
X276861D02*
X279400Y34291D01*
X285748D02*
Y41909D01*
X281940Y38100D01*
X287018D01*
X484508Y105411D02*
Y113029D01*
X488317D01*
X489586Y111759D01*
Y109220D01*
X488317Y107950D01*
X484508D01*
X487047D02*
X489586Y105411D01*
X492126D02*
X494665D01*
X493395D01*
Y113029D01*
X492126Y111759D01*
X498474D02*
X499743Y113029D01*
X502282D01*
X503552Y111759D01*
Y110490D01*
X502282Y109220D01*
X501013D01*
X502282D01*
X503552Y107950D01*
Y106681D01*
X502282Y105411D01*
X499743D01*
X498474Y106681D01*
X382272Y215901D02*
Y223519D01*
X386081D01*
X387350Y222249D01*
Y219710D01*
X386081Y218440D01*
X382272D01*
X384811D02*
X387350Y215901D01*
X389890Y222249D02*
X391159Y223519D01*
X393698D01*
X394968Y222249D01*
Y220980D01*
X393698Y219710D01*
X392429D01*
X393698D01*
X394968Y218440D01*
Y217171D01*
X393698Y215901D01*
X391159D01*
X389890Y217171D01*
X381002Y144781D02*
Y152399D01*
X384811D01*
X386080Y151129D01*
Y148590D01*
X384811Y147320D01*
X381002D01*
X383541D02*
X386080Y144781D01*
X393698Y152399D02*
X391159Y151129D01*
X388620Y148590D01*
Y146051D01*
X389889Y144781D01*
X392428D01*
X393698Y146051D01*
Y147320D01*
X392428Y148590D01*
X388620D01*
X403861Y186688D02*
X411479D01*
Y182879D01*
X410209Y181610D01*
X407670D01*
X406400Y182879D01*
Y186688D01*
Y184149D02*
X403861Y181610D01*
X411479Y173992D02*
Y179070D01*
X407670D01*
X408940Y176531D01*
Y175262D01*
X407670Y173992D01*
X405131D01*
X403861Y175262D01*
Y177801D01*
X405131Y179070D01*
X356238Y87631D02*
Y95249D01*
X360047D01*
X361316Y93979D01*
Y91440D01*
X360047Y90170D01*
X356238D01*
X358777D02*
X361316Y87631D01*
X363856D02*
X366395D01*
X365125D01*
Y95249D01*
X363856Y93979D01*
X375282Y87631D02*
X370204D01*
X375282Y92710D01*
Y93979D01*
X374012Y95249D01*
X371473D01*
X370204Y93979D01*
X357508Y25401D02*
Y33019D01*
X361317D01*
X362586Y31749D01*
Y29210D01*
X361317Y27940D01*
X357508D01*
X360047D02*
X362586Y25401D01*
X365126D02*
X367665D01*
X366395D01*
Y33019D01*
X365126Y31749D01*
X375282Y25401D02*
Y33019D01*
X371474Y29210D01*
X376552D01*
X434978Y10161D02*
Y17779D01*
X438787D01*
X440056Y16509D01*
Y13970D01*
X438787Y12700D01*
X434978D01*
X437517D02*
X440056Y10161D01*
X442596D02*
X445135D01*
X443865D01*
Y17779D01*
X442596Y16509D01*
X454022Y17779D02*
X448944D01*
Y13970D01*
X451483Y15240D01*
X452752D01*
X454022Y13970D01*
Y11431D01*
X452752Y10161D01*
X450213D01*
X448944Y11431D01*
X454661Y304798D02*
X462279D01*
Y300989D01*
X461009Y299720D01*
X458470D01*
X457200Y300989D01*
Y304798D01*
Y302259D02*
X454661Y299720D01*
X455931Y297180D02*
X454661Y295911D01*
Y293372D01*
X455931Y292102D01*
X461009D01*
X462279Y293372D01*
Y295911D01*
X461009Y297180D01*
X459740D01*
X458470Y295911D01*
Y292102D01*
X547371Y38732D02*
X554989D01*
Y34923D01*
X553719Y33654D01*
X551180D01*
X549910Y34923D01*
Y38732D01*
Y36193D02*
X547371Y33654D01*
Y31114D02*
Y28575D01*
Y29845D01*
X554989D01*
X553719Y31114D01*
X554989Y24766D02*
Y19688D01*
X553719D01*
X548641Y24766D01*
X547371D01*
X116842Y313691D02*
Y321309D01*
X120650D01*
X121920Y320039D01*
Y317500D01*
X120650Y316230D01*
X116842D01*
X119381D02*
X121920Y313691D01*
X124459D02*
X126998D01*
X125729D01*
Y321309D01*
X124459Y320039D01*
X396242Y20321D02*
Y27939D01*
X400050D01*
X401320Y26669D01*
Y24130D01*
X400050Y22860D01*
X396242D01*
X403859Y20321D02*
X406398D01*
X405129D01*
Y27939D01*
X403859Y26669D01*
X356870Y13969D02*
X354331D01*
X355601D01*
Y7621D01*
X354331Y6351D01*
X353062D01*
X351792Y7621D01*
X359410Y12699D02*
X360679Y13969D01*
X363218D01*
X364488Y12699D01*
Y11430D01*
X363218Y10160D01*
X361949D01*
X363218D01*
X364488Y8890D01*
Y7621D01*
X363218Y6351D01*
X360679D01*
X359410Y7621D01*
X360681Y318770D02*
Y316231D01*
Y317501D01*
X367029D01*
X368299Y316231D01*
Y314962D01*
X367029Y313692D01*
X368299Y326388D02*
Y321310D01*
X363220Y326388D01*
X361951D01*
X360681Y325118D01*
Y322579D01*
X361951Y321310D01*
X113030Y377189D02*
X111760Y378459D01*
X109221D01*
X107952Y377189D01*
Y372111D01*
X109221Y370841D01*
X111760D01*
X113030Y372111D01*
X115569Y370841D02*
X118108D01*
X116839D01*
Y378459D01*
X115569Y377189D01*
X435610Y88899D02*
X434341Y90169D01*
X431802D01*
X430532Y88899D01*
Y83821D01*
X431802Y82551D01*
X434341D01*
X435610Y83821D01*
X438150Y90169D02*
X443228D01*
Y88899D01*
X438150Y83821D01*
Y82551D01*
X551180Y116841D02*
X552449Y115571D01*
X554988D01*
X556258Y116841D01*
Y121919D01*
X554988Y123189D01*
X552449D01*
X551180Y121919D01*
X548640D02*
X547371Y123189D01*
X544832D01*
X543562Y121919D01*
Y116841D01*
X544832Y115571D01*
X547371D01*
X548640Y116841D01*
Y118110D01*
X547371Y119380D01*
X543562D01*
X532130Y116841D02*
X533399Y115571D01*
X535938D01*
X537208Y116841D01*
Y121919D01*
X535938Y123189D01*
X533399D01*
X532130Y121919D01*
X529590Y116841D02*
X528321Y115571D01*
X525782D01*
X524512Y116841D01*
Y118110D01*
X525782Y119380D01*
X524512Y120650D01*
Y121919D01*
X525782Y123189D01*
X528321D01*
X529590Y121919D01*
Y120650D01*
X528321Y119380D01*
X529590Y118110D01*
Y116841D01*
X528321Y119380D02*
X525782D01*
X537846Y105409D02*
X536577Y106679D01*
X534038D01*
X532768Y105409D01*
Y100331D01*
X534038Y99061D01*
X536577D01*
X537846Y100331D01*
X540386Y99061D02*
X542925D01*
X541655D01*
Y106679D01*
X540386Y105409D01*
X546734D02*
X548003Y106679D01*
X550542D01*
X551812Y105409D01*
Y100331D01*
X550542Y99061D01*
X548003D01*
X546734Y100331D01*
Y105409D01*
X90170Y326389D02*
X88901Y327659D01*
X86362D01*
X85092Y326389D01*
Y321311D01*
X86362Y320041D01*
X88901D01*
X90170Y321311D01*
X96518Y320041D02*
Y327659D01*
X92710Y323850D01*
X97788D01*
X208280Y22859D02*
X207011Y24129D01*
X204472D01*
X203202Y22859D01*
Y17781D01*
X204472Y16511D01*
X207011D01*
X208280Y17781D01*
X215898Y24129D02*
X210820D01*
Y20320D01*
X213359Y21590D01*
X214628D01*
X215898Y20320D01*
Y17781D01*
X214628Y16511D01*
X212089D01*
X210820Y17781D01*
X461010Y87629D02*
X459741Y88899D01*
X457202D01*
X455932Y87629D01*
Y82551D01*
X457202Y81281D01*
X459741D01*
X461010Y82551D01*
X468628Y88899D02*
X466089Y87629D01*
X463550Y85090D01*
Y82551D01*
X464819Y81281D01*
X467358D01*
X468628Y82551D01*
Y83820D01*
X467358Y85090D01*
X463550D01*
X506730Y259079D02*
X505461Y260349D01*
X502922D01*
X501652Y259079D01*
Y254001D01*
X502922Y252731D01*
X505461D01*
X506730Y254001D01*
X509270Y259079D02*
X510539Y260349D01*
X513078D01*
X514348Y259079D01*
Y257810D01*
X513078Y256540D01*
X511809D01*
X513078D01*
X514348Y255270D01*
Y254001D01*
X513078Y252731D01*
X510539D01*
X509270Y254001D01*
X140970Y370479D02*
X139701Y371749D01*
X137162D01*
X135892Y370479D01*
Y365401D01*
X137162Y364131D01*
X139701D01*
X140970Y365401D01*
X148588Y364131D02*
X143510D01*
X148588Y369210D01*
Y370479D01*
X147318Y371749D01*
X144779D01*
X143510Y370479D01*
D14*
X160782Y291250D02*
X169246Y282786D01*
X160782D02*
X169246Y291250D01*
X160782Y287018D02*
X169246D01*
X165014Y282786D02*
Y291250D01*
M02*
