G04*
G04 #@! TF.GenerationSoftware,Altium Limited,Altium Designer,25.2.1 (25)*
G04*
G04 Layer_Physical_Order=4*
G04 Layer_Color=128*
%FSLAX44Y44*%
%MOMM*%
G71*
G04*
G04 #@! TF.SameCoordinates,F1A034DA-3AD2-4EF7-9FDB-99B10F8EE4D3*
G04*
G04*
G04 #@! TF.FilePolarity,Negative*
G04*
G01*
G75*
%ADD87C,1.0160*%
%ADD88C,2.4160*%
%ADD89C,2.6660*%
%ADD90C,2.1160*%
G04:AMPARAMS|DCode=91|XSize=2.624mm|YSize=2.624mm|CornerRadius=0mm|HoleSize=0mm|Usage=FLASHONLY|Rotation=0.000|XOffset=0mm|YOffset=0mm|HoleType=Round|Shape=Relief|Width=0.254mm|Gap=0.254mm|Entries=4|*
%AMTHD91*
7,0,0,2.6240,2.1160,0.2540,45*
%
%ADD91THD91*%
%ADD92C,2.2160*%
%ADD93C,1.2160*%
%ADD94C,2.1660*%
%ADD95C,4.0160*%
%ADD96C,1.3970*%
%ADD97C,1.7272*%
G04:AMPARAMS|DCode=98|XSize=2.2352mm|YSize=2.2352mm|CornerRadius=0mm|HoleSize=0mm|Usage=FLASHONLY|Rotation=0.000|XOffset=0mm|YOffset=0mm|HoleType=Round|Shape=Relief|Width=0.254mm|Gap=0.254mm|Entries=4|*
%AMTHD98*
7,0,0,2.2352,1.7272,0.2540,45*
%
%ADD98THD98*%
G04:AMPARAMS|DCode=99|XSize=1.905mm|YSize=1.905mm|CornerRadius=0mm|HoleSize=0mm|Usage=FLASHONLY|Rotation=0.000|XOffset=0mm|YOffset=0mm|HoleType=Round|Shape=Relief|Width=0.254mm|Gap=0.254mm|Entries=4|*
%AMTHD99*
7,0,0,1.9050,1.3970,0.2540,45*
%
%ADD99THD99*%
G04:AMPARAMS|DCode=100|XSize=2.724mm|YSize=2.724mm|CornerRadius=0mm|HoleSize=0mm|Usage=FLASHONLY|Rotation=0.000|XOffset=0mm|YOffset=0mm|HoleType=Round|Shape=Relief|Width=0.254mm|Gap=0.254mm|Entries=4|*
%AMTHD100*
7,0,0,2.7240,2.2160,0.2540,45*
%
%ADD100THD100*%
G04:AMPARAMS|DCode=101|XSize=2.924mm|YSize=2.924mm|CornerRadius=0mm|HoleSize=0mm|Usage=FLASHONLY|Rotation=0.000|XOffset=0mm|YOffset=0mm|HoleType=Round|Shape=Relief|Width=0.254mm|Gap=0.254mm|Entries=4|*
%AMTHD101*
7,0,0,2.9240,2.4160,0.2540,45*
%
%ADD101THD101*%
G04:AMPARAMS|DCode=102|XSize=3.174mm|YSize=3.174mm|CornerRadius=0mm|HoleSize=0mm|Usage=FLASHONLY|Rotation=0.000|XOffset=0mm|YOffset=0mm|HoleType=Round|Shape=Relief|Width=0.254mm|Gap=0.254mm|Entries=4|*
%AMTHD102*
7,0,0,3.1740,2.6660,0.2540,45*
%
%ADD102THD102*%
G04:AMPARAMS|DCode=103|XSize=2.674mm|YSize=2.674mm|CornerRadius=0mm|HoleSize=0mm|Usage=FLASHONLY|Rotation=0.000|XOffset=0mm|YOffset=0mm|HoleType=Round|Shape=Relief|Width=0.254mm|Gap=0.254mm|Entries=4|*
%AMTHD103*
7,0,0,2.6740,2.1660,0.2540,45*
%
%ADD103THD103*%
D87*
X246380Y259080D02*
X2263140D01*
Y1765300D01*
X246380D02*
X2263140D01*
X246380Y259080D02*
Y1765300D01*
D88*
X1663700Y1112520D02*
D03*
X1788700D02*
D03*
X1490980D02*
D03*
X1615980D02*
D03*
X1722120Y1219200D02*
D03*
Y1344200D02*
D03*
X1435640Y1115060D02*
D03*
X1310640D02*
D03*
D89*
X1485140Y1620520D02*
D03*
D90*
X1887220Y1303020D02*
D03*
Y1277620D02*
D03*
Y1252220D02*
D03*
Y1226820D02*
D03*
X1394460Y1506220D02*
D03*
X1419860D02*
D03*
X1445260D02*
D03*
X1470660D02*
D03*
X1496060D02*
D03*
D91*
X1887220Y1353820D02*
D03*
Y1328420D02*
D03*
X1369060Y1506220D02*
D03*
D92*
X1775460Y1602740D02*
D03*
Y1577340D02*
D03*
X1750060Y1602740D02*
D03*
Y1577340D02*
D03*
X1724660Y1602740D02*
D03*
X1699260D02*
D03*
Y1577340D02*
D03*
X1673860Y1602740D02*
D03*
Y1577340D02*
D03*
X1648460Y1602740D02*
D03*
Y1577340D02*
D03*
X1623060Y1602740D02*
D03*
Y1577340D02*
D03*
D93*
X1429020Y1319810D02*
D03*
X1442720D02*
D03*
Y1306110D02*
D03*
X1429020D02*
D03*
X1417870Y1319810D02*
D03*
Y1306110D02*
D03*
X1453870Y1319810D02*
D03*
Y1306110D02*
D03*
X1429020Y1330960D02*
D03*
X1442720D02*
D03*
X1429020Y1294960D02*
D03*
X1442720D02*
D03*
X944250Y1079500D02*
D03*
X932750D02*
D03*
X938500Y1070000D02*
D03*
Y1089000D02*
D03*
D94*
X1889760Y1427480D02*
D03*
Y1452880D02*
D03*
Y1478280D02*
D03*
D95*
X274320Y1738630D02*
D03*
X2235200Y1737360D02*
D03*
X2231390Y288290D02*
D03*
X278130Y287020D02*
D03*
D96*
X1092200Y1625600D02*
D03*
X990600Y1028700D02*
D03*
X965200Y1079500D02*
D03*
X1079500Y1104900D02*
D03*
X1861820Y1226820D02*
D03*
Y1277620D02*
D03*
X1155700Y1549400D02*
D03*
X1193800Y1168400D02*
D03*
X1155700Y1270000D02*
D03*
Y990600D02*
D03*
X838200Y1092200D02*
D03*
X1028700Y1676400D02*
D03*
X825500Y1574800D02*
D03*
X965200Y1638300D02*
D03*
D97*
X1511300Y1311680D02*
D03*
X1503909Y1340891D02*
D03*
X1661160Y1303020D02*
D03*
X1447908Y1262642D02*
D03*
X1607820Y1511300D02*
D03*
X1483360Y1544320D02*
D03*
X904240Y1094740D02*
D03*
X1711727Y1162003D02*
D03*
X1534160Y1163320D02*
D03*
X1387865Y1169041D02*
D03*
X1463040Y1579880D02*
D03*
X1461950Y1256720D02*
D03*
X1353820Y1203960D02*
D03*
X1145540Y1511300D02*
D03*
X1292020Y1259108D02*
D03*
X1145540Y1231900D02*
D03*
X1514928Y1270404D02*
D03*
X1145540Y952500D02*
D03*
X1488440Y1234440D02*
D03*
X1379220Y1341120D02*
D03*
X1437640Y1363980D02*
D03*
X1465580D02*
D03*
X1452880Y1404620D02*
D03*
X1478280Y1412240D02*
D03*
X1452880Y1465580D02*
D03*
X1391920Y1432560D02*
D03*
X1348740Y1239520D02*
D03*
X1193800Y1447800D02*
D03*
X1181100Y1714500D02*
D03*
D98*
X1506220Y1417320D02*
D03*
X1612900Y1282700D02*
D03*
X1336277Y1420339D02*
D03*
X1384300Y1363980D02*
D03*
X1325880Y1280160D02*
D03*
D99*
X1148080Y1488440D02*
D03*
X1003300Y1143000D02*
D03*
X965200Y1066800D02*
D03*
X901700D02*
D03*
X863600Y1028700D02*
D03*
X939800Y990600D02*
D03*
X977900Y1663700D02*
D03*
X1147918Y1209700D02*
D03*
X927100Y1155700D02*
D03*
X1861820Y1328420D02*
D03*
X1147918Y930300D02*
D03*
X825500Y1638300D02*
D03*
X1003300Y1612900D02*
D03*
D100*
X1724660Y1577340D02*
D03*
D101*
X1663700Y1062520D02*
D03*
X1788700D02*
D03*
X1490980D02*
D03*
X1615980D02*
D03*
X1772120Y1219200D02*
D03*
Y1344200D02*
D03*
X1435640Y1065060D02*
D03*
X1310640D02*
D03*
D102*
X1437640Y1620520D02*
D03*
D103*
X1889760Y1503680D02*
D03*
M02*
