G04*
G04 #@! TF.GenerationSoftware,Altium Limited,Altium Designer,25.2.1 (25)*
G04*
G04 Layer_Color=8421504*
%FSLAX44Y44*%
%MOMM*%
G71*
G04*
G04 #@! TF.SameCoordinates,E5E090E4-F6E9-416A-80E2-435660C576E3*
G04*
G04*
G04 #@! TF.FilePolarity,Positive*
G04*
G01*
G75*
%ADD17R,1.3500X0.6000*%
%ADD18R,1.3000X1.4500*%
%ADD19R,0.9500X0.9000*%
G04:AMPARAMS|DCode=20|XSize=0.26mm|YSize=0.88mm|CornerRadius=0.0325mm|HoleSize=0mm|Usage=FLASHONLY|Rotation=90.000|XOffset=0mm|YOffset=0mm|HoleType=Round|Shape=RoundedRectangle|*
%AMROUNDEDRECTD20*
21,1,0.2600,0.8150,0,0,90.0*
21,1,0.1950,0.8800,0,0,90.0*
1,1,0.0650,0.4075,0.0975*
1,1,0.0650,0.4075,-0.0975*
1,1,0.0650,-0.4075,-0.0975*
1,1,0.0650,-0.4075,0.0975*
%
%ADD20ROUNDEDRECTD20*%
%ADD21O,1.3500X0.3000*%
%ADD22R,0.9500X0.9500*%
%ADD23R,0.9000X0.9500*%
%ADD24R,0.9000X1.0500*%
%ADD25R,1.0546X1.3562*%
%ADD26R,1.0500X0.9000*%
%ADD27R,0.9500X1.4000*%
%ADD28R,0.7556X0.8121*%
%ADD29R,1.5562X1.4546*%
%ADD30R,1.2544X0.5321*%
G04:AMPARAMS|DCode=31|XSize=1.2544mm|YSize=0.5321mm|CornerRadius=0.2661mm|HoleSize=0mm|Usage=FLASHONLY|Rotation=0.000|XOffset=0mm|YOffset=0mm|HoleType=Round|Shape=RoundedRectangle|*
%AMROUNDEDRECTD31*
21,1,1.2544,0.0000,0,0,0.0*
21,1,0.7223,0.5321,0,0,0.0*
1,1,0.5321,0.3611,0.0000*
1,1,0.5321,-0.3611,0.0000*
1,1,0.5321,-0.3611,0.0000*
1,1,0.5321,0.3611,0.0000*
%
%ADD31ROUNDEDRECTD31*%
%ADD32R,1.4000X0.9500*%
G04:AMPARAMS|DCode=33|XSize=0.88mm|YSize=0.26mm|CornerRadius=0.0325mm|HoleSize=0mm|Usage=FLASHONLY|Rotation=90.000|XOffset=0mm|YOffset=0mm|HoleType=Round|Shape=RoundedRectangle|*
%AMROUNDEDRECTD33*
21,1,0.8800,0.1950,0,0,90.0*
21,1,0.8150,0.2600,0,0,90.0*
1,1,0.0650,0.0975,0.4075*
1,1,0.0650,0.0975,-0.4075*
1,1,0.0650,-0.0975,-0.4075*
1,1,0.0650,-0.0975,0.4075*
%
%ADD33ROUNDEDRECTD33*%
%ADD34R,1.1700X1.1700*%
%ADD35R,1.4546X1.5562*%
%ADD36R,1.4500X1.3000*%
G04:AMPARAMS|DCode=37|XSize=0.6mm|YSize=0.24mm|CornerRadius=0.0504mm|HoleSize=0mm|Usage=FLASHONLY|Rotation=0.000|XOffset=0mm|YOffset=0mm|HoleType=Round|Shape=RoundedRectangle|*
%AMROUNDEDRECTD37*
21,1,0.6000,0.1392,0,0,0.0*
21,1,0.4992,0.2400,0,0,0.0*
1,1,0.1008,0.2496,-0.0696*
1,1,0.1008,-0.2496,-0.0696*
1,1,0.1008,-0.2496,0.0696*
1,1,0.1008,0.2496,0.0696*
%
%ADD37ROUNDEDRECTD37*%
%ADD38R,0.8581X1.2621*%
%ADD39R,1.2000X0.9000*%
%ADD40R,0.9121X0.9581*%
%ADD41R,1.3082X0.8065*%
%ADD42R,0.8121X0.7556*%
%ADD43R,2.7042X1.4526*%
%ADD44R,0.8000X2.6600*%
%ADD45R,1.2000X3.7000*%
G36*
X1455420Y1320810D02*
X1443720D01*
Y1332510D01*
X1455420D01*
Y1320810D01*
D02*
G37*
G36*
X1441720D02*
X1430020D01*
Y1332510D01*
X1441720D01*
Y1320810D01*
D02*
G37*
G36*
X1428020D02*
X1416320D01*
Y1332510D01*
X1428020D01*
Y1320810D01*
D02*
G37*
G36*
X1455420Y1307110D02*
X1443720D01*
Y1318810D01*
X1455420D01*
Y1307110D01*
D02*
G37*
G36*
X1428020D02*
X1416320D01*
Y1318810D01*
X1428020D01*
Y1307110D01*
D02*
G37*
G36*
X1455420Y1293410D02*
X1443720D01*
Y1305110D01*
X1455420D01*
Y1293410D01*
D02*
G37*
G36*
X1441720D02*
X1430020D01*
Y1305110D01*
X1441720D01*
Y1293410D01*
D02*
G37*
G36*
X1428020D02*
X1416320D01*
Y1305110D01*
X1428020D01*
Y1293410D01*
D02*
G37*
G36*
X942033Y1096424D02*
X942174Y1096283D01*
X942250Y1096099D01*
Y1096000D01*
Y1093600D01*
Y1093501D01*
X942174Y1093317D01*
X942033Y1093176D01*
X941849Y1093100D01*
X940151D01*
X939967Y1093176D01*
X939826Y1093317D01*
X939750Y1093501D01*
Y1093600D01*
Y1096000D01*
Y1096099D01*
X939826Y1096283D01*
X939967Y1096424D01*
X940151Y1096500D01*
X941849D01*
X942033Y1096424D01*
D02*
G37*
G36*
X937033D02*
X937174Y1096283D01*
X937250Y1096099D01*
Y1096000D01*
Y1093600D01*
Y1093501D01*
X937174Y1093317D01*
X937033Y1093176D01*
X936849Y1093100D01*
X935151D01*
X934967Y1093176D01*
X934826Y1093317D01*
X934750Y1093501D01*
Y1093600D01*
Y1096000D01*
Y1096099D01*
X934826Y1096283D01*
X934967Y1096424D01*
X935151Y1096500D01*
X936849D01*
X937033Y1096424D01*
D02*
G37*
G36*
X945783Y1091024D02*
X945924Y1090883D01*
X946000Y1090699D01*
Y1090600D01*
Y1081000D01*
Y1080900D01*
X945924Y1080717D01*
X945783Y1080576D01*
X945600Y1080500D01*
X931401D01*
X931217Y1080576D01*
X931076Y1080717D01*
X931000Y1080900D01*
Y1081000D01*
Y1090600D01*
Y1090699D01*
X931076Y1090883D01*
X931217Y1091024D01*
X931401Y1091100D01*
X945600D01*
X945783Y1091024D01*
D02*
G37*
G36*
Y1078424D02*
X945924Y1078283D01*
X946000Y1078099D01*
Y1078000D01*
Y1068400D01*
Y1068300D01*
X945924Y1068117D01*
X945783Y1067976D01*
X945600Y1067900D01*
X931401D01*
X931217Y1067976D01*
X931076Y1068117D01*
X931000Y1068300D01*
Y1068400D01*
Y1078000D01*
Y1078099D01*
X931076Y1078283D01*
X931217Y1078424D01*
X931401Y1078500D01*
X945600D01*
X945783Y1078424D01*
D02*
G37*
G36*
X942033Y1065824D02*
X942174Y1065683D01*
X942250Y1065499D01*
Y1065400D01*
Y1063000D01*
Y1062900D01*
X942174Y1062717D01*
X942033Y1062576D01*
X941849Y1062500D01*
X940151D01*
X939967Y1062576D01*
X939826Y1062717D01*
X939750Y1062900D01*
Y1063000D01*
Y1065400D01*
Y1065499D01*
X939826Y1065683D01*
X939967Y1065824D01*
X940151Y1065900D01*
X941849D01*
X942033Y1065824D01*
D02*
G37*
G36*
X937033D02*
X937174Y1065683D01*
X937250Y1065499D01*
Y1065400D01*
Y1063000D01*
Y1062900D01*
X937174Y1062717D01*
X937033Y1062576D01*
X936849Y1062500D01*
X935151D01*
X934967Y1062576D01*
X934826Y1062717D01*
X934750Y1062900D01*
Y1063000D01*
Y1065400D01*
Y1065499D01*
X934826Y1065683D01*
X934967Y1065824D01*
X935151Y1065900D01*
X936849D01*
X937033Y1065824D01*
D02*
G37*
D17*
X1169100Y1489100D02*
D03*
X1193100Y939800D02*
D03*
X1169100Y930300D02*
D03*
Y949300D02*
D03*
X1193100Y1219200D02*
D03*
X1169100Y1209700D02*
D03*
Y1228700D02*
D03*
Y1508100D02*
D03*
X1193100Y1498600D02*
D03*
D18*
X1688720Y1511300D02*
D03*
X1704720D02*
D03*
D19*
X1653670D02*
D03*
X1638170D02*
D03*
X1534030Y1313180D02*
D03*
X1549530D02*
D03*
X1534030Y1283970D02*
D03*
X1549530D02*
D03*
X1534030Y1254760D02*
D03*
X1549530D02*
D03*
X1425070Y1165860D02*
D03*
X1409570D02*
D03*
X1506220Y1163320D02*
D03*
X1490720D02*
D03*
X1679070Y1158240D02*
D03*
X1663570D02*
D03*
D20*
X1470220Y1335460D02*
D03*
Y1330460D02*
D03*
Y1320460D02*
D03*
Y1325460D02*
D03*
Y1285460D02*
D03*
Y1290460D02*
D03*
Y1295460D02*
D03*
Y1300460D02*
D03*
Y1305460D02*
D03*
Y1310460D02*
D03*
Y1315460D02*
D03*
Y1340460D02*
D03*
X1401520D02*
D03*
Y1335460D02*
D03*
Y1330460D02*
D03*
Y1325460D02*
D03*
Y1320460D02*
D03*
Y1315460D02*
D03*
Y1310460D02*
D03*
Y1305460D02*
D03*
Y1300460D02*
D03*
Y1295460D02*
D03*
Y1290460D02*
D03*
Y1285460D02*
D03*
D21*
X1407770Y1440020D02*
D03*
Y1435020D02*
D03*
Y1430020D02*
D03*
Y1425020D02*
D03*
Y1420020D02*
D03*
X1452270Y1440020D02*
D03*
Y1435020D02*
D03*
Y1430020D02*
D03*
Y1425020D02*
D03*
Y1420020D02*
D03*
D22*
X1589920Y1254760D02*
D03*
X1574920D02*
D03*
X1589920Y1283970D02*
D03*
X1574920D02*
D03*
X1589920Y1313180D02*
D03*
X1574920D02*
D03*
D23*
X1483360Y1577470D02*
D03*
Y1561970D02*
D03*
X1661160Y1328290D02*
D03*
Y1343790D02*
D03*
X1196850Y1028700D02*
D03*
X1165350Y1028700D02*
D03*
X1196850Y1308100D02*
D03*
X1165350Y1308100D02*
D03*
X1196850Y1574800D02*
D03*
X1165350Y1574800D02*
D03*
D24*
X1436770Y1465580D02*
D03*
X1423270D02*
D03*
D25*
X1376318Y1442720D02*
D03*
X1361802D02*
D03*
D26*
X1407160Y1401210D02*
D03*
Y1387710D02*
D03*
X1028700Y1612100D02*
D03*
Y1625600D02*
D03*
Y1650200D02*
D03*
Y1663700D02*
D03*
D27*
X1359810Y1417320D02*
D03*
X1378310D02*
D03*
X1193800Y990600D02*
D03*
X1175300D02*
D03*
X1193800Y1270000D02*
D03*
X1175300D02*
D03*
X1171850Y1549400D02*
D03*
X1190350D02*
D03*
X959400Y1689100D02*
D03*
X977900D02*
D03*
D28*
X990600Y1079500D02*
D03*
X1004106D02*
D03*
D29*
X1003300Y1104900D02*
D03*
Y1123416D02*
D03*
X863600Y1600200D02*
D03*
Y1618716D02*
D03*
X825500Y1600200D02*
D03*
Y1618716D02*
D03*
X927100Y1117600D02*
D03*
Y1136116D02*
D03*
X965200Y1006742D02*
D03*
Y1025258D02*
D03*
D30*
X982294Y1651000D02*
D03*
D31*
Y1641500D02*
D03*
Y1632000D02*
D03*
X1003300D02*
D03*
Y1641500D02*
D03*
Y1651000D02*
D03*
D32*
X787400Y1600200D02*
D03*
Y1618700D02*
D03*
X1028700Y1123400D02*
D03*
Y1104900D02*
D03*
X952500Y1117600D02*
D03*
Y1136100D02*
D03*
D33*
X1408370Y1278610D02*
D03*
X1413370D02*
D03*
X1418370D02*
D03*
X1423370D02*
D03*
X1428370D02*
D03*
X1433370D02*
D03*
X1438370D02*
D03*
X1443370D02*
D03*
X1448370D02*
D03*
X1453370D02*
D03*
X1458370D02*
D03*
X1463370D02*
D03*
Y1347310D02*
D03*
X1458370D02*
D03*
X1453370D02*
D03*
X1448370D02*
D03*
X1443370D02*
D03*
X1438370D02*
D03*
X1433370D02*
D03*
X1428370D02*
D03*
X1423370D02*
D03*
X1418370D02*
D03*
X1413370D02*
D03*
X1408370D02*
D03*
D34*
X1435870Y1312960D02*
D03*
D35*
X1489342Y1440180D02*
D03*
X1507858D02*
D03*
D36*
X1371600Y1264540D02*
D03*
Y1280540D02*
D03*
X1348740Y1264540D02*
D03*
Y1280540D02*
D03*
D37*
X952500Y1089500D02*
D03*
Y1084500D02*
D03*
Y1079500D02*
D03*
Y1074500D02*
D03*
Y1069500D02*
D03*
X924500D02*
D03*
Y1074500D02*
D03*
Y1079500D02*
D03*
Y1084500D02*
D03*
Y1089500D02*
D03*
D38*
X1054100Y1625600D02*
D03*
X1069640D02*
D03*
D39*
X863600Y1092200D02*
D03*
Y1071200D02*
D03*
D40*
X1054100Y1104900D02*
D03*
Y1090360D02*
D03*
D41*
X939800Y1024509D02*
D03*
Y1007491D02*
D03*
D42*
X863600Y1054906D02*
D03*
Y1041400D02*
D03*
D43*
X825500Y1688205D02*
D03*
Y1663700D02*
D03*
X863600Y1689100D02*
D03*
Y1664595D02*
D03*
D44*
X1143000Y1418000D02*
D03*
Y1350600D02*
D03*
X1219200D02*
D03*
X1193800Y1418000D02*
D03*
X1143000Y1689100D02*
D03*
Y1621700D02*
D03*
X1219200D02*
D03*
X1193800Y1689100D02*
D03*
Y1138600D02*
D03*
X1219200Y1071200D02*
D03*
X1143000D02*
D03*
Y1138600D02*
D03*
D45*
X901700Y1689100D02*
D03*
X929700D02*
D03*
M02*
