M48
;Layer_Color=9474304
;FILE_FORMAT=4:4
METRIC,LZ
;TYPE=PLATED
T01F00S00C0.2000
T02F00S00C0.3810
T03F00S00C0.7112
T04F00S00C1.1000
T05F00S00C1.1500
T06F00S00C1.2000
T07F00S00C1.4000
T08F00S00C1.6500
;TYPE=NON_PLATED
T09F00S00C3.0000
%
T01
X009385Y0107
X0094425Y010795
X0093275
X009385Y01089
X0141787Y0130611
X0142902
Y0129496
X0144272
Y0130611
X0145387
Y0131981
X0144272
Y0133096
X0142902
Y0131981
X0141787
T02
X008636Y010287
X009017Y010668
X009652
Y010795
X009906Y010287
X009398Y009906
X009271Y011557
X010033Y01143
X010795Y011049
X01147918Y009303
X011938Y011684
X01147918Y012097
X0094488Y0134112
Y0139192
X010033Y016129
X009779Y016637
X010922Y016256
X008255Y016383
T03
X0114554Y009525
X01387865Y01169041
X0153416Y0116332
X01711727Y01162003
X0166116Y0130302
X016129Y012827
X01601906Y01517214
X0148336Y0154432
X0146304Y0157988
X0145288Y0146558
Y0140462
X0147828Y0141224
X01504116Y01419424
X01503909Y01340891
X015113Y0131168
X01514928Y01270404
X0148844Y0123444
X0146195Y0125672
X01447908Y01262642
X0143764Y0136398
X0146558
X013843
X0137922Y0134112
X0139192Y0143256
X0133604Y0143002
X0132588Y0128016
X0129202Y01259108
X0134874Y0123952
X0135382Y0120396
X011938Y014478
X01142953Y01489
X0114554Y01511916
Y012319
X00895617Y01585665
X0094742Y0161544
X01065041Y01678053
X011811Y017145
X0183134Y0168656
T04
X0136906Y0150622
X0139446
X0141986
X0144526
X0147066
X0149606
X0097028Y0141732
Y0139192
Y0136652
Y0134112
Y0131572
Y0129032
T05
X0188976Y0142748
Y0145288
Y0147828
Y0150368
X0188722Y0157988
Y0160528
Y0163068
Y0165608
T06
X0162306Y0157734
X0164846
X0167386
X0169926
X0172466
X0175006
X0177546
Y0160274
X0175006
X0172466
X0169926
X0167386
X0164846
X0162306
T07
X0131064Y0106506
Y0111506
X0143564
Y0106506
X0149098Y0106252
Y0111252
X0161598
X016637
Y0106252
X0161598
X017887
Y0111252
X0177212Y012192
X0172212
Y013442
X0177212
T08
X0143764Y0162052
X0148514
T09
X007112Y0090932
X0199644
X0071374Y017272
X0198882Y0173482
M30
