G04*
G04 #@! TF.GenerationSoftware,Altium Limited,Altium Designer,25.2.1 (25)*
G04*
G04 Layer_Physical_Order=4*
G04 Layer_Color=16711680*
%FSLAX44Y44*%
%MOMM*%
G71*
G04*
G04 #@! TF.SameCoordinates,E5E090E4-F6E9-416A-80E2-435660C576E3*
G04*
G04*
G04 #@! TF.FilePolarity,Positive*
G04*
G01*
G75*
%ADD15C,0.2540*%
%ADD72C,0.5000*%
%ADD75C,1.2700*%
%ADD77C,1.7250*%
%ADD78R,1.7250X1.7250*%
%ADD79C,1.8000*%
%ADD80R,1.8000X1.8000*%
%ADD81C,1.6500*%
%ADD82R,1.6500X1.6500*%
%ADD83R,2.4750X2.4750*%
%ADD84C,2.4750*%
%ADD85C,2.1000*%
%ADD86R,1.6500X1.6500*%
%ADD87C,0.3000*%
%ADD88C,1.2700*%
%ADD89C,0.8890*%
%ADD107C,0.2540*%
D15*
X1336040Y1412240D02*
X1384300Y1363980D01*
X1336040Y1412240D02*
Y1430020D01*
X1153606Y1503234D02*
X1176466D01*
X1145540Y1511300D02*
Y1511916D01*
Y1511300D02*
X1153606Y1503234D01*
X1176466D02*
X1249680Y1430020D01*
Y1301448D02*
Y1430020D01*
X1685961Y1564041D02*
Y1575999D01*
X1674903Y1552983D02*
X1685961Y1564041D01*
X1501140Y1352321D02*
Y1379220D01*
X1674903Y1552983D02*
X1674903D01*
X1501140Y1379220D02*
X1674903Y1552983D01*
X1394460Y1506220D02*
Y1525668D01*
X1473762Y1604970D01*
X1498830D01*
X1549940Y1656080D01*
X1887220D01*
X1685961Y1575999D02*
X1686558Y1576596D01*
X1687302Y1577340D02*
X1699260D01*
X1686558Y1576596D02*
X1687302Y1577340D01*
X1502410Y1342390D02*
Y1351051D01*
Y1342390D02*
X1503909Y1340891D01*
X1501140Y1352321D02*
X1502410Y1351051D01*
X1493956Y1423633D02*
X1496060Y1506220D01*
X1493956Y1415216D02*
X1495316Y1395820D01*
X1465580Y1363980D02*
X1495316Y1393716D01*
Y1395820D01*
X1493956Y1415216D02*
Y1423633D01*
X1010033Y1678053D02*
X1065041D01*
X947420Y1615440D02*
X1010033Y1678053D01*
X895617Y1585665D02*
X925392Y1615440D01*
X947420D01*
X1393190Y1433830D02*
Y1504950D01*
X1394460Y1506220D01*
X1391920Y1432560D02*
X1393190Y1433830D01*
X1511300Y1293732D02*
Y1311680D01*
X970280Y1341120D02*
Y1366520D01*
Y1391920D02*
Y1417320D01*
Y1290320D02*
Y1315720D01*
X1447908Y1262642D02*
X1448030Y1262765D01*
Y1367958D01*
X1445260Y1473200D02*
Y1506220D01*
Y1473200D02*
X1452880Y1465580D01*
X1433200Y1550040D02*
X1463040Y1579880D01*
X1433200Y1441192D02*
Y1550040D01*
Y1441192D02*
X1437640Y1436752D01*
Y1363980D02*
Y1436752D01*
X1452880Y1437640D02*
Y1465580D01*
Y1437640D02*
X1478280Y1412240D01*
X1475531D02*
X1478280D01*
X1472991Y1414780D02*
X1475531Y1412240D01*
X1448672Y1414780D02*
X1472991D01*
X1442720Y1408828D02*
X1448672Y1414780D01*
X1442720Y1373268D02*
Y1408828D01*
Y1373268D02*
X1448030Y1367958D01*
X1464128Y1246560D02*
X1466158D01*
X1460500Y1258170D02*
Y1327462D01*
X1466158Y1246560D02*
X1472110Y1252512D01*
Y1254542D01*
X1460500Y1258170D02*
X1461950Y1256720D01*
X1446928Y1229360D02*
X1464128Y1246560D01*
X1472110Y1254542D02*
X1511300Y1293732D01*
X1440180Y1203960D02*
X1506256Y1270036D01*
X1514561D01*
X1514928Y1270404D01*
X1353820Y1203960D02*
X1440180D01*
X1249680Y1301448D02*
X1292020Y1259108D01*
X1150829Y1229360D02*
X1446928D01*
X1145540Y1231900D02*
X1148289D01*
X1150829Y1229360D01*
X1452880Y1335082D02*
X1460500Y1327462D01*
X1347470Y1093470D02*
X1488440Y1234440D01*
X1286510Y1093470D02*
X1347470D01*
X1145540Y952500D02*
X1286510Y1093470D01*
X1452880Y1404620D02*
X1455629D01*
X1458169Y1402080D01*
X1482488D01*
X1488440Y1408032D01*
Y1446347D01*
X1470660Y1464127D02*
X1488440Y1446347D01*
X1470660Y1464127D02*
Y1506220D01*
X1452880Y1335082D02*
Y1404620D01*
X1079500Y1104900D02*
X1130300D01*
X990600Y1028700D02*
Y1054100D01*
X965200Y1079500D02*
X990600Y1054100D01*
X1092200Y1625600D02*
X1181100Y1714500D01*
X1130300Y1104900D02*
X1193800Y1168400D01*
D72*
X944250Y1079500D02*
D03*
X932750D02*
D03*
X938500Y1070000D02*
D03*
Y1089000D02*
D03*
D75*
X1287780Y1686560D02*
X1831340D01*
X1128376Y1527156D02*
X1287780Y1686560D01*
X1123296Y1527156D02*
X1128376D01*
X986785Y1334283D02*
Y1390645D01*
X1123296Y1527156D01*
X972180Y1318648D02*
Y1319678D01*
X986785Y1334283D01*
X970280Y1316748D02*
X972180Y1318648D01*
X970280Y1315720D02*
Y1316748D01*
D77*
X1887220Y1579880D02*
D03*
Y1605280D02*
D03*
Y1630680D02*
D03*
X1889760Y1452880D02*
D03*
Y1478280D02*
D03*
Y1503680D02*
D03*
D78*
X1887220Y1656080D02*
D03*
X1889760Y1427480D02*
D03*
D79*
X1775460Y1602740D02*
D03*
Y1577340D02*
D03*
X1750060Y1602740D02*
D03*
Y1577340D02*
D03*
X1724660Y1602740D02*
D03*
X1699260D02*
D03*
Y1577340D02*
D03*
X1673860Y1602740D02*
D03*
Y1577340D02*
D03*
X1648460D02*
D03*
X1623060Y1602740D02*
D03*
X1724660Y1577340D02*
D03*
X1648460Y1602740D02*
D03*
D80*
X1623060Y1577340D02*
D03*
D81*
X1496060Y1506220D02*
D03*
X1470660D02*
D03*
X1445260D02*
D03*
X1419860D02*
D03*
X1394460D02*
D03*
X970280Y1391920D02*
D03*
Y1366520D02*
D03*
Y1341120D02*
D03*
Y1315720D02*
D03*
Y1290320D02*
D03*
D82*
X1369060Y1506220D02*
D03*
D83*
X1485140Y1620520D02*
D03*
D84*
X1437640D02*
D03*
D85*
X1663700Y1112520D02*
D03*
X1788700D02*
D03*
X1663700Y1062520D02*
D03*
X1788700D02*
D03*
X1490980Y1112520D02*
D03*
X1615980D02*
D03*
X1490980Y1062520D02*
D03*
X1615980D02*
D03*
X1722120Y1219200D02*
D03*
Y1344200D02*
D03*
X1772120Y1219200D02*
D03*
Y1344200D02*
D03*
X1435640Y1065060D02*
D03*
X1310640D02*
D03*
X1435640Y1115060D02*
D03*
X1310640D02*
D03*
D86*
X970280Y1417320D02*
D03*
D87*
X1429020Y1319810D02*
D03*
X1442720D02*
D03*
Y1306110D02*
D03*
X1429020D02*
D03*
X1417870Y1319810D02*
D03*
Y1306110D02*
D03*
X1453870Y1319810D02*
D03*
Y1306110D02*
D03*
X1429020Y1330960D02*
D03*
X1442720D02*
D03*
X1429020Y1294960D02*
D03*
X1442720D02*
D03*
D88*
X1336040Y1430020D02*
D03*
X1142953Y1489000D02*
D03*
X1145540Y1511916D02*
D03*
X1831340Y1686560D02*
D03*
X1503909Y1340891D02*
D03*
X1601906Y1517214D02*
D03*
X1504116Y1419424D02*
D03*
X1065041Y1678053D02*
D03*
X895617Y1585665D02*
D03*
X947420Y1615440D02*
D03*
X1511300Y1311680D02*
D03*
X1661160Y1303020D02*
D03*
X1447908Y1262642D02*
D03*
X1483360Y1544320D02*
D03*
X1711727Y1162003D02*
D03*
X1534160Y1163320D02*
D03*
X1387865Y1169041D02*
D03*
X1612900Y1282700D02*
D03*
X1463040Y1579880D02*
D03*
X1461950Y1256720D02*
D03*
X1353820Y1203960D02*
D03*
X1292020Y1259108D02*
D03*
X1145540Y1231900D02*
D03*
X1514928Y1270404D02*
D03*
X1145540Y952500D02*
D03*
X1488440Y1234440D02*
D03*
X1379220Y1341120D02*
D03*
X1437640Y1363980D02*
D03*
X1465580D02*
D03*
X1452880Y1404620D02*
D03*
X1478280Y1412240D02*
D03*
X1452880Y1465580D02*
D03*
X1391920Y1432560D02*
D03*
X1384300Y1363980D02*
D03*
X1325880Y1280160D02*
D03*
X1348740Y1239520D02*
D03*
X1193800Y1447800D02*
D03*
X1181100Y1714500D02*
D03*
D89*
X1003300Y1143000D02*
D03*
X1092200Y1625600D02*
D03*
X990600Y1028700D02*
D03*
X965200Y1079500D02*
D03*
Y1066800D02*
D03*
X901700D02*
D03*
X863600Y1028700D02*
D03*
X939800Y990600D02*
D03*
X1079500Y1104900D02*
D03*
X977900Y1663700D02*
D03*
X1147918Y1209700D02*
D03*
X927100Y1155700D02*
D03*
X944880Y1391920D02*
D03*
Y1341120D02*
D03*
X1193800Y1168400D02*
D03*
X1147918Y930300D02*
D03*
X825500Y1638300D02*
D03*
X1003300Y1612900D02*
D03*
D107*
X1686558Y1576596D02*
D03*
M02*
