G04*
G04 #@! TF.GenerationSoftware,Altium Limited,Altium Designer,24.9.1 (31)*
G04*
G04 Layer_Color=8421504*
%FSLAX44Y44*%
%MOMM*%
G71*
G04*
G04 #@! TF.SameCoordinates,0B797857-0A8E-427F-998E-046D245C4392*
G04*
G04*
G04 #@! TF.FilePolarity,Positive*
G04*
G01*
G75*
%ADD15R,1.4000X0.9500*%
%ADD16R,1.4986X0.8890*%
%ADD17R,0.8890X1.4986*%
%ADD18R,0.8890X0.8890*%
%ADD19R,1.3549X1.5562*%
%ADD20R,0.9500X1.4000*%
%ADD21O,0.3000X1.7000*%
%ADD22R,1.5562X1.3549*%
%ADD23R,1.1500X1.4500*%
%ADD24R,1.5562X1.4546*%
D15*
X652780Y285750D02*
D03*
Y304250D02*
D03*
X520700Y140250D02*
D03*
Y158750D02*
D03*
X80010Y339450D02*
D03*
Y320950D02*
D03*
D16*
X291960Y345170D02*
D03*
Y332470D02*
D03*
Y319770D02*
D03*
Y307070D02*
D03*
Y294370D02*
D03*
Y281670D02*
D03*
Y268970D02*
D03*
Y256270D02*
D03*
Y243570D02*
D03*
Y230870D02*
D03*
Y218170D02*
D03*
Y205470D02*
D03*
Y192770D02*
D03*
Y180070D02*
D03*
X466960D02*
D03*
Y192770D02*
D03*
Y205470D02*
D03*
Y218170D02*
D03*
Y230870D02*
D03*
Y243570D02*
D03*
Y256270D02*
D03*
Y268970D02*
D03*
Y281670D02*
D03*
Y294370D02*
D03*
Y307070D02*
D03*
Y319770D02*
D03*
Y332470D02*
D03*
Y345170D02*
D03*
D17*
X322310Y167570D02*
D03*
X335010D02*
D03*
X347710D02*
D03*
X360410D02*
D03*
X373110D02*
D03*
X385810D02*
D03*
X398510D02*
D03*
X411210D02*
D03*
X423910D02*
D03*
X436610D02*
D03*
D18*
X350460Y253970D02*
D03*
Y281970D02*
D03*
Y267970D02*
D03*
X378460Y253970D02*
D03*
X364460D02*
D03*
X378460Y267970D02*
D03*
Y281970D02*
D03*
X364460D02*
D03*
Y267970D02*
D03*
D19*
X161693Y318770D02*
D03*
X181206D02*
D03*
X367434Y116840D02*
D03*
X386946D02*
D03*
Y85090D02*
D03*
X367434D02*
D03*
D20*
X160930Y275590D02*
D03*
X179430D02*
D03*
D21*
X664050Y376100D02*
D03*
X659050D02*
D03*
X654050D02*
D03*
X649050D02*
D03*
X644050D02*
D03*
X664050Y335100D02*
D03*
X659050D02*
D03*
X654050D02*
D03*
X649050D02*
D03*
X644050D02*
D03*
D22*
X632460Y196850D02*
D03*
Y216363D02*
D03*
D23*
X503060Y285750D02*
D03*
X520560D02*
D03*
X503060Y314960D02*
D03*
X520560D02*
D03*
D24*
X33020Y340360D02*
D03*
Y321844D02*
D03*
M02*
