G04*
G04 #@! TF.GenerationSoftware,Altium Limited,Altium Designer,24.9.1 (31)*
G04*
G04 Layer_Physical_Order=1*
G04 Layer_Color=255*
%FSLAX44Y44*%
%MOMM*%
G71*
G04*
G04 #@! TF.SameCoordinates,7BCCF8FC-808F-4AE3-87CD-6E5EF412D55E*
G04*
G04*
G04 #@! TF.FilePolarity,Positive*
G04*
G01*
G75*
%ADD13C,0.2540*%
G04:AMPARAMS|DCode=15|XSize=0.6mm|YSize=0.24mm|CornerRadius=0.0504mm|HoleSize=0mm|Usage=FLASHONLY|Rotation=0.000|XOffset=0mm|YOffset=0mm|HoleType=Round|Shape=RoundedRectangle|*
%AMROUNDEDRECTD15*
21,1,0.6000,0.1392,0,0,0.0*
21,1,0.4992,0.2400,0,0,0.0*
1,1,0.1008,0.2496,-0.0696*
1,1,0.1008,-0.2496,-0.0696*
1,1,0.1008,-0.2496,0.0696*
1,1,0.1008,0.2496,0.0696*
%
%ADD15ROUNDEDRECTD15*%
%ADD16R,1.4000X0.9500*%
%ADD17R,0.9121X0.9581*%
G04:AMPARAMS|DCode=18|XSize=3.25mm|YSize=2.05mm|CornerRadius=0.0513mm|HoleSize=0mm|Usage=FLASHONLY|Rotation=180.000|XOffset=0mm|YOffset=0mm|HoleType=Round|Shape=RoundedRectangle|*
%AMROUNDEDRECTD18*
21,1,3.2500,1.9475,0,0,180.0*
21,1,3.1475,2.0500,0,0,180.0*
1,1,0.1025,-1.5738,0.9738*
1,1,0.1025,1.5738,0.9738*
1,1,0.1025,1.5738,-0.9738*
1,1,0.1025,-1.5738,-0.9738*
%
%ADD18ROUNDEDRECTD18*%
G04:AMPARAMS|DCode=19|XSize=1mm|YSize=2.05mm|CornerRadius=0.05mm|HoleSize=0mm|Usage=FLASHONLY|Rotation=180.000|XOffset=0mm|YOffset=0mm|HoleType=Round|Shape=RoundedRectangle|*
%AMROUNDEDRECTD19*
21,1,1.0000,1.9500,0,0,180.0*
21,1,0.9000,2.0500,0,0,180.0*
1,1,0.1000,-0.4500,0.9750*
1,1,0.1000,0.4500,0.9750*
1,1,0.1000,0.4500,-0.9750*
1,1,0.1000,-0.4500,-0.9750*
%
%ADD19ROUNDEDRECTD19*%
%ADD20R,1.4546X1.5562*%
%ADD21R,1.5562X1.4546*%
%ADD22R,1.3500X0.6000*%
%ADD23R,0.8000X2.6600*%
%ADD24R,0.7556X0.8121*%
%ADD25R,1.4500X0.3000*%
%ADD26R,0.9000X1.0500*%
%ADD27R,0.9500X1.4000*%
%ADD28R,0.9000X0.9500*%
%ADD29R,1.2000X0.9000*%
%ADD30R,0.8121X0.7556*%
%ADD31R,1.3082X0.8065*%
%ADD32R,1.3562X1.0546*%
%ADD33C,1.4850*%
%ADD42C,0.5080*%
%ADD43C,2.1000*%
G04:AMPARAMS|DCode=44|XSize=2.1mm|YSize=2.1mm|CornerRadius=0.525mm|HoleSize=0mm|Usage=FLASHONLY|Rotation=90.000|XOffset=0mm|YOffset=0mm|HoleType=Round|Shape=RoundedRectangle|*
%AMROUNDEDRECTD44*
21,1,2.1000,1.0500,0,0,90.0*
21,1,1.0500,2.1000,0,0,90.0*
1,1,1.0500,0.5250,0.5250*
1,1,1.0500,0.5250,-0.5250*
1,1,1.0500,-0.5250,-0.5250*
1,1,1.0500,-0.5250,0.5250*
%
%ADD44ROUNDEDRECTD44*%
%ADD45C,0.8890*%
G36*
X285810Y186120D02*
X285810Y181620D01*
X285810Y181521D01*
X285886Y181337D01*
X286027Y181196D01*
X286210Y181120D01*
X286310Y181120D01*
D01*
X287810Y181120D01*
X287910Y181120D01*
X288093Y181196D01*
X288234Y181337D01*
X288310Y181521D01*
X288310Y181620D01*
Y181620D01*
Y186120D01*
X290810D01*
Y181620D01*
X290810Y181521D01*
X290886Y181337D01*
X291027Y181196D01*
X291210Y181120D01*
X291310Y181120D01*
X291310D01*
X292810Y181120D01*
X292909Y181120D01*
X293093Y181196D01*
X293234Y181337D01*
X293310Y181521D01*
X293310Y181620D01*
X293310Y181620D01*
Y186120D01*
X297310D01*
X297409Y186120D01*
X297593Y186196D01*
X297734Y186337D01*
X297810Y186521D01*
X297810Y186620D01*
X297810D01*
X297810Y209620D01*
Y209719D01*
X297734Y209903D01*
X297593Y210044D01*
X297409Y210120D01*
X297310D01*
Y210120D01*
X293310D01*
X293310Y214620D01*
Y214719D01*
X293234Y214903D01*
X293093Y215044D01*
X292909Y215120D01*
X292810D01*
X292810Y215120D01*
X291310D01*
X291210Y215120D01*
X291027Y215044D01*
X290886Y214903D01*
X290810Y214720D01*
X290810Y214620D01*
D01*
X290810Y210120D01*
X288310D01*
X288310Y214620D01*
Y214719D01*
X288234Y214903D01*
X288093Y215044D01*
X287909Y215120D01*
X287810D01*
Y215120D01*
X286310D01*
X286210Y215120D01*
X286027Y215044D01*
X285886Y214903D01*
X285810Y214720D01*
X285810Y214620D01*
D01*
X285810Y210120D01*
X281810Y210120D01*
X281710Y210120D01*
X281527Y210044D01*
X281386Y209903D01*
X281310Y209719D01*
X281310Y209620D01*
Y209620D01*
Y186620D01*
X281310Y186521D01*
X281386Y186337D01*
X281527Y186196D01*
X281710Y186120D01*
X281810Y186120D01*
D01*
D01*
X285810D01*
D02*
G37*
D13*
X227880Y208280D02*
Y210530D01*
X212090Y208280D02*
X226470D01*
X763414Y309880D02*
X765810D01*
X676910Y360680D02*
X712614D01*
X763414Y309880D01*
X275590Y231680D02*
X300450D01*
X300990Y231140D01*
X275590Y250196D02*
X276146Y249640D01*
X300990D01*
X660400Y356512D02*
X669338Y365450D01*
X676680D01*
X676910Y365680D01*
X660400Y326390D02*
Y356512D01*
X676910Y365680D02*
X713002D01*
X730702Y347980D01*
X765810D01*
X750410Y370680D02*
X765810Y386080D01*
X676910Y370680D02*
X750410D01*
X676910Y396782D02*
Y396790D01*
Y380680D02*
Y396782D01*
Y380680D02*
X722310D01*
X765810Y424180D01*
X283750Y509270D02*
X285750Y507270D01*
Y405130D02*
Y507270D01*
X351326Y187960D02*
X400050D01*
X401810Y208280D02*
X422910D01*
X493620Y53340D02*
Y85500D01*
X491490Y87630D02*
X493620Y85500D01*
X491490Y87630D02*
Y89880D01*
X214630Y236220D02*
X377190Y398780D01*
X154940Y236220D02*
X214630D01*
X377190Y398780D02*
X459740D01*
X137160Y218440D02*
X154940Y236220D01*
X256540Y247650D02*
X270920D01*
X373380Y172720D02*
Y187100D01*
X339090Y224240D02*
X365040D01*
X386820Y222250D02*
X400300Y208770D01*
X367030Y222250D02*
X386820D01*
X365040Y224240D02*
X367030Y222250D01*
X339090Y205740D02*
X365036D01*
X327660Y223520D02*
X338370D01*
X337660Y188120D02*
X337820Y187960D01*
X338370Y223520D02*
X339090Y224240D01*
X337820Y204470D02*
X339090Y205740D01*
X337820Y187960D02*
Y204470D01*
X400300Y208770D02*
X401320D01*
X400050Y187960D02*
X401320Y189230D01*
X365036Y205740D02*
X367030Y207734D01*
X401320Y208770D02*
X401810Y208280D01*
X337820Y173990D02*
Y187960D01*
X307330Y203190D02*
X327660Y223520D01*
X279400Y154308D02*
X316012D01*
X303560Y193120D02*
X316012D01*
Y154308D02*
X317500Y155796D01*
Y191632D01*
X316012Y193120D02*
X317500Y191632D01*
X254218Y168910D02*
X303530D01*
X303545Y168925D02*
Y188050D01*
X303530Y168910D02*
X303545Y168925D01*
X250190Y172938D02*
X254218Y168910D01*
X250190Y172938D02*
Y190500D01*
X252810Y193120D01*
X275560D01*
X268750Y188120D02*
X273830D01*
X262890Y182260D02*
X268750Y188120D01*
X262890Y181610D02*
Y182260D01*
X246189Y157321D02*
X248951Y154559D01*
X279149D01*
X243840Y162179D02*
X246189Y159830D01*
X243840Y162179D02*
Y178095D01*
X246189Y157321D02*
Y159830D01*
X228600Y178095D02*
X243840D01*
X245328Y198120D02*
X275560D01*
X243840Y196632D02*
X245328Y198120D01*
X243840Y178095D02*
Y196632D01*
X566420Y381000D02*
Y467142D01*
Y323632D02*
Y381000D01*
X598170D01*
X726440Y462280D02*
X765810D01*
X459740Y398780D02*
X490900Y429940D01*
X500380D01*
X303560Y203120D02*
X303630Y203190D01*
X307330D01*
X462280Y307340D02*
X476660D01*
X455930Y62230D02*
X470310D01*
X462280Y283210D02*
X476660D01*
X462585Y499415D02*
X475085D01*
X462280Y499110D02*
X462585Y499415D01*
X475085D02*
X475390Y499110D01*
X144370Y447040D02*
X145005Y447675D01*
X178435D02*
X179070Y448310D01*
X145005Y447675D02*
X178435D01*
X145640Y409528D02*
X145687Y409575D01*
X177165D02*
X177800Y410210D01*
X145640Y408940D02*
Y409528D01*
X145687Y409575D02*
X177165D01*
X137160Y256540D02*
X285750Y405130D01*
X300990Y490220D02*
Y511172D01*
X283760Y511260D02*
Y538480D01*
X510610Y114550D02*
X527050Y130990D01*
X498350Y114550D02*
X510610D01*
X457530Y43510D02*
X473790D01*
X474120Y43180D01*
X457200D02*
X457530Y43510D01*
X143100Y370840D02*
X176530D01*
X502920Y647290D02*
Y661670D01*
X332330Y567690D02*
X346710D01*
X452120Y638220D02*
Y666750D01*
X459740Y674370D01*
X564932D01*
X566420Y467142D02*
Y672882D01*
X564932Y674370D02*
X566420Y672882D01*
X458470Y468630D02*
X564932D01*
X566420Y467142D01*
X449580Y459740D02*
X458470Y468630D01*
X449580Y429940D02*
Y459740D01*
X227100Y208280D02*
X228600D01*
X463550Y520700D02*
X477930D01*
X455930Y87630D02*
X472990D01*
X618280Y372110D02*
X621850Y375680D01*
X617220Y372110D02*
X618280D01*
X621850Y375680D02*
X632910D01*
X598170Y362500D02*
X622192D01*
X624412Y364720D01*
X625230D01*
X632680Y365450D02*
X632910Y365680D01*
X625230Y364720D02*
X625960Y365450D01*
X632680D01*
X463550Y481330D02*
X477930D01*
X464820Y265430D02*
X479200D01*
X625530Y360450D02*
X632680D01*
X612540Y347460D02*
X625530Y360450D01*
X579120Y346710D02*
X598170D01*
X645630Y325120D02*
X646900Y326390D01*
X566420Y323632D02*
X567908Y325120D01*
X566420Y240576D02*
Y323632D01*
X567908Y325120D02*
X645630D01*
X612540Y346710D02*
Y347460D01*
X632680Y360450D02*
X632910Y360680D01*
X598170Y347580D02*
X599040Y346710D01*
X598170Y347580D02*
Y362500D01*
X598490Y380680D02*
X632910D01*
X598170Y381000D02*
X598490Y380680D01*
X676910Y417420D02*
Y431800D01*
X504700Y529810D02*
Y544830D01*
X304800Y634590D02*
X306070Y635860D01*
Y651510D01*
X275560Y208120D02*
Y226030D01*
Y233650D02*
X275590Y233680D01*
X497840Y491490D02*
Y520700D01*
X496570Y490220D02*
X497840Y491490D01*
Y522950D02*
X504700Y529810D01*
X497840Y520700D02*
Y522950D01*
X473200Y529090D02*
X479340Y522950D01*
X473200Y529090D02*
Y544830D01*
X479340Y520700D02*
Y522950D01*
X528320Y545048D02*
Y570820D01*
X504700Y544830D02*
X505970Y543560D01*
X526832D02*
X528320Y545048D01*
X505970Y543560D02*
X526832D01*
X452120Y546318D02*
Y570820D01*
X453608Y544830D02*
X472950D01*
X452120Y546318D02*
X453608Y544830D01*
X496570Y275850D02*
Y307340D01*
Y275850D02*
X498100Y274320D01*
X498700D01*
X502160Y315180D02*
Y332740D01*
X496570Y309590D02*
X502160Y315180D01*
X496570Y307340D02*
Y309590D01*
X470660Y317000D02*
X478070Y309590D01*
Y307340D02*
Y309590D01*
X470660Y317000D02*
Y332740D01*
X502160Y332990D02*
X519680Y350510D01*
X523050D01*
X525780Y353240D02*
Y362540D01*
X502160Y332740D02*
Y332990D01*
X523050Y350510D02*
X525780Y353240D01*
X449580D02*
X466600Y336220D01*
X467430D01*
X470660Y332740D02*
Y332990D01*
X449580Y353240D02*
Y362540D01*
X467430Y336220D02*
X470660Y332990D01*
X566420Y210820D02*
Y226060D01*
X501650Y207690D02*
Y233591D01*
X455206Y240576D02*
X566420D01*
X450850Y236220D02*
X455206Y240576D01*
X450850Y207690D02*
Y236220D01*
X228600Y154537D02*
X228725Y154412D01*
X228399Y154739D02*
X228600Y154537D01*
X228725Y144655D02*
Y154412D01*
X279400Y119380D02*
Y137792D01*
X331644Y540470D02*
X358140D01*
X330200Y539026D02*
X331644Y540470D01*
X329070Y540156D02*
Y566420D01*
Y540156D02*
X330200Y539026D01*
Y524510D02*
X332740Y521970D01*
X358140D01*
X302260Y512772D02*
X313998Y524510D01*
X301263Y511775D02*
X302260Y512772D01*
Y538480D01*
X315268Y524510D02*
X330200D01*
X302260Y538480D02*
X304800Y541020D01*
Y566420D01*
X281800Y540440D02*
Y566420D01*
Y540440D02*
X283760Y538480D01*
X304800Y566420D02*
Y629920D01*
X466850Y96020D02*
X472990Y89880D01*
Y87630D02*
Y89880D01*
X466850Y96020D02*
Y114300D01*
X498350Y96740D02*
Y114300D01*
X491490Y89880D02*
X498350Y96740D01*
X527050Y130990D02*
Y140290D01*
X450850Y130990D02*
X463620Y118220D01*
X450850Y130990D02*
Y140290D01*
X463620Y117530D02*
Y118220D01*
Y117530D02*
X466850Y114300D01*
X279149Y154559D02*
X279400Y154308D01*
X231140Y208620D02*
X231640Y208120D01*
X275560D01*
X228600Y168043D02*
Y178095D01*
Y187280D01*
X303560Y198120D02*
Y203120D01*
X279149Y137541D02*
X279400Y137792D01*
X251460Y137541D02*
X279149D01*
D15*
X303560Y208120D02*
D03*
Y203120D02*
D03*
Y198120D02*
D03*
Y193120D02*
D03*
Y188120D02*
D03*
X275560D02*
D03*
Y193120D02*
D03*
Y198120D02*
D03*
Y203120D02*
D03*
Y208120D02*
D03*
D16*
X300990Y231140D02*
D03*
Y249640D02*
D03*
X340360Y205380D02*
D03*
Y223880D02*
D03*
X598170Y362500D02*
D03*
Y381000D02*
D03*
X358140Y521970D02*
D03*
Y540470D02*
D03*
D17*
X401320Y206270D02*
D03*
Y191730D02*
D03*
D18*
X304800Y629920D02*
D03*
D19*
X327800Y566420D02*
D03*
X304800D02*
D03*
X281800D02*
D03*
D20*
X302266Y509270D02*
D03*
X283750D02*
D03*
D21*
X367030Y205734D02*
D03*
Y224250D02*
D03*
X275590Y231680D02*
D03*
Y250196D02*
D03*
X330200Y522510D02*
D03*
Y541026D02*
D03*
X279400Y136792D02*
D03*
Y155308D02*
D03*
X676910Y396782D02*
D03*
Y415298D02*
D03*
D22*
X498820Y490220D02*
D03*
X474820Y480720D02*
D03*
Y499720D02*
D03*
X500950Y274320D02*
D03*
X476950Y264820D02*
D03*
Y283820D02*
D03*
X495870Y53340D02*
D03*
X471870Y43840D02*
D03*
Y62840D02*
D03*
D23*
X501650Y207690D02*
D03*
X527050Y140290D02*
D03*
X450850D02*
D03*
Y207690D02*
D03*
X500380Y429940D02*
D03*
X525780Y362540D02*
D03*
X449580D02*
D03*
Y429940D02*
D03*
X502920Y638220D02*
D03*
X528320Y570820D02*
D03*
X452120D02*
D03*
Y638220D02*
D03*
D24*
X337820Y187960D02*
D03*
X351326D02*
D03*
D25*
X676910Y360680D02*
D03*
Y365680D02*
D03*
Y370680D02*
D03*
Y380680D02*
D03*
Y375680D02*
D03*
X632910Y360680D02*
D03*
Y365680D02*
D03*
Y370680D02*
D03*
Y380680D02*
D03*
Y375680D02*
D03*
D26*
X646900Y326390D02*
D03*
X660400D02*
D03*
X599040Y346710D02*
D03*
X612540D02*
D03*
D27*
X497840Y520700D02*
D03*
X479340D02*
D03*
X496570Y307340D02*
D03*
X478070D02*
D03*
X491490Y87630D02*
D03*
X472990D02*
D03*
X302260Y538480D02*
D03*
X283760D02*
D03*
D28*
X504700Y544830D02*
D03*
X473200Y544830D02*
D03*
X502160Y332740D02*
D03*
X470660Y332740D02*
D03*
X498350Y114300D02*
D03*
X466850Y114300D02*
D03*
D29*
X228600Y208280D02*
D03*
Y187280D02*
D03*
D30*
Y168043D02*
D03*
Y154537D02*
D03*
D31*
X251460Y154559D02*
D03*
Y137541D02*
D03*
D32*
X566420Y226060D02*
D03*
Y240576D02*
D03*
D33*
X289560Y198120D02*
D03*
D42*
X295310D02*
D03*
X283810D02*
D03*
X289560Y188620D02*
D03*
Y207620D02*
D03*
D43*
X137160Y447040D02*
D03*
Y408940D02*
D03*
Y370840D02*
D03*
Y256540D02*
D03*
Y218440D02*
D03*
Y294640D02*
D03*
Y332740D02*
D03*
X765810Y195580D02*
D03*
Y233680D02*
D03*
Y271780D02*
D03*
Y386080D02*
D03*
Y424180D02*
D03*
Y347980D02*
D03*
Y309880D02*
D03*
D44*
X137160Y180340D02*
D03*
X765810Y462280D02*
D03*
D45*
X212090Y208280D02*
D03*
X422910D02*
D03*
X256540Y247650D02*
D03*
X373380Y172720D02*
D03*
X337820Y173990D02*
D03*
X303530Y168910D02*
D03*
X262890Y181610D02*
D03*
X462280Y307340D02*
D03*
X455930Y62230D02*
D03*
X462280Y283210D02*
D03*
Y499110D02*
D03*
X179070Y448310D02*
D03*
X177800Y410210D02*
D03*
X300990Y490220D02*
D03*
X457200Y43180D02*
D03*
X176530Y370840D02*
D03*
X502920Y661670D02*
D03*
X346710Y567690D02*
D03*
X463550Y520700D02*
D03*
X455930Y87630D02*
D03*
X726440Y462280D02*
D03*
X617220Y372110D02*
D03*
X579120Y346710D02*
D03*
X676910Y431800D02*
D03*
X306070Y651510D02*
D03*
X463550Y481330D02*
D03*
X464820Y265430D02*
D03*
X566420Y210820D02*
D03*
X501650Y233591D02*
D03*
X228524Y144453D02*
D03*
X279400Y119380D02*
D03*
M02*
