G04*
G04 #@! TF.GenerationSoftware,Altium Limited,Altium Designer,24.9.1 (31)*
G04*
G04 Layer_Color=65535*
%FSLAX44Y44*%
%MOMM*%
G71*
G04*
G04 #@! TF.SameCoordinates,7BCCF8FC-808F-4AE3-87CD-6E5EF412D55E*
G04*
G04*
G04 #@! TF.FilePolarity,Positive*
G04*
G01*
G75*
%ADD10C,0.2500*%
%ADD11C,0.2000*%
%ADD12C,0.1778*%
%ADD13C,0.2540*%
%ADD14R,0.5080X1.5870*%
D10*
X268060Y208120D02*
G03*
X268060Y208120I-1250J0D01*
G01*
X272550Y566420D02*
G03*
X272550Y566420I-1250J0D01*
G01*
X476070Y508220D02*
G03*
X476070Y508220I-1250J0D01*
G01*
X478200Y292320D02*
G03*
X478200Y292320I-1250J0D01*
G01*
X473120Y71340D02*
G03*
X473120Y71340I-1250J0D01*
G01*
X502700Y228740D02*
G03*
X502700Y228740I-1250J0D01*
G01*
X501430Y450990D02*
G03*
X501430Y450990I-1250J0D01*
G01*
X503970Y659270D02*
G03*
X503970Y659270I-1250J0D01*
G01*
D11*
X301560Y182620D02*
X305060D01*
X274060D02*
X277560D01*
X301560Y213620D02*
X305060D01*
X274060D02*
X277560D01*
X293740Y239640D02*
Y241140D01*
X308240Y239640D02*
Y241140D01*
X392759Y186939D02*
Y211061D01*
X409881Y186939D02*
Y211061D01*
X338300Y579670D02*
Y616670D01*
X271300Y579670D02*
Y616670D01*
X338300D01*
X271300Y579670D02*
X338300D01*
X276477Y521051D02*
X309539D01*
X276477Y497489D02*
X309539D01*
X378811Y198461D02*
Y231523D01*
X355249Y198461D02*
Y231523D01*
X287371Y224407D02*
Y257469D01*
X263809Y224407D02*
Y257469D01*
X341981Y515237D02*
Y548299D01*
X318419Y515237D02*
Y548299D01*
X291181Y129519D02*
Y162581D01*
X267619Y129519D02*
Y162581D01*
X688691Y389509D02*
Y422571D01*
X665129Y389509D02*
Y422571D01*
X493820Y475220D02*
Y483220D01*
X485820Y475220D02*
X493820D01*
Y497220D02*
Y505220D01*
X485820D02*
X493820D01*
X495950Y259320D02*
Y267320D01*
X487950Y259320D02*
X495950D01*
Y281320D02*
Y289320D01*
X487950D02*
X495950D01*
X490870Y38340D02*
Y46340D01*
X482870Y38340D02*
X490870D01*
Y60340D02*
Y68340D01*
X482870D02*
X490870D01*
X542950Y137990D02*
Y209990D01*
X434950D02*
X442800D01*
X458300D02*
X493600D01*
X509100D02*
X542950D01*
X434950Y137990D02*
Y209990D01*
Y137990D02*
X442800D01*
X458300D02*
X519000D01*
X534500D02*
X542950D01*
X333110Y213880D02*
Y215380D01*
X347610Y213880D02*
Y215380D01*
X334042Y179460D02*
X355104D01*
X334042Y196460D02*
X355104D01*
X165160Y155340D02*
Y472040D01*
X93160Y155340D02*
X165160D01*
X93160D02*
Y472040D01*
X165160D01*
X541680Y360240D02*
Y432240D01*
X433680D02*
X441530D01*
X457030D02*
X492330D01*
X507830D02*
X541680D01*
X433680Y360240D02*
Y432240D01*
Y360240D02*
X441530D01*
X457030D02*
X517730D01*
X533230D02*
X541680D01*
X590920Y371000D02*
Y372500D01*
X605420Y371000D02*
Y372500D01*
X648150Y383220D02*
X665930D01*
Y359090D02*
Y383220D01*
X644340Y359090D02*
X665930D01*
X644340D02*
Y379410D01*
X648150Y383220D01*
X487840Y513450D02*
X489340D01*
X487840Y527950D02*
X489340D01*
X482600Y537080D02*
Y552580D01*
X495300D01*
X482600Y537080D02*
X495300D01*
X544220Y568520D02*
Y640520D01*
X436220D02*
X444070D01*
X459570D02*
X494870D01*
X510370D02*
X544220D01*
X436220Y568520D02*
Y640520D01*
Y568520D02*
X444070D01*
X459570D02*
X520270D01*
X535770D02*
X544220D01*
X235350Y195530D02*
Y200030D01*
X221850Y195530D02*
Y200030D01*
X220100Y150759D02*
Y171821D01*
X237100Y150759D02*
Y171821D01*
X257710Y145324D02*
Y146776D01*
X245210Y145324D02*
Y146776D01*
X486570Y300090D02*
X488070D01*
X486570Y314590D02*
X488070D01*
X480060Y324990D02*
Y340490D01*
X492760D01*
X480060Y324990D02*
X492760D01*
X577670Y220787D02*
Y245849D01*
X555170Y220787D02*
Y245849D01*
X476250Y106550D02*
Y122050D01*
X488950D01*
X476250Y106550D02*
X488950D01*
X481490Y80380D02*
X482990D01*
X481490Y94880D02*
X482990D01*
X292260Y531230D02*
X293760D01*
X292260Y545730D02*
X293760D01*
X350890Y530470D02*
Y531970D01*
X365390Y530470D02*
Y531970D01*
X737810Y170580D02*
Y487280D01*
X809810D01*
Y170580D02*
Y487280D01*
X737810Y170580D02*
X809810D01*
D12*
X55118Y171958D02*
Y179576D01*
X57657Y177036D01*
X60196Y179576D01*
Y171958D01*
X67814Y178306D02*
X66544Y179576D01*
X64005D01*
X62736Y178306D01*
Y173228D01*
X64005Y171958D01*
X66544D01*
X67814Y173228D01*
X70353Y179576D02*
Y173228D01*
X71623Y171958D01*
X74162D01*
X75431Y173228D01*
Y179576D01*
X83049Y171958D02*
X77971D01*
X83049Y177036D01*
Y178306D01*
X81779Y179576D01*
X79240D01*
X77971Y178306D01*
X56388Y216406D02*
X57658Y217675D01*
X60197D01*
X61466Y216406D01*
Y215136D01*
X60197Y213867D01*
X58927D01*
X60197D01*
X61466Y212597D01*
Y211328D01*
X60197Y210058D01*
X57658D01*
X56388Y211328D01*
X64005Y215136D02*
X66545Y210058D01*
X69084Y215136D01*
X71623Y216406D02*
X72893Y217675D01*
X75432D01*
X76701Y216406D01*
Y215136D01*
X75432Y213867D01*
X74162D01*
X75432D01*
X76701Y212597D01*
Y211328D01*
X75432Y210058D01*
X72893D01*
X71623Y211328D01*
X57658Y255776D02*
X58928Y257045D01*
X61467D01*
X62736Y255776D01*
Y254506D01*
X61467Y253237D01*
X62736Y251967D01*
Y250698D01*
X61467Y249428D01*
X58928D01*
X57658Y250698D01*
Y251967D01*
X58928Y253237D01*
X57658Y254506D01*
Y255776D01*
X58928Y253237D02*
X61467D01*
X65276Y254506D02*
X67815Y249428D01*
X70354Y254506D01*
X72893Y255776D02*
X74163Y257045D01*
X76702D01*
X77971Y255776D01*
Y254506D01*
X76702Y253237D01*
X75432D01*
X76702D01*
X77971Y251967D01*
Y250698D01*
X76702Y249428D01*
X74163D01*
X72893Y250698D01*
X58928Y363728D02*
Y371345D01*
X61467Y368806D01*
X64006Y371345D01*
Y363728D01*
X71624Y370076D02*
X70354Y371345D01*
X67815D01*
X66546Y370076D01*
Y364998D01*
X67815Y363728D01*
X70354D01*
X71624Y364998D01*
X74163Y371345D02*
Y364998D01*
X75433Y363728D01*
X77972D01*
X79241Y364998D01*
Y371345D01*
X81781Y363728D02*
X84320D01*
X83050D01*
Y371345D01*
X81781Y370076D01*
X58928Y404368D02*
Y411986D01*
X61467Y409446D01*
X64006Y411986D01*
Y404368D01*
X71624Y410716D02*
X70354Y411986D01*
X67815D01*
X66546Y410716D01*
Y405638D01*
X67815Y404368D01*
X70354D01*
X71624Y405638D01*
X74163Y411986D02*
Y405638D01*
X75433Y404368D01*
X77972D01*
X79241Y405638D01*
Y411986D01*
X86859Y404368D02*
X81781D01*
X86859Y409446D01*
Y410716D01*
X85589Y411986D01*
X83050D01*
X81781Y410716D01*
X58928Y445008D02*
Y452626D01*
X61467Y450086D01*
X64006Y452626D01*
Y445008D01*
X71624Y451356D02*
X70354Y452626D01*
X67815D01*
X66546Y451356D01*
Y446278D01*
X67815Y445008D01*
X70354D01*
X71624Y446278D01*
X74163Y452626D02*
Y446278D01*
X75433Y445008D01*
X77972D01*
X79241Y446278D01*
Y452626D01*
X81781Y451356D02*
X83050Y452626D01*
X85589D01*
X86859Y451356D01*
Y450086D01*
X85589Y448817D01*
X84320D01*
X85589D01*
X86859Y447547D01*
Y446278D01*
X85589Y445008D01*
X83050D01*
X81781Y446278D01*
D13*
X314962Y205739D02*
Y199391D01*
X316231Y198121D01*
X318770D01*
X320040Y199391D01*
Y205739D01*
X322579Y198121D02*
X325118D01*
X323849D01*
Y205739D01*
X322579Y204469D01*
X297816Y274319D02*
X296547Y275589D01*
X294008D01*
X292738Y274319D01*
Y269241D01*
X294008Y267971D01*
X296547D01*
X297816Y269241D01*
X300356Y267971D02*
X302895D01*
X301625D01*
Y275589D01*
X300356Y274319D01*
X311782Y275589D02*
X306704D01*
Y271780D01*
X309243Y273050D01*
X310512D01*
X311782Y271780D01*
Y269241D01*
X310512Y267971D01*
X307973D01*
X306704Y269241D01*
X394972Y228601D02*
Y236219D01*
X398781D01*
X400050Y234949D01*
Y232410D01*
X398781Y231140D01*
X394972D01*
X397511D02*
X400050Y228601D01*
X407668Y236219D02*
X402590D01*
Y232410D01*
X405129Y233680D01*
X406398D01*
X407668Y232410D01*
Y229871D01*
X406398Y228601D01*
X403859D01*
X402590Y229871D01*
X269242Y659129D02*
Y652781D01*
X270512Y651511D01*
X273051D01*
X274320Y652781D01*
Y659129D01*
X281938Y651511D02*
X276860D01*
X281938Y656590D01*
Y657859D01*
X280668Y659129D01*
X278129D01*
X276860Y657859D01*
X426722Y238759D02*
Y231141D01*
Y233680D01*
X431800Y238759D01*
X427991Y234950D01*
X431800Y231141D01*
X434339D02*
X436878D01*
X435609D01*
Y238759D01*
X434339Y237489D01*
X269492Y277366D02*
X268223Y278636D01*
X265684D01*
X264414Y277366D01*
Y272288D01*
X265684Y271018D01*
X268223D01*
X269492Y272288D01*
X272031Y277366D02*
X273301Y278636D01*
X275840D01*
X277110Y277366D01*
Y276096D01*
X275840Y274827D01*
X274571D01*
X275840D01*
X277110Y273557D01*
Y272288D01*
X275840Y271018D01*
X273301D01*
X272031Y272288D01*
X365760Y243839D02*
X364491Y245109D01*
X361952D01*
X360682Y243839D01*
Y238761D01*
X361952Y237491D01*
X364491D01*
X365760Y238761D01*
X373378Y245109D02*
X368300D01*
Y241300D01*
X370839Y242570D01*
X372108D01*
X373378Y241300D01*
Y238761D01*
X372108Y237491D01*
X369569D01*
X368300Y238761D01*
X336548Y245616D02*
X335279Y246886D01*
X332740D01*
X331470Y245616D01*
Y240538D01*
X332740Y239268D01*
X335279D01*
X336548Y240538D01*
X339087Y239268D02*
X341627D01*
X340357D01*
Y246886D01*
X339087Y245616D01*
X345435D02*
X346705Y246886D01*
X349244D01*
X350514Y245616D01*
Y244346D01*
X349244Y243077D01*
X347975D01*
X349244D01*
X350514Y241807D01*
Y240538D01*
X349244Y239268D01*
X346705D01*
X345435Y240538D01*
X351792Y160021D02*
Y167639D01*
X355601D01*
X356870Y166369D01*
Y163830D01*
X355601Y162560D01*
X351792D01*
X354331D02*
X356870Y160021D01*
X363218D02*
Y167639D01*
X359410Y163830D01*
X364488D01*
X93982Y481331D02*
Y488949D01*
X97790D01*
X99060Y487679D01*
Y485140D01*
X97790Y483870D01*
X93982D01*
X101599Y481331D02*
X104138D01*
X102869D01*
Y488949D01*
X101599Y487679D01*
X264796Y491489D02*
X263526Y492759D01*
X260987D01*
X259718Y491489D01*
Y486411D01*
X260987Y485141D01*
X263526D01*
X264796Y486411D01*
X267335Y485141D02*
X269874D01*
X268605D01*
Y492759D01*
X267335Y491489D01*
X273683Y485141D02*
X276222D01*
X274953D01*
Y492759D01*
X273683Y491489D01*
X424182Y458469D02*
Y450851D01*
Y453390D01*
X429260Y458469D01*
X425452Y454660D01*
X429260Y450851D01*
X436878D02*
X431800D01*
X436878Y455930D01*
Y457199D01*
X435608Y458469D01*
X433069D01*
X431800Y457199D01*
X596900Y400049D02*
X595631Y401319D01*
X593092D01*
X591822Y400049D01*
Y394971D01*
X593092Y393701D01*
X595631D01*
X596900Y394971D01*
X599440D02*
X600709Y393701D01*
X603248D01*
X604518Y394971D01*
Y400049D01*
X603248Y401319D01*
X600709D01*
X599440Y400049D01*
Y398780D01*
X600709Y397510D01*
X604518D01*
X642622Y396239D02*
Y389891D01*
X643892Y388621D01*
X646431D01*
X647700Y389891D01*
Y396239D01*
X650240Y394969D02*
X651509Y396239D01*
X654048D01*
X655318Y394969D01*
Y393700D01*
X654048Y392430D01*
X652779D01*
X654048D01*
X655318Y391160D01*
Y389891D01*
X654048Y388621D01*
X651509D01*
X650240Y389891D01*
X648972Y306071D02*
Y313689D01*
X652781D01*
X654050Y312419D01*
Y309880D01*
X652781Y308610D01*
X648972D01*
X651511D02*
X654050Y306071D01*
X656590Y313689D02*
X661668D01*
Y312419D01*
X656590Y307341D01*
Y306071D01*
X627382Y341631D02*
Y349249D01*
X631191D01*
X632460Y347979D01*
Y345440D01*
X631191Y344170D01*
X627382D01*
X629921D02*
X632460Y341631D01*
X640078Y349249D02*
X637539Y347979D01*
X635000Y345440D01*
Y342901D01*
X636269Y341631D01*
X638808D01*
X640078Y342901D01*
Y344170D01*
X638808Y345440D01*
X635000D01*
X699136Y397509D02*
X697867Y398779D01*
X695328D01*
X694058Y397509D01*
Y392431D01*
X695328Y391161D01*
X697867D01*
X699136Y392431D01*
X701676Y391161D02*
X704215D01*
X702945D01*
Y398779D01*
X701676Y397509D01*
X708024D02*
X709293Y398779D01*
X711832D01*
X713102Y397509D01*
Y392431D01*
X711832Y391161D01*
X709293D01*
X708024Y392431D01*
Y397509D01*
X511810Y477521D02*
Y482599D01*
X510541Y483869D01*
X508002D01*
X506732Y482599D01*
Y477521D01*
X508002Y476251D01*
X510541D01*
X509271Y478790D02*
X511810Y476251D01*
X510541D02*
X511810Y477521D01*
X514350Y482599D02*
X515619Y483869D01*
X518158D01*
X519428Y482599D01*
Y481330D01*
X518158Y480060D01*
X516889D01*
X518158D01*
X519428Y478790D01*
Y477521D01*
X518158Y476251D01*
X515619D01*
X514350Y477521D01*
X515620Y520699D02*
X514351Y521969D01*
X511812D01*
X510542Y520699D01*
Y515621D01*
X511812Y514351D01*
X514351D01*
X515620Y515621D01*
X518160Y520699D02*
X519429Y521969D01*
X521968D01*
X523238Y520699D01*
Y519430D01*
X521968Y518160D01*
X523238Y516890D01*
Y515621D01*
X521968Y514351D01*
X519429D01*
X518160Y515621D01*
Y516890D01*
X519429Y518160D01*
X518160Y519430D01*
Y520699D01*
X519429Y518160D02*
X521968D01*
X515622Y538479D02*
Y530861D01*
X519431D01*
X520700Y532131D01*
Y537209D01*
X519431Y538479D01*
X515622D01*
X523240Y537209D02*
X524509Y538479D01*
X527048D01*
X528318Y537209D01*
Y535940D01*
X527048Y534670D01*
X525779D01*
X527048D01*
X528318Y533400D01*
Y532131D01*
X527048Y530861D01*
X524509D01*
X523240Y532131D01*
X416562Y567689D02*
Y560071D01*
Y562610D01*
X421640Y567689D01*
X417832Y563880D01*
X421640Y560071D01*
X424180Y566419D02*
X425449Y567689D01*
X427988D01*
X429258Y566419D01*
Y565150D01*
X427988Y563880D01*
X426719D01*
X427988D01*
X429258Y562610D01*
Y561341D01*
X427988Y560071D01*
X425449D01*
X424180Y561341D01*
X304800Y138429D02*
X303531Y139699D01*
X300992D01*
X299722Y138429D01*
Y133351D01*
X300992Y132081D01*
X303531D01*
X304800Y133351D01*
X311148Y132081D02*
Y139699D01*
X307340Y135890D01*
X312418D01*
X223522Y220981D02*
Y228599D01*
X227330D01*
X228600Y227329D01*
Y224790D01*
X227330Y223520D01*
X223522D01*
X226061D02*
X228600Y220981D01*
X231139D02*
X233678D01*
X232409D01*
Y228599D01*
X231139Y227329D01*
X199392Y160021D02*
Y167639D01*
X203201D01*
X204470Y166369D01*
Y163830D01*
X203201Y162560D01*
X199392D01*
X201931D02*
X204470Y160021D01*
X212088D02*
X207010D01*
X212088Y165100D01*
Y166369D01*
X210818Y167639D01*
X208279D01*
X207010Y166369D01*
X245112Y119381D02*
Y126999D01*
X248921D01*
X250190Y125729D01*
Y123190D01*
X248921Y121920D01*
X245112D01*
X247651D02*
X250190Y119381D01*
X252730Y125729D02*
X253999Y126999D01*
X256538D01*
X257808Y125729D01*
Y124460D01*
X256538Y123190D01*
X255269D01*
X256538D01*
X257808Y121920D01*
Y120651D01*
X256538Y119381D01*
X253999D01*
X252730Y120651D01*
X516890Y257811D02*
Y262889D01*
X515621Y264159D01*
X513082D01*
X511812Y262889D01*
Y257811D01*
X513082Y256541D01*
X515621D01*
X514351Y259080D02*
X516890Y256541D01*
X515621D02*
X516890Y257811D01*
X524508Y256541D02*
X519430D01*
X524508Y261620D01*
Y262889D01*
X523238Y264159D01*
X520699D01*
X519430Y262889D01*
X516890Y304799D02*
X515621Y306069D01*
X513082D01*
X511812Y304799D01*
Y299721D01*
X513082Y298451D01*
X515621D01*
X516890Y299721D01*
X519430Y306069D02*
X524508D01*
Y304799D01*
X519430Y299721D01*
Y298451D01*
X511812Y326389D02*
Y318771D01*
X515621D01*
X516890Y320041D01*
Y325119D01*
X515621Y326389D01*
X511812D01*
X524508Y318771D02*
X519430D01*
X524508Y323850D01*
Y325119D01*
X523238Y326389D01*
X520699D01*
X519430Y325119D01*
X589916Y233679D02*
X588647Y234949D01*
X586108D01*
X584838Y233679D01*
Y228601D01*
X586108Y227331D01*
X588647D01*
X589916Y228601D01*
X592456Y227331D02*
X594995D01*
X593725D01*
Y234949D01*
X592456Y233679D01*
X602612Y227331D02*
Y234949D01*
X598804Y231140D01*
X603882D01*
X506732Y104139D02*
Y96521D01*
X510540D01*
X511810Y97791D01*
Y102869D01*
X510540Y104139D01*
X506732D01*
X514349Y96521D02*
X516888D01*
X515619D01*
Y104139D01*
X514349Y102869D01*
X510540Y30481D02*
Y35559D01*
X509270Y36829D01*
X506731D01*
X505462Y35559D01*
Y30481D01*
X506731Y29211D01*
X509270D01*
X508001Y31750D02*
X510540Y29211D01*
X509270D02*
X510540Y30481D01*
X513079Y29211D02*
X515618D01*
X514349D01*
Y36829D01*
X513079Y35559D01*
X510540Y73659D02*
X509271Y74929D01*
X506732D01*
X505462Y73659D01*
Y68581D01*
X506732Y67311D01*
X509271D01*
X510540Y68581D01*
X518158Y74929D02*
X515619Y73659D01*
X513080Y71120D01*
Y68581D01*
X514349Y67311D01*
X516888D01*
X518158Y68581D01*
Y69850D01*
X516888Y71120D01*
X513080D01*
X266700Y547369D02*
X265430Y548639D01*
X262891D01*
X261622Y547369D01*
Y542291D01*
X262891Y541021D01*
X265430D01*
X266700Y542291D01*
X269239Y541021D02*
X271778D01*
X270509D01*
Y548639D01*
X269239Y547369D01*
X353696Y509269D02*
X352427Y510539D01*
X349888D01*
X348618Y509269D01*
Y504191D01*
X349888Y502921D01*
X352427D01*
X353696Y504191D01*
X356236Y502921D02*
X358775D01*
X357505D01*
Y510539D01*
X356236Y509269D01*
X367662Y502921D02*
X362584D01*
X367662Y508000D01*
Y509269D01*
X366392Y510539D01*
X363853D01*
X362584Y509269D01*
X326390Y505459D02*
X325121Y506729D01*
X322582D01*
X321312Y505459D01*
Y500381D01*
X322582Y499111D01*
X325121D01*
X326390Y500381D01*
X334008Y499111D02*
X328930D01*
X334008Y504190D01*
Y505459D01*
X332738Y506729D01*
X330199D01*
X328930Y505459D01*
X738124Y497078D02*
Y504696D01*
X741933D01*
X743202Y503426D01*
Y500887D01*
X741933Y499617D01*
X738124D01*
X750820Y497078D02*
X745742D01*
X750820Y502156D01*
Y503426D01*
X749550Y504696D01*
X747011D01*
X745742Y503426D01*
D14*
X485140Y545145D02*
D03*
X482600Y333055D02*
D03*
X478790Y114615D02*
D03*
M02*
