G04*
G04 #@! TF.GenerationSoftware,Altium Limited,Altium Designer,24.9.1 (31)*
G04*
G04 Layer_Physical_Order=4*
G04 Layer_Color=16711680*
%FSLAX44Y44*%
%MOMM*%
G71*
G04*
G04 #@! TF.SameCoordinates,7BCCF8FC-808F-4AE3-87CD-6E5EF412D55E*
G04*
G04*
G04 #@! TF.FilePolarity,Positive*
G04*
G01*
G75*
%ADD13C,0.2540*%
%ADD42C,0.5080*%
%ADD43C,2.1000*%
G04:AMPARAMS|DCode=44|XSize=2.1mm|YSize=2.1mm|CornerRadius=0.525mm|HoleSize=0mm|Usage=FLASHONLY|Rotation=90.000|XOffset=0mm|YOffset=0mm|HoleType=Round|Shape=RoundedRectangle|*
%AMROUNDEDRECTD44*
21,1,2.1000,1.0500,0,0,90.0*
21,1,1.0500,2.1000,0,0,90.0*
1,1,1.0500,0.5250,0.5250*
1,1,1.0500,0.5250,-0.5250*
1,1,1.0500,-0.5250,-0.5250*
1,1,1.0500,-0.5250,0.5250*
%
%ADD44ROUNDEDRECTD44*%
%ADD45C,0.8890*%
D13*
X262890Y181610D02*
X313914D01*
X320264Y187960D01*
X369570D01*
X373380Y184150D01*
Y172720D02*
Y184150D01*
X422910Y208280D02*
X476250D01*
X501561Y233591D02*
X501650D01*
X476250Y208280D02*
X501561Y233591D01*
X176530Y137160D02*
X251460Y62230D01*
X455930D01*
X176530Y137160D02*
Y370840D01*
X335280Y410210D02*
X462280Y283210D01*
X179070Y448310D02*
X411480D01*
X462280Y499110D01*
X177800Y410210D02*
X335280D01*
X356870Y661670D02*
X502920D01*
X346710Y651510D02*
X356870Y661670D01*
X346710Y567690D02*
Y651510D01*
X617220Y431800D02*
X647700Y462280D01*
X726440D01*
X617220Y372110D02*
Y431800D01*
D42*
X295310Y198120D02*
D03*
X283810D02*
D03*
X289560Y188620D02*
D03*
Y207620D02*
D03*
D43*
X137160Y447040D02*
D03*
Y408940D02*
D03*
Y370840D02*
D03*
Y256540D02*
D03*
Y218440D02*
D03*
Y294640D02*
D03*
Y332740D02*
D03*
X765810Y195580D02*
D03*
Y233680D02*
D03*
Y271780D02*
D03*
Y386080D02*
D03*
Y424180D02*
D03*
Y347980D02*
D03*
Y309880D02*
D03*
D44*
X137160Y180340D02*
D03*
X765810Y462280D02*
D03*
D45*
X212090Y208280D02*
D03*
X422910D02*
D03*
X256540Y247650D02*
D03*
X373380Y172720D02*
D03*
X337820Y173990D02*
D03*
X303530Y168910D02*
D03*
X262890Y181610D02*
D03*
X462280Y307340D02*
D03*
X455930Y62230D02*
D03*
X462280Y283210D02*
D03*
Y499110D02*
D03*
X179070Y448310D02*
D03*
X177800Y410210D02*
D03*
X300990Y490220D02*
D03*
X457200Y43180D02*
D03*
X176530Y370840D02*
D03*
X502920Y661670D02*
D03*
X346710Y567690D02*
D03*
X463550Y520700D02*
D03*
X455930Y87630D02*
D03*
X726440Y462280D02*
D03*
X617220Y372110D02*
D03*
X579120Y346710D02*
D03*
X676910Y431800D02*
D03*
X306070Y651510D02*
D03*
X463550Y481330D02*
D03*
X464820Y265430D02*
D03*
X566420Y210820D02*
D03*
X501650Y233591D02*
D03*
X228524Y144453D02*
D03*
X279400Y119380D02*
D03*
M02*
