G04*
G04 #@! TF.GenerationSoftware,Altium Limited,Altium Designer,24.9.1 (31)*
G04*
G04 Layer_Color=8421504*
%FSLAX44Y44*%
%MOMM*%
G71*
G04*
G04 #@! TF.SameCoordinates,7BCCF8FC-808F-4AE3-87CD-6E5EF412D55E*
G04*
G04*
G04 #@! TF.FilePolarity,Positive*
G04*
G01*
G75*
G04:AMPARAMS|DCode=15|XSize=0.6mm|YSize=0.24mm|CornerRadius=0.0504mm|HoleSize=0mm|Usage=FLASHONLY|Rotation=0.000|XOffset=0mm|YOffset=0mm|HoleType=Round|Shape=RoundedRectangle|*
%AMROUNDEDRECTD15*
21,1,0.6000,0.1392,0,0,0.0*
21,1,0.4992,0.2400,0,0,0.0*
1,1,0.1008,0.2496,-0.0696*
1,1,0.1008,-0.2496,-0.0696*
1,1,0.1008,-0.2496,0.0696*
1,1,0.1008,0.2496,0.0696*
%
%ADD15ROUNDEDRECTD15*%
%ADD16R,1.4000X0.9500*%
%ADD17R,0.9121X0.9581*%
G04:AMPARAMS|DCode=18|XSize=3.25mm|YSize=2.05mm|CornerRadius=0.0513mm|HoleSize=0mm|Usage=FLASHONLY|Rotation=180.000|XOffset=0mm|YOffset=0mm|HoleType=Round|Shape=RoundedRectangle|*
%AMROUNDEDRECTD18*
21,1,3.2500,1.9475,0,0,180.0*
21,1,3.1475,2.0500,0,0,180.0*
1,1,0.1025,-1.5738,0.9738*
1,1,0.1025,1.5738,0.9738*
1,1,0.1025,1.5738,-0.9738*
1,1,0.1025,-1.5738,-0.9738*
%
%ADD18ROUNDEDRECTD18*%
G04:AMPARAMS|DCode=19|XSize=1mm|YSize=2.05mm|CornerRadius=0.05mm|HoleSize=0mm|Usage=FLASHONLY|Rotation=180.000|XOffset=0mm|YOffset=0mm|HoleType=Round|Shape=RoundedRectangle|*
%AMROUNDEDRECTD19*
21,1,1.0000,1.9500,0,0,180.0*
21,1,0.9000,2.0500,0,0,180.0*
1,1,0.1000,-0.4500,0.9750*
1,1,0.1000,0.4500,0.9750*
1,1,0.1000,0.4500,-0.9750*
1,1,0.1000,-0.4500,-0.9750*
%
%ADD19ROUNDEDRECTD19*%
%ADD20R,1.4546X1.5562*%
%ADD21R,1.5562X1.4546*%
%ADD22R,1.3500X0.6000*%
%ADD23R,0.8000X2.6600*%
%ADD24R,0.7556X0.8121*%
%ADD25R,1.4500X0.3000*%
%ADD26R,0.9000X1.0500*%
%ADD27R,0.9500X1.4000*%
%ADD28R,0.9000X0.9500*%
%ADD29R,1.2000X0.9000*%
%ADD30R,0.8121X0.7556*%
%ADD31R,1.3082X0.8065*%
%ADD32R,1.3562X1.0546*%
G36*
X296843Y197044D02*
X296984Y196903D01*
X297060Y196719D01*
Y196620D01*
Y187020D01*
Y186921D01*
X296984Y186737D01*
X296843Y186596D01*
X296660Y186520D01*
X282460D01*
X282277Y186596D01*
X282136Y186737D01*
X282060Y186921D01*
Y187020D01*
Y196620D01*
Y196719D01*
X282136Y196903D01*
X282277Y197044D01*
X282460Y197120D01*
X296660D01*
X296843Y197044D01*
D02*
G37*
G36*
X293093Y184444D02*
X293234Y184303D01*
X293310Y184119D01*
Y184020D01*
Y181620D01*
Y181521D01*
X293234Y181337D01*
X293093Y181196D01*
X292909Y181120D01*
X291210D01*
X291027Y181196D01*
X290886Y181337D01*
X290810Y181521D01*
Y181620D01*
Y184020D01*
Y184119D01*
X290886Y184303D01*
X291027Y184444D01*
X291210Y184520D01*
X292909D01*
X293093Y184444D01*
D02*
G37*
G36*
X288093D02*
X288234Y184303D01*
X288310Y184119D01*
Y184020D01*
Y181620D01*
Y181521D01*
X288234Y181337D01*
X288093Y181196D01*
X287909Y181120D01*
X286210D01*
X286027Y181196D01*
X285886Y181337D01*
X285810Y181521D01*
Y181620D01*
Y184020D01*
Y184119D01*
X285886Y184303D01*
X286027Y184444D01*
X286210Y184520D01*
X287909D01*
X288093Y184444D01*
D02*
G37*
G36*
X293093Y215044D02*
X293234Y214903D01*
X293310Y214719D01*
Y214620D01*
Y212220D01*
Y212120D01*
X293234Y211937D01*
X293093Y211796D01*
X292909Y211720D01*
X291210D01*
X291027Y211796D01*
X290886Y211937D01*
X290810Y212120D01*
Y212220D01*
Y214620D01*
Y214719D01*
X290886Y214903D01*
X291027Y215044D01*
X291210Y215120D01*
X292909D01*
X293093Y215044D01*
D02*
G37*
G36*
X288093D02*
X288234Y214903D01*
X288310Y214719D01*
Y214620D01*
Y212220D01*
Y212120D01*
X288234Y211937D01*
X288093Y211796D01*
X287909Y211720D01*
X286210D01*
X286027Y211796D01*
X285886Y211937D01*
X285810Y212120D01*
Y212220D01*
Y214620D01*
Y214719D01*
X285886Y214903D01*
X286027Y215044D01*
X286210Y215120D01*
X287909D01*
X288093Y215044D01*
D02*
G37*
G36*
X296843Y209644D02*
X296984Y209503D01*
X297060Y209319D01*
Y209220D01*
Y199620D01*
Y199520D01*
X296984Y199337D01*
X296843Y199196D01*
X296660Y199120D01*
X282460D01*
X282277Y199196D01*
X282136Y199337D01*
X282060Y199520D01*
Y199620D01*
Y209220D01*
Y209319D01*
X282136Y209503D01*
X282277Y209644D01*
X282460Y209720D01*
X296660D01*
X296843Y209644D01*
D02*
G37*
D15*
X303560Y208120D02*
D03*
Y203120D02*
D03*
Y198120D02*
D03*
Y193120D02*
D03*
Y188120D02*
D03*
X275560D02*
D03*
Y193120D02*
D03*
Y198120D02*
D03*
Y203120D02*
D03*
Y208120D02*
D03*
D16*
X300990Y231140D02*
D03*
Y249640D02*
D03*
X340360Y205380D02*
D03*
Y223880D02*
D03*
X598170Y362500D02*
D03*
Y381000D02*
D03*
X358140Y521970D02*
D03*
Y540470D02*
D03*
D17*
X401320Y206270D02*
D03*
Y191730D02*
D03*
D18*
X304800Y629920D02*
D03*
D19*
X327800Y566420D02*
D03*
X304800D02*
D03*
X281800D02*
D03*
D20*
X302266Y509270D02*
D03*
X283750D02*
D03*
D21*
X367030Y205734D02*
D03*
Y224250D02*
D03*
X275590Y231680D02*
D03*
Y250196D02*
D03*
X330200Y522510D02*
D03*
Y541026D02*
D03*
X279400Y136792D02*
D03*
Y155308D02*
D03*
X676910Y396782D02*
D03*
Y415298D02*
D03*
D22*
X498820Y490220D02*
D03*
X474820Y480720D02*
D03*
Y499720D02*
D03*
X500950Y274320D02*
D03*
X476950Y264820D02*
D03*
Y283820D02*
D03*
X495870Y53340D02*
D03*
X471870Y43840D02*
D03*
Y62840D02*
D03*
D23*
X501650Y207690D02*
D03*
X527050Y140290D02*
D03*
X450850D02*
D03*
Y207690D02*
D03*
X500380Y429940D02*
D03*
X525780Y362540D02*
D03*
X449580D02*
D03*
Y429940D02*
D03*
X502920Y638220D02*
D03*
X528320Y570820D02*
D03*
X452120D02*
D03*
Y638220D02*
D03*
D24*
X337820Y187960D02*
D03*
X351326D02*
D03*
D25*
X676910Y360680D02*
D03*
Y365680D02*
D03*
Y370680D02*
D03*
Y380680D02*
D03*
Y375680D02*
D03*
X632910Y360680D02*
D03*
Y365680D02*
D03*
Y370680D02*
D03*
Y380680D02*
D03*
Y375680D02*
D03*
D26*
X646900Y326390D02*
D03*
X660400D02*
D03*
X599040Y346710D02*
D03*
X612540D02*
D03*
D27*
X497840Y520700D02*
D03*
X479340D02*
D03*
X496570Y307340D02*
D03*
X478070D02*
D03*
X491490Y87630D02*
D03*
X472990D02*
D03*
X302260Y538480D02*
D03*
X283760D02*
D03*
D28*
X504700Y544830D02*
D03*
X473200Y544830D02*
D03*
X502160Y332740D02*
D03*
X470660Y332740D02*
D03*
X498350Y114300D02*
D03*
X466850Y114300D02*
D03*
D29*
X228600Y208280D02*
D03*
Y187280D02*
D03*
D30*
Y168043D02*
D03*
Y154537D02*
D03*
D31*
X251460Y154559D02*
D03*
Y137541D02*
D03*
D32*
X566420Y226060D02*
D03*
Y240576D02*
D03*
M02*
