M48
;Layer_Color=9474304
;FILE_FORMAT=4:4
METRIC,LZ
;TYPE=PLATED
T01F00S00C0.2540
T02F00S00C0.3810
T03F00S00C1.4000
%
T01
X0028956Y0018862
X0029531Y0019812
X0028381
X0028956Y0020762
T02
X004572Y0004318
X0045593Y0006223
Y0008763
X0042291Y0020828
X0037338Y0017272
X0033782Y0017399
X0030353Y0016891
X0026289Y0018161
X00228524Y00144453
X002794Y0011938
X0025654Y0024765
X0021209Y0020828
X0017653Y0037084
X001778Y0041021
X0017907Y0044831
X0046228Y0030734
Y0028321
X0046482Y0026543
X0050165Y00233591
X0056642Y0021082
X0057912Y0034671
X0061722Y0037211
X0067691Y004318
X0072644Y0046228
X0046355Y0048133
X0046228Y0049911
X0046355Y005207
X0034671Y0056769
X0030099Y0049022
X0030607Y0065151
X0050292Y0066167
T03
X0013716Y0018034
Y0021844
Y0025654
Y0029464
Y0033274
Y0037084
Y0040894
Y0044704
X0076581Y0046228
Y0042418
Y0038608
Y0034798
Y0030988
Y0027178
Y0023368
Y0019558
M30
