M48
;Layer_Color=9474304
;FILE_FORMAT=4:4
METRIC,LZ
;TYPE=PLATED
T01F00S00C0.7112
T02F00S00C1.0000
T03F00S00C1.0922
T04F00S00C1.1000
%
T01
X0067183Y0023876
Y0028702
X0069215Y0029718
X0069342Y0039624
X0061976Y0034417
X0059563
X0051789Y0024357
X0052832Y0022479
T02
X0055118Y0028702
Y0031242
Y0033782
T03
X0009017Y0013843
X0014017
X0056087Y0009525
Y0004525
X0061087
Y0009525
X0014017Y0018843
X0009017
T04
X0073533Y0034417
Y0036957
Y0039497
Y0042037
M30
