G04*
G04 #@! TF.GenerationSoftware,Altium Limited,Altium Designer,24.10.1 (45)*
G04*
G04 Layer_Color=8421504*
%FSLAX44Y44*%
%MOMM*%
G71*
G04*
G04 #@! TF.SameCoordinates,AA472AB2-6637-4989-BC3C-C099BA8EEFD1*
G04*
G04*
G04 #@! TF.FilePolarity,Positive*
G04*
G01*
G75*
%ADD15R,0.9500X0.9000*%
%ADD16R,1.3000X1.4500*%
%ADD17R,1.4500X1.3000*%
%ADD18R,0.9000X0.9500*%
%ADD19R,0.9500X0.9500*%
%ADD20R,1.1700X1.1700*%
G04:AMPARAMS|DCode=21|XSize=0.88mm|YSize=0.26mm|CornerRadius=0.0325mm|HoleSize=0mm|Usage=FLASHONLY|Rotation=180.000|XOffset=0mm|YOffset=0mm|HoleType=Round|Shape=RoundedRectangle|*
%AMROUNDEDRECTD21*
21,1,0.8800,0.1950,0,0,180.0*
21,1,0.8150,0.2600,0,0,180.0*
1,1,0.0650,-0.4075,0.0975*
1,1,0.0650,0.4075,0.0975*
1,1,0.0650,0.4075,-0.0975*
1,1,0.0650,-0.4075,-0.0975*
%
%ADD21ROUNDEDRECTD21*%
G04:AMPARAMS|DCode=22|XSize=0.26mm|YSize=0.88mm|CornerRadius=0.0325mm|HoleSize=0mm|Usage=FLASHONLY|Rotation=180.000|XOffset=0mm|YOffset=0mm|HoleType=Round|Shape=RoundedRectangle|*
%AMROUNDEDRECTD22*
21,1,0.2600,0.8150,0,0,180.0*
21,1,0.1950,0.8800,0,0,180.0*
1,1,0.0650,-0.0975,0.4075*
1,1,0.0650,0.0975,0.4075*
1,1,0.0650,0.0975,-0.4075*
1,1,0.0650,-0.0975,-0.4075*
%
%ADD22ROUNDEDRECTD22*%
G36*
X404930Y301430D02*
X393230D01*
Y313130D01*
X404930D01*
Y301430D01*
D02*
G37*
G36*
X391230D02*
X379530D01*
Y313130D01*
X391230D01*
Y301430D01*
D02*
G37*
G36*
X377530D02*
X365830D01*
Y313130D01*
X377530D01*
Y301430D01*
D02*
G37*
G36*
X404930Y287730D02*
X393230D01*
Y299430D01*
X404930D01*
Y287730D01*
D02*
G37*
G36*
X377530D02*
X365830D01*
Y299430D01*
X377530D01*
Y287730D01*
D02*
G37*
G36*
X142430Y276690D02*
X142490D01*
X142550Y276670D01*
X142610Y276660D01*
X142670Y276640D01*
X142730Y276620D01*
X142790Y276600D01*
X142840Y276570D01*
X142900Y276540D01*
X142950Y276510D01*
X143010Y276470D01*
X143060Y276430D01*
X143100Y276390D01*
X143150Y276350D01*
X143190Y276300D01*
X143230Y276260D01*
X143270Y276210D01*
X143310Y276150D01*
X143340Y276100D01*
X143370Y276040D01*
X143400Y275990D01*
X143420Y275930D01*
X143440Y275870D01*
X143460Y275810D01*
X143470Y275750D01*
X143490Y275690D01*
Y275630D01*
X143500Y275560D01*
Y275500D01*
Y275440D01*
X143490Y275370D01*
Y275310D01*
X143470Y275250D01*
X143460Y275190D01*
X143440Y275130D01*
X143420Y275070D01*
X143400Y275010D01*
X143370Y274960D01*
X143340Y274900D01*
X143310Y274850D01*
X143270Y274790D01*
X143230Y274740D01*
X143190Y274700D01*
X143150Y274650D01*
X143100Y274610D01*
X143060Y274570D01*
X143010Y274530D01*
X142950Y274490D01*
X142900Y274460D01*
X142840Y274430D01*
X142790Y274400D01*
X142730Y274380D01*
X142670Y274360D01*
X142610Y274340D01*
X142550Y274330D01*
X142490Y274310D01*
X142430D01*
X142360Y274300D01*
X138640D01*
X138570Y274310D01*
X138510D01*
X138450Y274330D01*
X138390Y274340D01*
X138330Y274360D01*
X138270Y274380D01*
X138210Y274400D01*
X138160Y274430D01*
X138100Y274460D01*
X138050Y274490D01*
X137990Y274530D01*
X137940Y274570D01*
X137900Y274610D01*
X137850Y274650D01*
X137810Y274700D01*
X137770Y274740D01*
X137730Y274790D01*
X137690Y274850D01*
X137660Y274900D01*
X137630Y274960D01*
X137600Y275010D01*
X137580Y275070D01*
X137560Y275130D01*
X137540Y275190D01*
X137530Y275250D01*
X137510Y275310D01*
Y275370D01*
X137500Y275440D01*
Y275500D01*
Y275560D01*
X137510Y275630D01*
Y275690D01*
X137530Y275750D01*
X137540Y275810D01*
X137560Y275870D01*
X137580Y275930D01*
X137600Y275990D01*
X137630Y276040D01*
X137660Y276100D01*
X137690Y276150D01*
X137730Y276210D01*
X137770Y276260D01*
X137810Y276300D01*
X137850Y276350D01*
X137900Y276390D01*
X137940Y276430D01*
X137990Y276470D01*
X138050Y276510D01*
X138100Y276540D01*
X138160Y276570D01*
X138210Y276600D01*
X138270Y276620D01*
X138330Y276640D01*
X138390Y276660D01*
X138450Y276670D01*
X138510Y276690D01*
X138570D01*
X138640Y276700D01*
X142360D01*
X142430Y276690D01*
D02*
G37*
G36*
X114430D02*
X114490D01*
X114550Y276670D01*
X114610Y276660D01*
X114670Y276640D01*
X114730Y276620D01*
X114790Y276600D01*
X114840Y276570D01*
X114900Y276540D01*
X114950Y276510D01*
X115010Y276470D01*
X115060Y276430D01*
X115100Y276390D01*
X115150Y276350D01*
X115190Y276300D01*
X115230Y276260D01*
X115270Y276210D01*
X115310Y276150D01*
X115340Y276100D01*
X115370Y276040D01*
X115400Y275990D01*
X115420Y275930D01*
X115440Y275870D01*
X115460Y275810D01*
X115470Y275750D01*
X115490Y275690D01*
Y275630D01*
X115500Y275560D01*
Y275500D01*
Y275440D01*
X115490Y275370D01*
Y275310D01*
X115470Y275250D01*
X115460Y275190D01*
X115440Y275130D01*
X115420Y275070D01*
X115400Y275010D01*
X115370Y274960D01*
X115340Y274900D01*
X115310Y274850D01*
X115270Y274790D01*
X115230Y274740D01*
X115190Y274700D01*
X115150Y274650D01*
X115100Y274610D01*
X115060Y274570D01*
X115010Y274530D01*
X114950Y274490D01*
X114900Y274460D01*
X114840Y274430D01*
X114790Y274400D01*
X114730Y274380D01*
X114670Y274360D01*
X114610Y274340D01*
X114550Y274330D01*
X114490Y274310D01*
X114430D01*
X114360Y274300D01*
X110640D01*
X110570Y274310D01*
X110510D01*
X110450Y274330D01*
X110390Y274340D01*
X110330Y274360D01*
X110270Y274380D01*
X110210Y274400D01*
X110160Y274430D01*
X110100Y274460D01*
X110050Y274490D01*
X109990Y274530D01*
X109940Y274570D01*
X109900Y274610D01*
X109850Y274650D01*
X109810Y274700D01*
X109770Y274740D01*
X109730Y274790D01*
X109690Y274850D01*
X109660Y274900D01*
X109630Y274960D01*
X109600Y275010D01*
X109580Y275070D01*
X109560Y275130D01*
X109540Y275190D01*
X109530Y275250D01*
X109510Y275310D01*
Y275370D01*
X109500Y275440D01*
Y275500D01*
Y275560D01*
X109510Y275630D01*
Y275690D01*
X109530Y275750D01*
X109540Y275810D01*
X109560Y275870D01*
X109580Y275930D01*
X109600Y275990D01*
X109630Y276040D01*
X109660Y276100D01*
X109690Y276150D01*
X109730Y276210D01*
X109770Y276260D01*
X109810Y276300D01*
X109850Y276350D01*
X109900Y276390D01*
X109940Y276430D01*
X109990Y276470D01*
X110050Y276510D01*
X110100Y276540D01*
X110160Y276570D01*
X110210Y276600D01*
X110270Y276620D01*
X110330Y276640D01*
X110390Y276660D01*
X110450Y276670D01*
X110510Y276690D01*
X110570D01*
X110640Y276700D01*
X114360D01*
X114430Y276690D01*
D02*
G37*
G36*
X404930Y274030D02*
X393230D01*
Y285730D01*
X404930D01*
Y274030D01*
D02*
G37*
G36*
X391230D02*
X379530D01*
Y285730D01*
X391230D01*
Y274030D01*
D02*
G37*
G36*
X377530D02*
X365830D01*
Y285730D01*
X377530D01*
Y274030D01*
D02*
G37*
G36*
X142430Y271690D02*
X142490D01*
X142550Y271670D01*
X142610Y271660D01*
X142670Y271640D01*
X142730Y271620D01*
X142790Y271600D01*
X142840Y271570D01*
X142900Y271540D01*
X142950Y271510D01*
X143010Y271470D01*
X143060Y271430D01*
X143100Y271390D01*
X143150Y271350D01*
X143190Y271300D01*
X143230Y271260D01*
X143270Y271210D01*
X143310Y271150D01*
X143340Y271100D01*
X143370Y271040D01*
X143400Y270990D01*
X143420Y270930D01*
X143440Y270870D01*
X143460Y270810D01*
X143470Y270750D01*
X143490Y270690D01*
Y270630D01*
X143500Y270560D01*
Y270500D01*
Y270440D01*
X143490Y270370D01*
Y270310D01*
X143470Y270250D01*
X143460Y270190D01*
X143440Y270130D01*
X143420Y270070D01*
X143400Y270010D01*
X143370Y269960D01*
X143340Y269900D01*
X143310Y269850D01*
X143270Y269790D01*
X143230Y269740D01*
X143190Y269700D01*
X143150Y269650D01*
X143100Y269610D01*
X143060Y269570D01*
X143010Y269530D01*
X142950Y269490D01*
X142900Y269460D01*
X142840Y269430D01*
X142790Y269400D01*
X142730Y269380D01*
X142670Y269360D01*
X142610Y269340D01*
X142550Y269330D01*
X142490Y269310D01*
X142430D01*
X142360Y269300D01*
X138640D01*
X138570Y269310D01*
X138510D01*
X138450Y269330D01*
X138390Y269340D01*
X138330Y269360D01*
X138270Y269380D01*
X138210Y269400D01*
X138160Y269430D01*
X138100Y269460D01*
X138050Y269490D01*
X137990Y269530D01*
X137940Y269570D01*
X137900Y269610D01*
X137850Y269650D01*
X137810Y269700D01*
X137770Y269740D01*
X137730Y269790D01*
X137690Y269850D01*
X137660Y269900D01*
X137630Y269960D01*
X137600Y270010D01*
X137580Y270070D01*
X137560Y270130D01*
X137540Y270190D01*
X137530Y270250D01*
X137510Y270310D01*
Y270370D01*
X137500Y270440D01*
Y270500D01*
Y270560D01*
X137510Y270630D01*
Y270690D01*
X137530Y270750D01*
X137540Y270810D01*
X137560Y270870D01*
X137580Y270930D01*
X137600Y270990D01*
X137630Y271040D01*
X137660Y271100D01*
X137690Y271150D01*
X137730Y271210D01*
X137770Y271260D01*
X137810Y271300D01*
X137850Y271350D01*
X137900Y271390D01*
X137940Y271430D01*
X137990Y271470D01*
X138050Y271510D01*
X138100Y271540D01*
X138160Y271570D01*
X138210Y271600D01*
X138270Y271620D01*
X138330Y271640D01*
X138390Y271660D01*
X138450Y271670D01*
X138510Y271690D01*
X138570D01*
X138640Y271700D01*
X142360D01*
X142430Y271690D01*
D02*
G37*
G36*
X114430D02*
X114490D01*
X114550Y271670D01*
X114610Y271660D01*
X114670Y271640D01*
X114730Y271620D01*
X114790Y271600D01*
X114840Y271570D01*
X114900Y271540D01*
X114950Y271510D01*
X115010Y271470D01*
X115060Y271430D01*
X115100Y271390D01*
X115150Y271350D01*
X115190Y271300D01*
X115230Y271260D01*
X115270Y271210D01*
X115310Y271150D01*
X115340Y271100D01*
X115370Y271040D01*
X115400Y270990D01*
X115420Y270930D01*
X115440Y270870D01*
X115460Y270810D01*
X115470Y270750D01*
X115490Y270690D01*
Y270630D01*
X115500Y270560D01*
Y270500D01*
Y270440D01*
X115490Y270370D01*
Y270310D01*
X115470Y270250D01*
X115460Y270190D01*
X115440Y270130D01*
X115420Y270070D01*
X115400Y270010D01*
X115370Y269960D01*
X115340Y269900D01*
X115310Y269850D01*
X115270Y269790D01*
X115230Y269740D01*
X115190Y269700D01*
X115150Y269650D01*
X115100Y269610D01*
X115060Y269570D01*
X115010Y269530D01*
X114950Y269490D01*
X114900Y269460D01*
X114840Y269430D01*
X114790Y269400D01*
X114730Y269380D01*
X114670Y269360D01*
X114610Y269340D01*
X114550Y269330D01*
X114490Y269310D01*
X114430D01*
X114360Y269300D01*
X110640D01*
X110570Y269310D01*
X110510D01*
X110450Y269330D01*
X110390Y269340D01*
X110330Y269360D01*
X110270Y269380D01*
X110210Y269400D01*
X110160Y269430D01*
X110100Y269460D01*
X110050Y269490D01*
X109990Y269530D01*
X109940Y269570D01*
X109900Y269610D01*
X109850Y269650D01*
X109810Y269700D01*
X109770Y269740D01*
X109730Y269790D01*
X109690Y269850D01*
X109660Y269900D01*
X109630Y269960D01*
X109600Y270010D01*
X109580Y270070D01*
X109560Y270130D01*
X109540Y270190D01*
X109530Y270250D01*
X109510Y270310D01*
Y270370D01*
X109500Y270440D01*
Y270500D01*
Y270560D01*
X109510Y270630D01*
Y270690D01*
X109530Y270750D01*
X109540Y270810D01*
X109560Y270870D01*
X109580Y270930D01*
X109600Y270990D01*
X109630Y271040D01*
X109660Y271100D01*
X109690Y271150D01*
X109730Y271210D01*
X109770Y271260D01*
X109810Y271300D01*
X109850Y271350D01*
X109900Y271390D01*
X109940Y271430D01*
X109990Y271470D01*
X110050Y271510D01*
X110100Y271540D01*
X110160Y271570D01*
X110210Y271600D01*
X110270Y271620D01*
X110330Y271640D01*
X110390Y271660D01*
X110450Y271670D01*
X110510Y271690D01*
X110570D01*
X110640Y271700D01*
X114360D01*
X114430Y271690D01*
D02*
G37*
G36*
X134000Y266500D02*
X119000D01*
Y277100D01*
X134000D01*
Y266500D01*
D02*
G37*
G36*
X142430Y266690D02*
X142490D01*
X142550Y266670D01*
X142610Y266660D01*
X142670Y266640D01*
X142730Y266620D01*
X142790Y266600D01*
X142840Y266570D01*
X142900Y266540D01*
X142950Y266510D01*
X143010Y266470D01*
X143060Y266430D01*
X143100Y266390D01*
X143150Y266350D01*
X143190Y266300D01*
X143230Y266260D01*
X143270Y266210D01*
X143310Y266150D01*
X143340Y266100D01*
X143370Y266040D01*
X143400Y265990D01*
X143420Y265930D01*
X143440Y265870D01*
X143460Y265810D01*
X143470Y265750D01*
X143490Y265690D01*
Y265630D01*
X143500Y265560D01*
Y265500D01*
Y265440D01*
X143490Y265370D01*
Y265310D01*
X143470Y265250D01*
X143460Y265190D01*
X143440Y265130D01*
X143420Y265070D01*
X143400Y265010D01*
X143370Y264960D01*
X143340Y264900D01*
X143310Y264850D01*
X143270Y264790D01*
X143230Y264740D01*
X143190Y264700D01*
X143150Y264650D01*
X143100Y264610D01*
X143060Y264570D01*
X143010Y264530D01*
X142950Y264490D01*
X142900Y264460D01*
X142840Y264430D01*
X142790Y264400D01*
X142730Y264380D01*
X142670Y264360D01*
X142610Y264340D01*
X142550Y264330D01*
X142490Y264310D01*
X142430D01*
X142360Y264300D01*
X138640D01*
X138570Y264310D01*
X138510D01*
X138450Y264330D01*
X138390Y264340D01*
X138330Y264360D01*
X138270Y264380D01*
X138210Y264400D01*
X138160Y264430D01*
X138100Y264460D01*
X138050Y264490D01*
X137990Y264530D01*
X137940Y264570D01*
X137900Y264610D01*
X137850Y264650D01*
X137810Y264700D01*
X137770Y264740D01*
X137730Y264790D01*
X137690Y264850D01*
X137660Y264900D01*
X137630Y264960D01*
X137600Y265010D01*
X137580Y265070D01*
X137560Y265130D01*
X137540Y265190D01*
X137530Y265250D01*
X137510Y265310D01*
Y265370D01*
X137500Y265440D01*
Y265500D01*
Y265560D01*
X137510Y265630D01*
Y265690D01*
X137530Y265750D01*
X137540Y265810D01*
X137560Y265870D01*
X137580Y265930D01*
X137600Y265990D01*
X137630Y266040D01*
X137660Y266100D01*
X137690Y266150D01*
X137730Y266210D01*
X137770Y266260D01*
X137810Y266300D01*
X137850Y266350D01*
X137900Y266390D01*
X137940Y266430D01*
X137990Y266470D01*
X138050Y266510D01*
X138100Y266540D01*
X138160Y266570D01*
X138210Y266600D01*
X138270Y266620D01*
X138330Y266640D01*
X138390Y266660D01*
X138450Y266670D01*
X138510Y266690D01*
X138570D01*
X138640Y266700D01*
X142360D01*
X142430Y266690D01*
D02*
G37*
G36*
X114430D02*
X114490D01*
X114550Y266670D01*
X114610Y266660D01*
X114670Y266640D01*
X114730Y266620D01*
X114790Y266600D01*
X114840Y266570D01*
X114900Y266540D01*
X114950Y266510D01*
X115010Y266470D01*
X115060Y266430D01*
X115100Y266390D01*
X115150Y266350D01*
X115190Y266300D01*
X115230Y266260D01*
X115270Y266210D01*
X115310Y266150D01*
X115340Y266100D01*
X115370Y266040D01*
X115400Y265990D01*
X115420Y265930D01*
X115440Y265870D01*
X115460Y265810D01*
X115470Y265750D01*
X115490Y265690D01*
Y265630D01*
X115500Y265560D01*
Y265500D01*
Y265440D01*
X115490Y265370D01*
Y265310D01*
X115470Y265250D01*
X115460Y265190D01*
X115440Y265130D01*
X115420Y265070D01*
X115400Y265010D01*
X115370Y264960D01*
X115340Y264900D01*
X115310Y264850D01*
X115270Y264790D01*
X115230Y264740D01*
X115190Y264700D01*
X115150Y264650D01*
X115100Y264610D01*
X115060Y264570D01*
X115010Y264530D01*
X114950Y264490D01*
X114900Y264460D01*
X114840Y264430D01*
X114790Y264400D01*
X114730Y264380D01*
X114670Y264360D01*
X114610Y264340D01*
X114550Y264330D01*
X114490Y264310D01*
X114430D01*
X114360Y264300D01*
X110640D01*
X110570Y264310D01*
X110510D01*
X110450Y264330D01*
X110390Y264340D01*
X110330Y264360D01*
X110270Y264380D01*
X110210Y264400D01*
X110160Y264430D01*
X110100Y264460D01*
X110050Y264490D01*
X109990Y264530D01*
X109940Y264570D01*
X109900Y264610D01*
X109850Y264650D01*
X109810Y264700D01*
X109770Y264740D01*
X109730Y264790D01*
X109690Y264850D01*
X109660Y264900D01*
X109630Y264960D01*
X109600Y265010D01*
X109580Y265070D01*
X109560Y265130D01*
X109540Y265190D01*
X109530Y265250D01*
X109510Y265310D01*
Y265370D01*
X109500Y265440D01*
Y265500D01*
Y265560D01*
X109510Y265630D01*
Y265690D01*
X109530Y265750D01*
X109540Y265810D01*
X109560Y265870D01*
X109580Y265930D01*
X109600Y265990D01*
X109630Y266040D01*
X109660Y266100D01*
X109690Y266150D01*
X109730Y266210D01*
X109770Y266260D01*
X109810Y266300D01*
X109850Y266350D01*
X109900Y266390D01*
X109940Y266430D01*
X109990Y266470D01*
X110050Y266510D01*
X110100Y266540D01*
X110160Y266570D01*
X110210Y266600D01*
X110270Y266620D01*
X110330Y266640D01*
X110390Y266660D01*
X110450Y266670D01*
X110510Y266690D01*
X110570D01*
X110640Y266700D01*
X114360D01*
X114430Y266690D01*
D02*
G37*
G36*
X142430Y261690D02*
X142490D01*
X142550Y261670D01*
X142610Y261660D01*
X142670Y261640D01*
X142730Y261620D01*
X142790Y261600D01*
X142840Y261570D01*
X142900Y261540D01*
X142950Y261510D01*
X143010Y261470D01*
X143060Y261430D01*
X143100Y261390D01*
X143150Y261350D01*
X143190Y261300D01*
X143230Y261260D01*
X143270Y261210D01*
X143310Y261150D01*
X143340Y261100D01*
X143370Y261040D01*
X143400Y260990D01*
X143420Y260930D01*
X143440Y260870D01*
X143460Y260810D01*
X143470Y260750D01*
X143490Y260690D01*
Y260630D01*
X143500Y260560D01*
Y260500D01*
Y260440D01*
X143490Y260370D01*
Y260310D01*
X143470Y260250D01*
X143460Y260190D01*
X143440Y260130D01*
X143420Y260070D01*
X143400Y260010D01*
X143370Y259960D01*
X143340Y259900D01*
X143310Y259850D01*
X143270Y259790D01*
X143230Y259740D01*
X143190Y259700D01*
X143150Y259650D01*
X143100Y259610D01*
X143060Y259570D01*
X143010Y259530D01*
X142950Y259490D01*
X142900Y259460D01*
X142840Y259430D01*
X142790Y259400D01*
X142730Y259380D01*
X142670Y259360D01*
X142610Y259340D01*
X142550Y259330D01*
X142490Y259310D01*
X142430D01*
X142360Y259300D01*
X138640D01*
X138570Y259310D01*
X138510D01*
X138450Y259330D01*
X138390Y259340D01*
X138330Y259360D01*
X138270Y259380D01*
X138210Y259400D01*
X138160Y259430D01*
X138100Y259460D01*
X138050Y259490D01*
X137990Y259530D01*
X137940Y259570D01*
X137900Y259610D01*
X137850Y259650D01*
X137810Y259700D01*
X137770Y259740D01*
X137730Y259790D01*
X137690Y259850D01*
X137660Y259900D01*
X137630Y259960D01*
X137600Y260010D01*
X137580Y260070D01*
X137560Y260130D01*
X137540Y260190D01*
X137530Y260250D01*
X137510Y260310D01*
Y260370D01*
X137500Y260440D01*
Y260500D01*
Y260560D01*
X137510Y260630D01*
Y260690D01*
X137530Y260750D01*
X137540Y260810D01*
X137560Y260870D01*
X137580Y260930D01*
X137600Y260990D01*
X137630Y261040D01*
X137660Y261100D01*
X137690Y261150D01*
X137730Y261210D01*
X137770Y261260D01*
X137810Y261300D01*
X137850Y261350D01*
X137900Y261390D01*
X137940Y261430D01*
X137990Y261470D01*
X138050Y261510D01*
X138100Y261540D01*
X138160Y261570D01*
X138210Y261600D01*
X138270Y261620D01*
X138330Y261640D01*
X138390Y261660D01*
X138450Y261670D01*
X138510Y261690D01*
X138570D01*
X138640Y261700D01*
X142360D01*
X142430Y261690D01*
D02*
G37*
G36*
X114430D02*
X114490D01*
X114550Y261670D01*
X114610Y261660D01*
X114670Y261640D01*
X114730Y261620D01*
X114790Y261600D01*
X114840Y261570D01*
X114900Y261540D01*
X114950Y261510D01*
X115010Y261470D01*
X115060Y261430D01*
X115100Y261390D01*
X115150Y261350D01*
X115190Y261300D01*
X115230Y261260D01*
X115270Y261210D01*
X115310Y261150D01*
X115340Y261100D01*
X115370Y261040D01*
X115400Y260990D01*
X115420Y260930D01*
X115440Y260870D01*
X115460Y260810D01*
X115470Y260750D01*
X115490Y260690D01*
Y260630D01*
X115500Y260560D01*
Y260500D01*
Y260440D01*
X115490Y260370D01*
Y260310D01*
X115470Y260250D01*
X115460Y260190D01*
X115440Y260130D01*
X115420Y260070D01*
X115400Y260010D01*
X115370Y259960D01*
X115340Y259900D01*
X115310Y259850D01*
X115270Y259790D01*
X115230Y259740D01*
X115190Y259700D01*
X115150Y259650D01*
X115100Y259610D01*
X115060Y259570D01*
X115010Y259530D01*
X114950Y259490D01*
X114900Y259460D01*
X114840Y259430D01*
X114790Y259400D01*
X114730Y259380D01*
X114670Y259360D01*
X114610Y259340D01*
X114550Y259330D01*
X114490Y259310D01*
X114430D01*
X114360Y259300D01*
X110640D01*
X110570Y259310D01*
X110510D01*
X110450Y259330D01*
X110390Y259340D01*
X110330Y259360D01*
X110270Y259380D01*
X110210Y259400D01*
X110160Y259430D01*
X110100Y259460D01*
X110050Y259490D01*
X109990Y259530D01*
X109940Y259570D01*
X109900Y259610D01*
X109850Y259650D01*
X109810Y259700D01*
X109770Y259740D01*
X109730Y259790D01*
X109690Y259850D01*
X109660Y259900D01*
X109630Y259960D01*
X109600Y260010D01*
X109580Y260070D01*
X109560Y260130D01*
X109540Y260190D01*
X109530Y260250D01*
X109510Y260310D01*
Y260370D01*
X109500Y260440D01*
Y260500D01*
Y260560D01*
X109510Y260630D01*
Y260690D01*
X109530Y260750D01*
X109540Y260810D01*
X109560Y260870D01*
X109580Y260930D01*
X109600Y260990D01*
X109630Y261040D01*
X109660Y261100D01*
X109690Y261150D01*
X109730Y261210D01*
X109770Y261260D01*
X109810Y261300D01*
X109850Y261350D01*
X109900Y261390D01*
X109940Y261430D01*
X109990Y261470D01*
X110050Y261510D01*
X110100Y261540D01*
X110160Y261570D01*
X110210Y261600D01*
X110270Y261620D01*
X110330Y261640D01*
X110390Y261660D01*
X110450Y261670D01*
X110510Y261690D01*
X110570D01*
X110640Y261700D01*
X114360D01*
X114430Y261690D01*
D02*
G37*
G36*
X142430Y256690D02*
X142490D01*
X142550Y256670D01*
X142610Y256660D01*
X142670Y256640D01*
X142730Y256620D01*
X142790Y256600D01*
X142840Y256570D01*
X142900Y256540D01*
X142950Y256510D01*
X143010Y256470D01*
X143060Y256430D01*
X143100Y256390D01*
X143150Y256350D01*
X143190Y256300D01*
X143230Y256260D01*
X143270Y256210D01*
X143310Y256150D01*
X143340Y256100D01*
X143370Y256040D01*
X143400Y255990D01*
X143420Y255930D01*
X143440Y255870D01*
X143460Y255810D01*
X143470Y255750D01*
X143490Y255690D01*
Y255630D01*
X143500Y255560D01*
Y255500D01*
Y255440D01*
X143490Y255370D01*
Y255310D01*
X143470Y255250D01*
X143460Y255190D01*
X143440Y255130D01*
X143420Y255070D01*
X143400Y255010D01*
X143370Y254960D01*
X143340Y254900D01*
X143310Y254850D01*
X143270Y254790D01*
X143230Y254740D01*
X143190Y254700D01*
X143150Y254650D01*
X143100Y254610D01*
X143060Y254570D01*
X143010Y254530D01*
X142950Y254490D01*
X142900Y254460D01*
X142840Y254430D01*
X142790Y254400D01*
X142730Y254380D01*
X142670Y254360D01*
X142610Y254340D01*
X142550Y254330D01*
X142490Y254310D01*
X142430D01*
X142360Y254300D01*
X138640D01*
X138570Y254310D01*
X138510D01*
X138450Y254330D01*
X138390Y254340D01*
X138330Y254360D01*
X138270Y254380D01*
X138210Y254400D01*
X138160Y254430D01*
X138100Y254460D01*
X138050Y254490D01*
X137990Y254530D01*
X137940Y254570D01*
X137900Y254610D01*
X137850Y254650D01*
X137810Y254700D01*
X137770Y254740D01*
X137730Y254790D01*
X137690Y254850D01*
X137660Y254900D01*
X137630Y254960D01*
X137600Y255010D01*
X137580Y255070D01*
X137560Y255130D01*
X137540Y255190D01*
X137530Y255250D01*
X137510Y255310D01*
Y255370D01*
X137500Y255440D01*
Y255500D01*
Y255560D01*
X137510Y255630D01*
Y255690D01*
X137530Y255750D01*
X137540Y255810D01*
X137560Y255870D01*
X137580Y255930D01*
X137600Y255990D01*
X137630Y256040D01*
X137660Y256100D01*
X137690Y256150D01*
X137730Y256210D01*
X137770Y256260D01*
X137810Y256300D01*
X137850Y256350D01*
X137900Y256390D01*
X137940Y256430D01*
X137990Y256470D01*
X138050Y256510D01*
X138100Y256540D01*
X138160Y256570D01*
X138210Y256600D01*
X138270Y256620D01*
X138330Y256640D01*
X138390Y256660D01*
X138450Y256670D01*
X138510Y256690D01*
X138570D01*
X138640Y256700D01*
X142360D01*
X142430Y256690D01*
D02*
G37*
G36*
X114430D02*
X114490D01*
X114550Y256670D01*
X114610Y256660D01*
X114670Y256640D01*
X114730Y256620D01*
X114790Y256600D01*
X114840Y256570D01*
X114900Y256540D01*
X114950Y256510D01*
X115010Y256470D01*
X115060Y256430D01*
X115100Y256390D01*
X115150Y256350D01*
X115190Y256300D01*
X115230Y256260D01*
X115270Y256210D01*
X115310Y256150D01*
X115340Y256100D01*
X115370Y256040D01*
X115400Y255990D01*
X115420Y255930D01*
X115440Y255870D01*
X115460Y255810D01*
X115470Y255750D01*
X115490Y255690D01*
Y255630D01*
X115500Y255560D01*
Y255500D01*
Y255440D01*
X115490Y255370D01*
Y255310D01*
X115470Y255250D01*
X115460Y255190D01*
X115440Y255130D01*
X115420Y255070D01*
X115400Y255010D01*
X115370Y254960D01*
X115340Y254900D01*
X115310Y254850D01*
X115270Y254790D01*
X115230Y254740D01*
X115190Y254700D01*
X115150Y254650D01*
X115100Y254610D01*
X115060Y254570D01*
X115010Y254530D01*
X114950Y254490D01*
X114900Y254460D01*
X114840Y254430D01*
X114790Y254400D01*
X114730Y254380D01*
X114670Y254360D01*
X114610Y254340D01*
X114550Y254330D01*
X114490Y254310D01*
X114430D01*
X114360Y254300D01*
X110640D01*
X110570Y254310D01*
X110510D01*
X110450Y254330D01*
X110390Y254340D01*
X110330Y254360D01*
X110270Y254380D01*
X110210Y254400D01*
X110160Y254430D01*
X110100Y254460D01*
X110050Y254490D01*
X109990Y254530D01*
X109940Y254570D01*
X109900Y254610D01*
X109850Y254650D01*
X109810Y254700D01*
X109770Y254740D01*
X109730Y254790D01*
X109690Y254850D01*
X109660Y254900D01*
X109630Y254960D01*
X109600Y255010D01*
X109580Y255070D01*
X109560Y255130D01*
X109540Y255190D01*
X109530Y255250D01*
X109510Y255310D01*
Y255370D01*
X109500Y255440D01*
Y255500D01*
Y255560D01*
X109510Y255630D01*
Y255690D01*
X109530Y255750D01*
X109540Y255810D01*
X109560Y255870D01*
X109580Y255930D01*
X109600Y255990D01*
X109630Y256040D01*
X109660Y256100D01*
X109690Y256150D01*
X109730Y256210D01*
X109770Y256260D01*
X109810Y256300D01*
X109850Y256350D01*
X109900Y256390D01*
X109940Y256430D01*
X109990Y256470D01*
X110050Y256510D01*
X110100Y256540D01*
X110160Y256570D01*
X110210Y256600D01*
X110270Y256620D01*
X110330Y256640D01*
X110390Y256660D01*
X110450Y256670D01*
X110510Y256690D01*
X110570D01*
X110640Y256700D01*
X114360D01*
X114430Y256690D01*
D02*
G37*
G36*
X134000Y253900D02*
X119000D01*
Y264500D01*
X134000D01*
Y253900D01*
D02*
G37*
D15*
X202060Y157480D02*
D03*
X186560D02*
D03*
X481200Y175260D02*
D03*
X496700D02*
D03*
X481200Y189230D02*
D03*
X496700D02*
D03*
X481200Y203200D02*
D03*
X496700D02*
D03*
X457200Y266700D02*
D03*
X472700D02*
D03*
X456610Y291424D02*
D03*
X472110D02*
D03*
X456610Y316824D02*
D03*
X472110D02*
D03*
D16*
X70740Y323850D02*
D03*
X86740D02*
D03*
X86520Y302620D02*
D03*
X70520D02*
D03*
D17*
X177580Y297160D02*
D03*
Y313160D02*
D03*
X331767Y238610D02*
D03*
Y254610D02*
D03*
X320040Y339470D02*
D03*
Y323470D02*
D03*
X308907Y238610D02*
D03*
Y254610D02*
D03*
X176500Y239500D02*
D03*
Y255500D02*
D03*
X134400Y297160D02*
D03*
Y313160D02*
D03*
X156500Y313500D02*
D03*
Y297500D02*
D03*
D18*
X70900Y278620D02*
D03*
Y263120D02*
D03*
X297180Y339220D02*
D03*
Y323720D02*
D03*
X84870Y278620D02*
D03*
Y263120D02*
D03*
X85090Y229540D02*
D03*
Y245040D02*
D03*
X156500Y256000D02*
D03*
Y240500D02*
D03*
X70090Y245040D02*
D03*
Y229540D02*
D03*
D19*
X492880Y316230D02*
D03*
X507880D02*
D03*
X493010Y266700D02*
D03*
X508010D02*
D03*
X492420Y291424D02*
D03*
X507420D02*
D03*
D20*
X385380Y293580D02*
D03*
D21*
X351030Y266080D02*
D03*
Y271080D02*
D03*
Y276080D02*
D03*
Y281080D02*
D03*
Y286080D02*
D03*
Y291080D02*
D03*
Y296080D02*
D03*
Y301080D02*
D03*
Y306080D02*
D03*
Y311080D02*
D03*
Y316080D02*
D03*
Y321080D02*
D03*
X419730D02*
D03*
Y316080D02*
D03*
Y311080D02*
D03*
Y306080D02*
D03*
Y301080D02*
D03*
Y296080D02*
D03*
Y291080D02*
D03*
Y286080D02*
D03*
Y281080D02*
D03*
Y276080D02*
D03*
Y271080D02*
D03*
Y266080D02*
D03*
D22*
X412880Y259230D02*
D03*
X407880D02*
D03*
X402880D02*
D03*
X397880D02*
D03*
X392880D02*
D03*
X387880D02*
D03*
X382880D02*
D03*
X377880D02*
D03*
X372880D02*
D03*
X367880D02*
D03*
X362880D02*
D03*
X357880D02*
D03*
Y327930D02*
D03*
X362880D02*
D03*
X367880D02*
D03*
X372880D02*
D03*
X377880D02*
D03*
X382880D02*
D03*
X387880D02*
D03*
X392880D02*
D03*
X397880D02*
D03*
X402880D02*
D03*
X407880D02*
D03*
X412880D02*
D03*
M02*
