G04*
G04 #@! TF.GenerationSoftware,Altium Limited,Altium Designer,24.10.1 (45)*
G04*
G04 Layer_Color=65535*
%FSLAX44Y44*%
%MOMM*%
G71*
G04*
G04 #@! TF.SameCoordinates,AA472AB2-6637-4989-BC3C-C099BA8EEFD1*
G04*
G04*
G04 #@! TF.FilePolarity,Positive*
G04*
G01*
G75*
%ADD10C,0.2000*%
%ADD11C,0.4000*%
%ADD12C,0.1270*%
%ADD13C,0.1000*%
%ADD14C,0.2540*%
G36*
X659195Y358059D02*
X659308D01*
X659576Y358031D01*
X659872Y357989D01*
X660182Y357918D01*
X660520Y357834D01*
X660845Y357721D01*
X660859D01*
X660887Y357707D01*
X660929Y357693D01*
X660986Y357665D01*
X661141Y357580D01*
X661338Y357481D01*
X661550Y357340D01*
X661775Y357171D01*
X661987Y356988D01*
X662184Y356762D01*
X662212Y356734D01*
X662269Y356650D01*
X662353Y356523D01*
X662466Y356339D01*
X662579Y356114D01*
X662706Y355832D01*
X662832Y355522D01*
X662931Y355169D01*
X661761Y354859D01*
Y354873D01*
X661747Y354888D01*
X661733Y354930D01*
X661719Y354986D01*
X661676Y355113D01*
X661620Y355282D01*
X661535Y355480D01*
X661437Y355663D01*
X661338Y355860D01*
X661211Y356029D01*
X661197Y356044D01*
X661155Y356100D01*
X661070Y356170D01*
X660972Y356269D01*
X660845Y356382D01*
X660676Y356495D01*
X660492Y356607D01*
X660281Y356706D01*
X660253Y356720D01*
X660182Y356748D01*
X660055Y356791D01*
X659886Y356847D01*
X659689Y356889D01*
X659463Y356932D01*
X659210Y356960D01*
X658942Y356974D01*
X658787D01*
X658716Y356960D01*
X658632D01*
X658420Y356946D01*
X658180Y356903D01*
X657913Y356861D01*
X657659Y356791D01*
X657405Y356692D01*
X657377Y356678D01*
X657292Y356650D01*
X657179Y356579D01*
X657039Y356509D01*
X656869Y356396D01*
X656686Y356283D01*
X656517Y356142D01*
X656362Y355987D01*
X656348Y355973D01*
X656291Y355917D01*
X656221Y355818D01*
X656136Y355705D01*
X656038Y355564D01*
X655939Y355395D01*
X655840Y355212D01*
X655742Y355014D01*
Y355000D01*
X655727Y354972D01*
X655713Y354930D01*
X655685Y354859D01*
X655657Y354775D01*
X655629Y354676D01*
X655587Y354563D01*
X655558Y354436D01*
X655488Y354140D01*
X655432Y353802D01*
X655389Y353450D01*
X655375Y353055D01*
Y353041D01*
Y352999D01*
Y352928D01*
X655389Y352844D01*
Y352731D01*
X655403Y352590D01*
X655417Y352449D01*
X655432Y352294D01*
X655488Y351941D01*
X655558Y351575D01*
X655671Y351208D01*
X655812Y350856D01*
Y350842D01*
X655840Y350813D01*
X655854Y350771D01*
X655897Y350715D01*
X655995Y350560D01*
X656151Y350362D01*
X656334Y350151D01*
X656559Y349939D01*
X656827Y349742D01*
X657123Y349559D01*
X657137D01*
X657165Y349545D01*
X657208Y349517D01*
X657278Y349488D01*
X657349Y349460D01*
X657447Y349432D01*
X657673Y349347D01*
X657955Y349277D01*
X658265Y349206D01*
X658603Y349150D01*
X658956Y349136D01*
X659097D01*
X659181Y349150D01*
X659266D01*
X659477Y349178D01*
X659731Y349206D01*
X659999Y349263D01*
X660295Y349347D01*
X660591Y349446D01*
X660605D01*
X660633Y349460D01*
X660661Y349474D01*
X660718Y349502D01*
X660873Y349573D01*
X661042Y349658D01*
X661239Y349756D01*
X661451Y349869D01*
X661648Y349996D01*
X661817Y350137D01*
Y351969D01*
X658942D01*
Y353125D01*
X663086D01*
Y349502D01*
X663072Y349488D01*
X663044Y349474D01*
X662988Y349432D01*
X662917Y349376D01*
X662832Y349319D01*
X662734Y349249D01*
X662607Y349164D01*
X662480Y349080D01*
X662184Y348896D01*
X661846Y348699D01*
X661493Y348516D01*
X661113Y348361D01*
X661098D01*
X661070Y348346D01*
X661014Y348332D01*
X660943Y348304D01*
X660845Y348276D01*
X660732Y348234D01*
X660605Y348206D01*
X660478Y348177D01*
X660168Y348107D01*
X659816Y348036D01*
X659435Y347994D01*
X659040Y347980D01*
X658899D01*
X658801Y347994D01*
X658674D01*
X658519Y348008D01*
X658350Y348036D01*
X658166Y348050D01*
X657757Y348135D01*
X657320Y348234D01*
X656869Y348389D01*
X656644Y348473D01*
X656418Y348586D01*
X656404Y348600D01*
X656362Y348614D01*
X656305Y348657D01*
X656221Y348699D01*
X656122Y348769D01*
X656024Y348840D01*
X655756Y349037D01*
X655474Y349291D01*
X655178Y349601D01*
X654896Y349954D01*
X654642Y350362D01*
Y350377D01*
X654614Y350419D01*
X654586Y350475D01*
X654543Y350574D01*
X654501Y350672D01*
X654459Y350813D01*
X654402Y350955D01*
X654346Y351124D01*
X654290Y351307D01*
X654233Y351518D01*
X654191Y351730D01*
X654149Y351955D01*
X654078Y352449D01*
X654050Y352970D01*
Y352984D01*
Y353041D01*
Y353111D01*
X654064Y353210D01*
Y353337D01*
X654078Y353492D01*
X654106Y353647D01*
X654120Y353830D01*
X654163Y354028D01*
X654191Y354239D01*
X654304Y354690D01*
X654445Y355155D01*
X654642Y355621D01*
X654656Y355635D01*
X654670Y355677D01*
X654698Y355733D01*
X654755Y355818D01*
X654811Y355931D01*
X654882Y356044D01*
X655079Y356311D01*
X655319Y356622D01*
X655615Y356917D01*
X655953Y357214D01*
X656151Y357340D01*
X656348Y357467D01*
X656362Y357481D01*
X656404Y357495D01*
X656461Y357524D01*
X656545Y357566D01*
X656658Y357608D01*
X656785Y357665D01*
X656926Y357721D01*
X657095Y357777D01*
X657278Y357834D01*
X657476Y357876D01*
X657687Y357933D01*
X657913Y357975D01*
X658406Y358045D01*
X658660Y358074D01*
X659111D01*
X659195Y358059D01*
D02*
G37*
G36*
X672658Y348149D02*
X671319D01*
X666216Y355804D01*
Y348149D01*
X664975D01*
Y357904D01*
X666300D01*
X671417Y350235D01*
Y357904D01*
X672658D01*
Y348149D01*
D02*
G37*
G36*
X678832Y357890D02*
X679115Y357876D01*
X679396Y357848D01*
X679678Y357806D01*
X679918Y357763D01*
X679932D01*
X679960Y357749D01*
X680003D01*
X680059Y357721D01*
X680214Y357679D01*
X680411Y357608D01*
X680637Y357510D01*
X680877Y357383D01*
X681116Y357242D01*
X681342Y357058D01*
X681356Y357044D01*
X681370Y357030D01*
X681412Y356988D01*
X681469Y356946D01*
X681610Y356805D01*
X681779Y356607D01*
X681962Y356368D01*
X682159Y356086D01*
X682343Y355761D01*
X682498Y355395D01*
Y355381D01*
X682512Y355353D01*
X682540Y355296D01*
X682554Y355212D01*
X682596Y355113D01*
X682625Y355000D01*
X682653Y354873D01*
X682695Y354718D01*
X682737Y354563D01*
X682766Y354380D01*
X682836Y353985D01*
X682878Y353548D01*
X682893Y353069D01*
Y353055D01*
Y353027D01*
Y352956D01*
Y352886D01*
X682878Y352787D01*
Y352674D01*
X682864Y352407D01*
X682822Y352096D01*
X682780Y351772D01*
X682709Y351434D01*
X682625Y351095D01*
Y351081D01*
X682610Y351053D01*
X682596Y351011D01*
X682582Y350955D01*
X682526Y350799D01*
X682441Y350602D01*
X682357Y350377D01*
X682244Y350151D01*
X682103Y349911D01*
X681962Y349686D01*
X681948Y349658D01*
X681892Y349587D01*
X681807Y349488D01*
X681694Y349361D01*
X681567Y349221D01*
X681412Y349080D01*
X681257Y348924D01*
X681074Y348798D01*
X681046Y348783D01*
X680989Y348741D01*
X680891Y348685D01*
X680750Y348614D01*
X680581Y348530D01*
X680383Y348459D01*
X680158Y348375D01*
X679904Y348304D01*
X679876D01*
X679833Y348290D01*
X679791Y348276D01*
X679650Y348262D01*
X679453Y348234D01*
X679227Y348206D01*
X678959Y348177D01*
X678663Y348163D01*
X678339Y348149D01*
X674829D01*
Y357904D01*
X678579D01*
X678832Y357890D01*
D02*
G37*
G36*
X658124Y407589D02*
X658223D01*
X658491Y407561D01*
X658787Y407519D01*
X659097Y407448D01*
X659435Y407364D01*
X659745Y407251D01*
X659759D01*
X659788Y407237D01*
X659830Y407209D01*
X659886Y407180D01*
X660027Y407110D01*
X660210Y406983D01*
X660422Y406842D01*
X660633Y406659D01*
X660831Y406447D01*
X661014Y406208D01*
Y406194D01*
X661028Y406180D01*
X661056Y406137D01*
X661084Y406095D01*
X661155Y405954D01*
X661239Y405771D01*
X661338Y405545D01*
X661409Y405277D01*
X661479Y404995D01*
X661507Y404685D01*
X660267Y404587D01*
Y404601D01*
Y404629D01*
X660253Y404671D01*
X660239Y404742D01*
X660196Y404897D01*
X660140Y405108D01*
X660055Y405334D01*
X659928Y405559D01*
X659773Y405771D01*
X659576Y405968D01*
X659548Y405982D01*
X659477Y406039D01*
X659336Y406123D01*
X659153Y406208D01*
X658913Y406292D01*
X658632Y406377D01*
X658279Y406433D01*
X657884Y406447D01*
X657687D01*
X657602Y406433D01*
X657490Y406419D01*
X657236Y406391D01*
X656954Y406335D01*
X656672Y406264D01*
X656404Y406152D01*
X656291Y406081D01*
X656179Y406011D01*
X656151Y405996D01*
X656094Y405940D01*
X656010Y405841D01*
X655925Y405729D01*
X655826Y405574D01*
X655742Y405404D01*
X655685Y405207D01*
X655657Y404981D01*
Y404953D01*
Y404897D01*
X655671Y404798D01*
X655699Y404685D01*
X655742Y404544D01*
X655812Y404403D01*
X655897Y404263D01*
X656024Y404122D01*
X656038Y404107D01*
X656108Y404065D01*
X656164Y404023D01*
X656221Y403995D01*
X656305Y403952D01*
X656404Y403896D01*
X656531Y403854D01*
X656672Y403797D01*
X656827Y403741D01*
X657010Y403670D01*
X657208Y403614D01*
X657433Y403544D01*
X657687Y403487D01*
X657969Y403417D01*
X657983D01*
X658039Y403402D01*
X658124Y403388D01*
X658223Y403360D01*
X658350Y403332D01*
X658505Y403290D01*
X658660Y403247D01*
X658829Y403205D01*
X659195Y403106D01*
X659548Y403008D01*
X659717Y402951D01*
X659872Y402895D01*
X660013Y402853D01*
X660126Y402796D01*
X660140D01*
X660168Y402782D01*
X660210Y402754D01*
X660267Y402726D01*
X660422Y402641D01*
X660605Y402528D01*
X660817Y402374D01*
X661028Y402204D01*
X661225Y402007D01*
X661395Y401796D01*
X661409Y401767D01*
X661465Y401697D01*
X661521Y401570D01*
X661606Y401401D01*
X661676Y401203D01*
X661747Y400964D01*
X661789Y400696D01*
X661803Y400414D01*
Y400400D01*
Y400386D01*
Y400344D01*
Y400287D01*
X661775Y400132D01*
X661747Y399935D01*
X661691Y399709D01*
X661620Y399469D01*
X661507Y399216D01*
X661352Y398948D01*
Y398934D01*
X661338Y398920D01*
X661268Y398835D01*
X661169Y398708D01*
X661028Y398567D01*
X660845Y398398D01*
X660619Y398215D01*
X660366Y398046D01*
X660069Y397891D01*
X660055D01*
X660027Y397877D01*
X659985Y397862D01*
X659928Y397834D01*
X659844Y397806D01*
X659745Y397764D01*
X659520Y397707D01*
X659252Y397637D01*
X658928Y397566D01*
X658575Y397524D01*
X658195Y397510D01*
X657969D01*
X657856Y397524D01*
X657729D01*
X657588Y397538D01*
X657419Y397552D01*
X657067Y397609D01*
X656700Y397665D01*
X656334Y397764D01*
X655981Y397891D01*
X655967D01*
X655939Y397905D01*
X655897Y397933D01*
X655840Y397961D01*
X655671Y398046D01*
X655474Y398173D01*
X655248Y398342D01*
X655009Y398539D01*
X654783Y398779D01*
X654572Y399047D01*
Y399061D01*
X654543Y399089D01*
X654529Y399131D01*
X654487Y399188D01*
X654459Y399258D01*
X654417Y399343D01*
X654318Y399554D01*
X654219Y399822D01*
X654135Y400118D01*
X654078Y400456D01*
X654050Y400809D01*
X655262Y400922D01*
Y400907D01*
Y400893D01*
X655276Y400851D01*
Y400795D01*
X655305Y400668D01*
X655347Y400485D01*
X655403Y400301D01*
X655460Y400090D01*
X655558Y399892D01*
X655657Y399709D01*
X655671Y399695D01*
X655713Y399639D01*
X655784Y399540D01*
X655897Y399441D01*
X656038Y399314D01*
X656193Y399188D01*
X656404Y399061D01*
X656630Y398948D01*
X656644D01*
X656658Y398934D01*
X656700Y398920D01*
X656742Y398906D01*
X656883Y398863D01*
X657067Y398807D01*
X657292Y398750D01*
X657546Y398708D01*
X657828Y398680D01*
X658138Y398666D01*
X658265D01*
X658406Y398680D01*
X658575Y398694D01*
X658773Y398722D01*
X658998Y398750D01*
X659224Y398807D01*
X659435Y398877D01*
X659463Y398891D01*
X659534Y398920D01*
X659632Y398976D01*
X659759Y399033D01*
X659886Y399131D01*
X660027Y399230D01*
X660168Y399343D01*
X660281Y399484D01*
X660295Y399498D01*
X660323Y399554D01*
X660366Y399624D01*
X660422Y399737D01*
X660478Y399850D01*
X660520Y399991D01*
X660549Y400146D01*
X660563Y400315D01*
Y400329D01*
Y400400D01*
X660549Y400485D01*
X660535Y400597D01*
X660492Y400710D01*
X660450Y400851D01*
X660380Y400992D01*
X660281Y401119D01*
X660267Y401133D01*
X660225Y401175D01*
X660168Y401232D01*
X660069Y401316D01*
X659957Y401401D01*
X659802Y401499D01*
X659618Y401598D01*
X659407Y401683D01*
X659393Y401697D01*
X659322Y401711D01*
X659210Y401753D01*
X659139Y401767D01*
X659040Y401796D01*
X658942Y401838D01*
X658815Y401866D01*
X658674Y401908D01*
X658505Y401951D01*
X658335Y401993D01*
X658138Y402049D01*
X657913Y402106D01*
X657673Y402162D01*
X657659D01*
X657617Y402176D01*
X657546Y402190D01*
X657461Y402218D01*
X657349Y402247D01*
X657222Y402275D01*
X656940Y402359D01*
X656630Y402458D01*
X656305Y402557D01*
X656024Y402655D01*
X655897Y402712D01*
X655784Y402768D01*
X655770D01*
X655756Y402782D01*
X655671Y402839D01*
X655544Y402909D01*
X655403Y403022D01*
X655234Y403149D01*
X655065Y403304D01*
X654896Y403487D01*
X654755Y403685D01*
X654741Y403713D01*
X654698Y403783D01*
X654642Y403896D01*
X654586Y404037D01*
X654529Y404220D01*
X654473Y404432D01*
X654431Y404657D01*
X654417Y404897D01*
Y404911D01*
Y404925D01*
Y404967D01*
Y405024D01*
X654445Y405165D01*
X654473Y405348D01*
X654515Y405559D01*
X654586Y405799D01*
X654684Y406039D01*
X654825Y406278D01*
Y406292D01*
X654839Y406306D01*
X654910Y406391D01*
X655009Y406504D01*
X655135Y406645D01*
X655305Y406800D01*
X655516Y406969D01*
X655770Y407124D01*
X656052Y407265D01*
X656066D01*
X656094Y407279D01*
X656136Y407293D01*
X656193Y407322D01*
X656263Y407350D01*
X656362Y407378D01*
X656573Y407434D01*
X656841Y407491D01*
X657151Y407547D01*
X657476Y407589D01*
X657842Y407603D01*
X658025D01*
X658124Y407589D01*
D02*
G37*
G36*
X683442Y397679D02*
X682202D01*
Y405841D01*
X679354Y397679D01*
X678198D01*
X675379Y405982D01*
Y397679D01*
X674138D01*
Y407434D01*
X676069D01*
X678381Y400513D01*
Y400499D01*
X678395Y400470D01*
X678410Y400428D01*
X678438Y400358D01*
X678494Y400188D01*
X678565Y399977D01*
X678635Y399737D01*
X678720Y399498D01*
X678790Y399272D01*
X678847Y399075D01*
X678861Y399103D01*
X678875Y399173D01*
X678917Y399300D01*
X678973Y399469D01*
X679044Y399695D01*
X679143Y399963D01*
X679241Y400273D01*
X679368Y400639D01*
X681708Y407434D01*
X683442D01*
Y397679D01*
D02*
G37*
G36*
X687051D02*
X685754D01*
Y407434D01*
X687051D01*
Y397679D01*
D02*
G37*
G36*
X668076Y407589D02*
X668203D01*
X668330Y407575D01*
X668499Y407547D01*
X668669Y407519D01*
X669035Y407448D01*
X669458Y407336D01*
X669867Y407166D01*
X670078Y407068D01*
X670290Y406955D01*
X670304Y406941D01*
X670332Y406927D01*
X670388Y406884D01*
X670473Y406842D01*
X670558Y406772D01*
X670670Y406687D01*
X670910Y406490D01*
X671164Y406236D01*
X671446Y405926D01*
X671713Y405559D01*
X671939Y405151D01*
Y405136D01*
X671967Y405094D01*
X671995Y405038D01*
X672024Y404953D01*
X672080Y404840D01*
X672122Y404714D01*
X672179Y404558D01*
X672235Y404389D01*
X672277Y404206D01*
X672334Y404009D01*
X672390Y403783D01*
X672432Y403558D01*
X672489Y403064D01*
X672517Y402528D01*
Y402514D01*
Y402458D01*
Y402388D01*
X672503Y402275D01*
Y402148D01*
X672489Y401993D01*
X672461Y401824D01*
X672447Y401640D01*
X672376Y401232D01*
X672263Y400780D01*
X672108Y400329D01*
X672024Y400104D01*
X671911Y399878D01*
Y399864D01*
X671883Y399822D01*
X671854Y399766D01*
X671798Y399681D01*
X671742Y399582D01*
X671671Y399484D01*
X671474Y399216D01*
X671234Y398934D01*
X670952Y398638D01*
X670614Y398356D01*
X670219Y398102D01*
X670205D01*
X670177Y398074D01*
X670107Y398046D01*
X670022Y398003D01*
X669923Y397961D01*
X669810Y397919D01*
X669669Y397862D01*
X669514Y397806D01*
X669345Y397750D01*
X669162Y397693D01*
X668753Y397609D01*
X668316Y397538D01*
X667851Y397510D01*
X667710D01*
X667625Y397524D01*
X667498D01*
X667358Y397552D01*
X667203Y397566D01*
X667019Y397595D01*
X666639Y397679D01*
X666230Y397792D01*
X665807Y397961D01*
X665595Y398060D01*
X665384Y398173D01*
X665370Y398187D01*
X665342Y398201D01*
X665285Y398243D01*
X665201Y398299D01*
X665116Y398356D01*
X665017Y398440D01*
X664778Y398652D01*
X664510Y398906D01*
X664228Y399216D01*
X663974Y399568D01*
X663735Y399977D01*
Y399991D01*
X663706Y400033D01*
X663678Y400090D01*
X663650Y400174D01*
X663608Y400287D01*
X663566Y400414D01*
X663509Y400555D01*
X663467Y400710D01*
X663410Y400893D01*
X663354Y401077D01*
X663269Y401499D01*
X663213Y401936D01*
X663185Y402416D01*
Y402430D01*
Y402444D01*
Y402528D01*
X663199Y402655D01*
Y402825D01*
X663227Y403022D01*
X663255Y403262D01*
X663298Y403529D01*
X663354Y403811D01*
X663410Y404107D01*
X663495Y404417D01*
X663608Y404728D01*
X663735Y405052D01*
X663876Y405362D01*
X664059Y405672D01*
X664256Y405954D01*
X664482Y406222D01*
X664496Y406236D01*
X664538Y406278D01*
X664623Y406349D01*
X664721Y406433D01*
X664848Y406546D01*
X665003Y406659D01*
X665187Y406786D01*
X665398Y406913D01*
X665624Y407040D01*
X665877Y407166D01*
X666159Y407279D01*
X666455Y407392D01*
X666780Y407477D01*
X667118Y407547D01*
X667470Y407589D01*
X667851Y407603D01*
X667978D01*
X668076Y407589D01*
D02*
G37*
G36*
X658124Y434259D02*
X658223D01*
X658491Y434231D01*
X658787Y434189D01*
X659097Y434118D01*
X659435Y434034D01*
X659745Y433921D01*
X659759D01*
X659788Y433907D01*
X659830Y433879D01*
X659886Y433851D01*
X660027Y433780D01*
X660210Y433653D01*
X660422Y433512D01*
X660633Y433329D01*
X660831Y433117D01*
X661014Y432878D01*
Y432864D01*
X661028Y432850D01*
X661056Y432807D01*
X661084Y432765D01*
X661155Y432624D01*
X661239Y432441D01*
X661338Y432215D01*
X661409Y431947D01*
X661479Y431665D01*
X661507Y431355D01*
X660267Y431257D01*
Y431271D01*
Y431299D01*
X660253Y431341D01*
X660239Y431412D01*
X660196Y431567D01*
X660140Y431778D01*
X660055Y432004D01*
X659928Y432229D01*
X659773Y432441D01*
X659576Y432638D01*
X659548Y432652D01*
X659477Y432709D01*
X659336Y432793D01*
X659153Y432878D01*
X658913Y432962D01*
X658632Y433047D01*
X658279Y433103D01*
X657884Y433117D01*
X657687D01*
X657602Y433103D01*
X657490Y433089D01*
X657236Y433061D01*
X656954Y433005D01*
X656672Y432934D01*
X656404Y432822D01*
X656291Y432751D01*
X656179Y432681D01*
X656151Y432666D01*
X656094Y432610D01*
X656010Y432511D01*
X655925Y432399D01*
X655826Y432243D01*
X655742Y432074D01*
X655685Y431877D01*
X655657Y431651D01*
Y431623D01*
Y431567D01*
X655671Y431468D01*
X655699Y431355D01*
X655742Y431214D01*
X655812Y431073D01*
X655897Y430933D01*
X656024Y430792D01*
X656038Y430777D01*
X656108Y430735D01*
X656164Y430693D01*
X656221Y430665D01*
X656305Y430622D01*
X656404Y430566D01*
X656531Y430524D01*
X656672Y430467D01*
X656827Y430411D01*
X657010Y430340D01*
X657208Y430284D01*
X657433Y430214D01*
X657687Y430157D01*
X657969Y430087D01*
X657983D01*
X658039Y430073D01*
X658124Y430058D01*
X658223Y430030D01*
X658350Y430002D01*
X658505Y429960D01*
X658660Y429917D01*
X658829Y429875D01*
X659195Y429776D01*
X659548Y429678D01*
X659717Y429621D01*
X659872Y429565D01*
X660013Y429523D01*
X660126Y429466D01*
X660140D01*
X660168Y429452D01*
X660210Y429424D01*
X660267Y429396D01*
X660422Y429311D01*
X660605Y429198D01*
X660817Y429044D01*
X661028Y428874D01*
X661225Y428677D01*
X661395Y428465D01*
X661409Y428437D01*
X661465Y428367D01*
X661521Y428240D01*
X661606Y428071D01*
X661676Y427873D01*
X661747Y427634D01*
X661789Y427366D01*
X661803Y427084D01*
Y427070D01*
Y427056D01*
Y427014D01*
Y426957D01*
X661775Y426802D01*
X661747Y426605D01*
X661691Y426379D01*
X661620Y426139D01*
X661507Y425886D01*
X661352Y425618D01*
Y425604D01*
X661338Y425590D01*
X661268Y425505D01*
X661169Y425378D01*
X661028Y425237D01*
X660845Y425068D01*
X660619Y424885D01*
X660366Y424716D01*
X660069Y424561D01*
X660055D01*
X660027Y424547D01*
X659985Y424532D01*
X659928Y424504D01*
X659844Y424476D01*
X659745Y424434D01*
X659520Y424377D01*
X659252Y424307D01*
X658928Y424236D01*
X658575Y424194D01*
X658195Y424180D01*
X657969D01*
X657856Y424194D01*
X657729D01*
X657588Y424208D01*
X657419Y424222D01*
X657067Y424279D01*
X656700Y424335D01*
X656334Y424434D01*
X655981Y424561D01*
X655967D01*
X655939Y424575D01*
X655897Y424603D01*
X655840Y424631D01*
X655671Y424716D01*
X655474Y424843D01*
X655248Y425012D01*
X655009Y425209D01*
X654783Y425449D01*
X654572Y425717D01*
Y425731D01*
X654543Y425759D01*
X654529Y425801D01*
X654487Y425858D01*
X654459Y425928D01*
X654417Y426013D01*
X654318Y426224D01*
X654219Y426492D01*
X654135Y426788D01*
X654078Y427126D01*
X654050Y427479D01*
X655262Y427592D01*
Y427577D01*
Y427563D01*
X655276Y427521D01*
Y427465D01*
X655305Y427338D01*
X655347Y427155D01*
X655403Y426971D01*
X655460Y426760D01*
X655558Y426562D01*
X655657Y426379D01*
X655671Y426365D01*
X655713Y426309D01*
X655784Y426210D01*
X655897Y426111D01*
X656038Y425984D01*
X656193Y425858D01*
X656404Y425731D01*
X656630Y425618D01*
X656644D01*
X656658Y425604D01*
X656700Y425590D01*
X656742Y425576D01*
X656883Y425533D01*
X657067Y425477D01*
X657292Y425420D01*
X657546Y425378D01*
X657828Y425350D01*
X658138Y425336D01*
X658265D01*
X658406Y425350D01*
X658575Y425364D01*
X658773Y425392D01*
X658998Y425420D01*
X659224Y425477D01*
X659435Y425547D01*
X659463Y425561D01*
X659534Y425590D01*
X659632Y425646D01*
X659759Y425703D01*
X659886Y425801D01*
X660027Y425900D01*
X660168Y426013D01*
X660281Y426154D01*
X660295Y426168D01*
X660323Y426224D01*
X660366Y426295D01*
X660422Y426407D01*
X660478Y426520D01*
X660520Y426661D01*
X660549Y426816D01*
X660563Y426985D01*
Y426999D01*
Y427070D01*
X660549Y427155D01*
X660535Y427267D01*
X660492Y427380D01*
X660450Y427521D01*
X660380Y427662D01*
X660281Y427789D01*
X660267Y427803D01*
X660225Y427845D01*
X660168Y427902D01*
X660069Y427986D01*
X659957Y428071D01*
X659802Y428170D01*
X659618Y428268D01*
X659407Y428353D01*
X659393Y428367D01*
X659322Y428381D01*
X659210Y428423D01*
X659139Y428437D01*
X659040Y428465D01*
X658942Y428508D01*
X658815Y428536D01*
X658674Y428578D01*
X658505Y428621D01*
X658335Y428663D01*
X658138Y428719D01*
X657913Y428776D01*
X657673Y428832D01*
X657659D01*
X657617Y428846D01*
X657546Y428860D01*
X657461Y428888D01*
X657349Y428917D01*
X657222Y428945D01*
X656940Y429029D01*
X656630Y429128D01*
X656305Y429227D01*
X656024Y429325D01*
X655897Y429382D01*
X655784Y429438D01*
X655770D01*
X655756Y429452D01*
X655671Y429509D01*
X655544Y429579D01*
X655403Y429692D01*
X655234Y429819D01*
X655065Y429974D01*
X654896Y430157D01*
X654755Y430354D01*
X654741Y430383D01*
X654698Y430453D01*
X654642Y430566D01*
X654586Y430707D01*
X654529Y430890D01*
X654473Y431102D01*
X654431Y431327D01*
X654417Y431567D01*
Y431581D01*
Y431595D01*
Y431637D01*
Y431694D01*
X654445Y431835D01*
X654473Y432018D01*
X654515Y432229D01*
X654586Y432469D01*
X654684Y432709D01*
X654825Y432948D01*
Y432962D01*
X654839Y432976D01*
X654910Y433061D01*
X655009Y433174D01*
X655135Y433315D01*
X655305Y433470D01*
X655516Y433639D01*
X655770Y433794D01*
X656052Y433935D01*
X656066D01*
X656094Y433949D01*
X656136Y433963D01*
X656193Y433992D01*
X656263Y434020D01*
X656362Y434048D01*
X656573Y434104D01*
X656841Y434161D01*
X657151Y434217D01*
X657476Y434259D01*
X657842Y434273D01*
X658025D01*
X658124Y434259D01*
D02*
G37*
G36*
X676633Y424349D02*
X675393D01*
Y432511D01*
X672545Y424349D01*
X671389D01*
X668570Y432652D01*
Y424349D01*
X667329D01*
Y434104D01*
X669261D01*
X671573Y427183D01*
Y427169D01*
X671587Y427140D01*
X671601Y427098D01*
X671629Y427028D01*
X671685Y426858D01*
X671756Y426647D01*
X671826Y426407D01*
X671911Y426168D01*
X671981Y425942D01*
X672038Y425745D01*
X672052Y425773D01*
X672066Y425843D01*
X672108Y425970D01*
X672165Y426139D01*
X672235Y426365D01*
X672334Y426633D01*
X672432Y426943D01*
X672559Y427309D01*
X674900Y434104D01*
X676633D01*
Y424349D01*
D02*
G37*
G36*
X665088D02*
X663791D01*
Y434104D01*
X665088D01*
Y424349D01*
D02*
G37*
G36*
X683231Y434259D02*
X683358D01*
X683484Y434245D01*
X683654Y434217D01*
X683823Y434189D01*
X684189Y434118D01*
X684612Y434006D01*
X685021Y433836D01*
X685233Y433738D01*
X685444Y433625D01*
X685458Y433611D01*
X685486Y433597D01*
X685543Y433554D01*
X685627Y433512D01*
X685712Y433442D01*
X685825Y433357D01*
X686064Y433160D01*
X686318Y432906D01*
X686600Y432596D01*
X686868Y432229D01*
X687093Y431821D01*
Y431806D01*
X687122Y431764D01*
X687150Y431708D01*
X687178Y431623D01*
X687234Y431510D01*
X687277Y431384D01*
X687333Y431228D01*
X687389Y431059D01*
X687432Y430876D01*
X687488Y430679D01*
X687544Y430453D01*
X687587Y430228D01*
X687643Y429734D01*
X687671Y429198D01*
Y429184D01*
Y429128D01*
Y429058D01*
X687657Y428945D01*
Y428818D01*
X687643Y428663D01*
X687615Y428494D01*
X687601Y428310D01*
X687530Y427902D01*
X687418Y427450D01*
X687262Y426999D01*
X687178Y426774D01*
X687065Y426548D01*
Y426534D01*
X687037Y426492D01*
X687009Y426436D01*
X686952Y426351D01*
X686896Y426252D01*
X686825Y426154D01*
X686628Y425886D01*
X686388Y425604D01*
X686107Y425308D01*
X685768Y425026D01*
X685374Y424772D01*
X685359D01*
X685331Y424744D01*
X685261Y424716D01*
X685176Y424673D01*
X685078Y424631D01*
X684965Y424589D01*
X684824Y424532D01*
X684669Y424476D01*
X684500Y424420D01*
X684316Y424363D01*
X683907Y424279D01*
X683470Y424208D01*
X683005Y424180D01*
X682864D01*
X682780Y424194D01*
X682653D01*
X682512Y424222D01*
X682357Y424236D01*
X682173Y424265D01*
X681793Y424349D01*
X681384Y424462D01*
X680961Y424631D01*
X680750Y424730D01*
X680538Y424843D01*
X680524Y424857D01*
X680496Y424871D01*
X680440Y424913D01*
X680355Y424969D01*
X680270Y425026D01*
X680172Y425110D01*
X679932Y425322D01*
X679664Y425576D01*
X679382Y425886D01*
X679129Y426238D01*
X678889Y426647D01*
Y426661D01*
X678861Y426703D01*
X678832Y426760D01*
X678804Y426844D01*
X678762Y426957D01*
X678720Y427084D01*
X678663Y427225D01*
X678621Y427380D01*
X678565Y427563D01*
X678508Y427747D01*
X678424Y428170D01*
X678367Y428606D01*
X678339Y429086D01*
Y429100D01*
Y429114D01*
Y429198D01*
X678353Y429325D01*
Y429495D01*
X678381Y429692D01*
X678410Y429932D01*
X678452Y430199D01*
X678508Y430481D01*
X678565Y430777D01*
X678649Y431087D01*
X678762Y431398D01*
X678889Y431722D01*
X679030Y432032D01*
X679213Y432342D01*
X679410Y432624D01*
X679636Y432892D01*
X679650Y432906D01*
X679692Y432948D01*
X679777Y433019D01*
X679876Y433103D01*
X680003Y433216D01*
X680158Y433329D01*
X680341Y433456D01*
X680552Y433583D01*
X680778Y433710D01*
X681032Y433836D01*
X681314Y433949D01*
X681610Y434062D01*
X681934Y434147D01*
X682272Y434217D01*
X682625Y434259D01*
X683005Y434273D01*
X683132D01*
X683231Y434259D01*
D02*
G37*
G36*
X658885Y459659D02*
X659012Y459645D01*
X659167Y459631D01*
X659322Y459617D01*
X659505Y459575D01*
X659886Y459490D01*
X660309Y459363D01*
X660520Y459279D01*
X660718Y459180D01*
X660915Y459053D01*
X661113Y458926D01*
X661127Y458912D01*
X661155Y458898D01*
X661211Y458856D01*
X661282Y458785D01*
X661352Y458715D01*
X661451Y458616D01*
X661550Y458503D01*
X661662Y458391D01*
X661775Y458250D01*
X661888Y458080D01*
X662015Y457911D01*
X662128Y457728D01*
X662226Y457517D01*
X662339Y457305D01*
X662424Y457080D01*
X662508Y456826D01*
X661239Y456530D01*
Y456544D01*
X661225Y456572D01*
X661197Y456628D01*
X661169Y456699D01*
X661141Y456784D01*
X661098Y456896D01*
X660986Y457122D01*
X660845Y457376D01*
X660676Y457629D01*
X660464Y457869D01*
X660239Y458080D01*
X660210Y458109D01*
X660126Y458165D01*
X659985Y458236D01*
X659802Y458334D01*
X659562Y458419D01*
X659294Y458503D01*
X658970Y458560D01*
X658617Y458574D01*
X658505D01*
X658434Y458560D01*
X658335D01*
X658223Y458546D01*
X657955Y458503D01*
X657659Y458447D01*
X657349Y458348D01*
X657025Y458207D01*
X656728Y458024D01*
X656714D01*
X656700Y457996D01*
X656602Y457925D01*
X656475Y457813D01*
X656320Y457644D01*
X656136Y457432D01*
X655967Y457192D01*
X655812Y456896D01*
X655671Y456572D01*
Y456558D01*
X655657Y456530D01*
X655643Y456488D01*
X655629Y456417D01*
X655601Y456333D01*
X655573Y456234D01*
X655530Y455994D01*
X655474Y455712D01*
X655417Y455402D01*
X655389Y455064D01*
X655375Y454697D01*
Y454683D01*
Y454641D01*
Y454570D01*
Y454486D01*
X655389Y454387D01*
Y454260D01*
X655403Y454119D01*
X655417Y453964D01*
X655460Y453626D01*
X655530Y453259D01*
X655615Y452893D01*
X655727Y452526D01*
Y452512D01*
X655742Y452484D01*
X655770Y452442D01*
X655798Y452371D01*
X655883Y452202D01*
X656010Y452005D01*
X656164Y451779D01*
X656362Y451539D01*
X656588Y451328D01*
X656855Y451131D01*
X656869D01*
X656898Y451117D01*
X656940Y451088D01*
X656996Y451060D01*
X657067Y451032D01*
X657151Y450990D01*
X657349Y450905D01*
X657602Y450821D01*
X657884Y450750D01*
X658195Y450694D01*
X658519Y450680D01*
X658617D01*
X658702Y450694D01*
X658801D01*
X658899Y450708D01*
X659153Y450764D01*
X659449Y450835D01*
X659745Y450947D01*
X660055Y451102D01*
X660210Y451187D01*
X660351Y451300D01*
X660366Y451314D01*
X660380Y451328D01*
X660422Y451370D01*
X660478Y451413D01*
X660535Y451483D01*
X660605Y451568D01*
X660690Y451652D01*
X660760Y451765D01*
X660845Y451892D01*
X660943Y452033D01*
X661028Y452174D01*
X661113Y452343D01*
X661183Y452526D01*
X661254Y452724D01*
X661324Y452935D01*
X661380Y453161D01*
X662677Y452836D01*
Y452822D01*
X662663Y452766D01*
X662635Y452681D01*
X662593Y452569D01*
X662551Y452442D01*
X662494Y452287D01*
X662424Y452118D01*
X662339Y451934D01*
X662142Y451539D01*
X661888Y451145D01*
X661733Y450947D01*
X661578Y450750D01*
X661409Y450581D01*
X661211Y450412D01*
X661197Y450398D01*
X661169Y450369D01*
X661098Y450341D01*
X661028Y450285D01*
X660915Y450214D01*
X660803Y450144D01*
X660647Y450073D01*
X660492Y450003D01*
X660309Y449918D01*
X660112Y449848D01*
X659900Y449777D01*
X659675Y449707D01*
X659435Y449650D01*
X659181Y449622D01*
X658913Y449594D01*
X658632Y449580D01*
X658476D01*
X658364Y449594D01*
X658237D01*
X658082Y449608D01*
X657913Y449636D01*
X657715Y449665D01*
X657306Y449735D01*
X656883Y449848D01*
X656461Y450003D01*
X656263Y450102D01*
X656066Y450214D01*
X656052Y450229D01*
X656024Y450243D01*
X655967Y450285D01*
X655911Y450341D01*
X655826Y450398D01*
X655727Y450482D01*
X655615Y450581D01*
X655502Y450694D01*
X655389Y450821D01*
X655262Y450947D01*
X655009Y451272D01*
X654769Y451652D01*
X654557Y452075D01*
Y452089D01*
X654529Y452132D01*
X654515Y452202D01*
X654473Y452287D01*
X654445Y452399D01*
X654402Y452540D01*
X654346Y452695D01*
X654304Y452865D01*
X654261Y453048D01*
X654205Y453259D01*
X654135Y453696D01*
X654078Y454190D01*
X654050Y454697D01*
Y454711D01*
Y454768D01*
Y454852D01*
X654064Y454951D01*
Y455092D01*
X654078Y455233D01*
X654092Y455416D01*
X654120Y455599D01*
X654191Y456008D01*
X654290Y456459D01*
X654431Y456910D01*
X654628Y457347D01*
X654642Y457361D01*
X654656Y457404D01*
X654684Y457460D01*
X654741Y457531D01*
X654797Y457629D01*
X654868Y457742D01*
X655051Y457996D01*
X655291Y458278D01*
X655573Y458560D01*
X655897Y458842D01*
X656277Y459081D01*
X656291Y459095D01*
X656334Y459110D01*
X656390Y459138D01*
X656461Y459180D01*
X656573Y459222D01*
X656686Y459265D01*
X656827Y459321D01*
X656982Y459377D01*
X657151Y459434D01*
X657335Y459490D01*
X657729Y459575D01*
X658180Y459645D01*
X658646Y459674D01*
X658787D01*
X658885Y459659D01*
D02*
G37*
G36*
X675590Y455543D02*
X679862Y449749D01*
X678156D01*
X674688Y454669D01*
X673095Y453132D01*
Y449749D01*
X671798D01*
Y459504D01*
X673095D01*
Y454655D01*
X677916Y459504D01*
X679678D01*
X675590Y455543D01*
D02*
G37*
G36*
X665511Y450905D02*
X670318D01*
Y449749D01*
X664214D01*
Y459504D01*
X665511D01*
Y450905D01*
D02*
G37*
G36*
X658124Y486329D02*
X658223D01*
X658491Y486301D01*
X658787Y486259D01*
X659097Y486188D01*
X659435Y486104D01*
X659745Y485991D01*
X659759D01*
X659788Y485977D01*
X659830Y485949D01*
X659886Y485920D01*
X660027Y485850D01*
X660210Y485723D01*
X660422Y485582D01*
X660633Y485399D01*
X660831Y485187D01*
X661014Y484948D01*
Y484934D01*
X661028Y484920D01*
X661056Y484877D01*
X661084Y484835D01*
X661155Y484694D01*
X661239Y484511D01*
X661338Y484285D01*
X661409Y484017D01*
X661479Y483736D01*
X661507Y483425D01*
X660267Y483327D01*
Y483341D01*
Y483369D01*
X660253Y483411D01*
X660239Y483482D01*
X660196Y483637D01*
X660140Y483848D01*
X660055Y484074D01*
X659928Y484299D01*
X659773Y484511D01*
X659576Y484708D01*
X659548Y484722D01*
X659477Y484779D01*
X659336Y484863D01*
X659153Y484948D01*
X658913Y485032D01*
X658632Y485117D01*
X658279Y485173D01*
X657884Y485187D01*
X657687D01*
X657602Y485173D01*
X657490Y485159D01*
X657236Y485131D01*
X656954Y485075D01*
X656672Y485004D01*
X656404Y484892D01*
X656291Y484821D01*
X656179Y484751D01*
X656151Y484736D01*
X656094Y484680D01*
X656010Y484581D01*
X655925Y484469D01*
X655826Y484314D01*
X655742Y484144D01*
X655685Y483947D01*
X655657Y483721D01*
Y483693D01*
Y483637D01*
X655671Y483538D01*
X655699Y483425D01*
X655742Y483284D01*
X655812Y483143D01*
X655897Y483003D01*
X656024Y482862D01*
X656038Y482847D01*
X656108Y482805D01*
X656164Y482763D01*
X656221Y482735D01*
X656305Y482692D01*
X656404Y482636D01*
X656531Y482594D01*
X656672Y482537D01*
X656827Y482481D01*
X657010Y482410D01*
X657208Y482354D01*
X657433Y482284D01*
X657687Y482227D01*
X657969Y482157D01*
X657983D01*
X658039Y482142D01*
X658124Y482128D01*
X658223Y482100D01*
X658350Y482072D01*
X658505Y482030D01*
X658660Y481987D01*
X658829Y481945D01*
X659195Y481847D01*
X659548Y481748D01*
X659717Y481691D01*
X659872Y481635D01*
X660013Y481593D01*
X660126Y481536D01*
X660140D01*
X660168Y481522D01*
X660210Y481494D01*
X660267Y481466D01*
X660422Y481381D01*
X660605Y481269D01*
X660817Y481114D01*
X661028Y480944D01*
X661225Y480747D01*
X661395Y480536D01*
X661409Y480507D01*
X661465Y480437D01*
X661521Y480310D01*
X661606Y480141D01*
X661676Y479943D01*
X661747Y479704D01*
X661789Y479436D01*
X661803Y479154D01*
Y479140D01*
Y479126D01*
Y479084D01*
Y479027D01*
X661775Y478872D01*
X661747Y478675D01*
X661691Y478449D01*
X661620Y478209D01*
X661507Y477956D01*
X661352Y477688D01*
Y477674D01*
X661338Y477660D01*
X661268Y477575D01*
X661169Y477448D01*
X661028Y477307D01*
X660845Y477138D01*
X660619Y476955D01*
X660366Y476786D01*
X660069Y476631D01*
X660055D01*
X660027Y476617D01*
X659985Y476602D01*
X659928Y476574D01*
X659844Y476546D01*
X659745Y476504D01*
X659520Y476447D01*
X659252Y476377D01*
X658928Y476306D01*
X658575Y476264D01*
X658195Y476250D01*
X657969D01*
X657856Y476264D01*
X657729D01*
X657588Y476278D01*
X657419Y476292D01*
X657067Y476349D01*
X656700Y476405D01*
X656334Y476504D01*
X655981Y476631D01*
X655967D01*
X655939Y476645D01*
X655897Y476673D01*
X655840Y476701D01*
X655671Y476786D01*
X655474Y476913D01*
X655248Y477082D01*
X655009Y477279D01*
X654783Y477519D01*
X654572Y477787D01*
Y477801D01*
X654543Y477829D01*
X654529Y477871D01*
X654487Y477928D01*
X654459Y477998D01*
X654417Y478083D01*
X654318Y478294D01*
X654219Y478562D01*
X654135Y478858D01*
X654078Y479196D01*
X654050Y479549D01*
X655262Y479661D01*
Y479647D01*
Y479633D01*
X655276Y479591D01*
Y479535D01*
X655305Y479408D01*
X655347Y479225D01*
X655403Y479041D01*
X655460Y478830D01*
X655558Y478632D01*
X655657Y478449D01*
X655671Y478435D01*
X655713Y478379D01*
X655784Y478280D01*
X655897Y478181D01*
X656038Y478054D01*
X656193Y477928D01*
X656404Y477801D01*
X656630Y477688D01*
X656644D01*
X656658Y477674D01*
X656700Y477660D01*
X656742Y477646D01*
X656883Y477603D01*
X657067Y477547D01*
X657292Y477491D01*
X657546Y477448D01*
X657828Y477420D01*
X658138Y477406D01*
X658265D01*
X658406Y477420D01*
X658575Y477434D01*
X658773Y477462D01*
X658998Y477491D01*
X659224Y477547D01*
X659435Y477617D01*
X659463Y477631D01*
X659534Y477660D01*
X659632Y477716D01*
X659759Y477772D01*
X659886Y477871D01*
X660027Y477970D01*
X660168Y478083D01*
X660281Y478224D01*
X660295Y478238D01*
X660323Y478294D01*
X660366Y478365D01*
X660422Y478477D01*
X660478Y478590D01*
X660520Y478731D01*
X660549Y478886D01*
X660563Y479055D01*
Y479069D01*
Y479140D01*
X660549Y479225D01*
X660535Y479337D01*
X660492Y479450D01*
X660450Y479591D01*
X660380Y479732D01*
X660281Y479859D01*
X660267Y479873D01*
X660225Y479915D01*
X660168Y479972D01*
X660069Y480056D01*
X659957Y480141D01*
X659802Y480239D01*
X659618Y480338D01*
X659407Y480423D01*
X659393Y480437D01*
X659322Y480451D01*
X659210Y480493D01*
X659139Y480507D01*
X659040Y480536D01*
X658942Y480578D01*
X658815Y480606D01*
X658674Y480648D01*
X658505Y480691D01*
X658335Y480733D01*
X658138Y480789D01*
X657913Y480846D01*
X657673Y480902D01*
X657659D01*
X657617Y480916D01*
X657546Y480930D01*
X657461Y480958D01*
X657349Y480987D01*
X657222Y481015D01*
X656940Y481099D01*
X656630Y481198D01*
X656305Y481297D01*
X656024Y481395D01*
X655897Y481452D01*
X655784Y481508D01*
X655770D01*
X655756Y481522D01*
X655671Y481579D01*
X655544Y481649D01*
X655403Y481762D01*
X655234Y481889D01*
X655065Y482044D01*
X654896Y482227D01*
X654755Y482425D01*
X654741Y482453D01*
X654698Y482523D01*
X654642Y482636D01*
X654586Y482777D01*
X654529Y482960D01*
X654473Y483172D01*
X654431Y483397D01*
X654417Y483637D01*
Y483651D01*
Y483665D01*
Y483707D01*
Y483764D01*
X654445Y483905D01*
X654473Y484088D01*
X654515Y484299D01*
X654586Y484539D01*
X654684Y484779D01*
X654825Y485018D01*
Y485032D01*
X654839Y485047D01*
X654910Y485131D01*
X655009Y485244D01*
X655135Y485385D01*
X655305Y485540D01*
X655516Y485709D01*
X655770Y485864D01*
X656052Y486005D01*
X656066D01*
X656094Y486019D01*
X656136Y486033D01*
X656193Y486062D01*
X656263Y486090D01*
X656362Y486118D01*
X656573Y486174D01*
X656841Y486231D01*
X657151Y486287D01*
X657476Y486329D01*
X657842Y486343D01*
X658025D01*
X658124Y486329D01*
D02*
G37*
G36*
X678988Y485018D02*
X673222D01*
Y482044D01*
X678621D01*
Y480888D01*
X673222D01*
Y477575D01*
X679213D01*
Y476419D01*
X671925D01*
Y486174D01*
X678988D01*
Y485018D01*
D02*
G37*
G36*
X670572D02*
X667358D01*
Y476419D01*
X666061D01*
Y485018D01*
X662847D01*
Y486174D01*
X670572D01*
Y485018D01*
D02*
G37*
G36*
X556910Y398817D02*
X560561Y393700D01*
X558968D01*
X556501Y397168D01*
X556487Y397182D01*
X556459Y397224D01*
X556431Y397281D01*
X556374Y397351D01*
X556247Y397548D01*
X556106Y397760D01*
X556092Y397746D01*
X556050Y397690D01*
X555994Y397605D01*
X555923Y397492D01*
X555768Y397267D01*
X555698Y397168D01*
X555641Y397083D01*
X553174Y393700D01*
X551623D01*
X555387Y398747D01*
X552061Y403455D01*
X553597D01*
X555373Y400946D01*
Y400932D01*
X555401Y400918D01*
X555430Y400875D01*
X555472Y400819D01*
X555556Y400678D01*
X555683Y400509D01*
X555810Y400312D01*
X555937Y400114D01*
X556050Y399931D01*
X556149Y399762D01*
X556163Y399790D01*
X556205Y399846D01*
X556275Y399959D01*
X556374Y400100D01*
X556487Y400255D01*
X556628Y400452D01*
X556769Y400650D01*
X556938Y400861D01*
X558883Y403455D01*
X560293D01*
X556910Y398817D01*
D02*
G37*
G36*
X565720Y403441D02*
X566002Y403427D01*
X566284Y403399D01*
X566566Y403356D01*
X566806Y403314D01*
X566820D01*
X566848Y403300D01*
X566890D01*
X566947Y403272D01*
X567102Y403230D01*
X567299Y403159D01*
X567525Y403060D01*
X567765Y402934D01*
X568004Y402793D01*
X568230Y402609D01*
X568244Y402595D01*
X568258Y402581D01*
X568300Y402539D01*
X568357Y402496D01*
X568498Y402356D01*
X568667Y402158D01*
X568850Y401919D01*
X569047Y401637D01*
X569231Y401312D01*
X569386Y400946D01*
Y400932D01*
X569400Y400904D01*
X569428Y400847D01*
X569442Y400763D01*
X569484Y400664D01*
X569513Y400551D01*
X569541Y400424D01*
X569583Y400269D01*
X569625Y400114D01*
X569654Y399931D01*
X569724Y399536D01*
X569766Y399099D01*
X569780Y398620D01*
Y398606D01*
Y398578D01*
Y398507D01*
Y398437D01*
X569766Y398338D01*
Y398225D01*
X569752Y397957D01*
X569710Y397647D01*
X569668Y397323D01*
X569597Y396985D01*
X569513Y396646D01*
Y396632D01*
X569498Y396604D01*
X569484Y396562D01*
X569470Y396505D01*
X569414Y396350D01*
X569329Y396153D01*
X569245Y395927D01*
X569132Y395702D01*
X568991Y395462D01*
X568850Y395237D01*
X568836Y395208D01*
X568779Y395138D01*
X568695Y395039D01*
X568582Y394912D01*
X568455Y394771D01*
X568300Y394630D01*
X568145Y394475D01*
X567962Y394348D01*
X567934Y394334D01*
X567877Y394292D01*
X567779Y394236D01*
X567638Y394165D01*
X567468Y394081D01*
X567271Y394010D01*
X567046Y393926D01*
X566792Y393855D01*
X566764D01*
X566721Y393841D01*
X566679Y393827D01*
X566538Y393813D01*
X566341Y393785D01*
X566115Y393756D01*
X565847Y393728D01*
X565551Y393714D01*
X565227Y393700D01*
X561717D01*
Y403455D01*
X565467D01*
X565720Y403441D01*
D02*
G37*
G36*
X551285Y402299D02*
X548071D01*
Y393700D01*
X546774D01*
Y402299D01*
X543560D01*
Y403455D01*
X551285D01*
Y402299D01*
D02*
G37*
G36*
X557671Y449617D02*
X561322Y444500D01*
X559729D01*
X557262Y447968D01*
X557248Y447982D01*
X557220Y448024D01*
X557192Y448081D01*
X557135Y448151D01*
X557009Y448349D01*
X556868Y448560D01*
X556853Y448546D01*
X556811Y448489D01*
X556755Y448405D01*
X556684Y448292D01*
X556529Y448066D01*
X556459Y447968D01*
X556402Y447883D01*
X553935Y444500D01*
X552385D01*
X556149Y449547D01*
X552822Y454255D01*
X554358D01*
X556134Y451746D01*
Y451732D01*
X556163Y451718D01*
X556191Y451675D01*
X556233Y451619D01*
X556318Y451478D01*
X556445Y451309D01*
X556572Y451111D01*
X556698Y450914D01*
X556811Y450731D01*
X556910Y450562D01*
X556924Y450590D01*
X556966Y450646D01*
X557037Y450759D01*
X557135Y450900D01*
X557248Y451055D01*
X557389Y451253D01*
X557530Y451450D01*
X557699Y451661D01*
X559645Y454255D01*
X561054D01*
X557671Y449617D01*
D02*
G37*
G36*
X566482Y454241D02*
X566764Y454227D01*
X567046Y454199D01*
X567327Y454156D01*
X567567Y454114D01*
X567581D01*
X567609Y454100D01*
X567652D01*
X567708Y454072D01*
X567863Y454030D01*
X568061Y453959D01*
X568286Y453860D01*
X568526Y453733D01*
X568765Y453593D01*
X568991Y453409D01*
X569005Y453395D01*
X569019Y453381D01*
X569062Y453339D01*
X569118Y453297D01*
X569259Y453156D01*
X569428Y452958D01*
X569611Y452719D01*
X569809Y452437D01*
X569992Y452112D01*
X570147Y451746D01*
Y451732D01*
X570161Y451704D01*
X570189Y451647D01*
X570203Y451563D01*
X570246Y451464D01*
X570274Y451351D01*
X570302Y451224D01*
X570344Y451069D01*
X570387Y450914D01*
X570415Y450731D01*
X570485Y450336D01*
X570528Y449899D01*
X570542Y449420D01*
Y449406D01*
Y449378D01*
Y449307D01*
Y449237D01*
X570528Y449138D01*
Y449025D01*
X570513Y448757D01*
X570471Y448447D01*
X570429Y448123D01*
X570358Y447785D01*
X570274Y447446D01*
Y447432D01*
X570260Y447404D01*
X570246Y447362D01*
X570232Y447305D01*
X570175Y447150D01*
X570091Y446953D01*
X570006Y446727D01*
X569893Y446502D01*
X569752Y446262D01*
X569611Y446037D01*
X569597Y446008D01*
X569541Y445938D01*
X569456Y445839D01*
X569343Y445712D01*
X569216Y445571D01*
X569062Y445430D01*
X568906Y445275D01*
X568723Y445149D01*
X568695Y445134D01*
X568639Y445092D01*
X568540Y445036D01*
X568399Y444965D01*
X568230Y444881D01*
X568032Y444810D01*
X567807Y444726D01*
X567553Y444655D01*
X567525D01*
X567483Y444641D01*
X567440Y444627D01*
X567299Y444613D01*
X567102Y444585D01*
X566876Y444556D01*
X566609Y444528D01*
X566313Y444514D01*
X565988Y444500D01*
X562478D01*
Y454255D01*
X566228D01*
X566482Y454241D01*
D02*
G37*
G36*
X548198D02*
X548325D01*
X548621Y454227D01*
X548931Y454185D01*
X549269Y454142D01*
X549579Y454072D01*
X549734Y454030D01*
X549861Y453987D01*
X549875D01*
X549890Y453973D01*
X549974Y453931D01*
X550101Y453875D01*
X550256Y453776D01*
X550425Y453649D01*
X550608Y453480D01*
X550778Y453282D01*
X550947Y453057D01*
Y453043D01*
X550961Y453029D01*
X551017Y452944D01*
X551074Y452803D01*
X551158Y452620D01*
X551229Y452408D01*
X551299Y452155D01*
X551342Y451887D01*
X551356Y451591D01*
Y451577D01*
Y451549D01*
Y451492D01*
X551342Y451422D01*
Y451323D01*
X551327Y451224D01*
X551271Y450985D01*
X551186Y450703D01*
X551074Y450407D01*
X550905Y450111D01*
X550792Y449970D01*
X550679Y449829D01*
X550665Y449815D01*
X550651Y449800D01*
X550608Y449758D01*
X550552Y449716D01*
X550482Y449660D01*
X550397Y449603D01*
X550284Y449533D01*
X550172Y449448D01*
X550031Y449378D01*
X549875Y449307D01*
X549706Y449222D01*
X549523Y449152D01*
X549312Y449096D01*
X549100Y449025D01*
X548861Y448983D01*
X548607Y448941D01*
X548635Y448927D01*
X548691Y448898D01*
X548776Y448842D01*
X548889Y448786D01*
X549142Y448630D01*
X549269Y448532D01*
X549382Y448447D01*
X549410Y448419D01*
X549481Y448349D01*
X549594Y448236D01*
X549734Y448095D01*
X549890Y447897D01*
X550073Y447686D01*
X550256Y447432D01*
X550453Y447150D01*
X552131Y444500D01*
X550524D01*
X549241Y446530D01*
Y446544D01*
X549213Y446572D01*
X549185Y446614D01*
X549142Y446671D01*
X549044Y446826D01*
X548917Y447023D01*
X548762Y447235D01*
X548607Y447460D01*
X548452Y447672D01*
X548311Y447869D01*
X548297Y447883D01*
X548254Y447940D01*
X548184Y448024D01*
X548085Y448123D01*
X547874Y448334D01*
X547761Y448433D01*
X547648Y448518D01*
X547634Y448532D01*
X547606Y448546D01*
X547550Y448574D01*
X547465Y448616D01*
X547380Y448659D01*
X547282Y448701D01*
X547056Y448771D01*
X547042D01*
X547014Y448786D01*
X546957D01*
X546887Y448800D01*
X546788Y448814D01*
X546675D01*
X546520Y448828D01*
X544857D01*
Y444500D01*
X543560D01*
Y454255D01*
X548085D01*
X548198Y454241D01*
D02*
G37*
G36*
X548705Y478709D02*
X548818D01*
X549086Y478681D01*
X549382Y478639D01*
X549692Y478568D01*
X550031Y478484D01*
X550355Y478371D01*
X550369D01*
X550397Y478357D01*
X550439Y478343D01*
X550496Y478315D01*
X550651Y478230D01*
X550848Y478131D01*
X551060Y477990D01*
X551285Y477821D01*
X551497Y477638D01*
X551694Y477412D01*
X551722Y477384D01*
X551779Y477300D01*
X551863Y477173D01*
X551976Y476990D01*
X552089Y476764D01*
X552216Y476482D01*
X552342Y476172D01*
X552441Y475820D01*
X551271Y475509D01*
Y475523D01*
X551257Y475537D01*
X551243Y475580D01*
X551229Y475636D01*
X551186Y475763D01*
X551130Y475932D01*
X551045Y476130D01*
X550947Y476313D01*
X550848Y476510D01*
X550721Y476679D01*
X550707Y476693D01*
X550665Y476750D01*
X550580Y476820D01*
X550482Y476919D01*
X550355Y477032D01*
X550186Y477145D01*
X550002Y477257D01*
X549791Y477356D01*
X549763Y477370D01*
X549692Y477398D01*
X549565Y477441D01*
X549396Y477497D01*
X549199Y477539D01*
X548973Y477582D01*
X548719Y477610D01*
X548452Y477624D01*
X548297D01*
X548226Y477610D01*
X548142D01*
X547930Y477596D01*
X547690Y477553D01*
X547423Y477511D01*
X547169Y477441D01*
X546915Y477342D01*
X546887Y477328D01*
X546802Y477300D01*
X546689Y477229D01*
X546549Y477159D01*
X546379Y477046D01*
X546196Y476933D01*
X546027Y476792D01*
X545872Y476637D01*
X545858Y476623D01*
X545801Y476567D01*
X545731Y476468D01*
X545646Y476355D01*
X545548Y476214D01*
X545449Y476045D01*
X545350Y475862D01*
X545252Y475664D01*
Y475650D01*
X545238Y475622D01*
X545223Y475580D01*
X545195Y475509D01*
X545167Y475425D01*
X545139Y475326D01*
X545097Y475213D01*
X545068Y475086D01*
X544998Y474790D01*
X544941Y474452D01*
X544899Y474100D01*
X544885Y473705D01*
Y473691D01*
Y473648D01*
Y473578D01*
X544899Y473493D01*
Y473381D01*
X544913Y473240D01*
X544927Y473099D01*
X544941Y472944D01*
X544998Y472591D01*
X545068Y472225D01*
X545181Y471858D01*
X545322Y471506D01*
Y471492D01*
X545350Y471464D01*
X545364Y471421D01*
X545407Y471365D01*
X545505Y471210D01*
X545661Y471012D01*
X545844Y470801D01*
X546069Y470589D01*
X546337Y470392D01*
X546633Y470209D01*
X546647D01*
X546675Y470195D01*
X546718Y470167D01*
X546788Y470138D01*
X546859Y470110D01*
X546957Y470082D01*
X547183Y469997D01*
X547465Y469927D01*
X547775Y469856D01*
X548113Y469800D01*
X548466Y469786D01*
X548607D01*
X548691Y469800D01*
X548776D01*
X548987Y469828D01*
X549241Y469856D01*
X549509Y469913D01*
X549805Y469997D01*
X550101Y470096D01*
X550115D01*
X550143Y470110D01*
X550172Y470124D01*
X550228Y470153D01*
X550383Y470223D01*
X550552Y470308D01*
X550750Y470406D01*
X550961Y470519D01*
X551158Y470646D01*
X551327Y470787D01*
Y472620D01*
X548452D01*
Y473775D01*
X552596D01*
Y470153D01*
X552582Y470138D01*
X552554Y470124D01*
X552497Y470082D01*
X552427Y470026D01*
X552342Y469969D01*
X552244Y469899D01*
X552117Y469814D01*
X551990Y469730D01*
X551694Y469546D01*
X551356Y469349D01*
X551003Y469166D01*
X550623Y469011D01*
X550608D01*
X550580Y468997D01*
X550524Y468982D01*
X550453Y468954D01*
X550355Y468926D01*
X550242Y468884D01*
X550115Y468856D01*
X549988Y468827D01*
X549678Y468757D01*
X549326Y468686D01*
X548945Y468644D01*
X548550Y468630D01*
X548409D01*
X548311Y468644D01*
X548184D01*
X548029Y468658D01*
X547860Y468686D01*
X547676Y468700D01*
X547267Y468785D01*
X546830Y468884D01*
X546379Y469039D01*
X546154Y469123D01*
X545928Y469236D01*
X545914Y469250D01*
X545872Y469264D01*
X545816Y469307D01*
X545731Y469349D01*
X545632Y469419D01*
X545534Y469490D01*
X545266Y469687D01*
X544984Y469941D01*
X544688Y470251D01*
X544406Y470604D01*
X544152Y471012D01*
Y471026D01*
X544124Y471069D01*
X544096Y471125D01*
X544053Y471224D01*
X544011Y471323D01*
X543969Y471464D01*
X543912Y471604D01*
X543856Y471774D01*
X543800Y471957D01*
X543743Y472168D01*
X543701Y472380D01*
X543659Y472605D01*
X543588Y473099D01*
X543560Y473620D01*
Y473634D01*
Y473691D01*
Y473761D01*
X543574Y473860D01*
Y473987D01*
X543588Y474142D01*
X543616Y474297D01*
X543630Y474480D01*
X543673Y474678D01*
X543701Y474889D01*
X543814Y475340D01*
X543955Y475805D01*
X544152Y476271D01*
X544166Y476285D01*
X544180Y476327D01*
X544208Y476383D01*
X544265Y476468D01*
X544321Y476581D01*
X544392Y476693D01*
X544589Y476961D01*
X544829Y477271D01*
X545125Y477567D01*
X545463Y477864D01*
X545661Y477990D01*
X545858Y478117D01*
X545872Y478131D01*
X545914Y478145D01*
X545971Y478174D01*
X546055Y478216D01*
X546168Y478258D01*
X546295Y478315D01*
X546436Y478371D01*
X546605Y478427D01*
X546788Y478484D01*
X546986Y478526D01*
X547197Y478582D01*
X547423Y478625D01*
X547916Y478695D01*
X548170Y478723D01*
X548621D01*
X548705Y478709D01*
D02*
G37*
G36*
X562168Y468799D02*
X560829D01*
X555726Y476454D01*
Y468799D01*
X554485D01*
Y478554D01*
X555810D01*
X560928Y470886D01*
Y478554D01*
X562168D01*
Y468799D01*
D02*
G37*
G36*
X568343Y478540D02*
X568624Y478526D01*
X568906Y478498D01*
X569188Y478456D01*
X569428Y478413D01*
X569442D01*
X569470Y478399D01*
X569513D01*
X569569Y478371D01*
X569724Y478329D01*
X569921Y478258D01*
X570147Y478160D01*
X570387Y478033D01*
X570626Y477892D01*
X570852Y477709D01*
X570866Y477694D01*
X570880Y477680D01*
X570922Y477638D01*
X570979Y477596D01*
X571120Y477455D01*
X571289Y477257D01*
X571472Y477018D01*
X571669Y476736D01*
X571853Y476412D01*
X572008Y476045D01*
Y476031D01*
X572022Y476003D01*
X572050Y475946D01*
X572064Y475862D01*
X572106Y475763D01*
X572135Y475650D01*
X572163Y475523D01*
X572205Y475368D01*
X572247Y475213D01*
X572276Y475030D01*
X572346Y474635D01*
X572388Y474198D01*
X572402Y473719D01*
Y473705D01*
Y473677D01*
Y473606D01*
Y473536D01*
X572388Y473437D01*
Y473324D01*
X572374Y473056D01*
X572332Y472746D01*
X572290Y472422D01*
X572219Y472084D01*
X572135Y471745D01*
Y471731D01*
X572121Y471703D01*
X572106Y471661D01*
X572092Y471604D01*
X572036Y471449D01*
X571951Y471252D01*
X571867Y471026D01*
X571754Y470801D01*
X571613Y470561D01*
X571472Y470336D01*
X571458Y470308D01*
X571402Y470237D01*
X571317Y470138D01*
X571204Y470011D01*
X571077Y469870D01*
X570922Y469730D01*
X570767Y469575D01*
X570584Y469448D01*
X570556Y469434D01*
X570499Y469391D01*
X570401Y469335D01*
X570260Y469264D01*
X570091Y469180D01*
X569893Y469109D01*
X569668Y469025D01*
X569414Y468954D01*
X569386D01*
X569343Y468940D01*
X569301Y468926D01*
X569160Y468912D01*
X568963Y468884D01*
X568737Y468856D01*
X568469Y468827D01*
X568173Y468813D01*
X567849Y468799D01*
X564339D01*
Y478554D01*
X568089D01*
X568343Y478540D01*
D02*
G37*
G36*
X62687Y26258D02*
X62945Y26234D01*
X63250Y26187D01*
X63579Y26117D01*
X63932Y26023D01*
X64261Y25882D01*
X64308Y25859D01*
X64402Y25812D01*
X64566Y25741D01*
X64754Y25624D01*
X64989Y25482D01*
X65201Y25295D01*
X65412Y25107D01*
X65600Y24872D01*
X65623Y24848D01*
X65670Y24754D01*
X65741Y24637D01*
X65858Y24472D01*
X65952Y24237D01*
X66046Y24002D01*
X66164Y23720D01*
X66234Y23415D01*
Y23391D01*
X66258Y23298D01*
X66281Y23156D01*
X66305Y22969D01*
Y22687D01*
X66328Y22358D01*
X66352Y21958D01*
Y21465D01*
Y14228D01*
X64355D01*
Y21371D01*
Y21394D01*
Y21418D01*
Y21582D01*
Y21794D01*
X64331Y22052D01*
X64308Y22358D01*
X64261Y22663D01*
X64190Y22945D01*
X64120Y23203D01*
Y23227D01*
X64073Y23298D01*
X64002Y23415D01*
X63932Y23556D01*
X63814Y23697D01*
X63673Y23861D01*
X63485Y24026D01*
X63274Y24167D01*
X63250Y24190D01*
X63180Y24237D01*
X63039Y24284D01*
X62874Y24355D01*
X62687Y24425D01*
X62452Y24496D01*
X62170Y24519D01*
X61888Y24543D01*
X61770D01*
X61676Y24519D01*
X61441Y24496D01*
X61136Y24449D01*
X60807Y24331D01*
X60431Y24190D01*
X60055Y24002D01*
X59703Y23720D01*
X59656Y23673D01*
X59562Y23556D01*
X59491Y23462D01*
X59421Y23345D01*
X59327Y23203D01*
X59256Y23039D01*
X59162Y22851D01*
X59068Y22616D01*
X58998Y22358D01*
X58927Y22076D01*
X58880Y21770D01*
X58833Y21441D01*
X58786Y21042D01*
Y20643D01*
Y14228D01*
X56789D01*
Y26023D01*
X58575D01*
Y24331D01*
X58598Y24355D01*
X58645Y24425D01*
X58716Y24519D01*
X58810Y24637D01*
X58951Y24778D01*
X59115Y24942D01*
X59303Y25130D01*
X59538Y25318D01*
X59773Y25482D01*
X60055Y25670D01*
X60361Y25835D01*
X60690Y25976D01*
X61065Y26093D01*
X61441Y26187D01*
X61864Y26258D01*
X62311Y26281D01*
X62499D01*
X62687Y26258D01*
D02*
G37*
G36*
X188173D02*
X188338D01*
X188502Y26234D01*
X188902Y26164D01*
X189325Y26046D01*
X189771Y25859D01*
X190217Y25624D01*
X190593Y25295D01*
X190640Y25248D01*
X190734Y25107D01*
X190899Y24895D01*
X190969Y24731D01*
X191063Y24566D01*
X191157Y24355D01*
X191228Y24143D01*
X191322Y23908D01*
X191392Y23626D01*
X191439Y23345D01*
X191486Y23016D01*
X191533Y22687D01*
Y22311D01*
Y14228D01*
X189536D01*
Y21629D01*
Y21653D01*
Y21676D01*
Y21817D01*
Y22029D01*
X189513Y22287D01*
X189489Y22569D01*
X189466Y22851D01*
X189419Y23133D01*
X189348Y23345D01*
Y23368D01*
X189301Y23438D01*
X189254Y23533D01*
X189184Y23650D01*
X189090Y23791D01*
X188972Y23932D01*
X188831Y24073D01*
X188643Y24214D01*
X188620Y24237D01*
X188549Y24261D01*
X188455Y24308D01*
X188291Y24378D01*
X188126Y24449D01*
X187915Y24496D01*
X187703Y24519D01*
X187445Y24543D01*
X187327D01*
X187234Y24519D01*
X186999Y24496D01*
X186717Y24449D01*
X186388Y24331D01*
X186035Y24190D01*
X185683Y23979D01*
X185354Y23697D01*
X185331Y23650D01*
X185236Y23533D01*
X185096Y23345D01*
X184954Y23063D01*
X184790Y22687D01*
X184673Y22240D01*
X184579Y21700D01*
X184532Y21065D01*
Y14228D01*
X182535D01*
Y21864D01*
Y21888D01*
Y21935D01*
Y21982D01*
Y22076D01*
X182511Y22334D01*
X182464Y22616D01*
X182417Y22945D01*
X182323Y23274D01*
X182206Y23579D01*
X182041Y23861D01*
X182018Y23885D01*
X181947Y23979D01*
X181830Y24073D01*
X181665Y24214D01*
X181454Y24331D01*
X181172Y24449D01*
X180843Y24519D01*
X180443Y24543D01*
X180303D01*
X180138Y24519D01*
X179950Y24496D01*
X179715Y24425D01*
X179433Y24355D01*
X179175Y24237D01*
X178893Y24096D01*
X178869Y24073D01*
X178775Y24002D01*
X178658Y23908D01*
X178493Y23767D01*
X178329Y23579D01*
X178165Y23345D01*
X178000Y23086D01*
X177859Y22781D01*
X177836Y22734D01*
X177812Y22616D01*
X177765Y22428D01*
X177695Y22170D01*
X177624Y21817D01*
X177577Y21394D01*
X177554Y20901D01*
X177530Y20337D01*
Y14228D01*
X175533D01*
Y26023D01*
X177319D01*
Y24331D01*
X177342Y24378D01*
X177413Y24472D01*
X177554Y24637D01*
X177718Y24825D01*
X177929Y25060D01*
X178188Y25295D01*
X178470Y25529D01*
X178799Y25741D01*
X178846Y25765D01*
X178963Y25835D01*
X179151Y25905D01*
X179410Y26023D01*
X179715Y26117D01*
X180068Y26187D01*
X180467Y26258D01*
X180890Y26281D01*
X181101D01*
X181360Y26258D01*
X181642Y26211D01*
X181994Y26140D01*
X182347Y26046D01*
X182699Y25905D01*
X183028Y25717D01*
X183075Y25694D01*
X183169Y25624D01*
X183310Y25506D01*
X183498Y25318D01*
X183686Y25107D01*
X183897Y24848D01*
X184085Y24543D01*
X184226Y24190D01*
X184250Y24214D01*
X184297Y24284D01*
X184367Y24378D01*
X184485Y24519D01*
X184626Y24684D01*
X184790Y24848D01*
X184978Y25036D01*
X185213Y25248D01*
X185471Y25436D01*
X185730Y25624D01*
X186035Y25788D01*
X186364Y25952D01*
X186717Y26093D01*
X187093Y26187D01*
X187468Y26258D01*
X187891Y26281D01*
X188056D01*
X188173Y26258D01*
D02*
G37*
G36*
X124737Y19115D02*
X118558D01*
Y21112D01*
X124737D01*
Y19115D01*
D02*
G37*
G36*
X137424Y23203D02*
Y21324D01*
X126687Y16719D01*
Y18716D01*
X135192Y22240D01*
X126687Y25741D01*
Y27738D01*
X137424Y23203D01*
D02*
G37*
G36*
X116584Y25741D02*
X108079Y22240D01*
X116584Y18716D01*
Y16719D01*
X105847Y21324D01*
Y23203D01*
X116584Y27738D01*
Y25741D01*
D02*
G37*
G36*
X40907Y14228D02*
X38839D01*
Y27832D01*
X34093Y14228D01*
X32167D01*
X27468Y28067D01*
Y14228D01*
X25400D01*
Y30487D01*
X28619D01*
X32472Y18951D01*
Y18927D01*
X32496Y18880D01*
X32519Y18810D01*
X32566Y18693D01*
X32660Y18411D01*
X32777Y18058D01*
X32895Y17659D01*
X33036Y17259D01*
X33153Y16883D01*
X33247Y16554D01*
X33271Y16601D01*
X33294Y16719D01*
X33365Y16930D01*
X33459Y17212D01*
X33576Y17588D01*
X33741Y18035D01*
X33905Y18551D01*
X34117Y19162D01*
X38017Y30487D01*
X40907D01*
Y14228D01*
D02*
G37*
G36*
X78945D02*
X77160D01*
Y15944D01*
X77136Y15920D01*
X77089Y15850D01*
X77018Y15756D01*
X76901Y15638D01*
X76760Y15497D01*
X76596Y15309D01*
X76408Y15145D01*
X76173Y14957D01*
X75914Y14769D01*
X75632Y14604D01*
X75327Y14440D01*
X74998Y14275D01*
X74622Y14158D01*
X74246Y14064D01*
X73823Y13994D01*
X73400Y13970D01*
X73236D01*
X73024Y13994D01*
X72766Y14017D01*
X72460Y14064D01*
X72132Y14135D01*
X71803Y14228D01*
X71450Y14369D01*
X71403Y14393D01*
X71309Y14440D01*
X71145Y14534D01*
X70957Y14651D01*
X70722Y14792D01*
X70510Y14957D01*
X70299Y15145D01*
X70111Y15356D01*
X70087Y15380D01*
X70040Y15474D01*
X69970Y15591D01*
X69876Y15779D01*
X69759Y15991D01*
X69665Y16249D01*
X69571Y16531D01*
X69500Y16836D01*
Y16860D01*
X69477Y16954D01*
X69453Y17095D01*
Y17283D01*
X69430Y17565D01*
X69406Y17870D01*
X69383Y18270D01*
Y18716D01*
Y26023D01*
X71380D01*
Y19468D01*
Y19444D01*
Y19397D01*
Y19327D01*
Y19209D01*
Y18951D01*
X71403Y18622D01*
Y18270D01*
X71427Y17917D01*
X71450Y17612D01*
X71497Y17353D01*
Y17330D01*
X71544Y17236D01*
X71591Y17095D01*
X71662Y16907D01*
X71779Y16719D01*
X71920Y16508D01*
X72085Y16320D01*
X72296Y16132D01*
X72319Y16108D01*
X72414Y16061D01*
X72531Y15991D01*
X72719Y15920D01*
X72930Y15826D01*
X73189Y15756D01*
X73471Y15709D01*
X73800Y15685D01*
X73964D01*
X74129Y15709D01*
X74340Y15732D01*
X74598Y15803D01*
X74880Y15873D01*
X75186Y15991D01*
X75491Y16132D01*
X75538Y16155D01*
X75632Y16226D01*
X75773Y16320D01*
X75938Y16460D01*
X76126Y16648D01*
X76314Y16860D01*
X76478Y17095D01*
X76619Y17377D01*
X76643Y17424D01*
X76666Y17518D01*
X76713Y17706D01*
X76784Y17964D01*
X76854Y18293D01*
X76901Y18693D01*
X76925Y19162D01*
X76948Y19703D01*
Y26023D01*
X78945D01*
Y14228D01*
D02*
G37*
G36*
X154529Y30464D02*
X154740D01*
X155233Y30440D01*
X155750Y30370D01*
X156314Y30299D01*
X156831Y30182D01*
X157090Y30111D01*
X157301Y30041D01*
X157324D01*
X157348Y30017D01*
X157489Y29947D01*
X157700Y29853D01*
X157959Y29688D01*
X158241Y29477D01*
X158546Y29195D01*
X158828Y28866D01*
X159110Y28490D01*
Y28466D01*
X159134Y28443D01*
X159228Y28302D01*
X159321Y28067D01*
X159462Y27762D01*
X159580Y27409D01*
X159697Y26986D01*
X159768Y26540D01*
X159791Y26046D01*
Y26023D01*
Y25976D01*
Y25882D01*
X159768Y25765D01*
Y25600D01*
X159744Y25436D01*
X159650Y25036D01*
X159509Y24566D01*
X159321Y24073D01*
X159040Y23579D01*
X158852Y23345D01*
X158664Y23110D01*
X158640Y23086D01*
X158617Y23063D01*
X158546Y22992D01*
X158452Y22922D01*
X158335Y22828D01*
X158194Y22734D01*
X158006Y22616D01*
X157818Y22475D01*
X157583Y22358D01*
X157324Y22240D01*
X157043Y22099D01*
X156737Y21982D01*
X156385Y21888D01*
X156032Y21770D01*
X155633Y21700D01*
X155210Y21629D01*
X155257Y21606D01*
X155351Y21559D01*
X155492Y21465D01*
X155680Y21371D01*
X156103Y21112D01*
X156314Y20948D01*
X156502Y20807D01*
X156549Y20760D01*
X156667Y20643D01*
X156854Y20455D01*
X157090Y20220D01*
X157348Y19891D01*
X157653Y19538D01*
X157959Y19115D01*
X158288Y18645D01*
X161084Y14228D01*
X158405D01*
X156267Y17612D01*
Y17635D01*
X156220Y17682D01*
X156173Y17753D01*
X156103Y17847D01*
X155938Y18105D01*
X155727Y18434D01*
X155468Y18786D01*
X155210Y19162D01*
X154951Y19515D01*
X154717Y19844D01*
X154693Y19867D01*
X154622Y19961D01*
X154505Y20102D01*
X154341Y20267D01*
X153988Y20619D01*
X153800Y20784D01*
X153612Y20924D01*
X153589Y20948D01*
X153542Y20972D01*
X153448Y21019D01*
X153307Y21089D01*
X153166Y21160D01*
X153001Y21230D01*
X152625Y21347D01*
X152602D01*
X152555Y21371D01*
X152461D01*
X152344Y21394D01*
X152179Y21418D01*
X151991D01*
X151733Y21441D01*
X148960D01*
Y14228D01*
X146799D01*
Y30487D01*
X154341D01*
X154529Y30464D01*
D02*
G37*
G36*
X96660Y14228D02*
X94663D01*
Y30487D01*
X96660D01*
Y14228D01*
D02*
G37*
G36*
X87568Y26258D02*
X87920Y26234D01*
X88320Y26187D01*
X88719Y26117D01*
X89118Y26023D01*
X89494Y25905D01*
X89541Y25882D01*
X89659Y25835D01*
X89823Y25765D01*
X90035Y25670D01*
X90270Y25529D01*
X90505Y25389D01*
X90716Y25201D01*
X90904Y25013D01*
X90928Y24989D01*
X90975Y24919D01*
X91045Y24801D01*
X91139Y24660D01*
X91257Y24449D01*
X91350Y24237D01*
X91444Y23979D01*
X91515Y23673D01*
Y23650D01*
X91538Y23579D01*
X91562Y23438D01*
X91585Y23251D01*
Y22992D01*
X91609Y22687D01*
X91632Y22287D01*
Y21841D01*
Y19162D01*
Y19139D01*
Y19045D01*
Y18904D01*
Y18716D01*
Y18505D01*
Y18246D01*
X91656Y17682D01*
Y17095D01*
X91679Y16508D01*
X91703Y16249D01*
Y16014D01*
X91726Y15803D01*
X91750Y15638D01*
Y15615D01*
X91773Y15521D01*
X91797Y15380D01*
X91867Y15192D01*
X91914Y14980D01*
X92008Y14745D01*
X92126Y14487D01*
X92243Y14228D01*
X90152D01*
X90129Y14252D01*
X90105Y14346D01*
X90058Y14463D01*
X89988Y14651D01*
X89917Y14863D01*
X89870Y15121D01*
X89823Y15403D01*
X89776Y15709D01*
X89753D01*
X89729Y15662D01*
X89588Y15544D01*
X89377Y15380D01*
X89095Y15168D01*
X88743Y14957D01*
X88390Y14722D01*
X88014Y14510D01*
X87615Y14346D01*
X87568Y14322D01*
X87427Y14299D01*
X87215Y14228D01*
X86957Y14158D01*
X86628Y14088D01*
X86252Y14040D01*
X85829Y13994D01*
X85406Y13970D01*
X85218D01*
X85077Y13994D01*
X84913D01*
X84725Y14017D01*
X84302Y14088D01*
X83832Y14205D01*
X83315Y14369D01*
X82845Y14604D01*
X82422Y14910D01*
X82375Y14957D01*
X82258Y15074D01*
X82093Y15286D01*
X81905Y15568D01*
X81718Y15920D01*
X81553Y16320D01*
X81436Y16813D01*
X81412Y17048D01*
X81389Y17330D01*
Y17377D01*
Y17471D01*
X81412Y17635D01*
X81436Y17847D01*
X81483Y18105D01*
X81553Y18364D01*
X81647Y18645D01*
X81764Y18904D01*
X81788Y18927D01*
X81835Y19021D01*
X81929Y19162D01*
X82046Y19327D01*
X82187Y19515D01*
X82375Y19703D01*
X82563Y19891D01*
X82798Y20055D01*
X82822Y20079D01*
X82916Y20126D01*
X83033Y20220D01*
X83221Y20314D01*
X83433Y20408D01*
X83691Y20525D01*
X83949Y20619D01*
X84255Y20713D01*
X84278D01*
X84372Y20737D01*
X84513Y20784D01*
X84701Y20807D01*
X84936Y20854D01*
X85242Y20901D01*
X85594Y20972D01*
X86017Y21019D01*
X86041D01*
X86135Y21042D01*
X86252D01*
X86417Y21065D01*
X86604Y21089D01*
X86839Y21136D01*
X87098Y21160D01*
X87380Y21207D01*
X87944Y21324D01*
X88555Y21441D01*
X89095Y21582D01*
X89353Y21653D01*
X89588Y21723D01*
Y21747D01*
Y21794D01*
X89612Y21935D01*
Y22099D01*
Y22193D01*
Y22240D01*
Y22264D01*
Y22287D01*
Y22428D01*
X89588Y22663D01*
X89541Y22922D01*
X89471Y23203D01*
X89353Y23486D01*
X89212Y23744D01*
X89024Y23955D01*
X89001Y23979D01*
X88883Y24073D01*
X88695Y24167D01*
X88461Y24308D01*
X88132Y24425D01*
X87756Y24543D01*
X87286Y24613D01*
X86745Y24637D01*
X86510D01*
X86276Y24613D01*
X85947Y24566D01*
X85618Y24519D01*
X85265Y24425D01*
X84936Y24308D01*
X84654Y24143D01*
X84631Y24120D01*
X84537Y24049D01*
X84419Y23932D01*
X84278Y23744D01*
X84137Y23509D01*
X83973Y23203D01*
X83832Y22828D01*
X83691Y22405D01*
X81741Y22663D01*
Y22687D01*
X81764Y22710D01*
Y22781D01*
X81788Y22875D01*
X81859Y23086D01*
X81952Y23391D01*
X82070Y23697D01*
X82211Y24026D01*
X82399Y24355D01*
X82610Y24660D01*
X82634Y24684D01*
X82728Y24778D01*
X82869Y24919D01*
X83057Y25107D01*
X83315Y25295D01*
X83621Y25482D01*
X83973Y25694D01*
X84372Y25859D01*
X84396D01*
X84419Y25882D01*
X84490Y25905D01*
X84584Y25929D01*
X84819Y25999D01*
X85148Y26070D01*
X85524Y26140D01*
X85994Y26211D01*
X86487Y26258D01*
X87051Y26281D01*
X87309D01*
X87568Y26258D01*
D02*
G37*
G36*
X49647D02*
X49999Y26234D01*
X50399Y26187D01*
X50798Y26117D01*
X51198Y26023D01*
X51573Y25905D01*
X51620Y25882D01*
X51738Y25835D01*
X51902Y25765D01*
X52114Y25670D01*
X52349Y25529D01*
X52584Y25389D01*
X52795Y25201D01*
X52983Y25013D01*
X53007Y24989D01*
X53054Y24919D01*
X53124Y24801D01*
X53218Y24660D01*
X53336Y24449D01*
X53429Y24237D01*
X53524Y23979D01*
X53594Y23673D01*
Y23650D01*
X53618Y23579D01*
X53641Y23438D01*
X53664Y23251D01*
Y22992D01*
X53688Y22687D01*
X53712Y22287D01*
Y21841D01*
Y19162D01*
Y19139D01*
Y19045D01*
Y18904D01*
Y18716D01*
Y18505D01*
Y18246D01*
X53735Y17682D01*
Y17095D01*
X53759Y16508D01*
X53782Y16249D01*
Y16014D01*
X53805Y15803D01*
X53829Y15638D01*
Y15615D01*
X53852Y15521D01*
X53876Y15380D01*
X53946Y15192D01*
X53993Y14980D01*
X54087Y14745D01*
X54205Y14487D01*
X54322Y14228D01*
X52231D01*
X52208Y14252D01*
X52184Y14346D01*
X52137Y14463D01*
X52067Y14651D01*
X51996Y14863D01*
X51949Y15121D01*
X51902Y15403D01*
X51855Y15709D01*
X51832D01*
X51808Y15662D01*
X51667Y15544D01*
X51456Y15380D01*
X51174Y15168D01*
X50822Y14957D01*
X50469Y14722D01*
X50093Y14510D01*
X49694Y14346D01*
X49647Y14322D01*
X49506Y14299D01*
X49294Y14228D01*
X49036Y14158D01*
X48707Y14088D01*
X48331Y14040D01*
X47908Y13994D01*
X47485Y13970D01*
X47297D01*
X47156Y13994D01*
X46992D01*
X46804Y14017D01*
X46381Y14088D01*
X45911Y14205D01*
X45394Y14369D01*
X44924Y14604D01*
X44501Y14910D01*
X44454Y14957D01*
X44337Y15074D01*
X44173Y15286D01*
X43984Y15568D01*
X43797Y15920D01*
X43632Y16320D01*
X43515Y16813D01*
X43491Y17048D01*
X43468Y17330D01*
Y17377D01*
Y17471D01*
X43491Y17635D01*
X43515Y17847D01*
X43562Y18105D01*
X43632Y18364D01*
X43726Y18645D01*
X43844Y18904D01*
X43867Y18927D01*
X43914Y19021D01*
X44008Y19162D01*
X44125Y19327D01*
X44267Y19515D01*
X44454Y19703D01*
X44642Y19891D01*
X44877Y20055D01*
X44901Y20079D01*
X44995Y20126D01*
X45112Y20220D01*
X45300Y20314D01*
X45512Y20408D01*
X45770Y20525D01*
X46029Y20619D01*
X46334Y20713D01*
X46357D01*
X46452Y20737D01*
X46592Y20784D01*
X46780Y20807D01*
X47015Y20854D01*
X47321Y20901D01*
X47673Y20972D01*
X48096Y21019D01*
X48120D01*
X48214Y21042D01*
X48331D01*
X48496Y21065D01*
X48684Y21089D01*
X48918Y21136D01*
X49177Y21160D01*
X49459Y21207D01*
X50023Y21324D01*
X50634Y21441D01*
X51174Y21582D01*
X51432Y21653D01*
X51667Y21723D01*
Y21747D01*
Y21794D01*
X51691Y21935D01*
Y22099D01*
Y22193D01*
Y22240D01*
Y22264D01*
Y22287D01*
Y22428D01*
X51667Y22663D01*
X51620Y22922D01*
X51550Y23203D01*
X51432Y23486D01*
X51291Y23744D01*
X51104Y23955D01*
X51080Y23979D01*
X50963Y24073D01*
X50775Y24167D01*
X50540Y24308D01*
X50211Y24425D01*
X49835Y24543D01*
X49365Y24613D01*
X48825Y24637D01*
X48590D01*
X48355Y24613D01*
X48026Y24566D01*
X47697Y24519D01*
X47344Y24425D01*
X47015Y24308D01*
X46733Y24143D01*
X46710Y24120D01*
X46616Y24049D01*
X46498Y23932D01*
X46357Y23744D01*
X46217Y23509D01*
X46052Y23203D01*
X45911Y22828D01*
X45770Y22405D01*
X43820Y22663D01*
Y22687D01*
X43844Y22710D01*
Y22781D01*
X43867Y22875D01*
X43938Y23086D01*
X44032Y23391D01*
X44149Y23697D01*
X44290Y24026D01*
X44478Y24355D01*
X44689Y24660D01*
X44713Y24684D01*
X44807Y24778D01*
X44948Y24919D01*
X45136Y25107D01*
X45394Y25295D01*
X45700Y25482D01*
X46052Y25694D01*
X46452Y25859D01*
X46475D01*
X46498Y25882D01*
X46569Y25905D01*
X46663Y25929D01*
X46898Y25999D01*
X47227Y26070D01*
X47603Y26140D01*
X48073Y26211D01*
X48566Y26258D01*
X49130Y26281D01*
X49388D01*
X49647Y26258D01*
D02*
G37*
G36*
X209460Y26023D02*
X211480D01*
Y24472D01*
X209460D01*
Y17541D01*
Y17494D01*
Y17400D01*
Y17259D01*
X209483Y17095D01*
X209507Y16719D01*
X209530Y16554D01*
X209554Y16437D01*
X209577Y16390D01*
X209648Y16296D01*
X209742Y16178D01*
X209906Y16061D01*
X209953Y16038D01*
X210071Y15991D01*
X210282Y15944D01*
X210588Y15920D01*
X210823D01*
X210940Y15944D01*
X211105D01*
X211292Y15967D01*
X211480Y15991D01*
X211739Y14228D01*
X211692D01*
X211598Y14205D01*
X211433Y14181D01*
X211222Y14158D01*
X210987Y14111D01*
X210729Y14088D01*
X210212Y14064D01*
X210024D01*
X209836Y14088D01*
X209601Y14111D01*
X209319Y14135D01*
X209037Y14205D01*
X208778Y14275D01*
X208520Y14393D01*
X208496Y14416D01*
X208426Y14463D01*
X208332Y14534D01*
X208191Y14651D01*
X208074Y14769D01*
X207933Y14933D01*
X207792Y15098D01*
X207698Y15309D01*
Y15333D01*
X207651Y15427D01*
X207627Y15591D01*
X207580Y15826D01*
X207533Y16132D01*
X207510Y16320D01*
Y16531D01*
X207486Y16789D01*
X207463Y17048D01*
Y17330D01*
Y17659D01*
Y24472D01*
X205983D01*
Y26023D01*
X207463D01*
Y28936D01*
X209460Y30135D01*
Y26023D01*
D02*
G37*
G36*
X218670Y26258D02*
X218858Y26234D01*
X219093Y26187D01*
X219351Y26140D01*
X219657Y26070D01*
X219939Y25999D01*
X220268Y25882D01*
X220573Y25765D01*
X220902Y25600D01*
X221231Y25412D01*
X221560Y25201D01*
X221865Y24942D01*
X222147Y24660D01*
X222171Y24637D01*
X222218Y24590D01*
X222288Y24496D01*
X222382Y24355D01*
X222500Y24190D01*
X222617Y24002D01*
X222758Y23767D01*
X222899Y23486D01*
X223040Y23180D01*
X223181Y22851D01*
X223298Y22475D01*
X223416Y22076D01*
X223510Y21629D01*
X223580Y21160D01*
X223627Y20666D01*
X223651Y20126D01*
Y20102D01*
Y20008D01*
Y19844D01*
X223627Y19609D01*
X214817D01*
Y19585D01*
Y19515D01*
X214840Y19421D01*
Y19280D01*
X214864Y19115D01*
X214911Y18927D01*
X214981Y18505D01*
X215122Y18035D01*
X215310Y17518D01*
X215569Y17048D01*
X215898Y16625D01*
X215921D01*
X215944Y16578D01*
X216085Y16460D01*
X216297Y16296D01*
X216579Y16132D01*
X216955Y15944D01*
X217378Y15779D01*
X217847Y15662D01*
X218106Y15638D01*
X218388Y15615D01*
X218576D01*
X218787Y15638D01*
X219046Y15685D01*
X219328Y15756D01*
X219657Y15850D01*
X219962Y15991D01*
X220268Y16178D01*
X220291Y16202D01*
X220408Y16296D01*
X220550Y16437D01*
X220714Y16625D01*
X220902Y16883D01*
X221113Y17212D01*
X221325Y17588D01*
X221513Y18035D01*
X223580Y17776D01*
Y17753D01*
X223557Y17706D01*
X223533Y17612D01*
X223486Y17471D01*
X223416Y17330D01*
X223345Y17142D01*
X223157Y16742D01*
X222922Y16296D01*
X222593Y15826D01*
X222218Y15380D01*
X221748Y14957D01*
X221724D01*
X221677Y14910D01*
X221607Y14863D01*
X221513Y14792D01*
X221372Y14722D01*
X221231Y14651D01*
X221043Y14557D01*
X220831Y14463D01*
X220597Y14369D01*
X220361Y14275D01*
X219774Y14135D01*
X219116Y14017D01*
X218388Y13970D01*
X218130D01*
X217965Y13994D01*
X217754Y14017D01*
X217495Y14064D01*
X217213Y14111D01*
X216908Y14158D01*
X216250Y14346D01*
X215898Y14487D01*
X215569Y14628D01*
X215216Y14816D01*
X214887Y15027D01*
X214582Y15262D01*
X214276Y15544D01*
X214253Y15568D01*
X214206Y15615D01*
X214135Y15709D01*
X214041Y15850D01*
X213924Y16014D01*
X213806Y16202D01*
X213665Y16437D01*
X213524Y16695D01*
X213384Y17001D01*
X213242Y17330D01*
X213125Y17706D01*
X213008Y18105D01*
X212914Y18528D01*
X212843Y18998D01*
X212796Y19491D01*
X212773Y20008D01*
Y20032D01*
Y20149D01*
Y20290D01*
X212796Y20502D01*
X212820Y20760D01*
X212843Y21042D01*
X212890Y21371D01*
X212961Y21700D01*
X213148Y22452D01*
X213266Y22828D01*
X213407Y23227D01*
X213595Y23603D01*
X213806Y23955D01*
X214041Y24308D01*
X214300Y24637D01*
X214323Y24660D01*
X214370Y24707D01*
X214464Y24778D01*
X214582Y24895D01*
X214723Y25013D01*
X214911Y25154D01*
X215122Y25318D01*
X215381Y25459D01*
X215639Y25624D01*
X215944Y25765D01*
X216273Y25905D01*
X216626Y26023D01*
X217002Y26140D01*
X217401Y26211D01*
X217824Y26258D01*
X218270Y26281D01*
X218505D01*
X218670Y26258D01*
D02*
G37*
G36*
X199662D02*
X199874Y26234D01*
X200109Y26187D01*
X200367Y26140D01*
X200673Y26093D01*
X201307Y25882D01*
X201636Y25765D01*
X201965Y25600D01*
X202294Y25436D01*
X202623Y25201D01*
X202928Y24966D01*
X203234Y24684D01*
X203257Y24660D01*
X203304Y24613D01*
X203375Y24519D01*
X203469Y24402D01*
X203586Y24237D01*
X203727Y24026D01*
X203868Y23791D01*
X204009Y23533D01*
X204150Y23251D01*
X204291Y22898D01*
X204432Y22546D01*
X204549Y22146D01*
X204643Y21723D01*
X204714Y21277D01*
X204761Y20807D01*
X204784Y20290D01*
Y20267D01*
Y20196D01*
Y20079D01*
Y19914D01*
X204761Y19726D01*
X204737Y19491D01*
Y19256D01*
X204690Y18998D01*
X204620Y18411D01*
X204479Y17823D01*
X204314Y17236D01*
X204079Y16695D01*
Y16672D01*
X204056Y16648D01*
X204009Y16578D01*
X203962Y16484D01*
X203797Y16249D01*
X203586Y15967D01*
X203304Y15638D01*
X202952Y15309D01*
X202552Y14980D01*
X202082Y14675D01*
X202059D01*
X202035Y14651D01*
X201965Y14604D01*
X201847Y14557D01*
X201730Y14510D01*
X201589Y14463D01*
X201237Y14322D01*
X200837Y14205D01*
X200344Y14088D01*
X199827Y13994D01*
X199263Y13970D01*
X199028D01*
X198840Y13994D01*
X198629Y14017D01*
X198394Y14064D01*
X198112Y14111D01*
X197830Y14158D01*
X197195Y14346D01*
X196843Y14487D01*
X196514Y14628D01*
X196185Y14816D01*
X195856Y15027D01*
X195551Y15262D01*
X195245Y15544D01*
X195222Y15568D01*
X195175Y15615D01*
X195104Y15709D01*
X195010Y15850D01*
X194893Y16014D01*
X194776Y16202D01*
X194634Y16437D01*
X194494Y16719D01*
X194352Y17024D01*
X194212Y17377D01*
X194094Y17753D01*
X193977Y18152D01*
X193883Y18599D01*
X193812Y19068D01*
X193765Y19585D01*
X193742Y20126D01*
Y20173D01*
Y20267D01*
X193765Y20431D01*
Y20666D01*
X193789Y20924D01*
X193836Y21253D01*
X193883Y21582D01*
X193977Y21958D01*
X194071Y22334D01*
X194188Y22734D01*
X194329Y23156D01*
X194517Y23556D01*
X194705Y23932D01*
X194963Y24308D01*
X195222Y24660D01*
X195551Y24966D01*
X195574Y24989D01*
X195621Y25013D01*
X195715Y25083D01*
X195833Y25177D01*
X195974Y25271D01*
X196162Y25389D01*
X196350Y25506D01*
X196585Y25624D01*
X196843Y25741D01*
X197125Y25859D01*
X197759Y26070D01*
X198488Y26234D01*
X198864Y26258D01*
X199263Y26281D01*
X199498D01*
X199662Y26258D01*
D02*
G37*
G36*
X168132D02*
X168320Y26234D01*
X168555Y26187D01*
X168813Y26140D01*
X169119Y26070D01*
X169401Y25999D01*
X169730Y25882D01*
X170035Y25765D01*
X170364Y25600D01*
X170693Y25412D01*
X171022Y25201D01*
X171327Y24942D01*
X171609Y24660D01*
X171633Y24637D01*
X171680Y24590D01*
X171750Y24496D01*
X171844Y24355D01*
X171962Y24190D01*
X172079Y24002D01*
X172220Y23767D01*
X172361Y23486D01*
X172502Y23180D01*
X172643Y22851D01*
X172761Y22475D01*
X172878Y22076D01*
X172972Y21629D01*
X173043Y21160D01*
X173090Y20666D01*
X173113Y20126D01*
Y20102D01*
Y20008D01*
Y19844D01*
X173090Y19609D01*
X164279D01*
Y19585D01*
Y19515D01*
X164302Y19421D01*
Y19280D01*
X164326Y19115D01*
X164373Y18927D01*
X164443Y18505D01*
X164584Y18035D01*
X164772Y17518D01*
X165031Y17048D01*
X165360Y16625D01*
X165383D01*
X165407Y16578D01*
X165548Y16460D01*
X165759Y16296D01*
X166041Y16132D01*
X166417Y15944D01*
X166840Y15779D01*
X167310Y15662D01*
X167568Y15638D01*
X167850Y15615D01*
X168038D01*
X168250Y15638D01*
X168508Y15685D01*
X168790Y15756D01*
X169119Y15850D01*
X169424Y15991D01*
X169730Y16178D01*
X169753Y16202D01*
X169871Y16296D01*
X170012Y16437D01*
X170176Y16625D01*
X170364Y16883D01*
X170576Y17212D01*
X170787Y17588D01*
X170975Y18035D01*
X173043Y17776D01*
Y17753D01*
X173019Y17706D01*
X172996Y17612D01*
X172949Y17471D01*
X172878Y17330D01*
X172808Y17142D01*
X172620Y16742D01*
X172385Y16296D01*
X172056Y15826D01*
X171680Y15380D01*
X171210Y14957D01*
X171187D01*
X171140Y14910D01*
X171069Y14863D01*
X170975Y14792D01*
X170834Y14722D01*
X170693Y14651D01*
X170505Y14557D01*
X170294Y14463D01*
X170059Y14369D01*
X169824Y14275D01*
X169236Y14135D01*
X168578Y14017D01*
X167850Y13970D01*
X167592D01*
X167427Y13994D01*
X167216Y14017D01*
X166957Y14064D01*
X166675Y14111D01*
X166370Y14158D01*
X165712Y14346D01*
X165360Y14487D01*
X165031Y14628D01*
X164678Y14816D01*
X164349Y15027D01*
X164044Y15262D01*
X163739Y15544D01*
X163715Y15568D01*
X163668Y15615D01*
X163598Y15709D01*
X163504Y15850D01*
X163386Y16014D01*
X163269Y16202D01*
X163128Y16437D01*
X162987Y16695D01*
X162846Y17001D01*
X162705Y17330D01*
X162587Y17706D01*
X162470Y18105D01*
X162376Y18528D01*
X162305Y18998D01*
X162258Y19491D01*
X162235Y20008D01*
Y20032D01*
Y20149D01*
Y20290D01*
X162258Y20502D01*
X162282Y20760D01*
X162305Y21042D01*
X162352Y21371D01*
X162423Y21700D01*
X162611Y22452D01*
X162728Y22828D01*
X162869Y23227D01*
X163057Y23603D01*
X163269Y23955D01*
X163504Y24308D01*
X163762Y24637D01*
X163785Y24660D01*
X163832Y24707D01*
X163927Y24778D01*
X164044Y24895D01*
X164185Y25013D01*
X164373Y25154D01*
X164584Y25318D01*
X164843Y25459D01*
X165101Y25624D01*
X165407Y25765D01*
X165736Y25905D01*
X166088Y26023D01*
X166464Y26140D01*
X166863Y26211D01*
X167286Y26258D01*
X167733Y26281D01*
X167968D01*
X168132Y26258D01*
D02*
G37*
%LPC*%
G36*
X678381Y356748D02*
X676126D01*
Y349305D01*
X678438D01*
X678537Y349319D01*
X678748Y349333D01*
X678988Y349347D01*
X679241Y349376D01*
X679495Y349418D01*
X679706Y349474D01*
X679735Y349488D01*
X679805Y349502D01*
X679904Y349545D01*
X680031Y349601D01*
X680172Y349686D01*
X680313Y349770D01*
X680454Y349869D01*
X680595Y349982D01*
X680609Y350010D01*
X680665Y350066D01*
X680750Y350165D01*
X680848Y350306D01*
X680961Y350489D01*
X681088Y350701D01*
X681201Y350940D01*
X681300Y351208D01*
Y351222D01*
X681314Y351250D01*
X681328Y351293D01*
X681342Y351349D01*
X681356Y351420D01*
X681384Y351518D01*
X681412Y351617D01*
X681441Y351730D01*
X681483Y352012D01*
X681525Y352336D01*
X681553Y352702D01*
X681567Y353097D01*
Y353111D01*
Y353168D01*
Y353238D01*
X681553Y353351D01*
Y353478D01*
X681539Y353619D01*
X681525Y353788D01*
X681511Y353957D01*
X681441Y354338D01*
X681356Y354733D01*
X681229Y355099D01*
X681144Y355282D01*
X681060Y355437D01*
Y355451D01*
X681032Y355480D01*
X681003Y355522D01*
X680975Y355578D01*
X680863Y355719D01*
X680722Y355888D01*
X680538Y356072D01*
X680327Y356255D01*
X680087Y356410D01*
X679833Y356537D01*
X679805Y356551D01*
X679735Y356565D01*
X679608Y356607D01*
X679425Y356650D01*
X679199Y356678D01*
X678917Y356720D01*
X678748Y356734D01*
X678565D01*
X678381Y356748D01*
D02*
G37*
G36*
X667851Y406490D02*
X667724D01*
X667625Y406476D01*
X667498Y406462D01*
X667372Y406433D01*
X667217Y406405D01*
X667047Y406377D01*
X666681Y406264D01*
X666484Y406180D01*
X666286Y406095D01*
X666075Y405982D01*
X665877Y405855D01*
X665680Y405714D01*
X665497Y405545D01*
X665483Y405531D01*
X665454Y405503D01*
X665412Y405447D01*
X665342Y405362D01*
X665271Y405263D01*
X665187Y405136D01*
X665102Y404981D01*
X665003Y404798D01*
X664919Y404601D01*
X664820Y404361D01*
X664735Y404107D01*
X664665Y403825D01*
X664595Y403515D01*
X664552Y403163D01*
X664524Y402796D01*
X664510Y402402D01*
Y402388D01*
Y402331D01*
Y402233D01*
X664524Y402106D01*
X664538Y401965D01*
X664566Y401796D01*
X664595Y401598D01*
X664623Y401401D01*
X664735Y400950D01*
X664820Y400724D01*
X664905Y400485D01*
X665017Y400259D01*
X665144Y400033D01*
X665285Y399822D01*
X665454Y399624D01*
X665469Y399610D01*
X665497Y399582D01*
X665553Y399526D01*
X665624Y399469D01*
X665722Y399385D01*
X665835Y399300D01*
X665962Y399216D01*
X666103Y399117D01*
X666272Y399018D01*
X666455Y398934D01*
X666653Y398849D01*
X666864Y398765D01*
X667090Y398708D01*
X667315Y398652D01*
X667569Y398624D01*
X667837Y398610D01*
X667907D01*
X667978Y398624D01*
X668076D01*
X668203Y398638D01*
X668344Y398666D01*
X668513Y398694D01*
X668683Y398736D01*
X668880Y398793D01*
X669063Y398863D01*
X669275Y398934D01*
X669472Y399033D01*
X669669Y399159D01*
X669867Y399286D01*
X670064Y399441D01*
X670247Y399624D01*
X670262Y399639D01*
X670290Y399667D01*
X670332Y399737D01*
X670403Y399822D01*
X670473Y399921D01*
X670544Y400047D01*
X670628Y400202D01*
X670727Y400372D01*
X670811Y400569D01*
X670896Y400795D01*
X670966Y401034D01*
X671051Y401288D01*
X671107Y401570D01*
X671150Y401880D01*
X671178Y402204D01*
X671192Y402543D01*
Y402557D01*
Y402599D01*
Y402655D01*
Y402740D01*
X671178Y402839D01*
Y402966D01*
X671164Y403092D01*
X671136Y403247D01*
X671093Y403572D01*
X671023Y403910D01*
X670924Y404277D01*
X670783Y404615D01*
Y404629D01*
X670769Y404657D01*
X670741Y404700D01*
X670713Y404756D01*
X670614Y404925D01*
X670487Y405122D01*
X670318Y405348D01*
X670107Y405574D01*
X669867Y405799D01*
X669599Y405996D01*
X669585D01*
X669571Y406025D01*
X669529Y406039D01*
X669458Y406081D01*
X669388Y406109D01*
X669303Y406152D01*
X669091Y406250D01*
X668838Y406335D01*
X668542Y406419D01*
X668203Y406476D01*
X667851Y406490D01*
D02*
G37*
G36*
X683005Y433160D02*
X682878D01*
X682780Y433146D01*
X682653Y433132D01*
X682526Y433103D01*
X682371Y433075D01*
X682202Y433047D01*
X681835Y432934D01*
X681638Y432850D01*
X681441Y432765D01*
X681229Y432652D01*
X681032Y432525D01*
X680834Y432384D01*
X680651Y432215D01*
X680637Y432201D01*
X680609Y432173D01*
X680566Y432117D01*
X680496Y432032D01*
X680425Y431933D01*
X680341Y431806D01*
X680256Y431651D01*
X680158Y431468D01*
X680073Y431271D01*
X679974Y431031D01*
X679890Y430777D01*
X679819Y430495D01*
X679749Y430185D01*
X679706Y429833D01*
X679678Y429466D01*
X679664Y429072D01*
Y429058D01*
Y429001D01*
Y428903D01*
X679678Y428776D01*
X679692Y428635D01*
X679721Y428465D01*
X679749Y428268D01*
X679777Y428071D01*
X679890Y427620D01*
X679974Y427394D01*
X680059Y427155D01*
X680172Y426929D01*
X680299Y426703D01*
X680440Y426492D01*
X680609Y426295D01*
X680623Y426281D01*
X680651Y426252D01*
X680707Y426196D01*
X680778Y426139D01*
X680877Y426055D01*
X680989Y425970D01*
X681116Y425886D01*
X681257Y425787D01*
X681426Y425688D01*
X681610Y425604D01*
X681807Y425519D01*
X682018Y425435D01*
X682244Y425378D01*
X682470Y425322D01*
X682723Y425294D01*
X682991Y425280D01*
X683062D01*
X683132Y425294D01*
X683231D01*
X683358Y425308D01*
X683499Y425336D01*
X683668Y425364D01*
X683837Y425406D01*
X684034Y425463D01*
X684218Y425533D01*
X684429Y425604D01*
X684626Y425703D01*
X684824Y425829D01*
X685021Y425956D01*
X685219Y426111D01*
X685402Y426295D01*
X685416Y426309D01*
X685444Y426337D01*
X685486Y426407D01*
X685557Y426492D01*
X685627Y426591D01*
X685698Y426717D01*
X685782Y426872D01*
X685881Y427042D01*
X685966Y427239D01*
X686050Y427465D01*
X686121Y427704D01*
X686205Y427958D01*
X686262Y428240D01*
X686304Y428550D01*
X686332Y428874D01*
X686346Y429213D01*
Y429227D01*
Y429269D01*
Y429325D01*
Y429410D01*
X686332Y429509D01*
Y429636D01*
X686318Y429762D01*
X686290Y429917D01*
X686247Y430242D01*
X686177Y430580D01*
X686078Y430947D01*
X685937Y431285D01*
Y431299D01*
X685923Y431327D01*
X685895Y431370D01*
X685867Y431426D01*
X685768Y431595D01*
X685641Y431792D01*
X685472Y432018D01*
X685261Y432243D01*
X685021Y432469D01*
X684753Y432666D01*
X684739D01*
X684725Y432695D01*
X684683Y432709D01*
X684612Y432751D01*
X684542Y432779D01*
X684457Y432822D01*
X684246Y432920D01*
X683992Y433005D01*
X683696Y433089D01*
X683358Y433146D01*
X683005Y433160D01*
D02*
G37*
G36*
X565269Y402299D02*
X563014D01*
Y394856D01*
X565326D01*
X565424Y394870D01*
X565636Y394884D01*
X565876Y394898D01*
X566129Y394926D01*
X566383Y394969D01*
X566595Y395025D01*
X566623Y395039D01*
X566693Y395053D01*
X566792Y395096D01*
X566919Y395152D01*
X567060Y395237D01*
X567201Y395321D01*
X567342Y395420D01*
X567483Y395533D01*
X567497Y395561D01*
X567553Y395617D01*
X567638Y395716D01*
X567736Y395857D01*
X567849Y396040D01*
X567976Y396252D01*
X568089Y396491D01*
X568187Y396759D01*
Y396773D01*
X568202Y396801D01*
X568216Y396844D01*
X568230Y396900D01*
X568244Y396970D01*
X568272Y397069D01*
X568300Y397168D01*
X568328Y397281D01*
X568371Y397563D01*
X568413Y397887D01*
X568441Y398253D01*
X568455Y398648D01*
Y398662D01*
Y398718D01*
Y398789D01*
X568441Y398902D01*
Y399029D01*
X568427Y399170D01*
X568413Y399339D01*
X568399Y399508D01*
X568328Y399889D01*
X568244Y400283D01*
X568117Y400650D01*
X568032Y400833D01*
X567948Y400988D01*
Y401002D01*
X567920Y401030D01*
X567891Y401073D01*
X567863Y401129D01*
X567751Y401270D01*
X567609Y401439D01*
X567426Y401623D01*
X567215Y401806D01*
X566975Y401961D01*
X566721Y402088D01*
X566693Y402102D01*
X566623Y402116D01*
X566496Y402158D01*
X566313Y402201D01*
X566087Y402229D01*
X565805Y402271D01*
X565636Y402285D01*
X565453D01*
X565269Y402299D01*
D02*
G37*
G36*
X566031Y453099D02*
X563775D01*
Y445656D01*
X566087D01*
X566186Y445670D01*
X566397Y445684D01*
X566637Y445698D01*
X566890Y445726D01*
X567144Y445769D01*
X567356Y445825D01*
X567384Y445839D01*
X567454Y445853D01*
X567553Y445896D01*
X567680Y445952D01*
X567821Y446037D01*
X567962Y446121D01*
X568103Y446220D01*
X568244Y446333D01*
X568258Y446361D01*
X568314Y446417D01*
X568399Y446516D01*
X568498Y446657D01*
X568610Y446840D01*
X568737Y447052D01*
X568850Y447291D01*
X568949Y447559D01*
Y447573D01*
X568963Y447601D01*
X568977Y447644D01*
X568991Y447700D01*
X569005Y447771D01*
X569033Y447869D01*
X569062Y447968D01*
X569090Y448081D01*
X569132Y448363D01*
X569174Y448687D01*
X569202Y449053D01*
X569216Y449448D01*
Y449462D01*
Y449519D01*
Y449589D01*
X569202Y449702D01*
Y449829D01*
X569188Y449970D01*
X569174Y450139D01*
X569160Y450308D01*
X569090Y450689D01*
X569005Y451083D01*
X568878Y451450D01*
X568794Y451633D01*
X568709Y451788D01*
Y451802D01*
X568681Y451830D01*
X568653Y451873D01*
X568624Y451929D01*
X568512Y452070D01*
X568371Y452239D01*
X568187Y452422D01*
X567976Y452606D01*
X567736Y452761D01*
X567483Y452888D01*
X567454Y452902D01*
X567384Y452916D01*
X567257Y452958D01*
X567074Y453000D01*
X566848Y453029D01*
X566566Y453071D01*
X566397Y453085D01*
X566214D01*
X566031Y453099D01*
D02*
G37*
G36*
X547930Y453170D02*
X544857D01*
Y449941D01*
X547761D01*
X547930Y449955D01*
X548127Y449970D01*
X548353Y449984D01*
X548578Y450012D01*
X548804Y450054D01*
X549001Y450111D01*
X549030Y450125D01*
X549086Y450153D01*
X549171Y450195D01*
X549283Y450252D01*
X549410Y450336D01*
X549537Y450435D01*
X549664Y450562D01*
X549763Y450703D01*
X549777Y450717D01*
X549805Y450773D01*
X549847Y450858D01*
X549904Y450970D01*
X549946Y451097D01*
X549988Y451238D01*
X550016Y451408D01*
X550031Y451577D01*
Y451591D01*
Y451605D01*
X550016Y451689D01*
X550002Y451816D01*
X549974Y451986D01*
X549904Y452155D01*
X549819Y452352D01*
X549692Y452535D01*
X549523Y452719D01*
X549495Y452733D01*
X549424Y452789D01*
X549312Y452859D01*
X549128Y452944D01*
X548917Y453029D01*
X548635Y453099D01*
X548311Y453156D01*
X547930Y453170D01*
D02*
G37*
G36*
X567891Y477398D02*
X565636D01*
Y469955D01*
X567948D01*
X568046Y469969D01*
X568258Y469983D01*
X568498Y469997D01*
X568751Y470026D01*
X569005Y470068D01*
X569216Y470124D01*
X569245Y470138D01*
X569315Y470153D01*
X569414Y470195D01*
X569541Y470251D01*
X569682Y470336D01*
X569823Y470420D01*
X569964Y470519D01*
X570105Y470632D01*
X570119Y470660D01*
X570175Y470716D01*
X570260Y470815D01*
X570358Y470956D01*
X570471Y471139D01*
X570598Y471351D01*
X570711Y471590D01*
X570810Y471858D01*
Y471872D01*
X570824Y471900D01*
X570838Y471943D01*
X570852Y471999D01*
X570866Y472070D01*
X570894Y472168D01*
X570922Y472267D01*
X570951Y472380D01*
X570993Y472662D01*
X571035Y472986D01*
X571063Y473353D01*
X571077Y473747D01*
Y473761D01*
Y473818D01*
Y473888D01*
X571063Y474001D01*
Y474128D01*
X571049Y474269D01*
X571035Y474438D01*
X571021Y474607D01*
X570951Y474988D01*
X570866Y475382D01*
X570739Y475749D01*
X570654Y475932D01*
X570570Y476087D01*
Y476101D01*
X570542Y476130D01*
X570513Y476172D01*
X570485Y476228D01*
X570373Y476369D01*
X570232Y476538D01*
X570048Y476722D01*
X569837Y476905D01*
X569597Y477060D01*
X569343Y477187D01*
X569315Y477201D01*
X569245Y477215D01*
X569118Y477257D01*
X568935Y477300D01*
X568709Y477328D01*
X568427Y477370D01*
X568258Y477384D01*
X568075D01*
X567891Y477398D01*
D02*
G37*
G36*
X154082Y28678D02*
X148960D01*
Y23298D01*
X153800D01*
X154082Y23321D01*
X154411Y23345D01*
X154787Y23368D01*
X155163Y23415D01*
X155539Y23486D01*
X155868Y23579D01*
X155915Y23603D01*
X156009Y23650D01*
X156150Y23720D01*
X156338Y23814D01*
X156549Y23955D01*
X156761Y24120D01*
X156972Y24331D01*
X157136Y24566D01*
X157160Y24590D01*
X157207Y24684D01*
X157277Y24825D01*
X157371Y25013D01*
X157442Y25224D01*
X157512Y25459D01*
X157559Y25741D01*
X157583Y26023D01*
Y26046D01*
Y26070D01*
X157559Y26211D01*
X157536Y26422D01*
X157489Y26704D01*
X157371Y26986D01*
X157230Y27315D01*
X157019Y27621D01*
X156737Y27926D01*
X156690Y27950D01*
X156573Y28043D01*
X156385Y28161D01*
X156079Y28302D01*
X155727Y28443D01*
X155257Y28560D01*
X154717Y28654D01*
X154082Y28678D01*
D02*
G37*
G36*
X89612Y20149D02*
X89588D01*
X89565Y20126D01*
X89494Y20102D01*
X89400Y20079D01*
X89283Y20032D01*
X89142Y19985D01*
X88977Y19938D01*
X88790Y19891D01*
X88578Y19820D01*
X88320Y19773D01*
X88061Y19703D01*
X87756Y19632D01*
X87427Y19562D01*
X87098Y19491D01*
X86722Y19444D01*
X86322Y19374D01*
X86276D01*
X86135Y19350D01*
X85900Y19303D01*
X85641Y19256D01*
X85359Y19209D01*
X85077Y19139D01*
X84819Y19068D01*
X84584Y18974D01*
X84560D01*
X84490Y18927D01*
X84396Y18880D01*
X84302Y18810D01*
X84020Y18622D01*
X83785Y18340D01*
Y18317D01*
X83738Y18270D01*
X83715Y18176D01*
X83668Y18058D01*
X83621Y17917D01*
X83574Y17776D01*
X83550Y17588D01*
X83527Y17400D01*
Y17377D01*
Y17259D01*
X83550Y17118D01*
X83597Y16930D01*
X83668Y16719D01*
X83785Y16508D01*
X83926Y16272D01*
X84114Y16061D01*
X84137Y16038D01*
X84232Y15991D01*
X84372Y15897D01*
X84560Y15803D01*
X84819Y15709D01*
X85124Y15615D01*
X85477Y15568D01*
X85900Y15544D01*
X86088D01*
X86322Y15568D01*
X86581Y15615D01*
X86910Y15662D01*
X87239Y15756D01*
X87591Y15873D01*
X87944Y16038D01*
X87991Y16061D01*
X88085Y16132D01*
X88249Y16249D01*
X88437Y16414D01*
X88649Y16601D01*
X88883Y16836D01*
X89071Y17118D01*
X89259Y17424D01*
X89283Y17447D01*
X89306Y17541D01*
X89353Y17706D01*
X89424Y17917D01*
X89494Y18199D01*
X89541Y18528D01*
X89565Y18927D01*
X89588Y19397D01*
X89612Y20149D01*
D02*
G37*
G36*
X51691D02*
X51667D01*
X51644Y20126D01*
X51573Y20102D01*
X51479Y20079D01*
X51362Y20032D01*
X51221Y19985D01*
X51056Y19938D01*
X50869Y19891D01*
X50657Y19820D01*
X50399Y19773D01*
X50140Y19703D01*
X49835Y19632D01*
X49506Y19562D01*
X49177Y19491D01*
X48801Y19444D01*
X48402Y19374D01*
X48355D01*
X48214Y19350D01*
X47979Y19303D01*
X47720Y19256D01*
X47438Y19209D01*
X47156Y19139D01*
X46898Y19068D01*
X46663Y18974D01*
X46639D01*
X46569Y18927D01*
X46475Y18880D01*
X46381Y18810D01*
X46099Y18622D01*
X45864Y18340D01*
Y18317D01*
X45817Y18270D01*
X45794Y18176D01*
X45747Y18058D01*
X45700Y17917D01*
X45653Y17776D01*
X45629Y17588D01*
X45606Y17400D01*
Y17377D01*
Y17259D01*
X45629Y17118D01*
X45676Y16930D01*
X45747Y16719D01*
X45864Y16508D01*
X46005Y16272D01*
X46193Y16061D01*
X46217Y16038D01*
X46311Y15991D01*
X46452Y15897D01*
X46639Y15803D01*
X46898Y15709D01*
X47203Y15615D01*
X47556Y15568D01*
X47979Y15544D01*
X48167D01*
X48402Y15568D01*
X48660Y15615D01*
X48989Y15662D01*
X49318Y15756D01*
X49670Y15873D01*
X50023Y16038D01*
X50070Y16061D01*
X50164Y16132D01*
X50328Y16249D01*
X50516Y16414D01*
X50728Y16601D01*
X50963Y16836D01*
X51150Y17118D01*
X51339Y17424D01*
X51362Y17447D01*
X51385Y17541D01*
X51432Y17706D01*
X51503Y17917D01*
X51573Y18199D01*
X51620Y18528D01*
X51644Y18927D01*
X51667Y19397D01*
X51691Y20149D01*
D02*
G37*
G36*
X218294Y24637D02*
X218153D01*
X218059Y24613D01*
X217801Y24590D01*
X217495Y24519D01*
X217119Y24402D01*
X216720Y24237D01*
X216344Y24002D01*
X215968Y23697D01*
X215921Y23650D01*
X215827Y23533D01*
X215662Y23321D01*
X215498Y23039D01*
X215310Y22710D01*
X215146Y22287D01*
X215005Y21794D01*
X214934Y21253D01*
X221536D01*
Y21277D01*
Y21324D01*
X221513Y21394D01*
Y21488D01*
X221466Y21770D01*
X221395Y22076D01*
X221278Y22452D01*
X221160Y22804D01*
X220972Y23156D01*
X220761Y23462D01*
Y23486D01*
X220714Y23509D01*
X220597Y23650D01*
X220385Y23838D01*
X220103Y24049D01*
X219751Y24261D01*
X219328Y24449D01*
X218834Y24590D01*
X218576Y24613D01*
X218294Y24637D01*
D02*
G37*
G36*
X199263D02*
X199122D01*
X199005Y24613D01*
X198746Y24590D01*
X198394Y24496D01*
X197994Y24355D01*
X197571Y24167D01*
X197172Y23885D01*
X196961Y23697D01*
X196772Y23509D01*
Y23486D01*
X196726Y23462D01*
X196679Y23391D01*
X196608Y23298D01*
X196538Y23180D01*
X196467Y23039D01*
X196373Y22851D01*
X196279Y22663D01*
X196185Y22428D01*
X196091Y22193D01*
X196021Y21911D01*
X195950Y21606D01*
X195880Y21277D01*
X195833Y20924D01*
X195809Y20525D01*
X195786Y20126D01*
Y20102D01*
Y20032D01*
Y19914D01*
X195809Y19750D01*
Y19562D01*
X195833Y19350D01*
X195903Y18857D01*
X196021Y18293D01*
X196209Y17729D01*
X196444Y17189D01*
X196608Y16954D01*
X196772Y16719D01*
X196796D01*
X196819Y16672D01*
X196961Y16554D01*
X197172Y16366D01*
X197454Y16178D01*
X197806Y15967D01*
X198229Y15779D01*
X198723Y15662D01*
X198981Y15638D01*
X199263Y15615D01*
X199404D01*
X199521Y15638D01*
X199780Y15685D01*
X200132Y15756D01*
X200508Y15897D01*
X200931Y16085D01*
X201331Y16366D01*
X201542Y16554D01*
X201730Y16742D01*
X201754Y16766D01*
X201777Y16789D01*
X201824Y16860D01*
X201894Y16954D01*
X201965Y17071D01*
X202059Y17212D01*
X202153Y17400D01*
X202247Y17588D01*
X202341Y17823D01*
X202411Y18082D01*
X202505Y18364D01*
X202576Y18669D01*
X202646Y19021D01*
X202693Y19374D01*
X202740Y19773D01*
Y20196D01*
Y20220D01*
Y20290D01*
Y20408D01*
X202717Y20549D01*
Y20737D01*
X202693Y20948D01*
X202623Y21441D01*
X202505Y21958D01*
X202317Y22522D01*
X202059Y23039D01*
X201918Y23298D01*
X201730Y23509D01*
Y23533D01*
X201683Y23556D01*
X201542Y23697D01*
X201331Y23861D01*
X201049Y24073D01*
X200696Y24284D01*
X200273Y24472D01*
X199803Y24590D01*
X199545Y24613D01*
X199263Y24637D01*
D02*
G37*
G36*
X167756D02*
X167615D01*
X167521Y24613D01*
X167263Y24590D01*
X166957Y24519D01*
X166581Y24402D01*
X166182Y24237D01*
X165806Y24002D01*
X165430Y23697D01*
X165383Y23650D01*
X165289Y23533D01*
X165125Y23321D01*
X164960Y23039D01*
X164772Y22710D01*
X164608Y22287D01*
X164467Y21794D01*
X164396Y21253D01*
X170998D01*
Y21277D01*
Y21324D01*
X170975Y21394D01*
Y21488D01*
X170928Y21770D01*
X170858Y22076D01*
X170740Y22452D01*
X170623Y22804D01*
X170435Y23156D01*
X170223Y23462D01*
Y23486D01*
X170176Y23509D01*
X170059Y23650D01*
X169847Y23838D01*
X169565Y24049D01*
X169213Y24261D01*
X168790Y24449D01*
X168297Y24590D01*
X168038Y24613D01*
X167756Y24637D01*
D02*
G37*
%LPD*%
D10*
X431580Y266080D02*
G03*
X431580Y266080I-1000J0D01*
G01*
X105000Y275500D02*
G03*
X105000Y275500I-1000J0D01*
G01*
X596290Y122220D02*
G03*
X596290Y120220I0J-1000D01*
G01*
D02*
G03*
X596290Y122220I0J1000D01*
G01*
X418490D02*
G03*
X418490Y120220I0J-1000D01*
G01*
D02*
G03*
X418490Y122220I0J1000D01*
G01*
X243230D02*
G03*
X243230Y120220I0J-1000D01*
G01*
D02*
G03*
X243230Y122220I0J1000D01*
G01*
X700040Y265430D02*
Y355830D01*
X727440D01*
Y251230D02*
Y355830D01*
X713740Y251230D02*
X727440D01*
X621550Y494260D02*
X635000D01*
X621550Y338860D02*
Y494260D01*
Y338860D02*
X648450D01*
Y480060D01*
X28960Y34240D02*
X219960D01*
Y142140D01*
X28960D02*
X219960D01*
X28960Y34240D02*
Y142140D01*
X492880Y324480D02*
X516130D01*
Y307980D02*
Y324480D01*
X492880Y307980D02*
X516130D01*
X493010Y274950D02*
X516260D01*
Y258450D02*
Y274950D01*
X493010Y258450D02*
X516260D01*
X492420Y299674D02*
X515670D01*
Y283174D02*
Y299674D01*
X492420Y283174D02*
X515670D01*
X237490Y415290D02*
X440690D01*
Y504190D01*
X186690D02*
X440690D01*
X186690Y447040D02*
Y504190D01*
X512080Y397510D02*
Y487910D01*
X539480D01*
Y383310D02*
Y487910D01*
X525780Y383310D02*
X539480D01*
D11*
X118720Y348000D02*
G03*
X118720Y348000I-2000J0D01*
G01*
D12*
X420380Y258580D02*
Y261580D01*
Y325580D02*
Y328580D01*
X350380Y258580D02*
Y261580D01*
Y325580D02*
Y328580D01*
X417380Y258580D02*
X420380D01*
X417380Y328580D02*
X420380D01*
X350380Y258580D02*
X353380D01*
X350380Y328580D02*
X353380D01*
X71720Y361000D02*
X91220D01*
X71720Y423500D02*
Y505000D01*
X143220Y361000D02*
X161720D01*
X71720D02*
Y372500D01*
X161720Y361000D02*
Y505000D01*
X71720D02*
X161720D01*
X111500Y279900D02*
Y280500D01*
Y250500D02*
Y251100D01*
Y280500D02*
X115050D01*
X137950D02*
X141500D01*
Y279900D02*
Y280500D01*
Y250500D02*
Y251100D01*
X111500Y250500D02*
X115050D01*
X137950D02*
X141500D01*
D13*
X608290Y79220D02*
Y89220D01*
X728290Y79220D02*
Y89220D01*
X608290Y124220D02*
Y144220D01*
X728290D01*
Y124220D02*
Y144220D01*
X608290Y24220D02*
Y44220D01*
Y24220D02*
X728290D01*
Y44220D01*
X430490Y79220D02*
Y89220D01*
X550490Y79220D02*
Y89220D01*
X430490Y124220D02*
Y144220D01*
X550490D01*
Y124220D02*
Y144220D01*
X430490Y24220D02*
Y44220D01*
Y24220D02*
X550490D01*
Y44220D01*
X255230Y79220D02*
Y89220D01*
X375230Y79220D02*
Y89220D01*
X255230Y124220D02*
Y144220D01*
X375230D01*
Y124220D02*
Y144220D01*
X255230Y24220D02*
Y44220D01*
Y24220D02*
X375230D01*
Y44220D01*
D14*
X671830Y149860D02*
Y165095D01*
X679447D01*
X681987Y162556D01*
Y157478D01*
X679447Y154938D01*
X671830D01*
X697222Y162556D02*
X694683Y165095D01*
X689604D01*
X687065Y162556D01*
Y160017D01*
X689604Y157478D01*
X694683D01*
X697222Y154938D01*
Y152399D01*
X694683Y149860D01*
X689604D01*
X687065Y152399D01*
X491490Y165095D02*
Y149860D01*
X499108D01*
X501647Y152399D01*
Y154938D01*
X499108Y157478D01*
X491490D01*
X499108D01*
X501647Y160017D01*
Y162556D01*
X499108Y165095D01*
X491490D01*
X506725D02*
Y152399D01*
X509264Y149860D01*
X514343D01*
X516882Y152399D01*
Y165095D01*
X532117Y162556D02*
X529578Y165095D01*
X524499D01*
X521960Y162556D01*
Y152399D01*
X524499Y149860D01*
X529578D01*
X532117Y152399D01*
X537195Y165095D02*
Y149860D01*
Y154938D01*
X547352Y165095D01*
X539734Y157478D01*
X547352Y149860D01*
X313690Y165095D02*
Y149860D01*
X323847D01*
X328925Y165095D02*
Y149860D01*
X336543D01*
X339082Y152399D01*
Y162556D01*
X336543Y165095D01*
X328925D01*
X351778D02*
X346699D01*
X344160Y162556D01*
Y152399D01*
X346699Y149860D01*
X351778D01*
X354317Y152399D01*
Y162556D01*
X351778Y165095D01*
X636860Y274991D02*
Y259756D01*
X647017D01*
X652095Y274991D02*
Y259756D01*
X659713D01*
X662252Y262295D01*
Y272452D01*
X659713Y274991D01*
X652095D01*
X674948D02*
X669869D01*
X667330Y272452D01*
Y262295D01*
X669869Y259756D01*
X674948D01*
X677487Y262295D01*
Y272452D01*
X674948Y274991D01*
X636270Y302255D02*
Y287020D01*
X643887D01*
X646427Y289559D01*
Y292098D01*
X643887Y294638D01*
X636270D01*
X643887D01*
X646427Y297177D01*
Y299716D01*
X643887Y302255D01*
X636270D01*
X651505D02*
Y289559D01*
X654044Y287020D01*
X659123D01*
X661662Y289559D01*
Y302255D01*
X676897Y299716D02*
X674358Y302255D01*
X669279D01*
X666740Y299716D01*
Y289559D01*
X669279Y287020D01*
X674358D01*
X676897Y289559D01*
X681975Y302255D02*
Y287020D01*
Y292098D01*
X692132Y302255D01*
X684514Y294638D01*
X692132Y287020D01*
X636270Y309880D02*
Y325115D01*
X643887D01*
X646427Y322576D01*
Y317498D01*
X643887Y314958D01*
X636270D01*
X661662Y322576D02*
X659123Y325115D01*
X654044D01*
X651505Y322576D01*
Y320037D01*
X654044Y317498D01*
X659123D01*
X661662Y314958D01*
Y312419D01*
X659123Y309880D01*
X654044D01*
X651505Y312419D01*
X711705Y379725D02*
X706626D01*
X709165D01*
Y367029D01*
X706626Y364490D01*
X704087D01*
X701548Y367029D01*
X726940Y379725D02*
X716783D01*
Y372108D01*
X721861Y374647D01*
X724401D01*
X726940Y372108D01*
Y367029D01*
X724401Y364490D01*
X719322D01*
X716783Y367029D01*
X55880Y162558D02*
X53341Y165098D01*
X48263D01*
X45723Y162558D01*
Y160019D01*
X48263Y157480D01*
X53341D01*
X55880Y154941D01*
Y152402D01*
X53341Y149862D01*
X48263D01*
X45723Y152402D01*
X60958Y149862D02*
X66037D01*
X63498D01*
Y165098D01*
X60958Y162558D01*
X158756Y168913D02*
Y184147D01*
X166374D01*
X168913Y181608D01*
Y176530D01*
X166374Y173991D01*
X158756D01*
X163834D02*
X168913Y168913D01*
X173991D02*
X179070D01*
X176530D01*
Y184147D01*
X173991Y181608D01*
X186687D02*
X189226Y184147D01*
X194305D01*
X196844Y181608D01*
Y179069D01*
X194305Y176530D01*
X191765D01*
X194305D01*
X196844Y173991D01*
Y171452D01*
X194305Y168913D01*
X189226D01*
X186687Y171452D01*
X511816Y175263D02*
Y190497D01*
X519434D01*
X521973Y187958D01*
Y182880D01*
X519434Y180341D01*
X511816D01*
X516894D02*
X521973Y175263D01*
X527051D02*
X532130D01*
X529590D01*
Y190497D01*
X527051Y187958D01*
X549904Y175263D02*
X539747D01*
X549904Y185419D01*
Y187958D01*
X547365Y190497D01*
X542286D01*
X539747Y187958D01*
X511816Y193043D02*
Y208277D01*
X519434D01*
X521973Y205738D01*
Y200660D01*
X519434Y198121D01*
X511816D01*
X516894D02*
X521973Y193043D01*
X527051D02*
X532130D01*
X529590D01*
Y208277D01*
X527051Y205738D01*
X539747Y193043D02*
X544826D01*
X542286D01*
Y208277D01*
X539747Y205738D01*
X511816Y212092D02*
Y227327D01*
X519434D01*
X521973Y224788D01*
Y219710D01*
X519434Y217171D01*
X511816D01*
X516894D02*
X521973Y212092D01*
X527051D02*
X532130D01*
X529590D01*
Y227327D01*
X527051Y224788D01*
X539747D02*
X542286Y227327D01*
X547365D01*
X549904Y224788D01*
Y214632D01*
X547365Y212092D01*
X542286D01*
X539747Y214632D01*
Y224788D01*
X598171Y492757D02*
X593092D01*
X595632D01*
Y480062D01*
X593092Y477523D01*
X590553D01*
X588014Y480062D01*
X613406Y477523D02*
X603249D01*
X613406Y487679D01*
Y490218D01*
X610867Y492757D01*
X605788D01*
X603249Y490218D01*
X212091Y337818D02*
X209552Y340358D01*
X204473D01*
X201934Y337818D01*
Y327662D01*
X204473Y325122D01*
X209552D01*
X212091Y327662D01*
X217169D02*
X219708Y325122D01*
X224787D01*
X227326Y327662D01*
Y337818D01*
X224787Y340358D01*
X219708D01*
X217169Y337818D01*
Y335279D01*
X219708Y332740D01*
X227326D01*
X74931Y347978D02*
X72392Y350518D01*
X67313D01*
X64774Y347978D01*
Y337822D01*
X67313Y335283D01*
X72392D01*
X74931Y337822D01*
X80009Y347978D02*
X82548Y350518D01*
X87627D01*
X90166Y347978D01*
Y345439D01*
X87627Y342900D01*
X90166Y340361D01*
Y337822D01*
X87627Y335283D01*
X82548D01*
X80009Y337822D01*
Y340361D01*
X82548Y342900D01*
X80009Y345439D01*
Y347978D01*
X82548Y342900D02*
X87627D01*
X386084Y234947D02*
Y222252D01*
X388623Y219713D01*
X393702D01*
X396241Y222252D01*
Y234947D01*
X411476Y219713D02*
X401319D01*
X411476Y229869D01*
Y232408D01*
X408937Y234947D01*
X403858D01*
X401319Y232408D01*
X116623Y244198D02*
Y231502D01*
X119163Y228962D01*
X124241D01*
X126780Y231502D01*
Y244198D01*
X131858Y228962D02*
X136937D01*
X134398D01*
Y244198D01*
X131858Y241658D01*
X269244Y293372D02*
Y308608D01*
X276862D01*
X279401Y306068D01*
Y300990D01*
X276862Y298451D01*
X269244D01*
X274322D02*
X279401Y293372D01*
X284479Y295912D02*
X287018Y293372D01*
X292097D01*
X294636Y295912D01*
Y306068D01*
X292097Y308608D01*
X287018D01*
X284479Y306068D01*
Y303529D01*
X287018Y300990D01*
X294636D01*
X530864Y308612D02*
Y323848D01*
X538482D01*
X541021Y321308D01*
Y316230D01*
X538482Y313691D01*
X530864D01*
X535942D02*
X541021Y308612D01*
X546099Y321308D02*
X548638Y323848D01*
X553717D01*
X556256Y321308D01*
Y318769D01*
X553717Y316230D01*
X556256Y313691D01*
Y311152D01*
X553717Y308612D01*
X548638D01*
X546099Y311152D01*
Y313691D01*
X548638Y316230D01*
X546099Y318769D01*
Y321308D01*
X548638Y316230D02*
X553717D01*
X530864Y285753D02*
Y300987D01*
X538482D01*
X541021Y298448D01*
Y293370D01*
X538482Y290831D01*
X530864D01*
X535942D02*
X541021Y285753D01*
X546099Y300987D02*
X556256D01*
Y298448D01*
X546099Y288292D01*
Y285753D01*
X531454Y258489D02*
Y273724D01*
X539072D01*
X541611Y271185D01*
Y266106D01*
X539072Y263567D01*
X531454D01*
X536533D02*
X541611Y258489D01*
X556846Y273724D02*
X551768Y271185D01*
X546689Y266106D01*
Y261028D01*
X549228Y258489D01*
X554307D01*
X556846Y261028D01*
Y263567D01*
X554307Y266106D01*
X546689D01*
X34294Y205742D02*
Y220977D01*
X41912D01*
X44451Y218438D01*
Y213360D01*
X41912Y210821D01*
X34294D01*
X39372D02*
X44451Y205742D01*
X59686Y220977D02*
X49529D01*
Y213360D01*
X54608Y215899D01*
X57147D01*
X59686Y213360D01*
Y208282D01*
X57147Y205742D01*
X52068D01*
X49529Y208282D01*
X151134Y269242D02*
Y284478D01*
X158752D01*
X161291Y281938D01*
Y276860D01*
X158752Y274321D01*
X151134D01*
X156213D02*
X161291Y269242D01*
X173987D02*
Y284478D01*
X166369Y276860D01*
X176526D01*
X85094Y200662D02*
Y215898D01*
X92712D01*
X95251Y213358D01*
Y208280D01*
X92712Y205741D01*
X85094D01*
X90173D02*
X95251Y200662D01*
X100329Y213358D02*
X102868Y215898D01*
X107947D01*
X110486Y213358D01*
Y210819D01*
X107947Y208280D01*
X105407D01*
X107947D01*
X110486Y205741D01*
Y203202D01*
X107947Y200662D01*
X102868D01*
X100329Y203202D01*
X8674Y261453D02*
Y276688D01*
X16292D01*
X18831Y274148D01*
Y269070D01*
X16292Y266531D01*
X8674D01*
X13752D02*
X18831Y261453D01*
X34066D02*
X23909D01*
X34066Y271609D01*
Y274148D01*
X31527Y276688D01*
X26448D01*
X23909Y274148D01*
X37523Y261453D02*
Y276688D01*
X45141D01*
X47680Y274148D01*
Y269070D01*
X45141Y266531D01*
X37523D01*
X42602D02*
X47680Y261453D01*
X52758D02*
X57837D01*
X55298D01*
Y276688D01*
X52758Y274148D01*
X563889Y323848D02*
Y308612D01*
X574046D01*
X589281Y323848D02*
X579124D01*
Y308612D01*
X589281D01*
X579124Y316230D02*
X584202D01*
X594359Y323848D02*
Y308612D01*
X601977D01*
X604516Y311152D01*
Y321308D01*
X601977Y323848D01*
X594359D01*
X609594Y321308D02*
X612133Y323848D01*
X617212D01*
X619751Y321308D01*
Y318769D01*
X617212Y316230D01*
X614673D01*
X617212D01*
X619751Y313691D01*
Y311152D01*
X617212Y308612D01*
X612133D01*
X609594Y311152D01*
X563889Y300987D02*
Y285753D01*
X574046D01*
X589281Y300987D02*
X579124D01*
Y285753D01*
X589281D01*
X579124Y293370D02*
X584202D01*
X594359Y300987D02*
Y285753D01*
X601977D01*
X604516Y288292D01*
Y298448D01*
X601977Y300987D01*
X594359D01*
X619751Y285753D02*
X609594D01*
X619751Y295909D01*
Y298448D01*
X617212Y300987D01*
X612133D01*
X609594Y298448D01*
X567018Y273724D02*
Y258489D01*
X577175D01*
X592410Y273724D02*
X582253D01*
Y258489D01*
X592410D01*
X582253Y266106D02*
X587332D01*
X597488Y273724D02*
Y258489D01*
X605106D01*
X607645Y261028D01*
Y271185D01*
X605106Y273724D01*
X597488D01*
X612723Y258489D02*
X617802D01*
X615263D01*
Y273724D01*
X612723Y271185D01*
X492761Y497837D02*
X487682D01*
X490222D01*
Y485142D01*
X487682Y482603D01*
X485143D01*
X482604Y485142D01*
X505457Y482603D02*
Y497837D01*
X497839Y490220D01*
X507996D01*
X457201Y497837D02*
X452122D01*
X454662D01*
Y485142D01*
X452122Y482603D01*
X449583D01*
X447044Y485142D01*
X462279Y495298D02*
X464818Y497837D01*
X469897D01*
X472436Y495298D01*
Y492759D01*
X469897Y490220D01*
X467357D01*
X469897D01*
X472436Y487681D01*
Y485142D01*
X469897Y482603D01*
X464818D01*
X462279Y485142D01*
X53340Y499108D02*
X48262D01*
X50801D01*
Y486412D01*
X48262Y483872D01*
X45722D01*
X43183Y486412D01*
X58418Y483872D02*
X63497D01*
X60958D01*
Y499108D01*
X58418Y496568D01*
X319971Y306528D02*
X317432Y309067D01*
X312353D01*
X309814Y306528D01*
Y296372D01*
X312353Y293832D01*
X317432D01*
X319971Y296372D01*
X325049Y309067D02*
X335206D01*
Y306528D01*
X325049Y296372D01*
Y293832D01*
X302261Y222248D02*
X299722Y224788D01*
X294643D01*
X292104Y222248D01*
Y212092D01*
X294643Y209552D01*
X299722D01*
X302261Y212092D01*
X317496Y224788D02*
X312418Y222248D01*
X307339Y217170D01*
Y212092D01*
X309878Y209552D01*
X314957D01*
X317496Y212092D01*
Y214631D01*
X314957Y217170D01*
X307339D01*
X334011Y222248D02*
X331472Y224788D01*
X326393D01*
X323854Y222248D01*
Y212092D01*
X326393Y209552D01*
X331472D01*
X334011Y212092D01*
X349246Y224788D02*
X339089D01*
Y217170D01*
X344168Y219709D01*
X346707D01*
X349246Y217170D01*
Y212092D01*
X346707Y209552D01*
X341628D01*
X339089Y212092D01*
X193041Y280668D02*
X190502Y283207D01*
X185423D01*
X182884Y280668D01*
Y270512D01*
X185423Y267973D01*
X190502D01*
X193041Y270512D01*
X205737Y267973D02*
Y283207D01*
X198119Y275590D01*
X208276D01*
X180341Y337818D02*
X177802Y340358D01*
X172723D01*
X170184Y337818D01*
Y327662D01*
X172723Y325122D01*
X177802D01*
X180341Y327662D01*
X185419Y337818D02*
X187958Y340358D01*
X193037D01*
X195576Y337818D01*
Y335279D01*
X193037Y332740D01*
X190497D01*
X193037D01*
X195576Y330201D01*
Y327662D01*
X193037Y325122D01*
X187958D01*
X185419Y327662D01*
X132081Y337818D02*
X129542Y340358D01*
X124463D01*
X121924Y337818D01*
Y327662D01*
X124463Y325122D01*
X129542D01*
X132081Y327662D01*
X147316Y325122D02*
X137159D01*
X147316Y335279D01*
Y337818D01*
X144777Y340358D01*
X139698D01*
X137159Y337818D01*
X48260Y314958D02*
X45721Y317498D01*
X40642D01*
X38103Y314958D01*
Y304802D01*
X40642Y302262D01*
X45721D01*
X48260Y304802D01*
X53338Y302262D02*
X58417D01*
X55878D01*
Y317498D01*
X53338Y314958D01*
X636274Y165098D02*
Y149862D01*
X643892D01*
X646431Y152402D01*
Y154941D01*
X643892Y157480D01*
X636274D01*
X643892D01*
X646431Y160019D01*
Y162558D01*
X643892Y165098D01*
X636274D01*
X651509Y162558D02*
X654048Y165098D01*
X659127D01*
X661666Y162558D01*
Y160019D01*
X659127Y157480D01*
X656588D01*
X659127D01*
X661666Y154941D01*
Y152402D01*
X659127Y149862D01*
X654048D01*
X651509Y152402D01*
X455934Y165098D02*
Y149862D01*
X463552D01*
X466091Y152402D01*
Y154941D01*
X463552Y157480D01*
X455934D01*
X463552D01*
X466091Y160019D01*
Y162558D01*
X463552Y165098D01*
X455934D01*
X481326Y149862D02*
X471169D01*
X481326Y160019D01*
Y162558D01*
X478787Y165098D01*
X473708D01*
X471169Y162558D01*
X280673Y165098D02*
Y149862D01*
X288291D01*
X290830Y152402D01*
Y154941D01*
X288291Y157480D01*
X280673D01*
X288291D01*
X290830Y160019D01*
Y162558D01*
X288291Y165098D01*
X280673D01*
X295908Y149862D02*
X300987D01*
X298448D01*
Y165098D01*
X295908Y162558D01*
M02*
