G04*
G04 #@! TF.GenerationSoftware,Altium Limited,Altium Designer,24.10.1 (45)*
G04*
G04 Layer_Physical_Order=1*
G04 Layer_Color=255*
%FSLAX44Y44*%
%MOMM*%
G71*
G04*
G04 #@! TF.SameCoordinates,AA472AB2-6637-4989-BC3C-C099BA8EEFD1*
G04*
G04*
G04 #@! TF.FilePolarity,Positive*
G04*
G01*
G75*
%ADD15R,0.9500X0.9000*%
%ADD16R,1.3000X1.4500*%
%ADD17R,1.4500X1.3000*%
%ADD18R,0.9000X0.9500*%
%ADD19R,0.9500X0.9500*%
G04:AMPARAMS|DCode=21|XSize=0.88mm|YSize=0.26mm|CornerRadius=0.0325mm|HoleSize=0mm|Usage=FLASHONLY|Rotation=180.000|XOffset=0mm|YOffset=0mm|HoleType=Round|Shape=RoundedRectangle|*
%AMROUNDEDRECTD21*
21,1,0.8800,0.1950,0,0,180.0*
21,1,0.8150,0.2600,0,0,180.0*
1,1,0.0650,-0.4075,0.0975*
1,1,0.0650,0.4075,0.0975*
1,1,0.0650,0.4075,-0.0975*
1,1,0.0650,-0.4075,-0.0975*
%
%ADD21ROUNDEDRECTD21*%
G04:AMPARAMS|DCode=22|XSize=0.26mm|YSize=0.88mm|CornerRadius=0.0325mm|HoleSize=0mm|Usage=FLASHONLY|Rotation=180.000|XOffset=0mm|YOffset=0mm|HoleType=Round|Shape=RoundedRectangle|*
%AMROUNDEDRECTD22*
21,1,0.2600,0.8150,0,0,180.0*
21,1,0.1950,0.8800,0,0,180.0*
1,1,0.0650,-0.0975,0.4075*
1,1,0.0650,0.0975,0.4075*
1,1,0.0650,0.0975,-0.4075*
1,1,0.0650,-0.0975,-0.4075*
%
%ADD22ROUNDEDRECTD22*%
%ADD46R,4.1000X4.1000*%
%ADD47R,1.6500X2.4000*%
%ADD48O,0.6000X0.2400*%
%ADD49C,0.2286*%
%ADD50C,0.3810*%
%ADD51C,1.7250*%
%ADD52R,1.7250X1.7250*%
%ADD53R,1.6500X1.6500*%
%ADD54C,1.6500*%
%ADD55C,2.4750*%
%ADD56R,2.4750X2.4750*%
%ADD57C,0.3000*%
%ADD58R,1.8000X1.8000*%
%ADD59C,1.8000*%
%ADD60O,2.2500X4.5000*%
%ADD61O,4.5000X2.2500*%
%ADD62O,5.0000X2.5000*%
%ADD63C,2.1000*%
%ADD64C,0.8890*%
D15*
X202060Y157480D02*
D03*
X186560D02*
D03*
X481200Y175260D02*
D03*
X496700D02*
D03*
X481200Y189230D02*
D03*
X496700D02*
D03*
X481200Y203200D02*
D03*
X496700D02*
D03*
X457200Y266700D02*
D03*
X472700D02*
D03*
X456610Y291424D02*
D03*
X472110D02*
D03*
X456610Y316824D02*
D03*
X472110D02*
D03*
D16*
X70740Y323850D02*
D03*
X86740D02*
D03*
X86520Y302620D02*
D03*
X70520D02*
D03*
D17*
X177580Y297160D02*
D03*
Y313160D02*
D03*
X331767Y238610D02*
D03*
Y254610D02*
D03*
X320040Y339470D02*
D03*
Y323470D02*
D03*
X308907Y238610D02*
D03*
Y254610D02*
D03*
X176500Y239500D02*
D03*
Y255500D02*
D03*
X134400Y297160D02*
D03*
Y313160D02*
D03*
X156500Y313500D02*
D03*
Y297500D02*
D03*
D18*
X70900Y278620D02*
D03*
Y263120D02*
D03*
X297180Y339220D02*
D03*
Y323720D02*
D03*
X84870Y278620D02*
D03*
Y263120D02*
D03*
X85090Y229540D02*
D03*
Y245040D02*
D03*
X156500Y256000D02*
D03*
Y240500D02*
D03*
X70090Y245040D02*
D03*
Y229540D02*
D03*
D19*
X492880Y316230D02*
D03*
X507880D02*
D03*
X493010Y266700D02*
D03*
X508010D02*
D03*
X492420Y291424D02*
D03*
X507420D02*
D03*
D21*
X351030Y266080D02*
D03*
Y271080D02*
D03*
Y276080D02*
D03*
Y281080D02*
D03*
Y286080D02*
D03*
Y291080D02*
D03*
Y296080D02*
D03*
Y301080D02*
D03*
Y306080D02*
D03*
Y311080D02*
D03*
Y316080D02*
D03*
Y321080D02*
D03*
X419730D02*
D03*
Y316080D02*
D03*
Y311080D02*
D03*
Y306080D02*
D03*
Y301080D02*
D03*
Y296080D02*
D03*
Y291080D02*
D03*
Y286080D02*
D03*
Y281080D02*
D03*
Y276080D02*
D03*
Y271080D02*
D03*
Y266080D02*
D03*
D22*
X412880Y259230D02*
D03*
X407880D02*
D03*
X402880D02*
D03*
X397880D02*
D03*
X392880D02*
D03*
X387880D02*
D03*
X382880D02*
D03*
X377880D02*
D03*
X372880D02*
D03*
X367880D02*
D03*
X362880D02*
D03*
X357880D02*
D03*
Y327930D02*
D03*
X362880D02*
D03*
X367880D02*
D03*
X372880D02*
D03*
X377880D02*
D03*
X382880D02*
D03*
X387880D02*
D03*
X392880D02*
D03*
X397880D02*
D03*
X402880D02*
D03*
X407880D02*
D03*
X412880D02*
D03*
D46*
X385380Y293580D02*
D03*
D47*
X126500Y265500D02*
D03*
D48*
X112500Y275500D02*
D03*
Y270500D02*
D03*
Y265500D02*
D03*
Y260500D02*
D03*
Y255500D02*
D03*
X140500D02*
D03*
Y260500D02*
D03*
Y265500D02*
D03*
Y270500D02*
D03*
Y275500D02*
D03*
D49*
X588382Y265430D02*
X713740D01*
X582489Y259537D02*
X588382Y265430D01*
X464613Y259537D02*
X582489D01*
X457450Y266700D02*
X464613Y259537D01*
X457200Y266700D02*
X457450D01*
X546193Y290830D02*
X713740D01*
X502131Y323393D02*
X513629D01*
X500043Y321306D02*
X502131Y323393D01*
X500043Y310480D02*
Y321306D01*
X493601Y304039D02*
X500043Y310480D01*
X472063Y304039D02*
X493601D01*
X464947Y292763D02*
Y296923D01*
X472063Y304039D01*
X463608Y291424D02*
X464947Y292763D01*
X515102Y326949D02*
X518315Y323737D01*
X497445D02*
X500658Y326949D01*
X466361Y323737D02*
X497445D01*
X500658Y326949D02*
X515102D01*
X456610Y291424D02*
X463608D01*
X518315Y323737D02*
X704200D01*
X513629Y323393D02*
X546193Y290830D01*
X711707Y316230D02*
X713740D01*
X704200Y323737D02*
X711707Y316230D01*
X464947Y322323D02*
X466361Y323737D01*
X464947Y318163D02*
Y322323D01*
X463608Y316824D02*
X464947Y318163D01*
X456610Y316824D02*
X463608D01*
X463719Y211921D02*
X487729D01*
X496450Y203200D01*
X496700D01*
X481586Y215477D02*
X497086D01*
X503863Y208699D01*
X496700Y189230D02*
X496950D01*
X490897Y219033D02*
X498559D01*
X507419Y210172D01*
X503863Y196143D02*
Y208699D01*
X496950Y175260D02*
X507419Y185729D01*
X452120Y223520D02*
X463719Y211921D01*
X480060Y229870D02*
X490897Y219033D01*
X496950Y189230D02*
X503863Y196143D01*
X474806Y222256D02*
X481586Y215477D01*
X507419Y185729D02*
Y210172D01*
X468624Y222256D02*
X474806D01*
X467360Y223520D02*
X468624Y222256D01*
X496700Y175260D02*
X496950D01*
X452120Y223520D02*
Y241478D01*
X426543Y267055D02*
Y268189D01*
Y267055D02*
X452120Y241478D01*
X424939Y269793D02*
X426543Y268189D01*
X419730Y271080D02*
X422830D01*
X424968Y274793D02*
X430099Y269662D01*
X424117Y274793D02*
X424968D01*
X422987Y275923D02*
X424117Y274793D01*
X419730Y276080D02*
X419887Y275923D01*
X422987D01*
X422830Y271080D02*
X424117Y269793D01*
X430099Y269633D02*
Y269662D01*
Y269633D02*
X467360Y232372D01*
X424117Y269793D02*
X424939D01*
X467360Y223520D02*
Y232372D01*
X419730Y281080D02*
X428850D01*
X480060Y229870D01*
X171960Y59690D02*
X202060Y89790D01*
Y157480D01*
X184020Y154940D02*
X186560Y157480D01*
X166370Y154940D02*
X184020D01*
X205667Y160837D02*
Y200587D01*
X290830Y285750D02*
X335280D01*
X205667Y200587D02*
X290830Y285750D01*
X345453Y295923D02*
X350873D01*
X351030Y296080D01*
X335280Y285750D02*
X345453Y295923D01*
X202060Y157480D02*
X202310D01*
X205667Y160837D01*
X435616Y296080D02*
X456360Y316824D01*
X412880Y251339D02*
Y259230D01*
Y251339D02*
X415590Y248629D01*
X508690Y291424D02*
Y316824D01*
X507420Y267290D02*
X508010Y266700D01*
X507420Y267290D02*
Y291424D01*
X509284Y289560D01*
X529590D01*
X252760Y109190D02*
X313978D01*
X252730Y109220D02*
X252760Y109190D01*
X313978D02*
X314008Y109160D01*
X314038Y109190D02*
X377700D01*
X377730Y109220D01*
X314008Y109160D02*
X314038Y109190D01*
X427990Y109220D02*
X490220D01*
X552990D01*
X466090Y189230D02*
X481200D01*
Y175260D02*
Y189230D01*
Y203200D01*
X392880Y256130D02*
X394167Y254843D01*
Y252263D02*
X400050Y246380D01*
X392880Y256130D02*
Y259230D01*
X394167Y252263D02*
Y254843D01*
X406593Y252923D02*
Y254843D01*
X407880Y256130D02*
Y259230D01*
X406593Y254843D02*
X407880Y256130D01*
X400050Y246380D02*
X406593Y252923D01*
X237490Y447040D02*
X297180Y387350D01*
Y339220D02*
Y387350D01*
X614045Y403225D02*
X634365D01*
X635000Y403860D01*
X613410Y402590D02*
X614045Y403225D01*
X350915Y321195D02*
X351030Y321080D01*
X337935Y321195D02*
X350915D01*
X337820Y321310D02*
X337935Y321195D01*
X613474Y429508D02*
X613598Y429384D01*
X634876D02*
X635000Y429260D01*
X613598Y429384D02*
X634876D01*
X349250Y335280D02*
X349250D01*
X346409Y342138D02*
X352091D01*
X354586Y329944D02*
X357723D01*
X349250Y335280D02*
X354586Y329944D01*
X320040Y339470D02*
X343741D01*
X354759D02*
X355262D01*
X352091Y342138D02*
X354759Y339470D01*
X343741D02*
X346409Y342138D01*
X357880Y327930D02*
Y329787D01*
X357723Y329944D02*
X357880Y329787D01*
X437570Y286080D02*
X456950Y266700D01*
X419730Y286080D02*
X437570D01*
X456950Y266700D02*
X457200D01*
X627893Y472953D02*
X635000Y480060D01*
X621885Y472953D02*
X627893D01*
X535405Y386472D02*
X621885Y472953D01*
X513596Y386472D02*
X535405D01*
X438204Y311080D02*
X513596Y386472D01*
X419730Y311080D02*
X438204D01*
X615950Y454660D02*
X635000D01*
X422830Y316080D02*
X424117Y317367D01*
X424939D01*
X426720Y319148D01*
Y344170D01*
X419730Y316080D02*
X422830D01*
X385543Y334743D02*
X448310Y397510D01*
X379167Y333139D02*
X380771Y334743D01*
X377880Y331030D02*
X379167Y332317D01*
X377880Y327930D02*
Y331030D01*
X374167Y332317D02*
Y333168D01*
X372880Y327930D02*
X373037Y328087D01*
X379167Y332317D02*
Y333139D01*
X379298Y338299D02*
X379327D01*
X448310Y397510D02*
X525780D01*
X374167Y333168D02*
X379298Y338299D01*
X379327D02*
X489338Y448310D01*
X373037Y331187D02*
X374167Y332317D01*
X380771Y334743D02*
X385543D01*
X373037Y328087D02*
Y331187D01*
X489338Y448310D02*
X525780D01*
X367880Y327930D02*
Y392850D01*
X313690Y447040D02*
X367880Y392850D01*
X355262Y339470D02*
X362723Y332009D01*
Y328087D02*
X362880Y327930D01*
X362723Y328087D02*
Y332009D01*
X297180Y339220D02*
X297430Y339470D01*
X320040D01*
X297180Y304800D02*
Y323720D01*
X320040Y303530D02*
Y323470D01*
X288290Y237490D02*
X307787D01*
X308907Y238610D01*
X331767D01*
X345717Y243967D02*
X357880Y256130D01*
X331767Y238610D02*
X337124Y243967D01*
X357880Y256130D02*
Y259230D01*
X337124Y243967D02*
X345717D01*
X288290Y256540D02*
X306977D01*
X308907Y254610D01*
X331767D01*
X337874Y260717D02*
X343237Y266080D01*
X332517Y254610D02*
X337874Y259967D01*
X343237Y266080D02*
X351030D01*
X337874Y259967D02*
Y260717D01*
X331767Y254610D02*
X332517D01*
X52070Y289560D02*
X63010Y278620D01*
X70900D01*
X70520Y302620D02*
X70900Y302240D01*
Y278620D02*
Y302240D01*
X70520Y302620D02*
X70740Y302840D01*
Y323850D01*
X85090Y229540D02*
X86690Y231140D01*
X101600D01*
X69850Y213360D02*
Y229300D01*
X70090Y229540D01*
X102111Y256540D02*
X106071Y260500D01*
X112500D01*
X100330Y256540D02*
X102111D01*
X140500Y270500D02*
Y275500D01*
Y265500D02*
Y270500D01*
X156210Y313790D02*
Y334010D01*
Y313790D02*
X156500Y313500D01*
X177240D02*
X177580Y313160D01*
X156500Y313500D02*
X177240D01*
X156160Y313160D02*
X156500Y313500D01*
X134400Y313160D02*
X156160D01*
X198140Y297160D02*
X199390Y295910D01*
X177580Y297160D02*
X198140D01*
X177240Y297500D02*
X177580Y297160D01*
X156500Y297500D02*
X177240D01*
X135143Y297160D02*
X156160D01*
X134400D02*
X135143D01*
X156160D02*
X156500Y297500D01*
X135143Y297160D02*
X140500Y291803D01*
Y275500D02*
Y291803D01*
X70090Y245040D02*
X85090D01*
X100240D01*
X110700Y255500D02*
X112500D01*
X100240Y245040D02*
X110700Y255500D01*
X70900Y263120D02*
X84870D01*
X100638Y265500D02*
X112500D01*
X84870Y263120D02*
X98258D01*
X100638Y265500D01*
X112500Y270500D02*
Y275500D01*
X107549Y278620D02*
X110669Y275500D01*
X84870Y278620D02*
X107549D01*
X110669Y275500D02*
X112500D01*
X86520Y302620D02*
Y324380D01*
X84870Y278620D02*
X86520Y280270D01*
Y302620D01*
X472440Y266120D02*
X492750D01*
X472110Y291424D02*
X492420D01*
X419730Y291080D02*
X437815D01*
X419730Y296080D02*
X435616D01*
X456360Y316824D02*
X456610D01*
X472110D02*
X492420D01*
X437815Y291080D02*
X438158Y291424D01*
X456610D01*
X176500Y227960D02*
Y239500D01*
X156500Y228960D02*
Y240500D01*
X605390Y58820D02*
X605790Y59220D01*
X552990D02*
X553390Y58820D01*
X427590D02*
X427990Y59220D01*
X377730D02*
X378130Y58820D01*
X116720Y428000D02*
X116720Y428000D01*
X156500Y256000D02*
X176000D01*
X176500Y255500D01*
X152250Y260500D02*
X156500Y256250D01*
X140500Y260500D02*
X152250D01*
X156500Y256000D02*
Y256250D01*
D50*
X105363Y357508D02*
X115856Y368000D01*
X86520Y324380D02*
X105363Y343223D01*
X115856Y368000D02*
X116720D01*
X105363Y343223D02*
Y357508D01*
D51*
X713740Y341630D02*
D03*
Y316230D02*
D03*
Y290830D02*
D03*
X525780Y473710D02*
D03*
Y448310D02*
D03*
Y422910D02*
D03*
D52*
X713740Y265430D02*
D03*
X525780Y397510D02*
D03*
D53*
X635000Y480060D02*
D03*
D54*
Y454660D02*
D03*
Y429260D02*
D03*
Y403860D02*
D03*
Y378460D02*
D03*
Y353060D02*
D03*
D55*
X124460Y59690D02*
D03*
D56*
X171960D02*
D03*
D57*
X403380Y300430D02*
D03*
Y286730D02*
D03*
X367380Y300430D02*
D03*
Y286730D02*
D03*
X392230Y311580D02*
D03*
X378530D02*
D03*
X392230Y275580D02*
D03*
X378530D02*
D03*
X392230Y286730D02*
D03*
Y300430D02*
D03*
X378530D02*
D03*
Y286730D02*
D03*
X120750Y265500D02*
D03*
X126500Y275000D02*
D03*
Y256000D02*
D03*
X132250Y265500D02*
D03*
D58*
X237490Y447040D02*
D03*
D59*
Y472440D02*
D03*
X262890Y447040D02*
D03*
Y472440D02*
D03*
X288290Y447040D02*
D03*
Y472440D02*
D03*
X313690Y447040D02*
D03*
Y472440D02*
D03*
X339090Y447040D02*
D03*
Y472440D02*
D03*
X364490Y447040D02*
D03*
Y472440D02*
D03*
X389890Y447040D02*
D03*
Y472440D02*
D03*
D60*
X69720Y398000D02*
D03*
D61*
X116720Y428000D02*
D03*
D62*
Y368000D02*
D03*
D63*
X730790Y59220D02*
D03*
X605790D02*
D03*
X730790Y109220D02*
D03*
X605790D02*
D03*
X552990Y59220D02*
D03*
X427990D02*
D03*
X552990Y109220D02*
D03*
X427990D02*
D03*
X377730Y59220D02*
D03*
X252730D02*
D03*
X377730Y109220D02*
D03*
X252730D02*
D03*
D64*
X452120Y223520D02*
D03*
X467360D02*
D03*
X480060Y229870D02*
D03*
X166370Y154940D02*
D03*
X415590Y248629D02*
D03*
X529590Y289560D02*
D03*
X314008Y109160D02*
D03*
X490220Y109220D02*
D03*
X466090Y189230D02*
D03*
X400050Y246380D02*
D03*
X613410Y402590D02*
D03*
X337820Y321310D02*
D03*
X613474Y429508D02*
D03*
X349250Y335280D02*
D03*
X615950Y454660D02*
D03*
X426720Y344170D02*
D03*
X297180Y304800D02*
D03*
X320040Y303530D02*
D03*
X288290Y237490D02*
D03*
Y256540D02*
D03*
X52070Y289560D02*
D03*
X101600Y231140D02*
D03*
X69850Y213360D02*
D03*
X100330Y256540D02*
D03*
X156210Y334010D02*
D03*
X199390Y295910D02*
D03*
X176500Y227960D02*
D03*
X156500Y228960D02*
D03*
M02*
