M48
;Layer_Color=9474304
;FILE_FORMAT=4:4
METRIC,LZ
;TYPE=PLATED
T01F00S00C0.2000
T02F00S00C0.3810
T04F00S00C1.1000
T05F00S00C1.1500
T06F00S00C1.2000
T07F00S00C1.4000
T08F00S00C1.6500
%
T01
X001265Y00256
X0012075Y002655
X0013225
X001265Y00275
X0036738Y0028673
X0037853
Y0027558
X0039223
Y0028673
X0040338
Y0030043
X0039223
Y0031158
X0037853
Y0030043
X0036738
T02
X0006985Y0021336
X001016Y0023114
X0010033Y0025654
X0005207Y0028956
X0015621Y0033401
X0019939Y0029591
X001765Y0022796
X001565Y0022896
X0016637Y0015494
X00314008Y0010916
X0028829Y0023749
Y0025654
X0029718Y003048
X0032004Y0030353
X0033782Y0032131
X0034925Y0033528
X0042672Y0034417
X0041559Y00248629
X0040005Y0024638
X0045212Y0022352
X0046736
X0048006Y0022987
X0046609Y0018923
X0049022Y0010922
X0052959Y0028956
X0061341Y0040259
X00613474Y00429508
X0061595Y0045466
T04
X00635Y0035306
Y0037846
Y0040386
Y0042926
Y0045466
Y0048006
T05
X0052578Y0039751
Y0042291
X0071374Y0034163
Y0031623
Y0029083
Y0026543
X0052578Y0044831
Y0047371
T06
X0023749Y0044704
Y0047244
X0026289
Y0044704
X0028829
Y0047244
X0031369
Y0044704
X0033909
Y0047244
X0036449
Y0044704
X0038989
Y0047244
T07
X0025273Y0005922
Y0010922
X0037773
Y0005922
X0042799
Y0010922
X0055299
Y0005922
X0060579
Y0010922
X0073079
Y0005922
T08
X0012446Y0005969
X0017196
M30
