G04*
G04 #@! TF.GenerationSoftware,Altium Limited,Altium Designer,24.10.1 (45)*
G04*
G04 Layer_Physical_Order=3*
G04 Layer_Color=128*
%FSLAX44Y44*%
%MOMM*%
G71*
G04*
G04 #@! TF.SameCoordinates,AA472AB2-6637-4989-BC3C-C099BA8EEFD1*
G04*
G04*
G04 #@! TF.FilePolarity,Negative*
G04*
G01*
G75*
%ADD14C,0.2540*%
%ADD65C,1.0160*%
%ADD67C,2.1660*%
%ADD68C,2.1160*%
%ADD71C,2.6660*%
%ADD72C,1.2160*%
%ADD73C,2.2160*%
G04:AMPARAMS|DCode=74|XSize=2.724mm|YSize=2.724mm|CornerRadius=0mm|HoleSize=0mm|Usage=FLASHONLY|Rotation=0.000|XOffset=0mm|YOffset=0mm|HoleType=Round|Shape=Relief|Width=0.254mm|Gap=0.254mm|Entries=4|*
%AMTHD74*
7,0,0,2.7240,2.2160,0.2540,45*
%
%ADD74THD74*%
%ADD75O,2.0160X4.0160*%
%ADD77O,4.5160X2.0160*%
%ADD79C,2.4160*%
%ADD80C,1.3970*%
G04:AMPARAMS|DCode=81|XSize=1.905mm|YSize=1.905mm|CornerRadius=0mm|HoleSize=0mm|Usage=FLASHONLY|Rotation=0.000|XOffset=0mm|YOffset=0mm|HoleType=Round|Shape=Relief|Width=0.254mm|Gap=0.254mm|Entries=4|*
%AMTHD81*
7,0,0,1.9050,1.3970,0.2540,45*
%
%ADD81THD81*%
%ADD82O,4.0160X2.0160*%
D14*
X666750Y0D02*
X678180D01*
D65*
X0D02*
X762000D01*
Y508000D01*
X0D02*
X762000D01*
X0Y0D02*
Y508000D01*
D67*
X713740Y341630D02*
D03*
Y316230D02*
D03*
Y290830D02*
D03*
Y265430D02*
D03*
X525780Y473710D02*
D03*
Y448310D02*
D03*
Y422910D02*
D03*
Y397510D02*
D03*
D68*
X635000Y480060D02*
D03*
Y454660D02*
D03*
Y429260D02*
D03*
Y403860D02*
D03*
Y378460D02*
D03*
Y353060D02*
D03*
D71*
X124460Y59690D02*
D03*
X171960D02*
D03*
D72*
X403380Y300430D02*
D03*
Y286730D02*
D03*
X367380Y300430D02*
D03*
Y286730D02*
D03*
X392230Y311580D02*
D03*
X378530D02*
D03*
X392230Y275580D02*
D03*
X378530D02*
D03*
X392230Y286730D02*
D03*
Y300430D02*
D03*
X378530D02*
D03*
Y286730D02*
D03*
X120750Y265500D02*
D03*
X126500Y275000D02*
D03*
Y256000D02*
D03*
X132250Y265500D02*
D03*
D73*
X237490Y447040D02*
D03*
Y472440D02*
D03*
X262890Y447040D02*
D03*
X288290D02*
D03*
Y472440D02*
D03*
X313690Y447040D02*
D03*
Y472440D02*
D03*
X339090Y447040D02*
D03*
Y472440D02*
D03*
X364490Y447040D02*
D03*
Y472440D02*
D03*
X389890Y447040D02*
D03*
Y472440D02*
D03*
D74*
X262890D02*
D03*
D75*
X69720Y398000D02*
D03*
D77*
X116720Y368000D02*
D03*
D79*
X730790Y59220D02*
D03*
X605790D02*
D03*
X730790Y109220D02*
D03*
X605790D02*
D03*
X552990Y59220D02*
D03*
X427990D02*
D03*
X552990Y109220D02*
D03*
X427990D02*
D03*
X377730Y59220D02*
D03*
X252730D02*
D03*
X377730Y109220D02*
D03*
X252730D02*
D03*
D80*
X452120Y223520D02*
D03*
X467360D02*
D03*
X480060Y229870D02*
D03*
X529590Y289560D02*
D03*
X314008Y109160D02*
D03*
X490220Y109220D02*
D03*
X400050Y246380D02*
D03*
X613410Y402590D02*
D03*
X337820Y321310D02*
D03*
X613474Y429508D02*
D03*
X349250Y335280D02*
D03*
X615950Y454660D02*
D03*
X426720Y344170D02*
D03*
X320040Y303530D02*
D03*
X288290Y256540D02*
D03*
X52070Y289560D02*
D03*
X101600Y231140D02*
D03*
X100330Y256540D02*
D03*
X156210Y334010D02*
D03*
X176500Y227960D02*
D03*
X156500Y228960D02*
D03*
D81*
X166370Y154940D02*
D03*
X415590Y248629D02*
D03*
X466090Y189230D02*
D03*
X297180Y304800D02*
D03*
X288290Y237490D02*
D03*
X69850Y213360D02*
D03*
X199390Y295910D02*
D03*
D82*
X116720Y428000D02*
D03*
M02*
