G04*
G04 #@! TF.GenerationSoftware,Altium Limited,Altium Designer,24.10.1 (45)*
G04*
G04 Layer_Color=8388736*
%FSLAX44Y44*%
%MOMM*%
G71*
G04*
G04 #@! TF.SameCoordinates,AA472AB2-6637-4989-BC3C-C099BA8EEFD1*
G04*
G04*
G04 #@! TF.FilePolarity,Negative*
G04*
G01*
G75*
%ADD23R,1.1532X1.1032*%
%ADD24R,1.5032X1.6532*%
%ADD25R,1.6532X1.5032*%
%ADD26R,1.1032X1.1532*%
%ADD27R,1.1532X1.1532*%
%ADD28R,4.3032X4.3032*%
G04:AMPARAMS|DCode=29|XSize=1.0832mm|YSize=0.4632mm|CornerRadius=0.1341mm|HoleSize=0mm|Usage=FLASHONLY|Rotation=180.000|XOffset=0mm|YOffset=0mm|HoleType=Round|Shape=RoundedRectangle|*
%AMROUNDEDRECTD29*
21,1,1.0832,0.1950,0,0,180.0*
21,1,0.8150,0.4632,0,0,180.0*
1,1,0.2682,-0.4075,0.0975*
1,1,0.2682,0.4075,0.0975*
1,1,0.2682,0.4075,-0.0975*
1,1,0.2682,-0.4075,-0.0975*
%
%ADD29ROUNDEDRECTD29*%
G04:AMPARAMS|DCode=30|XSize=0.4632mm|YSize=1.0832mm|CornerRadius=0.1341mm|HoleSize=0mm|Usage=FLASHONLY|Rotation=180.000|XOffset=0mm|YOffset=0mm|HoleType=Round|Shape=RoundedRectangle|*
%AMROUNDEDRECTD30*
21,1,0.4632,0.8150,0,0,180.0*
21,1,0.1950,1.0832,0,0,180.0*
1,1,0.2682,-0.0975,0.4075*
1,1,0.2682,0.0975,0.4075*
1,1,0.2682,0.0975,-0.4075*
1,1,0.2682,-0.0975,-0.4075*
%
%ADD30ROUNDEDRECTD30*%
%ADD31R,1.7900X2.5400*%
%ADD32C,1.9282*%
%ADD33R,1.9282X1.9282*%
%ADD34R,1.8532X1.8532*%
%ADD35C,1.8532*%
%ADD36C,2.6782*%
%ADD37R,2.6782X2.6782*%
%ADD38C,0.5032*%
%ADD39R,2.0032X2.0032*%
%ADD40C,2.0032*%
%ADD41O,2.4532X4.7032*%
%ADD42O,4.7032X2.4532*%
%ADD43O,5.2032X2.7032*%
%ADD44C,2.3032*%
%ADD45C,1.0922*%
G36*
X114500Y257390D02*
X114600Y257380D01*
X114700Y257360D01*
X114790Y257340D01*
X114890Y257310D01*
X114980Y257270D01*
X115070Y257240D01*
X115160Y257190D01*
X115250Y257150D01*
X115330Y257090D01*
X115420Y257040D01*
X115500Y256980D01*
X115570Y256910D01*
X115640Y256840D01*
X115710Y256770D01*
X115780Y256700D01*
X115840Y256620D01*
X115890Y256530D01*
X115950Y256450D01*
X115990Y256360D01*
X116040Y256270D01*
X116070Y256180D01*
X116110Y256090D01*
X116140Y255990D01*
X116160Y255900D01*
X116180Y255800D01*
X116190Y255700D01*
X116200Y255600D01*
Y255500D01*
Y255400D01*
X116190Y255300D01*
X116180Y255200D01*
X116160Y255100D01*
X116140Y255010D01*
X116110Y254910D01*
X116070Y254820D01*
X116040Y254730D01*
X115990Y254640D01*
X115950Y254550D01*
X115890Y254470D01*
X115840Y254380D01*
X115780Y254300D01*
X115710Y254230D01*
X115640Y254160D01*
X115570Y254090D01*
X115500Y254020D01*
X115420Y253960D01*
X115330Y253910D01*
X115250Y253850D01*
X115160Y253810D01*
X115070Y253760D01*
X114980Y253730D01*
X114890Y253690D01*
X114790Y253660D01*
X114700Y253640D01*
X114600Y253620D01*
X114500Y253610D01*
X114400Y253600D01*
X110600D01*
X110500Y253610D01*
X110400Y253620D01*
X110300Y253640D01*
X110210Y253660D01*
X110110Y253690D01*
X110020Y253730D01*
X109930Y253760D01*
X109840Y253810D01*
X109750Y253850D01*
X109670Y253910D01*
X109580Y253960D01*
X109500Y254020D01*
X109430Y254090D01*
X109360Y254160D01*
X109290Y254230D01*
X109220Y254300D01*
X109160Y254380D01*
X109110Y254470D01*
X109050Y254550D01*
X109010Y254640D01*
X108960Y254730D01*
X108930Y254820D01*
X108890Y254910D01*
X108860Y255010D01*
X108840Y255100D01*
X108820Y255200D01*
X108810Y255300D01*
X108800Y255400D01*
Y255500D01*
Y255600D01*
X108810Y255700D01*
X108820Y255800D01*
X108840Y255900D01*
X108860Y255990D01*
X108890Y256090D01*
X108930Y256180D01*
X108960Y256270D01*
X109010Y256360D01*
X109050Y256450D01*
X109110Y256530D01*
X109160Y256620D01*
X109220Y256700D01*
X109290Y256770D01*
X109360Y256840D01*
X109430Y256910D01*
X109500Y256980D01*
X109580Y257040D01*
X109670Y257090D01*
X109750Y257150D01*
X109840Y257190D01*
X109930Y257240D01*
X110020Y257270D01*
X110110Y257310D01*
X110210Y257340D01*
X110300Y257360D01*
X110400Y257380D01*
X110500Y257390D01*
X110600Y257400D01*
X114400D01*
X114500Y257390D01*
D02*
G37*
G36*
Y262390D02*
X114600Y262380D01*
X114700Y262360D01*
X114790Y262340D01*
X114890Y262310D01*
X114980Y262270D01*
X115070Y262240D01*
X115160Y262190D01*
X115250Y262150D01*
X115330Y262090D01*
X115420Y262040D01*
X115500Y261980D01*
X115570Y261910D01*
X115640Y261840D01*
X115710Y261770D01*
X115780Y261700D01*
X115840Y261620D01*
X115890Y261530D01*
X115950Y261450D01*
X115990Y261360D01*
X116040Y261270D01*
X116070Y261180D01*
X116110Y261090D01*
X116140Y260990D01*
X116160Y260900D01*
X116180Y260800D01*
X116190Y260700D01*
X116200Y260600D01*
Y260500D01*
Y260400D01*
X116190Y260300D01*
X116180Y260200D01*
X116160Y260100D01*
X116140Y260010D01*
X116110Y259910D01*
X116070Y259820D01*
X116040Y259730D01*
X115990Y259640D01*
X115950Y259550D01*
X115890Y259470D01*
X115840Y259380D01*
X115780Y259300D01*
X115710Y259230D01*
X115640Y259160D01*
X115570Y259090D01*
X115500Y259020D01*
X115420Y258960D01*
X115330Y258910D01*
X115250Y258850D01*
X115160Y258810D01*
X115070Y258760D01*
X114980Y258730D01*
X114890Y258690D01*
X114790Y258660D01*
X114700Y258640D01*
X114600Y258620D01*
X114500Y258610D01*
X114400Y258600D01*
X110600D01*
X110500Y258610D01*
X110400Y258620D01*
X110300Y258640D01*
X110210Y258660D01*
X110110Y258690D01*
X110020Y258730D01*
X109930Y258760D01*
X109840Y258810D01*
X109750Y258850D01*
X109670Y258910D01*
X109580Y258960D01*
X109500Y259020D01*
X109430Y259090D01*
X109360Y259160D01*
X109290Y259230D01*
X109220Y259300D01*
X109160Y259380D01*
X109110Y259470D01*
X109050Y259550D01*
X109010Y259640D01*
X108960Y259730D01*
X108930Y259820D01*
X108890Y259910D01*
X108860Y260010D01*
X108840Y260100D01*
X108820Y260200D01*
X108810Y260300D01*
X108800Y260400D01*
Y260500D01*
Y260600D01*
X108810Y260700D01*
X108820Y260800D01*
X108840Y260900D01*
X108860Y260990D01*
X108890Y261090D01*
X108930Y261180D01*
X108960Y261270D01*
X109010Y261360D01*
X109050Y261450D01*
X109110Y261530D01*
X109160Y261620D01*
X109220Y261700D01*
X109290Y261770D01*
X109360Y261840D01*
X109430Y261910D01*
X109500Y261980D01*
X109580Y262040D01*
X109670Y262090D01*
X109750Y262150D01*
X109840Y262190D01*
X109930Y262240D01*
X110020Y262270D01*
X110110Y262310D01*
X110210Y262340D01*
X110300Y262360D01*
X110400Y262380D01*
X110500Y262390D01*
X110600Y262400D01*
X114400D01*
X114500Y262390D01*
D02*
G37*
G36*
Y267390D02*
X114600Y267380D01*
X114700Y267360D01*
X114790Y267340D01*
X114890Y267310D01*
X114980Y267270D01*
X115070Y267240D01*
X115160Y267190D01*
X115250Y267150D01*
X115330Y267090D01*
X115420Y267040D01*
X115500Y266980D01*
X115570Y266910D01*
X115640Y266840D01*
X115710Y266770D01*
X115780Y266700D01*
X115840Y266620D01*
X115890Y266530D01*
X115950Y266450D01*
X115990Y266360D01*
X116040Y266270D01*
X116070Y266180D01*
X116110Y266090D01*
X116140Y265990D01*
X116160Y265900D01*
X116180Y265800D01*
X116190Y265700D01*
X116200Y265600D01*
Y265500D01*
Y265400D01*
X116190Y265300D01*
X116180Y265200D01*
X116160Y265100D01*
X116140Y265010D01*
X116110Y264910D01*
X116070Y264820D01*
X116040Y264730D01*
X115990Y264640D01*
X115950Y264550D01*
X115890Y264470D01*
X115840Y264380D01*
X115780Y264300D01*
X115710Y264230D01*
X115640Y264160D01*
X115570Y264090D01*
X115500Y264020D01*
X115420Y263960D01*
X115330Y263910D01*
X115250Y263850D01*
X115160Y263810D01*
X115070Y263760D01*
X114980Y263730D01*
X114890Y263690D01*
X114790Y263660D01*
X114700Y263640D01*
X114600Y263620D01*
X114500Y263610D01*
X114400Y263600D01*
X110600D01*
X110500Y263610D01*
X110400Y263620D01*
X110300Y263640D01*
X110210Y263660D01*
X110110Y263690D01*
X110020Y263730D01*
X109930Y263760D01*
X109840Y263810D01*
X109750Y263850D01*
X109670Y263910D01*
X109580Y263960D01*
X109500Y264020D01*
X109430Y264090D01*
X109360Y264160D01*
X109290Y264230D01*
X109220Y264300D01*
X109160Y264380D01*
X109110Y264470D01*
X109050Y264550D01*
X109010Y264640D01*
X108960Y264730D01*
X108930Y264820D01*
X108890Y264910D01*
X108860Y265010D01*
X108840Y265100D01*
X108820Y265200D01*
X108810Y265300D01*
X108800Y265400D01*
Y265500D01*
Y265600D01*
X108810Y265700D01*
X108820Y265800D01*
X108840Y265900D01*
X108860Y265990D01*
X108890Y266090D01*
X108930Y266180D01*
X108960Y266270D01*
X109010Y266360D01*
X109050Y266450D01*
X109110Y266530D01*
X109160Y266620D01*
X109220Y266700D01*
X109290Y266770D01*
X109360Y266840D01*
X109430Y266910D01*
X109500Y266980D01*
X109580Y267040D01*
X109670Y267090D01*
X109750Y267150D01*
X109840Y267190D01*
X109930Y267240D01*
X110020Y267270D01*
X110110Y267310D01*
X110210Y267340D01*
X110300Y267360D01*
X110400Y267380D01*
X110500Y267390D01*
X110600Y267400D01*
X114400D01*
X114500Y267390D01*
D02*
G37*
G36*
Y272390D02*
X114600Y272380D01*
X114700Y272360D01*
X114790Y272340D01*
X114890Y272310D01*
X114980Y272270D01*
X115070Y272240D01*
X115160Y272190D01*
X115250Y272150D01*
X115330Y272090D01*
X115420Y272040D01*
X115500Y271980D01*
X115570Y271910D01*
X115640Y271840D01*
X115710Y271770D01*
X115780Y271700D01*
X115840Y271620D01*
X115890Y271530D01*
X115950Y271450D01*
X115990Y271360D01*
X116040Y271270D01*
X116070Y271180D01*
X116110Y271090D01*
X116140Y270990D01*
X116160Y270900D01*
X116180Y270800D01*
X116190Y270700D01*
X116200Y270600D01*
Y270500D01*
Y270400D01*
X116190Y270300D01*
X116180Y270200D01*
X116160Y270100D01*
X116140Y270010D01*
X116110Y269910D01*
X116070Y269820D01*
X116040Y269730D01*
X115990Y269640D01*
X115950Y269550D01*
X115890Y269470D01*
X115840Y269380D01*
X115780Y269300D01*
X115710Y269230D01*
X115640Y269160D01*
X115570Y269090D01*
X115500Y269020D01*
X115420Y268960D01*
X115330Y268910D01*
X115250Y268850D01*
X115160Y268810D01*
X115070Y268760D01*
X114980Y268730D01*
X114890Y268690D01*
X114790Y268660D01*
X114700Y268640D01*
X114600Y268620D01*
X114500Y268610D01*
X114400Y268600D01*
X110600D01*
X110500Y268610D01*
X110400Y268620D01*
X110300Y268640D01*
X110210Y268660D01*
X110110Y268690D01*
X110020Y268730D01*
X109930Y268760D01*
X109840Y268810D01*
X109750Y268850D01*
X109670Y268910D01*
X109580Y268960D01*
X109500Y269020D01*
X109430Y269090D01*
X109360Y269160D01*
X109290Y269230D01*
X109220Y269300D01*
X109160Y269380D01*
X109110Y269470D01*
X109050Y269550D01*
X109010Y269640D01*
X108960Y269730D01*
X108930Y269820D01*
X108890Y269910D01*
X108860Y270010D01*
X108840Y270100D01*
X108820Y270200D01*
X108810Y270300D01*
X108800Y270400D01*
Y270500D01*
Y270600D01*
X108810Y270700D01*
X108820Y270800D01*
X108840Y270900D01*
X108860Y270990D01*
X108890Y271090D01*
X108930Y271180D01*
X108960Y271270D01*
X109010Y271360D01*
X109050Y271450D01*
X109110Y271530D01*
X109160Y271620D01*
X109220Y271700D01*
X109290Y271770D01*
X109360Y271840D01*
X109430Y271910D01*
X109500Y271980D01*
X109580Y272040D01*
X109670Y272090D01*
X109750Y272150D01*
X109840Y272190D01*
X109930Y272240D01*
X110020Y272270D01*
X110110Y272310D01*
X110210Y272340D01*
X110300Y272360D01*
X110400Y272380D01*
X110500Y272390D01*
X110600Y272400D01*
X114400D01*
X114500Y272390D01*
D02*
G37*
G36*
Y277390D02*
X114600Y277380D01*
X114700Y277360D01*
X114790Y277340D01*
X114890Y277310D01*
X114980Y277270D01*
X115070Y277240D01*
X115160Y277190D01*
X115250Y277150D01*
X115330Y277090D01*
X115420Y277040D01*
X115500Y276980D01*
X115570Y276910D01*
X115640Y276840D01*
X115710Y276770D01*
X115780Y276700D01*
X115840Y276620D01*
X115890Y276530D01*
X115950Y276450D01*
X115990Y276360D01*
X116040Y276270D01*
X116070Y276180D01*
X116110Y276090D01*
X116140Y275990D01*
X116160Y275900D01*
X116180Y275800D01*
X116190Y275700D01*
X116200Y275600D01*
Y275500D01*
Y275400D01*
X116190Y275300D01*
X116180Y275200D01*
X116160Y275100D01*
X116140Y275010D01*
X116110Y274910D01*
X116070Y274820D01*
X116040Y274730D01*
X115990Y274640D01*
X115950Y274550D01*
X115890Y274470D01*
X115840Y274380D01*
X115780Y274300D01*
X115710Y274230D01*
X115640Y274160D01*
X115570Y274090D01*
X115500Y274020D01*
X115420Y273960D01*
X115330Y273910D01*
X115250Y273850D01*
X115160Y273810D01*
X115070Y273760D01*
X114980Y273730D01*
X114890Y273690D01*
X114790Y273660D01*
X114700Y273640D01*
X114600Y273620D01*
X114500Y273610D01*
X114400Y273600D01*
X110600D01*
X110500Y273610D01*
X110400Y273620D01*
X110300Y273640D01*
X110210Y273660D01*
X110110Y273690D01*
X110020Y273730D01*
X109930Y273760D01*
X109840Y273810D01*
X109750Y273850D01*
X109670Y273910D01*
X109580Y273960D01*
X109500Y274020D01*
X109430Y274090D01*
X109360Y274160D01*
X109290Y274230D01*
X109220Y274300D01*
X109160Y274380D01*
X109110Y274470D01*
X109050Y274550D01*
X109010Y274640D01*
X108960Y274730D01*
X108930Y274820D01*
X108890Y274910D01*
X108860Y275010D01*
X108840Y275100D01*
X108820Y275200D01*
X108810Y275300D01*
X108800Y275400D01*
Y275500D01*
Y275600D01*
X108810Y275700D01*
X108820Y275800D01*
X108840Y275900D01*
X108860Y275990D01*
X108890Y276090D01*
X108930Y276180D01*
X108960Y276270D01*
X109010Y276360D01*
X109050Y276450D01*
X109110Y276530D01*
X109160Y276620D01*
X109220Y276700D01*
X109290Y276770D01*
X109360Y276840D01*
X109430Y276910D01*
X109500Y276980D01*
X109580Y277040D01*
X109670Y277090D01*
X109750Y277150D01*
X109840Y277190D01*
X109930Y277240D01*
X110020Y277270D01*
X110110Y277310D01*
X110210Y277340D01*
X110300Y277360D01*
X110400Y277380D01*
X110500Y277390D01*
X110600Y277400D01*
X114400D01*
X114500Y277390D01*
D02*
G37*
G36*
X142500Y257390D02*
X142600Y257380D01*
X142700Y257360D01*
X142790Y257340D01*
X142890Y257310D01*
X142980Y257270D01*
X143070Y257240D01*
X143160Y257190D01*
X143250Y257150D01*
X143330Y257090D01*
X143420Y257040D01*
X143500Y256980D01*
X143570Y256910D01*
X143640Y256840D01*
X143710Y256770D01*
X143780Y256700D01*
X143840Y256620D01*
X143890Y256530D01*
X143950Y256450D01*
X143990Y256360D01*
X144040Y256270D01*
X144070Y256180D01*
X144110Y256090D01*
X144140Y255990D01*
X144160Y255900D01*
X144180Y255800D01*
X144190Y255700D01*
X144200Y255600D01*
Y255500D01*
Y255400D01*
X144190Y255300D01*
X144180Y255200D01*
X144160Y255100D01*
X144140Y255010D01*
X144110Y254910D01*
X144070Y254820D01*
X144040Y254730D01*
X143990Y254640D01*
X143950Y254550D01*
X143890Y254470D01*
X143840Y254380D01*
X143780Y254300D01*
X143710Y254230D01*
X143640Y254160D01*
X143570Y254090D01*
X143500Y254020D01*
X143420Y253960D01*
X143330Y253910D01*
X143250Y253850D01*
X143160Y253810D01*
X143070Y253760D01*
X142980Y253730D01*
X142890Y253690D01*
X142790Y253660D01*
X142700Y253640D01*
X142600Y253620D01*
X142500Y253610D01*
X142400Y253600D01*
X138600D01*
X138500Y253610D01*
X138400Y253620D01*
X138300Y253640D01*
X138210Y253660D01*
X138110Y253690D01*
X138020Y253730D01*
X137930Y253760D01*
X137840Y253810D01*
X137750Y253850D01*
X137670Y253910D01*
X137580Y253960D01*
X137500Y254020D01*
X137430Y254090D01*
X137360Y254160D01*
X137290Y254230D01*
X137220Y254300D01*
X137160Y254380D01*
X137110Y254470D01*
X137050Y254550D01*
X137010Y254640D01*
X136960Y254730D01*
X136930Y254820D01*
X136890Y254910D01*
X136860Y255010D01*
X136840Y255100D01*
X136820Y255200D01*
X136810Y255300D01*
X136800Y255400D01*
Y255500D01*
Y255600D01*
X136810Y255700D01*
X136820Y255800D01*
X136840Y255900D01*
X136860Y255990D01*
X136890Y256090D01*
X136930Y256180D01*
X136960Y256270D01*
X137010Y256360D01*
X137050Y256450D01*
X137110Y256530D01*
X137160Y256620D01*
X137220Y256700D01*
X137290Y256770D01*
X137360Y256840D01*
X137430Y256910D01*
X137500Y256980D01*
X137580Y257040D01*
X137670Y257090D01*
X137750Y257150D01*
X137840Y257190D01*
X137930Y257240D01*
X138020Y257270D01*
X138110Y257310D01*
X138210Y257340D01*
X138300Y257360D01*
X138400Y257380D01*
X138500Y257390D01*
X138600Y257400D01*
X142400D01*
X142500Y257390D01*
D02*
G37*
G36*
Y262390D02*
X142600Y262380D01*
X142700Y262360D01*
X142790Y262340D01*
X142890Y262310D01*
X142980Y262270D01*
X143070Y262240D01*
X143160Y262190D01*
X143250Y262150D01*
X143330Y262090D01*
X143420Y262040D01*
X143500Y261980D01*
X143570Y261910D01*
X143640Y261840D01*
X143710Y261770D01*
X143780Y261700D01*
X143840Y261620D01*
X143890Y261530D01*
X143950Y261450D01*
X143990Y261360D01*
X144040Y261270D01*
X144070Y261180D01*
X144110Y261090D01*
X144140Y260990D01*
X144160Y260900D01*
X144180Y260800D01*
X144190Y260700D01*
X144200Y260600D01*
Y260500D01*
Y260400D01*
X144190Y260300D01*
X144180Y260200D01*
X144160Y260100D01*
X144140Y260010D01*
X144110Y259910D01*
X144070Y259820D01*
X144040Y259730D01*
X143990Y259640D01*
X143950Y259550D01*
X143890Y259470D01*
X143840Y259380D01*
X143780Y259300D01*
X143710Y259230D01*
X143640Y259160D01*
X143570Y259090D01*
X143500Y259020D01*
X143420Y258960D01*
X143330Y258910D01*
X143250Y258850D01*
X143160Y258810D01*
X143070Y258760D01*
X142980Y258730D01*
X142890Y258690D01*
X142790Y258660D01*
X142700Y258640D01*
X142600Y258620D01*
X142500Y258610D01*
X142400Y258600D01*
X138600D01*
X138500Y258610D01*
X138400Y258620D01*
X138300Y258640D01*
X138210Y258660D01*
X138110Y258690D01*
X138020Y258730D01*
X137930Y258760D01*
X137840Y258810D01*
X137750Y258850D01*
X137670Y258910D01*
X137580Y258960D01*
X137500Y259020D01*
X137430Y259090D01*
X137360Y259160D01*
X137290Y259230D01*
X137220Y259300D01*
X137160Y259380D01*
X137110Y259470D01*
X137050Y259550D01*
X137010Y259640D01*
X136960Y259730D01*
X136930Y259820D01*
X136890Y259910D01*
X136860Y260010D01*
X136840Y260100D01*
X136820Y260200D01*
X136810Y260300D01*
X136800Y260400D01*
Y260500D01*
Y260600D01*
X136810Y260700D01*
X136820Y260800D01*
X136840Y260900D01*
X136860Y260990D01*
X136890Y261090D01*
X136930Y261180D01*
X136960Y261270D01*
X137010Y261360D01*
X137050Y261450D01*
X137110Y261530D01*
X137160Y261620D01*
X137220Y261700D01*
X137290Y261770D01*
X137360Y261840D01*
X137430Y261910D01*
X137500Y261980D01*
X137580Y262040D01*
X137670Y262090D01*
X137750Y262150D01*
X137840Y262190D01*
X137930Y262240D01*
X138020Y262270D01*
X138110Y262310D01*
X138210Y262340D01*
X138300Y262360D01*
X138400Y262380D01*
X138500Y262390D01*
X138600Y262400D01*
X142400D01*
X142500Y262390D01*
D02*
G37*
G36*
Y267390D02*
X142600Y267380D01*
X142700Y267360D01*
X142790Y267340D01*
X142890Y267310D01*
X142980Y267270D01*
X143070Y267240D01*
X143160Y267190D01*
X143250Y267150D01*
X143330Y267090D01*
X143420Y267040D01*
X143500Y266980D01*
X143570Y266910D01*
X143640Y266840D01*
X143710Y266770D01*
X143780Y266700D01*
X143840Y266620D01*
X143890Y266530D01*
X143950Y266450D01*
X143990Y266360D01*
X144040Y266270D01*
X144070Y266180D01*
X144110Y266090D01*
X144140Y265990D01*
X144160Y265900D01*
X144180Y265800D01*
X144190Y265700D01*
X144200Y265600D01*
Y265500D01*
Y265400D01*
X144190Y265300D01*
X144180Y265200D01*
X144160Y265100D01*
X144140Y265010D01*
X144110Y264910D01*
X144070Y264820D01*
X144040Y264730D01*
X143990Y264640D01*
X143950Y264550D01*
X143890Y264470D01*
X143840Y264380D01*
X143780Y264300D01*
X143710Y264230D01*
X143640Y264160D01*
X143570Y264090D01*
X143500Y264020D01*
X143420Y263960D01*
X143330Y263910D01*
X143250Y263850D01*
X143160Y263810D01*
X143070Y263760D01*
X142980Y263730D01*
X142890Y263690D01*
X142790Y263660D01*
X142700Y263640D01*
X142600Y263620D01*
X142500Y263610D01*
X142400Y263600D01*
X138600D01*
X138500Y263610D01*
X138400Y263620D01*
X138300Y263640D01*
X138210Y263660D01*
X138110Y263690D01*
X138020Y263730D01*
X137930Y263760D01*
X137840Y263810D01*
X137750Y263850D01*
X137670Y263910D01*
X137580Y263960D01*
X137500Y264020D01*
X137430Y264090D01*
X137360Y264160D01*
X137290Y264230D01*
X137220Y264300D01*
X137160Y264380D01*
X137110Y264470D01*
X137050Y264550D01*
X137010Y264640D01*
X136960Y264730D01*
X136930Y264820D01*
X136890Y264910D01*
X136860Y265010D01*
X136840Y265100D01*
X136820Y265200D01*
X136810Y265300D01*
X136800Y265400D01*
Y265500D01*
Y265600D01*
X136810Y265700D01*
X136820Y265800D01*
X136840Y265900D01*
X136860Y265990D01*
X136890Y266090D01*
X136930Y266180D01*
X136960Y266270D01*
X137010Y266360D01*
X137050Y266450D01*
X137110Y266530D01*
X137160Y266620D01*
X137220Y266700D01*
X137290Y266770D01*
X137360Y266840D01*
X137430Y266910D01*
X137500Y266980D01*
X137580Y267040D01*
X137670Y267090D01*
X137750Y267150D01*
X137840Y267190D01*
X137930Y267240D01*
X138020Y267270D01*
X138110Y267310D01*
X138210Y267340D01*
X138300Y267360D01*
X138400Y267380D01*
X138500Y267390D01*
X138600Y267400D01*
X142400D01*
X142500Y267390D01*
D02*
G37*
G36*
Y272390D02*
X142600Y272380D01*
X142700Y272360D01*
X142790Y272340D01*
X142890Y272310D01*
X142980Y272270D01*
X143070Y272240D01*
X143160Y272190D01*
X143250Y272150D01*
X143330Y272090D01*
X143420Y272040D01*
X143500Y271980D01*
X143570Y271910D01*
X143640Y271840D01*
X143710Y271770D01*
X143780Y271700D01*
X143840Y271620D01*
X143890Y271530D01*
X143950Y271450D01*
X143990Y271360D01*
X144040Y271270D01*
X144070Y271180D01*
X144110Y271090D01*
X144140Y270990D01*
X144160Y270900D01*
X144180Y270800D01*
X144190Y270700D01*
X144200Y270600D01*
Y270500D01*
Y270400D01*
X144190Y270300D01*
X144180Y270200D01*
X144160Y270100D01*
X144140Y270010D01*
X144110Y269910D01*
X144070Y269820D01*
X144040Y269730D01*
X143990Y269640D01*
X143950Y269550D01*
X143890Y269470D01*
X143840Y269380D01*
X143780Y269300D01*
X143710Y269230D01*
X143640Y269160D01*
X143570Y269090D01*
X143500Y269020D01*
X143420Y268960D01*
X143330Y268910D01*
X143250Y268850D01*
X143160Y268810D01*
X143070Y268760D01*
X142980Y268730D01*
X142890Y268690D01*
X142790Y268660D01*
X142700Y268640D01*
X142600Y268620D01*
X142500Y268610D01*
X142400Y268600D01*
X138600D01*
X138500Y268610D01*
X138400Y268620D01*
X138300Y268640D01*
X138210Y268660D01*
X138110Y268690D01*
X138020Y268730D01*
X137930Y268760D01*
X137840Y268810D01*
X137750Y268850D01*
X137670Y268910D01*
X137580Y268960D01*
X137500Y269020D01*
X137430Y269090D01*
X137360Y269160D01*
X137290Y269230D01*
X137220Y269300D01*
X137160Y269380D01*
X137110Y269470D01*
X137050Y269550D01*
X137010Y269640D01*
X136960Y269730D01*
X136930Y269820D01*
X136890Y269910D01*
X136860Y270010D01*
X136840Y270100D01*
X136820Y270200D01*
X136810Y270300D01*
X136800Y270400D01*
Y270500D01*
Y270600D01*
X136810Y270700D01*
X136820Y270800D01*
X136840Y270900D01*
X136860Y270990D01*
X136890Y271090D01*
X136930Y271180D01*
X136960Y271270D01*
X137010Y271360D01*
X137050Y271450D01*
X137110Y271530D01*
X137160Y271620D01*
X137220Y271700D01*
X137290Y271770D01*
X137360Y271840D01*
X137430Y271910D01*
X137500Y271980D01*
X137580Y272040D01*
X137670Y272090D01*
X137750Y272150D01*
X137840Y272190D01*
X137930Y272240D01*
X138020Y272270D01*
X138110Y272310D01*
X138210Y272340D01*
X138300Y272360D01*
X138400Y272380D01*
X138500Y272390D01*
X138600Y272400D01*
X142400D01*
X142500Y272390D01*
D02*
G37*
G36*
Y277390D02*
X142600Y277380D01*
X142700Y277360D01*
X142790Y277340D01*
X142890Y277310D01*
X142980Y277270D01*
X143070Y277240D01*
X143160Y277190D01*
X143250Y277150D01*
X143330Y277090D01*
X143420Y277040D01*
X143500Y276980D01*
X143570Y276910D01*
X143640Y276840D01*
X143710Y276770D01*
X143780Y276700D01*
X143840Y276620D01*
X143890Y276530D01*
X143950Y276450D01*
X143990Y276360D01*
X144040Y276270D01*
X144070Y276180D01*
X144110Y276090D01*
X144140Y275990D01*
X144160Y275900D01*
X144180Y275800D01*
X144190Y275700D01*
X144200Y275600D01*
Y275500D01*
Y275400D01*
X144190Y275300D01*
X144180Y275200D01*
X144160Y275100D01*
X144140Y275010D01*
X144110Y274910D01*
X144070Y274820D01*
X144040Y274730D01*
X143990Y274640D01*
X143950Y274550D01*
X143890Y274470D01*
X143840Y274380D01*
X143780Y274300D01*
X143710Y274230D01*
X143640Y274160D01*
X143570Y274090D01*
X143500Y274020D01*
X143420Y273960D01*
X143330Y273910D01*
X143250Y273850D01*
X143160Y273810D01*
X143070Y273760D01*
X142980Y273730D01*
X142890Y273690D01*
X142790Y273660D01*
X142700Y273640D01*
X142600Y273620D01*
X142500Y273610D01*
X142400Y273600D01*
X138600D01*
X138500Y273610D01*
X138400Y273620D01*
X138300Y273640D01*
X138210Y273660D01*
X138110Y273690D01*
X138020Y273730D01*
X137930Y273760D01*
X137840Y273810D01*
X137750Y273850D01*
X137670Y273910D01*
X137580Y273960D01*
X137500Y274020D01*
X137430Y274090D01*
X137360Y274160D01*
X137290Y274230D01*
X137220Y274300D01*
X137160Y274380D01*
X137110Y274470D01*
X137050Y274550D01*
X137010Y274640D01*
X136960Y274730D01*
X136930Y274820D01*
X136890Y274910D01*
X136860Y275010D01*
X136840Y275100D01*
X136820Y275200D01*
X136810Y275300D01*
X136800Y275400D01*
Y275500D01*
Y275600D01*
X136810Y275700D01*
X136820Y275800D01*
X136840Y275900D01*
X136860Y275990D01*
X136890Y276090D01*
X136930Y276180D01*
X136960Y276270D01*
X137010Y276360D01*
X137050Y276450D01*
X137110Y276530D01*
X137160Y276620D01*
X137220Y276700D01*
X137290Y276770D01*
X137360Y276840D01*
X137430Y276910D01*
X137500Y276980D01*
X137580Y277040D01*
X137670Y277090D01*
X137750Y277150D01*
X137840Y277190D01*
X137930Y277240D01*
X138020Y277270D01*
X138110Y277310D01*
X138210Y277340D01*
X138300Y277360D01*
X138400Y277380D01*
X138500Y277390D01*
X138600Y277400D01*
X142400D01*
X142500Y277390D01*
D02*
G37*
D23*
X202060Y157480D02*
D03*
X186560D02*
D03*
X481200Y175260D02*
D03*
X496700D02*
D03*
X481200Y189230D02*
D03*
X496700D02*
D03*
X481200Y203200D02*
D03*
X496700D02*
D03*
X457200Y266700D02*
D03*
X472700D02*
D03*
X456610Y291424D02*
D03*
X472110D02*
D03*
X456610Y316824D02*
D03*
X472110D02*
D03*
D24*
X70740Y323850D02*
D03*
X86740D02*
D03*
X86520Y302620D02*
D03*
X70520D02*
D03*
D25*
X177580Y297160D02*
D03*
Y313160D02*
D03*
X331767Y238610D02*
D03*
Y254610D02*
D03*
X320040Y339470D02*
D03*
Y323470D02*
D03*
X308907Y238610D02*
D03*
Y254610D02*
D03*
X176500Y239500D02*
D03*
Y255500D02*
D03*
X134400Y297160D02*
D03*
Y313160D02*
D03*
X156500Y313500D02*
D03*
Y297500D02*
D03*
D26*
X70900Y278620D02*
D03*
Y263120D02*
D03*
X297180Y339220D02*
D03*
Y323720D02*
D03*
X84870Y278620D02*
D03*
Y263120D02*
D03*
X85090Y229540D02*
D03*
Y245040D02*
D03*
X156500Y256000D02*
D03*
Y240500D02*
D03*
X70090Y245040D02*
D03*
Y229540D02*
D03*
D27*
X492880Y316230D02*
D03*
X507880D02*
D03*
X493010Y266700D02*
D03*
X508010D02*
D03*
X492420Y291424D02*
D03*
X507420D02*
D03*
D28*
X385380Y293580D02*
D03*
D29*
X351030Y266080D02*
D03*
Y271080D02*
D03*
Y276080D02*
D03*
Y281080D02*
D03*
Y286080D02*
D03*
Y291080D02*
D03*
Y296080D02*
D03*
Y301080D02*
D03*
Y306080D02*
D03*
Y311080D02*
D03*
Y316080D02*
D03*
Y321080D02*
D03*
X419730D02*
D03*
Y316080D02*
D03*
Y311080D02*
D03*
Y306080D02*
D03*
Y301080D02*
D03*
Y296080D02*
D03*
Y291080D02*
D03*
Y286080D02*
D03*
Y281080D02*
D03*
Y276080D02*
D03*
Y271080D02*
D03*
Y266080D02*
D03*
D30*
X412880Y259230D02*
D03*
X407880D02*
D03*
X402880D02*
D03*
X397880D02*
D03*
X392880D02*
D03*
X387880D02*
D03*
X382880D02*
D03*
X377880D02*
D03*
X372880D02*
D03*
X367880D02*
D03*
X362880D02*
D03*
X357880D02*
D03*
Y327930D02*
D03*
X362880D02*
D03*
X367880D02*
D03*
X372880D02*
D03*
X377880D02*
D03*
X382880D02*
D03*
X387880D02*
D03*
X392880D02*
D03*
X397880D02*
D03*
X402880D02*
D03*
X407880D02*
D03*
X412880D02*
D03*
D31*
X126500Y265500D02*
D03*
D32*
X713740Y341630D02*
D03*
Y316230D02*
D03*
Y290830D02*
D03*
X525780Y473710D02*
D03*
Y448310D02*
D03*
Y422910D02*
D03*
D33*
X713740Y265430D02*
D03*
X525780Y397510D02*
D03*
D34*
X635000Y480060D02*
D03*
D35*
Y454660D02*
D03*
Y429260D02*
D03*
Y403860D02*
D03*
Y378460D02*
D03*
Y353060D02*
D03*
D36*
X124460Y59690D02*
D03*
D37*
X171960D02*
D03*
D38*
X403380Y300430D02*
D03*
Y286730D02*
D03*
X367380Y300430D02*
D03*
Y286730D02*
D03*
X392230Y311580D02*
D03*
X378530D02*
D03*
X392230Y275580D02*
D03*
X378530D02*
D03*
X392230Y286730D02*
D03*
Y300430D02*
D03*
X378530D02*
D03*
Y286730D02*
D03*
D39*
X237490Y447040D02*
D03*
D40*
Y472440D02*
D03*
X262890Y447040D02*
D03*
Y472440D02*
D03*
X288290Y447040D02*
D03*
Y472440D02*
D03*
X313690Y447040D02*
D03*
Y472440D02*
D03*
X339090Y447040D02*
D03*
Y472440D02*
D03*
X364490Y447040D02*
D03*
Y472440D02*
D03*
X389890Y447040D02*
D03*
Y472440D02*
D03*
D41*
X69720Y398000D02*
D03*
D42*
X116720Y428000D02*
D03*
D43*
Y368000D02*
D03*
D44*
X730790Y59220D02*
D03*
X605790D02*
D03*
X730790Y109220D02*
D03*
X605790D02*
D03*
X552990Y59220D02*
D03*
X427990D02*
D03*
X552990Y109220D02*
D03*
X427990D02*
D03*
X377730Y59220D02*
D03*
X252730D02*
D03*
X377730Y109220D02*
D03*
X252730D02*
D03*
D45*
X452120Y223520D02*
D03*
X467360D02*
D03*
X480060Y229870D02*
D03*
X166370Y154940D02*
D03*
X415590Y248629D02*
D03*
X529590Y289560D02*
D03*
X314008Y109160D02*
D03*
X490220Y109220D02*
D03*
X466090Y189230D02*
D03*
X400050Y246380D02*
D03*
X613410Y402590D02*
D03*
X337820Y321310D02*
D03*
X613474Y429508D02*
D03*
X349250Y335280D02*
D03*
X615950Y454660D02*
D03*
X426720Y344170D02*
D03*
X297180Y304800D02*
D03*
X320040Y303530D02*
D03*
X288290Y237490D02*
D03*
Y256540D02*
D03*
X52070Y289560D02*
D03*
X101600Y231140D02*
D03*
X69850Y213360D02*
D03*
X100330Y256540D02*
D03*
X156210Y334010D02*
D03*
X199390Y295910D02*
D03*
X176500Y227960D02*
D03*
X156500Y228960D02*
D03*
M02*
