M48
;Layer_Color=9474304
;FILE_FORMAT=4:4
METRIC,LZ
;TYPE=PLATED
T01F00S00C0.2000
T02F00S00C0.3810
T03F00S00C0.7112
T04F00S00C0.7620
T05F00S00C1.0000
T06F00S00C1.0922
T07F00S00C1.1000
%
T01
X0050546Y0004257
X0051121Y0005207
X0049971
X0050546Y0006157
T02
X0019431Y0005842
X0037973Y0001143
T03
X0030099Y0002032
X0049276Y0002286
X005334Y0003429
X0052324Y0009271
X0051943Y0010922
X0049403Y0008636
X00438468Y00104769
X004572Y0018034
X0048641Y001524
X0053594Y0024892
X0043688Y0025781
X0042164Y0026543
X0038227Y0024892
Y0023241
X0013843Y0027432
T04
X0001016Y0001016
X0055118
Y0037211
X0001016
T05
X0033401Y0002286
Y0004826
Y0007366
X0038608Y0032766
X0041148
X0043688
T06
X0005033Y0004445
X0010033
Y0009445
X0005033
Y0018669
X0010033
Y0023669
X0005033
T07
X0041148Y0004699
Y0007239
Y0009779
Y0012319
M30
