G04*
G04 #@! TF.GenerationSoftware,Altium Limited,Altium Designer,25.2.1 (25)*
G04*
G04 Layer_Physical_Order=2*
G04 Layer_Color=16711680*
%FSLAX44Y44*%
%MOMM*%
G71*
G04*
G04 #@! TF.SameCoordinates,B8EFBEB0-C926-48BE-8793-122A16FBB591*
G04*
G04*
G04 #@! TF.FilePolarity,Positive*
G04*
G01*
G75*
%ADD42C,1.5500*%
%ADD43R,1.5500X1.5500*%
%ADD46C,2.2098*%
%ADD47R,2.2098X2.2098*%
%ADD48R,1.5500X1.5500*%
%ADD51C,0.5000*%
%ADD52C,0.2540*%
%ADD53C,1.5240*%
%ADD54C,1.6000*%
G04:AMPARAMS|DCode=55|XSize=1.6mm|YSize=1.6mm|CornerRadius=0.4mm|HoleSize=0mm|Usage=FLASHONLY|Rotation=270.000|XOffset=0mm|YOffset=0mm|HoleType=Round|Shape=RoundedRectangle|*
%AMROUNDEDRECTD55*
21,1,1.6000,0.8000,0,0,270.0*
21,1,0.8000,1.6000,0,0,270.0*
1,1,0.8000,-0.4000,-0.4000*
1,1,0.8000,-0.4000,0.4000*
1,1,0.8000,0.4000,0.4000*
1,1,0.8000,0.4000,-0.4000*
%
%ADD55ROUNDEDRECTD55*%
%ADD56C,1.2700*%
%ADD57C,0.8890*%
D42*
X386080Y327660D02*
D03*
X411480D02*
D03*
X334010Y22860D02*
D03*
Y48260D02*
D03*
D43*
X436880Y327660D02*
D03*
D46*
X100330Y186690D02*
D03*
X50330D02*
D03*
Y236690D02*
D03*
X100330Y44450D02*
D03*
X50330D02*
D03*
Y94450D02*
D03*
D47*
X100330Y236690D02*
D03*
Y94450D02*
D03*
D48*
X334010Y73660D02*
D03*
D51*
X511210Y52070D02*
D03*
X499710D02*
D03*
X505460Y42570D02*
D03*
Y61570D02*
D03*
D52*
X300990Y20320D02*
Y111760D01*
X194310Y58420D02*
X241300Y11430D01*
X379730D01*
X457200Y180340D02*
X457835D01*
X485775Y152400D01*
X486410D01*
X502920Y116840D02*
X509270Y110490D01*
X518160D02*
X519430Y109220D01*
X509270Y110490D02*
X518160D01*
X519430Y109220D02*
X521424D01*
X551180Y138976D01*
Y233680D01*
X535940Y248920D02*
X551180Y233680D01*
X492760Y25609D02*
X497840Y30689D01*
Y45397D01*
X492760Y22860D02*
Y25609D01*
X528320Y40858D02*
Y86142D01*
X523240Y91222D02*
Y92710D01*
X533400Y34290D02*
Y35778D01*
X528320Y40858D02*
X533400Y35778D01*
X523240Y91222D02*
X528320Y86142D01*
X521572Y92710D02*
X523240D01*
X515222Y86360D02*
X521572Y92710D01*
X494030Y86360D02*
X515222D01*
X425450Y116840D02*
X502920D01*
X420370Y111760D02*
X425450Y116840D01*
X300990Y111760D02*
X420370D01*
X138430Y274320D02*
X300990Y111760D01*
X438468Y104769D02*
X497840Y45397D01*
X411480Y232410D02*
X436880Y257810D01*
X382270Y232410D02*
X411480D01*
X405130Y248920D02*
X421640Y265430D01*
X382270Y248920D02*
X405130D01*
D53*
X10160Y372110D02*
D03*
X551180Y10160D02*
D03*
X10160D02*
D03*
X551180Y372110D02*
D03*
D54*
X411480Y97790D02*
D03*
Y72390D02*
D03*
Y46990D02*
D03*
D55*
Y123190D02*
D03*
D56*
X300990Y20320D02*
D03*
X457200Y180340D02*
D03*
X486410Y152400D02*
D03*
X519430Y109220D02*
D03*
X535940Y248920D02*
D03*
X492760Y22860D02*
D03*
X494030Y86360D02*
D03*
X523240Y92710D02*
D03*
X533400Y34290D02*
D03*
X138430Y274320D02*
D03*
X438468Y104769D02*
D03*
X436880Y257810D02*
D03*
X421640Y265430D02*
D03*
X382270Y232410D02*
D03*
Y248920D02*
D03*
D57*
X194310Y58420D02*
D03*
X379730Y11430D02*
D03*
M02*
