G04*
G04 #@! TF.GenerationSoftware,Altium Limited,Altium Designer,25.2.1 (25)*
G04*
G04 Layer_Color=16711935*
%FSLAX44Y44*%
%MOMM*%
G71*
G04*
G04 #@! TF.SameCoordinates,B8EFBEB0-C926-48BE-8793-122A16FBB591*
G04*
G04*
G04 #@! TF.FilePolarity,Negative*
G04*
G01*
G75*
%ADD41C,1.7272*%
%ADD42C,1.5500*%
%ADD43R,1.5500X1.5500*%
%ADD44C,1.8032*%
G04:AMPARAMS|DCode=45|XSize=1.8032mm|YSize=1.8032mm|CornerRadius=0.5016mm|HoleSize=0mm|Usage=FLASHONLY|Rotation=270.000|XOffset=0mm|YOffset=0mm|HoleType=Round|Shape=RoundedRectangle|*
%AMROUNDEDRECTD45*
21,1,1.8032,0.8000,0,0,270.0*
21,1,0.8000,1.8032,0,0,270.0*
1,1,1.0032,-0.4000,-0.4000*
1,1,1.0032,-0.4000,0.4000*
1,1,1.0032,0.4000,0.4000*
1,1,1.0032,0.4000,-0.4000*
%
%ADD45ROUNDEDRECTD45*%
%ADD46C,2.2098*%
%ADD47R,2.2098X2.2098*%
%ADD48R,1.5500X1.5500*%
%ADD49C,1.4732*%
%ADD50C,1.0922*%
%ADD51C,0.5000*%
D41*
X10160Y372110D02*
D03*
X551180Y10160D02*
D03*
X10160D02*
D03*
X551180Y372110D02*
D03*
D42*
X386080Y327660D02*
D03*
X411480D02*
D03*
X334010Y22860D02*
D03*
Y48260D02*
D03*
D43*
X436880Y327660D02*
D03*
D44*
X411480Y97790D02*
D03*
Y72390D02*
D03*
Y46990D02*
D03*
D45*
Y123190D02*
D03*
D46*
X100330Y186690D02*
D03*
X50330D02*
D03*
Y236690D02*
D03*
X100330Y44450D02*
D03*
X50330D02*
D03*
Y94450D02*
D03*
D47*
X100330Y236690D02*
D03*
Y94450D02*
D03*
D48*
X334010Y73660D02*
D03*
D49*
X300990Y20320D02*
D03*
X457200Y180340D02*
D03*
X486410Y152400D02*
D03*
X519430Y109220D02*
D03*
X535940Y248920D02*
D03*
X492760Y22860D02*
D03*
X494030Y86360D02*
D03*
X523240Y92710D02*
D03*
X533400Y34290D02*
D03*
X138430Y274320D02*
D03*
X438468Y104769D02*
D03*
X436880Y257810D02*
D03*
X421640Y265430D02*
D03*
X382270Y232410D02*
D03*
Y248920D02*
D03*
D50*
X194310Y58420D02*
D03*
X379730Y11430D02*
D03*
D51*
X511210Y52070D02*
D03*
X499710D02*
D03*
X505460Y42570D02*
D03*
Y61570D02*
D03*
M02*
